<svg xmlns="http://www.w3.org/2000/svg" width="103.811" height="153.144" viewBox="0 0 103.811 153.144">
  <g id="noun-vehicle-tracking-6951105" transform="translate(-16.789 -1.004)">
    <path id="Path_492" data-name="Path 492" d="M109.714,107.188l5.775-3.052a2.39,2.39,0,1,0-2.234-4.225l-8.309,4.39-7.5-21.576a2.4,2.4,0,0,0-2.259-1.606H42.2a2.387,2.387,0,0,0-2.259,1.606l-7.5,21.569L24.134,99.9A2.39,2.39,0,1,0,21.9,104.13l5.775,3.052a16.4,16.4,0,0,0-8.6,14.414v20.763a2.387,2.387,0,0,0,2.387,2.387h3.278v1.746a7.664,7.664,0,0,0,7.656,7.656H36a7.664,7.664,0,0,0,7.656-7.656v-1.746H93.737v1.746a7.664,7.664,0,0,0,7.656,7.656h3.6a7.664,7.664,0,0,0,7.656-7.656v-1.746h3.278a2.387,2.387,0,0,0,2.387-2.387V121.6a16.4,16.4,0,0,0-8.6-14.414ZM43.9,85.9h49.6l6.709,19.316H37.186Zm-5.024,60.6A2.916,2.916,0,0,1,36,149.38h-3.6a2.916,2.916,0,0,1-2.875-2.875v-1.746h9.347l.012,1.746Zm68.994,0a2.916,2.916,0,0,1-2.875,2.875l-3.6-.006a2.916,2.916,0,0,1-2.875-2.875v-1.746h9.347Zm5.672-6.526H23.86L23.854,121.6A11.617,11.617,0,0,1,35.459,110h66.477A11.617,11.617,0,0,1,113.542,121.6Zm-29.384-7.729a2.387,2.387,0,0,1-2.387,2.387H54.434a2.387,2.387,0,1,1,0-4.774l27.326-.006a2.4,2.4,0,0,1,2.393,2.393ZM39.842,129.41a2.393,2.393,0,0,1-3.23,1L28.8,126.291a2.391,2.391,0,1,1,2.228-4.231l7.808,4.121a2.387,2.387,0,0,1,1,3.23Zm69.042-6.349a2.387,2.387,0,0,1-1,3.23l-7.808,4.121a2.356,2.356,0,0,1-1.111.275,2.39,2.39,0,0,1-1.117-4.506l7.808-4.121a2.4,2.4,0,0,1,3.23,1ZM47.3,45.656c3.138,5.024,6.917,10.147,10.574,15.1,3.474,4.707,6.752,9.151,8.7,12.521a2.388,2.388,0,0,0,4.139,0c1.96-3.388,5.25-7.839,8.73-12.552C83.225,55.6,87.51,49.8,90.777,44.4c6.148-10.177,6.813-21.576,1.783-30.5C87.932,5.7,79.22,1,68.645,1,57.931,1,49.213,5.656,44.715,13.763a27.025,27.025,0,0,0-3.12,15.22,36.965,36.965,0,0,0,5.7,16.673ZM48.89,16.083c3.681-6.642,10.7-10.3,19.75-10.3,8.8,0,15.995,3.816,19.75,10.47,4.176,7.393,3.535,16.99-1.709,25.672C83.537,47.127,79.5,52.6,75.594,57.884c-2.552,3.455-5,6.77-6.954,9.7-1.948-2.924-4.383-6.227-6.923-9.67-3.6-4.878-7.326-9.927-10.366-14.792-5.7-9.127-6.648-19.488-2.46-27.04ZM68.64,42.835A15.122,15.122,0,1,0,53.518,27.713,15.138,15.138,0,0,0,68.64,42.835Zm0-25.458A10.342,10.342,0,1,1,58.3,27.719,10.354,10.354,0,0,1,68.64,17.377Zm42.045-8.248a2.392,2.392,0,1,1,3.938-2.717c3.852,5.574,5.977,12.955,5.977,20.788a36.8,36.8,0,0,1-5.977,20.775,2.387,2.387,0,0,1-1.972,1.032,2.389,2.389,0,0,1-1.966-3.748A31.971,31.971,0,0,0,115.813,27.2a31.994,31.994,0,0,0-5.128-18.07Zm-7.4,7.576a2.392,2.392,0,0,1,3.938-2.717,23.4,23.4,0,0,1,3.8,13.205,23.386,23.386,0,0,1-3.8,13.205,2.387,2.387,0,0,1-1.972,1.032,2.389,2.389,0,0,1-1.966-3.748,18.587,18.587,0,0,0,2.961-10.494,18.59,18.59,0,0,0-2.961-10.482Zm-80.52,31.27A36.8,36.8,0,0,1,16.789,27.2,36.837,36.837,0,0,1,22.766,6.412,2.392,2.392,0,1,1,26.7,9.129a31.992,31.992,0,0,0-5.128,18.065A31.973,31.973,0,0,0,26.7,45.254a2.392,2.392,0,0,1-.61,3.327,2.4,2.4,0,0,1-3.327-.6Zm3.6-20.775A23.472,23.472,0,0,1,30.165,14a2.393,2.393,0,0,1,3.944,2.711A18.659,18.659,0,0,0,31.148,27.2a18.66,18.66,0,0,0,2.961,10.494,2.4,2.4,0,0,1-.617,3.327,2.384,2.384,0,0,1-3.321-.617A23.429,23.429,0,0,1,26.362,27.2Z" fill="#00b26b"/>
  </g>
</svg>
