<svg xmlns="http://www.w3.org/2000/svg" width="67.273" height="69.511" viewBox="0 0 67.273 69.511">
  <g id="instant_directions" data-name="instant directions" transform="translate(-14.056 -21.035)">
    <g id="Path_395" data-name="Path 395" transform="translate(0)" fill="none">
      <path d="M31.287,29.654a8.615,8.615,0,1,0-11.569,8.094l3.12,7.852,3.186-8.013a8.625,8.625,0,0,0,5.267-7.933h0Z" stroke="none"/>
      <path d="M 22.67201805114746 24.03499984741211 C 19.57533836364746 24.03499984741211 17.05600738525391 26.55589294433594 17.05600738525391 29.65449142456055 C 17.05600738525391 32.00730133056641 18.53807830810547 34.12726974487305 20.74393844604492 34.92974853515625 L 22.00915718078613 35.39002990722656 L 22.83900833129883 37.47856903076172 L 23.69939804077148 35.31459045410156 L 24.85324668884277 34.82546997070312 C 26.87055778503418 33.9703254699707 28.19903755187988 32.0435676574707 28.28686714172363 29.87542724609375 L 28.28686714172363 29.65449142456055 C 28.28686714172363 26.55589294433594 25.76805686950684 24.03499984741211 22.67201805114746 24.03499984741211 M 22.67201805114746 21.03499984741211 C 27.43184661865234 21.03499984741211 31.28686714172363 24.89350128173828 31.28686714172363 29.65449142456055 L 31.29150772094727 29.65449142456055 C 31.28802871704102 33.22378158569336 29.1148567199707 36.27737045288086 26.02410697937012 37.58755111694336 L 22.83810806274414 45.60073852539062 L 19.71831703186035 37.74899291992188 C 16.41384696960449 36.54684066772461 14.05600738525391 33.37594223022461 14.05600738525391 29.65449142456055 C 14.05600738525391 24.89351272583008 17.91450691223145 21.03499984741211 22.67201805114746 21.03499984741211 Z" stroke="none" fill="#00b26b"/>
    </g>
    <path id="Path_396" data-name="Path 396" d="M23.57,44.306c2.559.134,4.446,1.289,4.958,2.818l50.356,6.433a2.182,2.182,0,0,1,2.064,1.352c.184.709-.311,1.466-1.235,1.948L57.581,67.983a4.4,4.4,0,0,1-1.848.415l-12.34.839,9,9.354c3.178.288,5.259,2.2,4.637,4.4-.639,2.27-3.918,3.956-7.3,3.782s-5.629-2.152-4.99-4.424a4.553,4.553,0,0,1,1.922-2.39l-11-11.438a1.357,1.357,0,0,1,.069-1.955,3.717,3.717,0,0,1,2.662-1.038l16.9-.877L71.3,56.619l-44.247-5.8a8.774,8.774,0,0,1-5.808,1.725c-3.387-.174-5.6-2.167-4.96-4.436s3.9-3.976,7.285-3.8m-1.425,1.318c-2.517.172-4.473,1.532-4.368,3.028S20,51.239,22.513,51.067s4.474-1.532,4.372-3.035S24.661,45.452,22.145,45.624Z" transform="translate(0.342 3.756)" fill="#00b26b"/>
  </g>
</svg>
