<svg xmlns="http://www.w3.org/2000/svg" width="72.016" height="79" viewBox="0 0 72.016 79">
  <g id="Find_near_by" data-name="Find near by" transform="translate(2 2)">
    <g id="Group_2" data-name="Group 2" transform="translate(0)">
      <g id="Path_16" data-name="Path 16" transform="translate(-10.844 -11.318)" fill="none">
        <path d="M13.984,30.864H75.719a2.142,2.142,0,0,0,0-4.266H13.984a2.142,2.142,0,0,0,0,4.266Z" stroke="none"/>
        <path d="M 75.71944427490234 30.86360359191895 C 76.78984832763672 30.86360359191895 77.66437530517578 29.90659332275391 77.66437530517578 28.73070335388184 C 77.66437530517578 27.55481338500977 76.79322052001953 26.59780311584473 75.71944427490234 26.59780311584473 L 13.98446750640869 26.59780311584473 C 12.91406726837158 26.59780311584473 12.04289722442627 27.55481338500977 12.04289722442627 28.73070335388184 C 12.04289722442627 29.90659332275391 12.91406726837158 30.86360359191895 13.98446750640869 30.86360359191895 L 75.71944427490234 30.86360359191895 M 75.71944427490234 32.86360168457031 L 13.98446750640869 32.86360168457031 C 11.81107807159424 32.86360168457031 10.04289722442627 31.00959396362305 10.04289722442627 28.73070335388184 C 10.04289722442627 26.45181274414062 11.81107807159424 24.59780311584473 13.98446750640869 24.59780311584473 L 75.71944427490234 24.59780311584473 C 77.89469146728516 24.59780311584473 79.66437530517578 26.45181274414062 79.66437530517578 28.73070335388184 C 79.66437530517578 31.00959396362305 77.89469146728516 32.86360168457031 75.71944427490234 32.86360168457031 Z" stroke="none" fill="#00b26b"/>
      </g>
      <g id="Path_17" data-name="Path 17" transform="translate(-13.134 -11.623)" fill="none">
        <path d="M65.356,34.08V32.648l-36.427,0v1.432a2.276,2.276,0,0,0,2.158,2.37H63.2a2.277,2.277,0,0,0,2.161-2.374Z" stroke="none"/>
        <path d="M 65.35640716552734 32.64820098876953 L 28.92899322509766 32.65190887451172 L 28.92899322509766 34.08370971679688 C 28.92899322509766 35.38941955566406 29.89810180664062 36.45401763916016 31.0866813659668 36.45401763916016 L 63.19545745849609 36.45401763916016 C 64.38739776611328 36.45401763916016 65.35650634765625 35.38941955566406 65.35650634765625 34.08002090454102 L 65.35640716552734 34.08000946044922 L 65.35640716552734 32.64820098876953 M 67.35640716552734 30.64799880981445 L 67.35650634765625 34.08002090454102 C 67.35650634765625 36.49184799194336 65.4898681640625 38.45401763916016 63.19545745849609 38.45401763916016 L 31.0866813659668 38.45401763916016 C 28.79412078857422 38.45401763916016 26.92899322509766 36.49351119995117 26.92899322509766 34.08370971679688 L 26.92899322509766 30.6521110534668 L 67.35640716552734 30.64799880981445 Z" stroke="none" fill="#00b26b"/>
      </g>
      <g id="Path_18" data-name="Path 18" transform="translate(-12.734 -13.505)" fill="none">
        <path d="M27.527,74.028a1.016,1.016,0,0,0,.966-1.061v-1.91A1.016,1.016,0,0,0,27.527,70h-.581a1.016,1.016,0,0,0-.966,1.061v1.91a1.016,1.016,0,0,0,.966,1.061Z" stroke="none"/>
        <path d="M 27.52742767333984 74.02800750732422 C 28.06093788146973 74.02800750732422 28.4931583404541 73.55323028564453 28.4931583404541 72.96711730957031 L 28.4931583404541 71.05680847167969 C 28.4931583404541 70.47072601318359 28.06094741821289 69.99588012695312 27.52742767333984 69.99588012695312 L 26.94664764404297 69.99588012695312 C 26.41312789916992 69.99588012695312 25.98091697692871 70.47068786621094 25.98091697692871 71.05680847167969 L 25.98091697692871 72.96711730957031 C 25.98091697692871 73.55323028564453 26.41312789916992 74.02800750732422 26.94664764404297 74.02800750732422 L 27.52742767333984 74.02800750732422 M 27.52742767333984 76.02800750732422 L 26.94664764404297 76.02800750732422 C 25.31133842468262 76.02800750732422 23.98091697692871 74.65489959716797 23.98091697692871 72.96711730957031 L 23.98091697692871 71.05680847167969 C 23.98091697692871 69.36901092529297 25.31133842468262 67.99588012695312 26.94664764404297 67.99588012695312 L 27.52742767333984 67.99588012695312 C 29.1627368927002 67.99588012695312 30.4931583404541 69.36901092529297 30.4931583404541 71.05680847167969 L 30.4931583404541 72.96711730957031 C 30.4931583404541 74.65489959716797 29.1627368927002 76.02800750732422 27.52742767333984 76.02800750732422 Z" stroke="none" fill="#00b26b"/>
      </g>
      <g id="Path_19" data-name="Path 19" transform="translate(-14.427 -10.507)" fill="none">
        <path d="M58.4,11.509a.96.96,0,0,0-.912-1H39.376a.96.96,0,0,0-.912,1V24.3H58.4l0-12.79Zm-7.979,6.269-1.577,2.971a.662.662,0,0,1-.584.367.63.63,0,0,1-.338-.1A.782.782,0,0,1,47.683,20l.983-1.855H47.028a.66.66,0,0,1-.584-.371.8.8,0,0,1,0-.742l1.577-2.971a.642.642,0,0,1,.922-.267.778.778,0,0,1,.243,1.013l-.983,1.855h1.638a.66.66,0,0,1,.584.371.81.81,0,0,1,0,.742Z" stroke="none"/>
        <path d="M 39.37630081176758 10.50729751586914 C 38.8731803894043 10.50729751586914 38.464599609375 10.95613861083984 38.464599609375 11.50884819030762 L 38.464599609375 24.29903793334961 L 58.40325927734375 24.29903793334961 L 58.39987945556641 11.50884819030762 L 58.40360260009766 11.50884819030762 C 58.40360260009766 10.95614814758301 57.99502182006836 10.50729751586914 57.49190139770508 10.50729751586914 L 39.37630081176758 10.50729751586914 M 48.26357269287109 21.11618804931641 C 48.14876174926758 21.11618804931641 48.03058242797852 21.08279800415039 47.92591094970703 21.01602745056152 C 47.60514068603516 20.80829811096191 47.49370193481445 20.35575866699219 47.68280029296875 20.00336837768555 L 48.66538238525391 18.14870834350586 L 47.02773284912109 18.14870834350586 C 46.78462219238281 18.14870834350586 46.56175994873047 18.00774765014648 46.44358062744141 17.77775764465332 C 46.322021484375 17.54777717590332 46.32540130615234 17.26586723327637 46.44696044921875 17.0358772277832 L 48.02382278442383 14.06466865539551 C 48.21291351318359 13.71228790283203 48.62482833862305 13.58986282348633 48.94563293457031 13.79759788513184 C 49.26979064941406 14.00531768798828 49.37784957885742 14.45785713195801 49.18875122070312 14.81025695800781 L 48.20618057250977 16.6649169921875 L 49.84381103515625 16.6649169921875 C 50.08694076538086 16.6649169921875 50.30978012084961 16.80587768554688 50.42798233032227 17.03585815429688 C 50.54616165161133 17.26583862304688 50.54616165161133 17.54774856567383 50.42459106445312 17.7777271270752 L 50.42460250854492 17.77773857116699 L 48.84774017333984 20.74895858764648 C 48.7227897644043 20.98635864257812 48.49655151367188 21.11618804931641 48.26357269287109 21.11618804931641 M 39.37630081176758 8.507297515869141 L 57.49190139770508 8.507297515869141 C 59.09741973876953 8.507297515869141 60.40360260009766 9.853788375854492 60.40360260009766 11.50884819030762 L 60.40360260009766 13.50884819030762 L 60.40040969848633 13.50884819030762 L 60.40378952026367 26.29903793334961 L 36.464599609375 26.29903793334961 L 36.464599609375 11.50884819030762 C 36.464599609375 9.853788375854492 37.77078247070312 8.507297515869141 39.37630081176758 8.507297515869141 Z" stroke="none" fill="#00b26b"/>
      </g>
      <g id="Path_20" data-name="Path 20" transform="translate(-13.847 -13.505)" fill="none">
        <path d="M34.191,70h1.148v6.859H34.191Z" stroke="none"/>
        <path d="M 34.19099807739258 69.99601745605469 L 34.19099807739258 76.85470581054688 L 35.33903884887695 76.85470581054688 L 35.33903884887695 69.99601745605469 L 34.19099807739258 69.99601745605469 M 32.19099807739258 67.99601745605469 L 37.33903884887695 67.99601745605469 L 37.33903884887695 78.85470581054688 L 32.19099807739258 78.85470581054688 L 32.19099807739258 67.99601745605469 Z" stroke="none" fill="#00b26b"/>
      </g>
      <g id="Path_21" data-name="Path 21" transform="translate(-18.853 -13.505)" fill="none">
        <path d="M72.656,74.028a1.016,1.016,0,0,0,.966-1.061v-1.91A1.017,1.017,0,0,0,72.656,70h-.577a1.016,1.016,0,0,0-.966,1.061v1.91a1.016,1.016,0,0,0,.966,1.061Z" stroke="none"/>
        <path d="M 72.65596008300781 74.02800750732422 C 73.18946075439453 74.02800750732422 73.62171173095703 73.55323028564453 73.62171173095703 72.96711730957031 L 73.62171173095703 71.05680847167969 C 73.62171173095703 70.47072601318359 73.18949127197266 69.99588012695312 72.65596008300781 69.99588012695312 L 72.07855987548828 69.99588012695312 C 71.54505157470703 69.99588012695312 71.11283874511719 70.47068786621094 71.11283874511719 71.05680847167969 L 71.11283874511719 72.96711730957031 C 71.11283874511719 73.55323028564453 71.54503631591797 74.02800750732422 72.07855987548828 74.02800750732422 L 72.65596008300781 74.02800750732422 M 72.65596008300781 76.02800750732422 L 72.07855987548828 76.02800750732422 C 70.44326019287109 76.02800750732422 69.11283874511719 74.65489959716797 69.11283874511719 72.96711730957031 L 69.11283874511719 71.05680847167969 C 69.11283874511719 69.36901092529297 70.44326019287109 67.99588012695312 72.07855987548828 67.99588012695312 L 72.65596008300781 67.99588012695312 C 74.29128265380859 67.99588012695312 75.62171173095703 69.36901092529297 75.62171173095703 71.05680847167969 L 75.62171173095703 72.96711730957031 C 75.62171173095703 74.65489959716797 74.29128265380859 76.02800750732422 72.65596008300781 76.02800750732422 Z" stroke="none" fill="#00b26b"/>
      </g>
      <g id="Path_22" data-name="Path 22" transform="translate(-10.656 -14.261)" fill="none">
        <path d="M77.067,84.984H12.25a1.687,1.687,0,0,0-1.594,1.762v2.515H78.672V86.746a1.688,1.688,0,0,0-1.6-1.762Z" stroke="none"/>
        <path d="M 12.25001525878906 84.98400115966797 C 11.37211608886719 84.98400115966797 10.65620422363281 85.77408599853516 10.65620422363281 86.74598693847656 L 10.65620422363281 89.26093292236328 L 78.67201232910156 89.26093292236328 L 78.67201232910156 86.74598693847656 C 78.67539978027344 85.774169921875 77.95278930664062 84.98400115966797 77.06809997558594 84.98400115966797 L 12.25001525878906 84.98400115966797 M 12.25001525878906 82.98400115966797 L 77.06748962402344 82.98400115966797 C 78.005126953125 82.98400115966797 78.89284515380859 83.35697937011719 79.5677490234375 84.03424835205078 C 80.27212524414062 84.74107360839844 80.67447662353516 85.73030090332031 80.67201232910156 86.74885559082031 L 80.67201232910156 91.26093292236328 L 8.656204223632812 91.26093292236328 L 8.656204223632812 86.74598693847656 C 8.656204223632812 84.67162322998047 10.26837921142578 82.98400115966797 12.25001525878906 82.98400115966797 Z" stroke="none" fill="#00b26b"/>
      </g>
      <g id="Path_23" data-name="Path 23" transform="translate(-18.634 -12.758)" fill="none">
        <path d="M80.281,55.172H69.939a.464.464,0,0,0-.442.482v7.307a.467.467,0,0,0,.442.486H80.285a.467.467,0,0,0,.442-.486V55.654a.471.471,0,0,0-.446-.482ZM77.1,59.683l-1.577,2.971a.662.662,0,0,1-.584.367.63.63,0,0,1-.338-.1.782.782,0,0,1-.243-1.013l.983-1.855H73.7a.66.66,0,0,1-.584-.371.8.8,0,0,1,0-.742L74.7,55.97a.641.641,0,0,1,.922-.267.778.778,0,0,1,.243,1.013l-.983,1.855H76.52a.66.66,0,0,1,.584.371A.81.81,0,0,1,77.1,59.683Z" stroke="none"/>
        <path d="M 69.93860626220703 55.17200088500977 C 69.69551086425781 55.17200088500977 69.49626159667969 55.38714981079102 69.49626159667969 55.65420913696289 L 69.49626159667969 62.96170043945312 C 69.49626159667969 63.2287712097168 69.69551086425781 63.4476203918457 69.93860626220703 63.4476203918457 L 80.28481292724609 63.4476203918457 C 80.52793884277344 63.4476203918457 80.72715759277344 63.2287712097168 80.72715759277344 62.96170043945312 L 80.72715759277344 55.65420913696289 C 80.72377014160156 55.39085006713867 80.52456665039062 55.17200088500977 80.28145599365234 55.17200088500977 L 69.93860626220703 55.17200088500977 M 74.93952941894531 63.02104949951172 C 74.82473754882812 63.02104949951172 74.70654296875 62.9876823425293 74.60188293457031 62.92090225219727 C 74.28111267089844 62.71316909790039 74.16966247558594 62.2606315612793 74.35877227783203 61.90824127197266 L 75.34136962890625 60.05356979370117 L 73.70372009277344 60.05356979370117 C 73.46058654785156 60.05356979370117 73.23774719238281 59.91262054443359 73.11956787109375 59.68265151977539 C 72.99801635742188 59.45265960693359 73.00138854980469 59.17074966430664 73.12296295166016 58.94076919555664 L 74.69980621337891 55.96957015991211 C 74.88552856445312 55.61717224121094 75.30084991455078 55.49477005004883 75.62161254882812 55.70249176025391 C 75.94577026367188 55.91020965576172 76.05381774902344 56.36275100708008 75.86474609375 56.71514892578125 L 74.88215637207031 58.56982040405273 L 76.51979064941406 58.56982040405273 C 76.76290893554688 58.56982040405273 76.98577880859375 58.71078109741211 77.10394287109375 58.94073104858398 C 77.22215270996094 59.17071914672852 77.22215270996094 59.45634078979492 77.10057067871094 59.68262100219727 L 75.52371215820312 62.6538200378418 C 75.39877319335938 62.89123153686523 75.17254638671875 63.02104949951172 74.93952941894531 63.02104949951172 M 69.93860626220703 53.1719970703125 L 80.2813720703125 53.1719970703125 C 81.61245727539062 53.1719970703125 82.70955657958984 54.27397155761719 82.72698974609375 55.62847137451172 L 82.72715759277344 55.65420913696289 L 82.72715759277344 62.96170043945312 C 82.72715759277344 64.33244323730469 81.63153076171875 65.44761657714844 80.28481292724609 65.44761657714844 L 69.93860626220703 65.44761657714844 C 68.59188842773438 65.44761657714844 67.49626159667969 64.33244323730469 67.49626159667969 62.96170043945312 L 67.49626159667969 55.65420913696289 C 67.49626159667969 54.28550720214844 68.59188842773438 53.1719970703125 69.93860626220703 53.1719970703125 Z" stroke="none" fill="#00b26b"/>
      </g>
      <g id="Path_24" data-name="Path 24" transform="translate(-18.061 -12.454)" fill="none">
        <path d="M83.8,50.922a1.707,1.707,0,0,0-1.621-1.781H66.9a1.707,1.707,0,0,0-1.621,1.781V76.549a.846.846,0,0,0,.807.883h3.046A1.867,1.867,0,0,0,70.9,75.488V74.42a2.485,2.485,0,0,1-1.931-2.5v-1.91a2.443,2.443,0,0,1,2.316-2.545h.577a2.443,2.443,0,0,1,2.316,2.545v1.91a2.488,2.488,0,0,1-1.931,2.5v1.068a3.289,3.289,0,0,1-3.123,3.427H66.08a1.982,1.982,0,0,1-.807-.174V81.7H83.794L83.8,50.921ZM81.5,76.546a.713.713,0,0,1-.675.742h-2.5a.713.713,0,0,1-.675-.742V68.2a.713.713,0,0,1,.675-.742h2.5a.713.713,0,0,1,.675.742Zm0-13.884a1.889,1.889,0,0,1-1.793,1.97H69.366a1.889,1.889,0,0,1-1.793-1.97V55.354a1.888,1.888,0,0,1,1.793-1.966H79.712A1.888,1.888,0,0,1,81.5,55.354Z" stroke="none"/>
        <path d="M 66.89725494384766 49.1409912109375 C 66.00240325927734 49.1409912109375 65.27647399902344 49.93852233886719 65.27647399902344 50.9215087890625 L 65.27647399902344 76.54939270019531 C 65.27647399902344 77.03900146484375 65.63776397705078 77.43222045898438 66.08349609375 77.43222045898438 L 69.12917327880859 77.43222045898438 C 70.10499572753906 77.43222045898438 70.90191650390625 76.56051635742188 70.90191650390625 75.48846435546875 L 70.90191650390625 74.42018127441406 C 69.80790710449219 74.21614074707031 68.97046661376953 73.17752075195312 68.97046661376953 71.91635131835938 L 68.97046661376953 70.00602722167969 C 68.97046661376953 68.60383605957031 70.01045989990234 67.46138000488281 71.28684997558594 67.46138000488281 L 71.86425018310547 67.46138000488281 C 73.14064788818359 67.46138000488281 74.18061828613281 68.60383605957031 74.18061828613281 70.00602722167969 L 74.18061828613281 71.91635131835938 C 74.18061828613281 73.17381286621094 73.34322357177734 74.21620178222656 72.24918365478516 74.42018127441406 L 72.24918365478516 75.48846435546875 C 72.24918365478516 77.38026428222656 70.84787750244141 78.91595458984375 69.12579345703125 78.91595458984375 L 66.08008575439453 78.91595458984375 C 65.79645538330078 78.91595458984375 65.52295684814453 78.8529052734375 65.27306365966797 78.74162292480469 L 65.27306365966797 81.69801330566406 L 83.79407501220703 81.69801330566406 L 83.80084991455078 50.92140197753906 L 83.79749298095703 50.9215087890625 C 83.79749298095703 49.93849182128906 83.07151794433594 49.1409912109375 82.17667388916016 49.1409912109375 L 66.89725494384766 49.1409912109375 M 79.70841979980469 64.631103515625 L 69.36567687988281 64.631103515625 C 68.37635803222656 64.631103515625 67.57270812988281 63.74826049804688 67.57270812988281 62.66142272949219 L 67.57270812988281 55.35397338867188 C 67.57270812988281 54.27084350585938 68.37635040283203 53.38800048828125 69.36567687988281 53.38800048828125 L 79.71187591552734 53.38800048828125 C 80.70121002197266 53.38800048828125 81.50489044189453 54.27084350585938 81.50489044189453 55.35397338867188 L 81.50141906738281 62.66142272949219 C 81.50141906738281 63.74826049804688 80.69777679443359 64.631103515625 79.70841979980469 64.631103515625 M 80.82609558105469 77.28744506835938 L 78.32740783691406 77.28744506835938 C 77.95596313476562 77.28744506835938 77.65207672119141 76.95361328125 77.65207672119141 76.54557800292969 L 77.65207672119141 68.203125 C 77.65207672119141 67.79508972167969 77.95596313476562 67.46125793457031 78.32740783691406 67.46125793457031 L 80.82609558105469 67.46125793457031 C 81.197509765625 67.46125793457031 81.50141906738281 67.79508972167969 81.50141906738281 68.203125 L 81.50141906738281 76.54557800292969 C 81.50141906738281 76.95361328125 81.197509765625 77.28744506835938 80.82609558105469 77.28744506835938 M 66.89725494384766 47.1409912109375 L 82.17667388916016 47.1409912109375 C 83.45095062255859 47.1409912109375 84.57365417480469 47.83193969726562 85.21913146972656 48.87375640869141 L 85.79794311523438 48.85475158691406 L 85.80084228515625 50.92184448242188 L 85.79364013671875 83.69801330566406 L 63.27306365966797 83.69801330566406 L 63.27306365966797 75.66164398193359 L 63.27647399902344 75.66316223144531 L 63.27647399902344 50.9215087890625 C 63.27647399902344 48.83692169189453 64.9007568359375 47.1409912109375 66.89725494384766 47.1409912109375 Z M 79.50486755371094 55.38800048828125 L 69.57270812988281 55.38800048828125 L 69.57270812988281 62.631103515625 L 79.50143432617188 62.631103515625 L 79.50486755371094 55.38800048828125 Z M 71.57550048828125 72.51132202148438 L 71.88260650634766 72.45406341552734 C 72.00440979003906 72.43135070800781 72.18061828613281 72.226806640625 72.18061828613281 71.91635131835938 L 72.18061828613281 70.00602722167969 C 72.18061828613281 69.66816711425781 71.97578430175781 69.46138000488281 71.86425018310547 69.46138000488281 L 71.28684997558594 69.46138000488281 C 71.17530822753906 69.46138000488281 70.97046661376953 69.66816711425781 70.97046661376953 70.00602722167969 L 70.97046661376953 71.91635131835938 C 70.97046661376953 72.22679138183594 71.14675903320312 72.43136596679688 71.26860809326172 72.45408630371094 L 71.57550048828125 72.51132202148438 Z" stroke="none" fill="#00b26b"/>
      </g>
      <g id="Path_25" data-name="Path 25" transform="translate(-20.215 -13.505)" fill="none">
        <path d="M81.156,70H82.3v6.859H81.156Z" stroke="none"/>
        <path d="M 81.156005859375 69.99601745605469 L 81.156005859375 76.85470581054688 L 82.30404663085938 76.85470581054688 L 82.30404663085938 69.99601745605469 L 81.156005859375 69.99601745605469 M 79.156005859375 67.99601745605469 L 84.30404663085938 67.99601745605469 L 84.30404663085938 78.85470581054688 L 79.156005859375 78.85470581054688 L 79.156005859375 67.99601745605469 Z" stroke="none" fill="#00b26b"/>
      </g>
      <g id="Path_26" data-name="Path 26" transform="translate(-15.686 -11.904)" fill="none">
        <path d="M47.754,38.219h3.883V81.148H47.754Z" stroke="none"/>
        <path d="M 47.75400161743164 38.218994140625 L 47.75400161743164 81.14767456054688 L 51.63714218139648 81.14767456054688 L 51.63714218139648 38.218994140625 L 47.75400161743164 38.218994140625 M 45.75400161743164 36.218994140625 L 53.63714218139648 36.218994140625 L 53.63714218139648 83.14767456054688 L 45.75400161743164 83.14767456054688 L 45.75400161743164 36.218994140625 Z" stroke="none" fill="#00b26b"/>
      </g>
      <g id="Path_27" data-name="Path 27" transform="translate(-12.266 -12.758)" fill="none">
        <path d="M33.756,62.965V55.658a.461.461,0,0,0-.439-.482l-10.346,0a.461.461,0,0,0-.439.482v7.307a.465.465,0,0,0,.439.486l10.346,0A.467.467,0,0,0,33.756,62.965Zm-3.62-3.283-1.577,2.971a.662.662,0,0,1-.584.367.63.63,0,0,1-.338-.1.782.782,0,0,1-.243-1.013l.983-1.855H26.739a.66.66,0,0,1-.584-.371.8.8,0,0,1,0-.742l1.577-2.971a.641.641,0,0,1,.922-.267.778.778,0,0,1,.243,1.013l-.983,1.855h1.638a.66.66,0,0,1,.584.371A.81.81,0,0,1,30.136,59.683Z" stroke="none"/>
        <path d="M 33.31655502319336 63.45131301879883 C 33.55967712402344 63.44760131835938 33.75551605224609 63.23245239257812 33.75551605224609 62.96539306640625 L 33.75551605224609 55.65791320800781 C 33.75551605224609 55.39083480834961 33.55967712402344 55.17570495605469 33.31655502319336 55.17570495605469 L 22.9703369140625 55.17199325561523 C 22.72721672058105 55.17199325561523 22.53137588500977 55.38712310791016 22.53137588500977 55.65421295166016 L 22.53137588500977 62.96166229248047 C 22.53137588500977 63.22875213623047 22.72721672058105 63.44760131835938 22.9703369140625 63.44760131835938 L 33.31655502319336 63.45131301879883 M 28.31870079040527 55.60109329223633 C 28.4339427947998 55.60109329223633 28.5505428314209 55.6336669921875 28.65681648254395 55.70248413085938 C 28.98096656799316 55.91020202636719 29.08902549743652 56.36275482177734 28.89993667602539 56.71513366699219 L 27.91734504699707 58.56979370117188 L 29.55498504638672 58.56979370117188 C 29.79811668395996 58.56979370117188 30.02095603942871 58.71076202392578 30.13913536071777 58.94074249267578 C 30.25731658935547 59.17072296142578 30.2573356628418 59.45635223388672 30.13576507568359 59.68260192871094 L 28.55888557434082 62.65382385253906 C 28.43395614624023 62.8912239074707 28.20772552490234 63.02105331420898 27.97473526000977 63.02105331420898 C 27.85993576049805 63.02105331420898 27.74174690246582 62.98766326904297 27.63708686828613 62.92091369628906 C 27.3162956237793 62.71317291259766 27.20486640930176 62.26062393188477 27.39395523071289 61.90824127197266 L 28.37654685974121 60.05358123779297 L 26.73890686035156 60.05358123779297 C 26.49578666687012 60.05358123779297 26.27292633056641 59.91262435913086 26.15474510192871 59.68263244628906 C 26.03319549560547 59.45265197753906 26.03656578063965 59.17074203491211 26.15812683105469 58.94077301025391 L 27.7349967956543 55.96955490112305 C 27.85918045043945 55.73391723632812 28.08609390258789 55.60109329223633 28.31870079040527 55.60109329223633 M 33.33145523071289 65.45132446289062 L 22.9696159362793 65.44760131835938 C 21.62548637390137 65.44760131835938 20.53137588500977 64.33241271972656 20.53137588500977 62.96166229248047 L 20.53137588500977 55.65421295166016 C 20.53137588500977 54.28551483154297 21.62548637390137 53.17199325561523 22.9703369140625 53.17199325561523 L 33.31727600097656 53.17570495605469 C 34.66140747070312 53.17570495605469 35.75551605224609 54.28921127319336 35.75551605224609 55.65791320800781 L 35.75551605224609 62.96539306640625 C 35.75551605224609 64.31574249267578 34.67509460449219 65.43081665039062 33.34707641601562 65.45108032226562 L 33.33145523071289 65.45132446289062 Z" stroke="none" fill="#00b26b"/>
      </g>
      <g id="Path_28" data-name="Path 28" transform="translate(-11.694 -12.454)" fill="none">
        <path d="M22.162,78.916H19.116a1.982,1.982,0,0,1-.807-.174V81.7H36.83l0-30.777a1.707,1.707,0,0,0-1.621-1.781H19.933a1.707,1.707,0,0,0-1.621,1.781V76.549a.846.846,0,0,0,.807.883h3.046a1.867,1.867,0,0,0,1.773-1.944l0-1.769a.766.766,0,0,1,.084-.341,2.7,2.7,0,0,1-.429-1.465V70a2.443,2.443,0,0,1,2.316-2.545h.581A2.443,2.443,0,0,1,28.8,70v1.91a2.443,2.443,0,0,1-2.316,2.545h-.581a2.168,2.168,0,0,1-.621-.1v1.131a3.292,3.292,0,0,1-3.123,3.431Zm12.372-2.37a.713.713,0,0,1-.675.742h-2.5a.713.713,0,0,1-.675-.742l0-8.342a.713.713,0,0,1,.675-.742h2.5a.713.713,0,0,1,.675.742ZM22.4,64.627a1.888,1.888,0,0,1-1.79-1.97V55.35a1.887,1.887,0,0,1,1.79-1.966H32.744a1.887,1.887,0,0,1,1.79,1.966v7.307a1.888,1.888,0,0,1-1.79,1.97Z" stroke="none"/>
        <path d="M 36.83001327514648 81.69780731201172 L 36.83340454101562 50.92120742797852 C 36.83340454101562 49.93818664550781 36.10742568969727 49.14070892333984 35.21261596679688 49.14070892333984 L 19.93317604064941 49.14070892333984 C 19.0383243560791 49.14070892333984 18.31238555908203 49.93822860717773 18.31238555908203 50.92120742797852 L 18.31238555908203 76.54908752441406 C 18.31238555908203 77.03871154785156 18.6736946105957 77.43190002441406 19.11939430236816 77.43190002441406 L 22.16509437561035 77.43190002441406 C 23.14092445373535 77.43190002441406 23.93783569335938 76.56021118164062 23.93783569335938 75.48816680908203 L 23.93445587158203 73.71878814697266 C 23.93445587158203 73.5926513671875 23.96822547912598 73.48139190673828 24.01887512207031 73.37749481201172 C 23.75212478637695 72.96208190917969 23.59004592895508 72.46128845214844 23.59004592895508 71.91227722167969 L 23.59004592895508 70.00196075439453 C 23.59004592895508 68.59977722167969 24.63002586364746 67.45730590820312 25.90642547607422 67.45730590820312 L 26.48721504211426 67.45730590820312 C 27.76360511779785 67.45730590820312 28.8035945892334 68.59977722167969 28.8035945892334 70.00196075439453 L 28.8035945892334 71.91227722167969 C 28.8035945892334 73.31446838378906 27.76360511779785 74.45692443847656 26.48721504211426 74.45692443847656 L 25.90643501281738 74.45692443847656 C 25.6903247833252 74.45692443847656 25.48435592651367 74.41241455078125 25.28512573242188 74.35305786132812 L 25.28512573242188 75.48442077636719 C 25.28512573242188 77.376220703125 23.88381576538086 78.91561126708984 22.1617259979248 78.91561126708984 L 22.16171455383301 78.915771484375 L 19.11602592468262 78.915771484375 C 18.8323860168457 78.915771484375 18.55887603759766 78.85269165039062 18.30901527404785 78.74142456054688 L 18.30901527404785 81.69780731201172 L 36.83001327514648 81.69780731201172 M 31.36262512207031 67.46115112304688 L 33.86130523681641 67.46115112304688 C 34.23273468017578 67.46115112304688 34.53663635253906 67.79497528076172 34.53663635253906 68.20301818847656 L 34.53326416015625 76.54547119140625 C 34.53326416015625 76.9534912109375 34.22936630249023 77.28734588623047 33.85792541503906 77.28734588623047 L 31.35925483703613 77.28734588623047 C 30.98781585693359 77.28734588623047 30.68391609191895 76.9534912109375 30.68391609191895 76.54547119140625 L 30.68729591369629 68.20301818847656 C 30.68729591369629 67.79497528076172 30.99119567871094 67.46115112304688 31.36262512207031 67.46115112304688 M 22.39769554138184 53.38390731811523 L 32.74390411376953 53.38390731811523 C 33.72986602783203 53.38390731811523 34.53351593017578 54.26674652099609 34.53351593017578 55.34985733032227 L 34.53351593017578 62.6573371887207 C 34.53351593017578 63.74416732788086 33.72987365722656 64.62699127197266 32.74390411376953 64.62699127197266 L 22.39769554138184 64.62699127197266 C 21.41174507141113 64.62699127197266 20.60809516906738 63.74416732788086 20.60809516906738 62.6573371887207 L 20.60809516906738 55.34985733032227 C 20.60809516906738 54.26674652099609 21.41173553466797 53.38390731811523 22.39769554138184 53.38390731811523 M 38.82979583740234 83.69780731201172 L 16.30901527404785 83.69780731201172 L 16.30901527404785 75.66152954101562 L 16.31238555908203 75.66303253173828 L 16.31238555908203 50.92120742797852 C 16.31238555908203 48.83663940429688 17.93666458129883 47.14070892333984 19.93317604064941 47.14070892333984 L 35.21261596679688 47.14070892333984 C 37.20912551879883 47.14070892333984 38.83340454101562 48.83663940429688 38.83340454101562 50.92120742797852 L 38.82979583740234 83.69780731201172 Z M 25.93377876281738 72.45692443847656 L 26.48721504211426 72.45692443847656 C 26.5987548828125 72.45692443847656 26.8035945892334 72.25014495849609 26.8035945892334 71.91227722167969 L 26.8035945892334 70.00196075439453 C 26.8035945892334 69.66408538818359 26.5987548828125 69.45730590820312 26.48721504211426 69.45730590820312 L 25.90642547607422 69.45730590820312 C 25.79488563537598 69.45730590820312 25.59004592895508 69.66408538818359 25.59004592895508 70.00196075439453 L 25.59004592895508 71.91227722167969 C 25.59004592895508 72.05198669433594 25.62764549255371 72.18138122558594 25.70179557800293 72.29685974121094 L 25.77600860595703 72.41243743896484 L 25.85620498657227 72.43632507324219 C 25.89657020568848 72.44835662841797 25.92111587524414 72.4542236328125 25.93377876281738 72.45692443847656 Z M 22.60809516906738 62.62698745727539 L 32.53351593017578 62.62698745727539 L 32.53351593017578 55.38390731811523 L 22.60809516906738 55.38390731811523 L 22.60809516906738 62.62698745727539 Z" stroke="none" fill="#00b26b"/>
      </g>
      <g id="Path_29" data-name="Path 29" transform="translate(-17.17 -12.7)" fill="none">
        <path d="M62.032,56.723l1-.846v-1.87l-1.827,1.539a7.356,7.356,0,0,0-2.509,5.59v2.645a3.607,3.607,0,0,0,.415,1.688,2.623,2.623,0,0,1,0,2.422A3.623,3.623,0,0,0,58.7,69.58v3.138a3.221,3.221,0,0,0,3.059,3.357h.621a.69.69,0,0,1,.655.72V74.721a1.85,1.85,0,0,0-.655-.13h-.621a1.8,1.8,0,0,1-1.709-1.873V69.58a2.053,2.053,0,0,1,.23-.942,4.231,4.231,0,0,0,0-3.91,2.012,2.012,0,0,1-.23-.942V61.141a5.785,5.785,0,0,1,1.979-4.418Z" stroke="none"/>
        <path d="M 63.03517532348633 54.00757598876953 L 61.20840454101562 55.54698181152344 C 59.63828659057617 56.87120819091797 58.69960784912109 58.95964813232422 58.69960784912109 61.13700866699219 L 58.69960784912109 63.78182220458984 C 58.69960784912109 64.37162780761719 58.84142684936523 64.95401763916016 59.11492538452148 65.46955871582031 C 59.50999450683594 66.21513366699219 59.50999450683594 67.14247131347656 59.11492538452148 67.89179992675781 C 58.84480667114258 68.40369415283203 58.70298767089844 68.98600769042969 58.70298767089844 69.57952880859375 L 58.70298767089844 72.71766662597656 C 58.70298767089844 74.56864929199219 60.07385635375977 76.07472229003906 61.76225662231445 76.07472229003906 L 62.38353729248047 76.07472229003906 C 62.74484634399414 76.07472229003906 63.03860473632812 76.39744567871094 63.03860473632812 76.79433441162109 L 63.03860473632812 74.72077941894531 C 62.83263778686523 74.64289855957031 62.61315536499023 74.59095764160156 62.38353729248047 74.59095764160156 L 61.76225662231445 74.59095764160156 C 60.82020568847656 74.59095764160156 60.05363464355469 73.74891662597656 60.05363464355469 72.71766662597656 L 60.05363464355469 69.57952880859375 C 60.05363464355469 69.24937438964844 60.13467788696289 68.92295837402344 60.28323745727539 68.6373291015625 C 60.92142486572266 67.43180847167969 60.92142486572266 65.93315887451172 60.28323745727539 64.72763824462891 C 60.13129806518555 64.44200897216797 60.05363464355469 64.11558532714844 60.05363464355469 63.78544616699219 L 60.05363464355469 61.14060211181641 C 60.05026626586914 59.41575622558594 60.78974533081055 57.76876831054688 62.03237533569336 56.7227783203125 L 62.03227615356445 56.72290802001953 L 63.03517532348633 55.87715148925781 L 63.03517532348633 54.00757598876953 M 65.03517150878906 49.70674896240234 L 65.03517150878906 56.80677795410156 L 63.32161712646484 58.25182342529297 L 63.31057357788086 58.24127197265625 L 63.32033538818359 58.25286865234375 C 62.52494812011719 58.92238616943359 62.05141448974609 60.00045776367188 62.05363464355469 61.13669586181641 L 62.05363464355469 63.78544616699219 C 62.05363464355469 63.79153442382812 62.05414962768555 63.796142578125 62.05461120605469 63.799072265625 C 62.99248123168945 65.57955932617188 62.99281311035156 67.78341674804688 62.057373046875 69.5606689453125 C 62.05584716796875 69.56431579589844 62.05363464355469 69.57308959960938 62.05363464355469 69.57952880859375 L 62.05363464355469 72.59095764160156 L 62.38353729248047 72.59095764160156 C 62.83290481567383 72.59095764160156 63.29128646850586 72.67812347412109 63.74595642089844 72.85003662109375 L 65.03860473632812 73.33880615234375 L 65.03860473632812 76.79433441162109 L 61.03860473632812 76.79433441162109 C 61.03860473632812 77.50034332275391 61.64193725585938 78.07472229003906 62.38353729248047 78.07472229003906 L 61.76225662231445 78.07472229003906 C 58.97256469726562 78.07472229003906 56.70298767089844 75.67155456542969 56.70298767089844 72.71766662597656 L 56.70298767089844 69.57952880859375 C 56.70298767089844 68.66207885742188 56.92536926269531 67.75571441650391 57.34608459472656 66.95841979980469 C 57.43238830566406 66.79472351074219 57.43317413330078 66.56730651855469 57.34769439697266 66.40598297119141 C 56.92386627197266 65.60708618164062 56.69960784912109 64.69936370849609 56.69960784912109 63.78182220458984 L 56.69960784912109 61.13700866699219 C 56.69960784912109 58.37955474853516 57.90311813354492 55.71829223632812 59.91898727416992 54.01812744140625 L 65.03517150878906 49.70674896240234 Z" stroke="none" fill="#00b26b"/>
      </g>
      <g id="Path_30" data-name="Path 30" transform="translate(-10.802 -12.7)" fill="none">
        <path d="M14.79,76.075h.621a.69.69,0,0,1,.655.72V74.721a1.85,1.85,0,0,0-.655-.13H14.79a1.8,1.8,0,0,1-1.709-1.873V69.58a2.053,2.053,0,0,1,.23-.942,4.231,4.231,0,0,0,0-3.91,2.011,2.011,0,0,1-.23-.942V61.141a5.79,5.79,0,0,1,1.982-4.41l1-.846v-1.87L14.24,55.555a7.356,7.356,0,0,0-2.509,5.59V63.79a3.645,3.645,0,0,0,.412,1.688,2.623,2.623,0,0,1,0,2.422,3.623,3.623,0,0,0-.412,1.688v3.138a3.224,3.224,0,0,0,3.059,3.35Z" stroke="none"/>
        <path d="M 16.06653785705566 76.79484558105469 L 16.06653785705566 74.72130584716797 C 15.86056709289551 74.64338684082031 15.64107704162598 74.59147644042969 15.41147708892822 74.59147644042969 L 14.79017734527588 74.59147644042969 C 13.8481273651123 74.59147644042969 13.08156776428223 73.74943542480469 13.08156776428223 72.71818542480469 L 13.08156776428223 69.58003234863281 C 13.08156776428223 69.24989318847656 13.16260719299316 68.9234619140625 13.31117725372314 68.63784027099609 C 13.94935703277588 67.43231964111328 13.94935703277588 65.93367004394531 13.31117725372314 64.7281494140625 C 13.15922737121582 64.44253540039062 13.08156776428223 64.11610412597656 13.08156776428223 63.78596496582031 L 13.08156776428223 61.14113235473633 C 13.08156776428223 59.42368316650391 13.82105731964111 57.77298355102539 15.06367778778076 56.730712890625 L 16.06657791137695 55.88496398925781 L 16.06657791137695 54.01538467407227 L 14.23980712890625 55.55480194091797 C 12.66966724395752 56.87901306152344 11.73099708557129 58.96747207641602 11.73099708557129 61.14481353759766 L 11.73099708557129 63.78964233398438 C 11.73099708557129 64.37942504882812 11.87281703948975 64.96182250976562 12.14294719696045 65.47737121582031 C 12.53801727294922 66.22294616699219 12.53801727294922 67.15028381347656 12.14294719696045 67.89958953857422 C 11.87281703948975 68.41150665283203 11.73099708557129 68.99383544921875 11.73099708557129 69.58732604980469 L 11.73099708557129 72.72549438476562 C 11.73099708557129 74.56535339355469 13.10524749755859 76.07501983642578 14.79025745391846 76.07501983642578 L 14.79017734527588 76.07522583007812 L 15.41146755218506 76.07522583007812 C 15.77277755737305 76.07522583007812 16.06653785705566 76.39795684814453 16.06653785705566 76.79484558105469 M 15.41146755218506 78.07522583007812 L 11.83610725402832 78.07522583007812 L 12.15102005004883 77.28794860839844 C 10.70053291320801 76.34633636474609 9.730997085571289 74.65333557128906 9.730997085571289 72.72549438476562 L 9.730997085571289 69.58732604980469 C 9.730997085571289 68.66987609863281 9.953387260437012 67.76350402832031 10.37411785125732 66.96619415283203 C 10.46040725708008 66.80253601074219 10.46119785308838 66.57512664794922 10.37571716308594 66.41381072998047 L 10.37139797210693 66.40560150146484 C 9.952447891235352 65.60602569580078 9.730997085571289 64.70143127441406 9.730997085571289 63.78964233398438 L 9.730997085571289 61.14481353759766 C 9.730997085571289 58.38734436035156 10.9345178604126 55.72607421875 12.95040702819824 54.02593231201172 L 18.06657791137695 49.71453475952148 L 18.06657791137695 56.81458282470703 L 16.34895706176758 58.26305389404297 C 15.56719779968262 58.91876220703125 15.08156776428223 60.02157211303711 15.08156776428223 61.14113235473633 L 15.08156776428223 63.78596496582031 C 15.08156776428223 63.79203796386719 15.0820779800415 63.79664611816406 15.08253955841064 63.7995719909668 C 16.02043724060059 65.58012390136719 16.02070617675781 67.78400421142578 15.08528614044189 69.56124114990234 C 15.08378124237061 69.56482696533203 15.08156776428223 69.57361602783203 15.08156776428223 69.58003234863281 L 15.08156776428223 72.59147644042969 L 15.41147708892822 72.59147644042969 C 15.86105728149414 72.59147644042969 16.31954765319824 72.67868041992188 16.77420806884766 72.85068511962891 L 18.06653785705566 73.33958435058594 L 18.06653785705566 76.79484558105469 L 14.79025745391846 76.79484558105469 L 14.79025745391846 77.93028259277344 C 14.9761905670166 78.02285766601562 15.18750286102295 78.07522583007812 15.41146755218506 78.07522583007812 Z" stroke="none" fill="#00b26b"/>
      </g>
    </g>
  </g>
</svg>
