<svg xmlns="http://www.w3.org/2000/svg" width="78.07" height="84.616" viewBox="0 0 78.07 84.616">
  <g id="Save_time" data-name="Save time" transform="translate(-6 -4)">
    <g id="Layer_25" data-name="Layer 25" transform="translate(6 4)">
      <path id="Path_361" data-name="Path 361" d="M50.26,33.13A22.13,22.13,0,1,0,28.13,55.26,22.13,22.13,0,0,0,50.26,33.13ZM8.6,33.13A19.527,19.527,0,1,1,28.13,52.657,19.527,19.527,0,0,1,8.6,33.13Z" transform="translate(-6 -1.888)" fill="#00b26b"/>
      <path id="Path_362" data-name="Path 362" d="M20.905,11.811h7.811a3.905,3.905,0,0,0,0-7.811H20.905a3.905,3.905,0,0,0,0,7.811Zm0-5.207h7.811a1.3,1.3,0,0,1,0,2.6H20.905a1.3,1.3,0,0,1,0-2.6Z" transform="translate(-2.68 -4)" fill="#00b26b"/>
      <path id="Path_363" data-name="Path 363" d="M31.494,41.956a1.3,1.3,0,1,0,1.841-1.841L24.6,31.384V16.3a1.3,1.3,0,1,0-2.6,0V31.923a1.3,1.3,0,0,0,.382.92Z" transform="translate(-1.172 -0.68)" fill="#00b26b"/>
      <path id="Path_364" data-name="Path 364" d="M12.905,28.3A1.3,1.3,0,0,0,11.6,27H10.3a1.3,1.3,0,1,0,0,2.6h1.3A1.3,1.3,0,0,0,12.905,28.3Z" transform="translate(-5.095 2.941)" fill="#00b26b"/>
      <path id="Path_365" data-name="Path 365" d="M12.52,33.174l-1.128.651a1.3,1.3,0,0,0,1.3,2.255l1.128-.651a1.3,1.3,0,0,0-1.3-2.255Z" transform="translate(-4.569 4.751)" fill="#00b26b"/>
      <path id="Path_366" data-name="Path 366" d="M18.1,37.567a1.3,1.3,0,0,0-1.779.477l-.651,1.128a1.3,1.3,0,1,0,2.255,1.3l.651-1.128a1.3,1.3,0,0,0-.477-1.778Z" transform="translate(-3.133 6.077)" fill="#00b26b"/>
      <path id="Path_367" data-name="Path 367" d="M24.6,41.6V40.3a1.3,1.3,0,1,0-2.6,0v1.3a1.3,1.3,0,0,0,2.6,0Z" transform="translate(-1.172 6.562)" fill="#00b26b"/>
      <path id="Path_368" data-name="Path 368" d="M30.429,38.044a1.3,1.3,0,1,0-2.255,1.3l.651,1.128a1.3,1.3,0,0,0,2.255-1.3Z" transform="translate(0.639 6.077)" fill="#00b26b"/>
      <path id="Path_369" data-name="Path 369" d="M33.043,35.429l1.128.651a1.3,1.3,0,0,0,1.3-2.255l-1.128-.651a1.3,1.3,0,1,0-1.3,2.255Z" transform="translate(1.964 4.751)" fill="#00b26b"/>
      <path id="Path_370" data-name="Path 370" d="M34,28.3a1.3,1.3,0,0,0,1.3,1.3h1.3a1.3,1.3,0,1,0,0-2.6H35.3A1.3,1.3,0,0,0,34,28.3Z" transform="translate(2.45 2.941)" fill="#00b26b"/>
      <path id="Path_371" data-name="Path 371" d="M33.7,23.755a1.3,1.3,0,0,0,.65-.174l1.127-.651a1.3,1.3,0,0,0-1.3-2.255l-1.128.651a1.3,1.3,0,0,0,.652,2.429Z" transform="translate(1.964 0.979)" fill="#00b26b"/>
      <path id="Path_372" data-name="Path 372" d="M28.651,19.3a1.3,1.3,0,0,0,1.779-.477l.651-1.128a1.3,1.3,0,0,0-2.255-1.3l-.651,1.128A1.3,1.3,0,0,0,28.651,19.3Z" transform="translate(0.639 -0.457)" fill="#00b26b"/>
      <path id="Path_373" data-name="Path 373" d="M17.929,16.392a1.3,1.3,0,0,0-2.255,1.3l.651,1.128a1.3,1.3,0,0,0,2.255-1.3Z" transform="translate(-3.133 -0.457)" fill="#00b26b"/>
      <path id="Path_374" data-name="Path 374" d="M13.822,21.325l-1.128-.651a1.3,1.3,0,1,0-1.3,2.255l1.128.651a1.3,1.3,0,0,0,1.3-2.255Z" transform="translate(-4.569 0.979)" fill="#00b26b"/>
      <path id="Path_375" data-name="Path 375" d="M42.3,29.6h1.3a1.3,1.3,0,0,0,0-2.6H42.3a1.3,1.3,0,0,0,0,2.6Z" transform="translate(4.562 2.941)" fill="#00b26b"/>
      <path id="Path_376" data-name="Path 376" d="M63.792,36.5a1.3,1.3,0,0,0,1.237.9,1.287,1.287,0,0,0,.406-.065,1.3,1.3,0,0,0,.831-1.642,15.007,15.007,0,0,0-1.181-2.679,1.3,1.3,0,0,0-2.268,1.279A12.407,12.407,0,0,1,63.792,36.5Z" transform="translate(11.095 4.554)" fill="#00b26b"/>
      <path id="Path_377" data-name="Path 377" d="M58.323,47.527a12.231,12.231,0,0,1-2.353.536,1.3,1.3,0,0,0,.161,2.593,1.436,1.436,0,0,0,.164-.01A14.811,14.811,0,0,0,59.15,50a1.3,1.3,0,0,0-.826-2.469Z" transform="translate(8.736 9.115)" fill="#00b26b"/>
      <path id="Path_378" data-name="Path 378" d="M56.255,29.647a1.3,1.3,0,0,0,.105-2.6Q55.771,27,55.171,27H53.579a1.3,1.3,0,1,0,0,2.6h1.592q.494,0,.976.039C56.184,29.645,56.22,29.647,56.255,29.647Z" transform="translate(7.965 2.941)" fill="#00b26b"/>
      <path id="Path_379" data-name="Path 379" d="M37.639,48a1.3,1.3,0,1,0,0,2.6h2.676a1.3,1.3,0,0,0,0-2.6Z" transform="translate(3.155 9.278)" fill="#00b26b"/>
      <path id="Path_380" data-name="Path 380" d="M62.489,44.448A12.4,12.4,0,0,1,60.828,46.2a1.3,1.3,0,1,0,1.7,1.968,14.931,14.931,0,0,0,2.012-2.122,1.3,1.3,0,1,0-2.054-1.6Z" transform="translate(10.41 8.055)" fill="#00b26b"/>
      <path id="Path_381" data-name="Path 381" d="M34.148,50.6a1.3,1.3,0,0,0,0-2.6H31.472a1.3,1.3,0,0,0,0,2.6Z" transform="translate(1.294 9.278)" fill="#00b26b"/>
      <path id="Path_382" data-name="Path 382" d="M46.481,48H43.8a1.3,1.3,0,0,0,0,2.6h2.676a1.3,1.3,0,0,0,0-2.6Z" transform="translate(5.016 9.278)" fill="#00b26b"/>
      <path id="Path_383" data-name="Path 383" d="M51.391,28.3a1.3,1.3,0,0,0-1.3-1.3H47.413a1.3,1.3,0,0,0,0,2.6h2.676a1.3,1.3,0,0,0,1.3-1.3Z" transform="translate(6.105 2.941)" fill="#00b26b"/>
      <path id="Path_384" data-name="Path 384" d="M52.647,48H49.971a1.3,1.3,0,0,0,0,2.6h2.676a1.3,1.3,0,0,0,0-2.6Z" transform="translate(6.877 9.278)" fill="#00b26b"/>
      <path id="Path_385" data-name="Path 385" d="M29.283,49.3a1.3,1.3,0,0,0-1.3-1.3H25.306a1.3,1.3,0,0,0,0,2.6h2.675A1.3,1.3,0,0,0,29.283,49.3Z" transform="translate(-0.567 9.278)" fill="#00b26b"/>
      <path id="Path_386" data-name="Path 386" d="M18.981,61.974a7.835,7.835,0,0,1-2.024-1.058,1.3,1.3,0,0,0-1.531,2.105,10.367,10.367,0,0,0,2.7,1.411,1.286,1.286,0,0,0,.427.072,1.3,1.3,0,0,0,.427-2.531Z" transform="translate(-3.317 13.101)" fill="#00b26b"/>
      <path id="Path_387" data-name="Path 387" d="M16.849,50.3a1.3,1.3,0,0,0-1.84-.06,10.44,10.44,0,0,0-1.895,2.385,1.3,1.3,0,0,0,2.253,1.3,7.867,7.867,0,0,1,1.423-1.79,1.3,1.3,0,0,0,.059-1.84Z" transform="translate(-3.906 9.85)" fill="#00b26b"/>
      <path id="Path_388" data-name="Path 388" d="M14.615,56.66a1.319,1.319,0,0,0-1.38-1.219,1.3,1.3,0,0,0-1.218,1.379,10.394,10.394,0,0,0,.631,2.98,1.3,1.3,0,1,0,2.441-.905,7.81,7.81,0,0,1-.473-2.235Z" transform="translate(-4.185 11.523)" fill="#00b26b"/>
      <path id="Path_389" data-name="Path 389" d="M24.749,62H22.073a1.3,1.3,0,1,0,0,2.6h2.675a1.3,1.3,0,0,0,0-2.6Z" transform="translate(-1.542 13.503)" fill="#00b26b"/>
      <path id="Path_390" data-name="Path 390" d="M23.116,49.3a1.3,1.3,0,0,0-1.3-1.3H20.651a10.452,10.452,0,0,0-1.719.141,1.3,1.3,0,0,0,.212,2.586,1.239,1.239,0,0,0,.215-.018,7.923,7.923,0,0,1,1.292-.106h1.163a1.3,1.3,0,0,0,1.3-1.3Z" transform="translate(-2.426 9.278)" fill="#00b26b"/>
      <path id="Path_391" data-name="Path 391" d="M62.836,31.685a1.3,1.3,0,0,0-.219-1.828,15.04,15.04,0,0,0-2.462-1.575A1.3,1.3,0,0,0,58.972,30.6a12.456,12.456,0,0,1,2.035,1.3,1.3,1.3,0,0,0,1.828-.219Z" transform="translate(9.771 3.285)" fill="#00b26b"/>
      <path id="Path_392" data-name="Path 392" d="M65.474,38.279a1.293,1.293,0,0,0-1.393,1.2,12.35,12.35,0,0,1-.411,2.379,1.3,1.3,0,0,0,.908,1.6,1.32,1.32,0,0,0,.348.047,1.3,1.3,0,0,0,1.253-.955,14.973,14.973,0,0,0,.5-2.882,1.3,1.3,0,0,0-1.2-1.393Z" transform="translate(11.389 6.343)" fill="#00b26b"/>
      <path id="Path_393" data-name="Path 393" d="M29.6,62H28.3a1.3,1.3,0,1,0,0,2.6h1.3a1.3,1.3,0,0,0,0-2.6Z" transform="translate(0.337 13.503)" fill="#00b26b"/>
      <path id="Path_394" data-name="Path 394" d="M38.811,57a7.811,7.811,0,1,0,7.811,7.811A7.811,7.811,0,0,0,38.811,57Zm0,13.018a5.207,5.207,0,1,1,5.207-5.207A5.207,5.207,0,0,1,38.811,70.018Z" transform="translate(1.544 11.994)" fill="#00b26b"/>
    </g>
  </g>
</svg>
