<svg xmlns="http://www.w3.org/2000/svg" width="65.334" height="65.334" viewBox="0 0 65.334 65.334">
  <g id="Get_station" data-name="Get station" transform="translate(-6.25 -6.25)">
    <path id="Path_296" data-name="Path 296" d="M38.917,6.25A32.667,32.667,0,1,0,71.584,38.917,32.684,32.684,0,0,0,38.917,6.25Zm0,3.112A29.555,29.555,0,1,1,9.362,38.917,29.569,29.569,0,0,1,38.917,9.362Zm0,4.667A24.89,24.89,0,0,0,37.26,63.753a1.555,1.555,0,0,0,.2-3.1,21.76,21.76,0,1,1,8.05-.968l-5.04-4.36V51.272c5.273-.615,9.333-4.4,9.333-10.8V31.141a1.556,1.556,0,0,0-1.555-1.555H45.141V24.92a1.555,1.555,0,1,0-3.109,0v4.667H35.81V24.92a1.555,1.555,0,0,0-3.109,0v4.667H29.589a1.556,1.556,0,0,0-1.555,1.555v9.333c0,6.393,4.06,10.182,9.333,10.8v4.757a1.544,1.544,0,0,0,.54,1.175l6.221,5.384a1.55,1.55,0,0,0,1.435.321,24.892,24.892,0,0,0-6.639-48.881ZM31.138,32.7H46.693v7.779c0,5.008-3.485,7.779-7.779,7.779s-7.779-2.768-7.779-7.779V32.7Zm7.767,1.555a1.558,1.558,0,0,0-1.286.691l-3.112,4.667A1.556,1.556,0,0,0,35.8,42.026h3.316l-1.5,2.249a1.556,1.556,0,0,0,2.021,2.24c.044-.023.088-.053.131-.079A1.551,1.551,0,0,0,40.209,46l3.112-4.667a1.556,1.556,0,0,0-1.295-2.418H38.707l1.5-2.249a1.555,1.555,0,0,0-.432-2.158,1.573,1.573,0,0,0-.872-.263Z" fill="#00b26b" fill-rule="evenodd"/>
  </g>
</svg>
