<svg xmlns="http://www.w3.org/2000/svg" width="128.579" height="105.435" viewBox="0 0 128.579 105.435">
  <g id="noun-car-repair-6939641" transform="translate(-8.041 -15.593)">
    <g id="Group_335" data-name="Group 335" transform="translate(8.041 15.593)">
      <path id="Path_464" data-name="Path 464" d="M59.963,67.747c-.754-1.712-2.161-3.429-4.01-3.531h-.012c-.012,0-.024-.012-.042,0a.907.907,0,0,0-.186-.012c-2.621,0-4.3,2.921-4.914,5.476-.838,3.346-.275,8.265,2.436,10.725,2.1,1.759,4.429,1.059,5.913-1.107,2.2-3.034,2.334-8.3.814-11.551Zm.012,7.008c-.838-.64-1.718-1.3-2.424-1.849l2.585-.413a9.942,9.942,0,0,1-.162,2.262ZM59.987,71c-.144.012-.305.042-.449.054a.41.41,0,0,1-.347-.682c.174-.2.359-.389.533-.575a7.034,7.034,0,0,1,.263,1.2Zm-.305-1.359a7.838,7.838,0,0,0-.389-1.1A8.427,8.427,0,0,1,59.681,69.638Zm-2.436-3.627A5.146,5.146,0,0,1,59.2,68.345c-1.616,1.843-2.071,2.43-2.238,2.6,0,0,.293-5.129.281-4.932Zm-1.532-.449h.078c-.024.192-.132,1.448-.174,2.023-.042.521-.533.772-.748.371-.305-.6-.6-1.191-.9-1.79a2.839,2.839,0,0,1,1.742-.6Zm-2.974,1.861h.012a.006.006,0,0,1,.006-.006c.587,1.041,1.448,2.556,2.1,3.711L51.62,69.967a8.548,8.548,0,0,1,1.119-2.544Zm-1.394,4.052.4.162c.479.2.587.73.132.826-.2.042-.4.078-.6.108a9.706,9.706,0,0,1,.066-1.1Zm.012,2.729a9.939,9.939,0,0,1-.078-1.4,8.951,8.951,0,0,0,.078,1.4c1-.227,2.238-.521,3.262-.76a3.036,3.036,0,0,1-.042-1.053c.078-.784.539-1.771,1.317-1.771h.042c.79,0,1.293,1.2,1.293,2.065a2.736,2.736,0,0,1-.73,2.077.911.911,0,0,1-1.227-.024,2.183,2.183,0,0,1-.64-1.227l-2.813,2.783a10.608,10.608,0,0,1-.461-2.089Zm1.119,3.543c.281-.239.545-.509.814-.76.389-.359.922-.215.8.227-.162.64-.347,1.293-.521,1.933.012.024.042.042.054.054a3.493,3.493,0,0,0,1.335.73,4.284,4.284,0,0,1-2.484-2.184ZM55.1,79.961c.862-3.83,1.023-4.608,1.053-4.74a.065.065,0,0,1,.012-.042c.443,1.215,1.562,4.3,1.49,4.118a2.862,2.862,0,0,1-2.556.664Zm2.6-.694a4.554,4.554,0,0,0,.9-1A4.181,4.181,0,0,1,57.694,79.267Zm.575-2.783c-.162-.509.186-.922.545-.64q.359.3.718.61A8.4,8.4,0,0,1,58.784,78c-.168-.5-.341-1.005-.515-1.514Z" transform="translate(14.521 10.273)" fill="#00b26b"/>
      <path id="Path_465" data-name="Path 465" d="M41.7,58.78c.138.006,10.336.407,10.521.359a1.323,1.323,0,0,0,1.167-1.155,7.685,7.685,0,0,0-.2-2.939c-.844-2.885-2.484-9.66-5.608-10.264a19.553,19.553,0,0,0-3.974-.407,1.291,1.291,0,0,0-1.2.778,29.629,29.629,0,0,0-2.011,12.365,1.354,1.354,0,0,0,1.3,1.263Z" transform="translate(9.169 -0.278)" fill="#00b26b"/>
      <path id="Path_466" data-name="Path 466" d="M33.549,58.033c7.625.449,7.332.473,7.493.407a.665.665,0,0,0,.509-.557l2.43-12.652a.735.735,0,0,0-.718-.868h-5.71a.709.709,0,0,0-.646.407c-.868,1.712-4.213,8.588-4.034,12.6a.73.73,0,0,0,.676.658Z" transform="translate(5.169 -0.284)" fill="#00b26b"/>
      <path id="Path_467" data-name="Path 467" d="M29.16,57.32c1.029.132,2.568.233,3.471.281-.245.09.018-.1-2.783,4.2-.09.138-.03,0-.281,4.2a.343.343,0,0,0,.18.317c.054.03,5.41,2.831,5.692,11.09a.333.333,0,0,0,.293.317c2.46.263,1.957.293,2.185.221.036.018.06.054.1.06.132.018,20.025,2.52,20.157,2.52a.335.335,0,0,0,.335-.335l.012-13.855c0-.03-.084-2.9,1.185-3.938a.332.332,0,1,0-.419-.515c-1.52,1.251-1.43,4.345-1.424,4.465V79.817l-14.89-1.861V75.323c.676-.676.868-.718.868-.964,0-.078.1-7.78-.2-11.042-.269-3.052,1.2-4.345,1.269-4.4a.332.332,0,0,0,.042-.467.327.327,0,0,0-.467-.042c-.072.06-1.807,1.55-1.5,4.967.263,2.986.2,9.773.192,10.839-.67.67-.868.724-.868.964v2.7c-4.794-.563-4.064-.569-4.321-.491-.221-.126.263.018-1.879-.281-.371-7.637-4.842-10.683-5.853-11.27l.209-3.741,2.562-4a.332.332,0,0,0-.1-.461c-.012-.006-.024,0-.036-.006a.594.594,0,0,0,.64-.4c.539-1.831,2.729-9,3.836-11.688a.569.569,0,0,0-.377-.766,7.744,7.744,0,0,0-1.6-.239A6.307,6.307,0,0,0,29.9,46.972c-2.951,3.794-3.519,7.313-2.939,9.055a3.076,3.076,0,0,0,2.2,1.293Z" transform="translate(1.916 -0.2)" fill="#00b26b"/>
      <path id="Path_468" data-name="Path 468" d="M64.094,56.395A1.508,1.508,0,1,0,65.6,57.9,1.51,1.51,0,0,0,64.094,56.395Z" transform="translate(20.983 6.118)" fill="#00b26b"/>
      <path id="Path_469" data-name="Path 469" d="M67.915,56.5a1.508,1.508,0,1,0,1.508,1.508A1.51,1.51,0,0,0,67.915,56.5Z" transform="translate(23.017 6.176)" fill="#00b26b"/>
      <path id="Path_470" data-name="Path 470" d="M89.579,59.428a1.173,1.173,0,1,0-1.173-1.173A1.175,1.175,0,0,0,89.579,59.428Z" transform="translate(34.723 6.484)" fill="#00b26b"/>
      <path id="Path_471" data-name="Path 471" d="M39.488,55.225a.349.349,0,0,0-.383.383.405.405,0,0,0,.377.431,23.1,23.1,0,0,1,4.62.305c.2.036.377-.138.377-.383a.4.4,0,0,0-.383-.431,19.775,19.775,0,0,1-4.608-.305Z" transform="translate(8.489 5.493)" fill="#00b26b"/>
      <path id="Path_472" data-name="Path 472" d="M31.137,54.35a.349.349,0,0,0-.383.383.405.405,0,0,0,.377.431,23.1,23.1,0,0,1,4.62.305c.2.036.377-.138.377-.383a.4.4,0,0,0-.383-.431,19.145,19.145,0,0,1-4.608-.305Z" transform="translate(4.045 5.028)" fill="#00b26b"/>
      <path id="Path_473" data-name="Path 473" d="M18.332,30.312c.15-.012.257-.227.239-.473s-.162-.443-.311-.425c-.371.03-.293.928.072.9Z" transform="translate(-2.732 -8.239)" fill="#00b26b"/>
      <path id="Path_474" data-name="Path 474" d="M20.035,30.238c.15-.012.257-.227.239-.473s-.162-.443-.311-.425-.257.227-.239.473S19.885,30.25,20.035,30.238Z" transform="translate(-1.826 -8.279)" fill="#00b26b"/>
      <path id="Path_475" data-name="Path 475" d="M20.227,30.6a.338.338,0,0,0-.473-.024.374.374,0,0,1-.569-.072.334.334,0,0,0-.557.371c.634.94,2.065.239,1.6-.275Z" transform="translate(-2.438 -7.741)" fill="#00b26b"/>
      <path id="Path_476" data-name="Path 476" d="M18.067,44.906a3.31,3.31,0,0,0,3.262,3.357h.012a3.335,3.335,0,0,0,3.268-3.375V43.4c0-.012.012-.018.012-.03s-.012-.018-.012-.03V41.854a.335.335,0,0,0-.335-.335c-.467,0-6.009.018-5.871.018a.335.335,0,0,0-.335.335c-.006.263,0,3.274,0,3.034Zm5.865-.018a2.668,2.668,0,0,1-2.6,2.711h-.006a2.644,2.644,0,0,1-2.6-2.693V43.883l5.207-.162Zm0-2.7v.868l-5.207.162V42.207Z" transform="translate(-2.708 -1.797)" fill="#00b26b"/>
      <path id="Path_477" data-name="Path 477" d="M20,31.849a.328.328,0,0,0-.467-.066.313.313,0,0,1-.395-.024.334.334,0,1,0-.467.479c.628.6,1.676.078,1.329-.389Z" transform="translate(-2.435 -7.041)" fill="#00b26b"/>
      <path id="Path_478" data-name="Path 478" d="M16,65.673l-.054,39.8a.328.328,0,0,0,.3.329c.09.018.335.06.694.1l-.006,1.3a1.152,1.152,0,0,0-.269.814c-.048,4.872-.042,4.327.042,4.465.012.688-.042.826.054.97.263.407.76.341.922.449a1.436,1.436,0,0,1,.293.622c.646,1.724,3.184,2.22,5.033,2.22a16.9,16.9,0,0,0,2.9-.287,1.987,1.987,0,0,0,1.43-.712,1.259,1.259,0,0,0,0-1.185,1.531,1.531,0,0,0-.437-1.532,7.747,7.747,0,0,1-2.963-3.639c-.3-.575-.676-1.46-1.023-2.148l-.072-.126.006-1.1a6.828,6.828,0,0,0,.856-.156.375.375,0,0,0,.233-.293c.012-.144.976-27.632.976-27.764.054.156,3.232,9.187,3.07,8.714-.012.132-1.646,18.552-1.64,18.421a.366.366,0,0,0,.215.329c.018.006.479.168,1.173.359l-.078.85a1.214,1.214,0,0,0-.461.868c-.12,1.281-.886,3.346-.7,4.177a.045.045,0,0,1-.006.03l-.012.114a.967.967,0,0,0,.156.736c.383.425,1.011.024,2.089.581a17.182,17.182,0,0,1,1.849,1.239,9.823,9.823,0,0,0,6.506,1.185c.437-.048.982,0,1.257-.509v-.006a1.544,1.544,0,0,0,.12-1.023,1.627,1.627,0,0,0-.91-1.784c-.616-.263-1.622-.048-2.741-1.508l-.2-.257a4.562,4.562,0,0,1-.844-1.335c-.3-.766-.108-1.311-.616-2.017l.066-.766a4.683,4.683,0,0,0,1.424-.329c.138-.12.138-.09.168-.221,0-.012.018-.018.018-.03l.916-7.391a3.846,3.846,0,0,0,2.909,1.622c3.262-.006,6.613.03,6.47-.042,2.37-.425,4.291-3.752,4.746-8.133l14.411,1.239c2.939,3.369,2.747,3.34,3.01,3.357l2.52.162a.333.333,0,0,0,.353-.335v-.006h.82v.03c.521,5.859,3.591,10.109,7.3,10.109,8.977-.012,8.307.03,8.822-.024l.18-.018c3.28-.5,5.961-4.447,6.541-9.618.132-.132.239-.245.311-.323.748-.006,3.95-.036,6.3-.036a1.158,1.158,0,0,0,1.155,1.125h4.9a1.166,1.166,0,0,0,1.143-1.029l.12-1.029a.459.459,0,0,1,.443-.419l3.86-.186c.413,6.033,3.525,10.539,7.325,10.539a3.541,3.541,0,0,0,.359-.012c9.265-.012,7.75.036,8.642-.042,3.22-.491,5.871-4.339,6.518-9.4a1.161,1.161,0,0,0,1.065-.952l.64-4.141a1.088,1.088,0,0,0-1.1-1.317,20.3,20.3,0,0,0,.335-4.387,52.217,52.217,0,0,0-1.347-10.42.25.25,0,0,0-.012-.036c-1.921-5.907-13.633-7.176-19.846-7.373a13.118,13.118,0,0,1-3.417-.419l6.422-8.223a1.091,1.091,0,0,0-.9-1.765l-16.973.413c-.245-.209-.359-.311-.952-.832-2.574-2.262-7.643-3.094-7.906-3.136-.4-.006-40.033-.3-47.3.616C39.237,54.342,35.6,60.4,33.2,65.785c-.03-.144-.275-1.359-.371-1.807a2.024,2.024,0,0,0-.263-2.095c-.341-4-.317-5.692-.6-10.845.365.407.868.964,1.209,1.323a.337.337,0,0,0,.563-.132l.024-.084L37.89,55.2a1.521,1.521,0,0,0,1.748.03c.419-.305,1.855-1.263,7.439-5.47l.844.6-1.377,1.927a.333.333,0,0,0,.269.527h.012a3.036,3.036,0,0,0,2.657-4.141l.64-.892c1.149-.407,4.734-3.016,4.01-3.914l-.569-.9,1.64-2.3a3.043,3.043,0,0,0,3.046-3.866.335.335,0,0,0-.592-.1l-.976,1.377-.018-.018a.308.308,0,0,0-.233-.06l-1.724-1.227,1.071-1.5a.333.333,0,0,0-.287-.527,3.026,3.026,0,0,0-2.651,4.13l-1.143,1.6c-.156.054-.144.12-.778.85-.341-.431-.365-.676-.658-.682-.311.012-.329.323-.94,1.239a.328.328,0,0,0,.006.353l.114.18-.6,1.155c-.12.227.066.389.126.521l-.06.12L39.35,49.165c-.132-.126-2.705-2.585-2.538-2.424a.332.332,0,0,0,.018-.449c-1.951-2.28-3.95-4.489-5.943-6.571a.258.258,0,0,0-.162-.078,6.67,6.67,0,0,0-2.538-.563,19.777,19.777,0,0,0-2.31-.006l-.215-1.005c1.921-.934,2.148-4.692,1.867-6.853,0-.036-.012-.066-.012-.1a2.231,2.231,0,0,0,.6-.383,2.743,2.743,0,0,0,1.418.551,1.051,1.051,0,0,0,.79-.317A1.907,1.907,0,0,0,29.248,28.4c-.09-.263-.2-.174-1.406-.688a4.633,4.633,0,0,0-5.3-4.028c-4.153.467-5.488,3.525-4.321,7.421a.33.33,0,0,0,.317.233.478.478,0,0,0,.293-.126,2.2,2.2,0,0,0,.251.431c-.024.389-.078.772-.12,1.173-.024.293-.012.61-.066.9a2.163,2.163,0,0,0-.024.587.527.527,0,0,0,.317.455c.527.108,1.035-1.6.281,1.347a1.959,1.959,0,0,0-.078.64.012.012,0,0,1,.012.012c.078.628.82.886,1.448-.257l-.329,2.46a44.324,44.324,0,0,0-5.566,1.556,5.013,5.013,0,0,0-3.112,1.9c-1.245,1.945-1.634,2.687-2.927,6.811-.168.551-.341,1.1-.485,1.652a.327.327,0,0,0,.311.4l-.676,4.542c-.186,1.245.413,1.113,7.936,9.845ZM28.6,30.164a1.33,1.33,0,0,0,.126-1.233l.114.012a1.173,1.173,0,0,1,.73.551,1.061,1.061,0,0,1,.2,1.059.579.579,0,0,1-.365.054,2.355,2.355,0,0,1-.874-.371c.024-.03.048-.048.066-.072Zm-5.548,78.9a9.156,9.156,0,0,0-2.418.652c-.018,0-.03-.018-.048-.018a.432.432,0,0,0-.431.425.408.408,0,0,0,.778.192,8.234,8.234,0,0,1,2.382-.622.472.472,0,0,0,.054.024,13.081,13.081,0,0,0,.826,1.5,12.024,12.024,0,0,0-2.244.688.371.371,0,0,0-.174-.072.428.428,0,0,0-.006.856.407.407,0,0,0,.233-.1,11.793,11.793,0,0,1,2.454-.754c.036.012.066.048.108.048a.3.3,0,0,0,.1-.03,8.027,8.027,0,0,0,1.79,1.646c.245.233.413.664.269.886-.006.006-.006.018-.012.024a1.577,1.577,0,0,1-.964.413,11.564,11.564,0,0,1-5.362-.084,2.574,2.574,0,0,1-1.921-1.64c-.192-.545-.365-.79-.964-.91a.715.715,0,0,1-.186-.054c0-1.371.012-2.747.024-4.118,0-.341.072-.407.072-.407a.243.243,0,0,0,.054-.03c.341.03.347,1,1.113.892.389-.054.64-.407.862-.73.353-.5.431-.557.922-.6.192-.03.9-.1,1.131-.1.754,0,.7.192,1.562,2.017Zm-5.44-2.131c0-.132.012-1.574.012-1.442a10.841,10.841,0,0,1,4.584.042l-.006.964a3.405,3.405,0,0,0-1.406-.06c-.174.018-.353.03-.5.054-1.149.09-1.191.76-1.676,1.245a.891.891,0,0,1-.114.1c-.1-.066-.156-.431-.539-.718a1.009,1.009,0,0,0-.263-.138c-.042-.012-.066-.036-.09-.042Zm15.805,2.849a9.446,9.446,0,0,0,.706,1,1.008,1.008,0,0,1-.413.365.18.18,0,0,1-.06.018c-.03-.012-.054-.042-.09-.048a.39.39,0,1,0,.221.682.747.747,0,0,0,.186-.042,1.576,1.576,0,0,0,.593-.455,3.825,3.825,0,0,0,1.987,1.227,5.657,5.657,0,0,1,.742.174.963.963,0,0,1,.515,1.023c-.12.353-.138.275-.814.341a8.986,8.986,0,0,1-6.081-1.077c-.215-.144-.425-.3-.634-.455a7.708,7.708,0,0,0-1.281-.832,4.333,4.333,0,0,0-1.867-.419,10,10,0,0,1,.359-1.969c.485-1.945.287-1.682.431-2.095a3.547,3.547,0,0,1,.269.61c.269.628.724,1.023,1.394.838.79-.215,1.143-.952,1.855-1.359a1.006,1.006,0,0,1,1.161.006c.347.4.245,1.065.527,1.843-.024.024-.036.054-.072.078a2.046,2.046,0,0,1-.545.221,1.107,1.107,0,0,1-.138.006c-.03-.006-.042-.036-.072-.036a.39.39,0,0,0-.425.353.385.385,0,0,0,.616.347,2.644,2.644,0,0,0,.928-.347Zm-.9-3.28a2.073,2.073,0,0,0-1.406.209,5.682,5.682,0,0,0-1.125.94c-1.221,1.113-1.1-.449-1.664-1.077l.132-1.406a15.2,15.2,0,0,1,4.153.263c-.012.144-.1,1.209-.09,1.071Zm6.123-7.325A3.64,3.64,0,0,1,35.855,97.3l.275-2.2A3.084,3.084,0,0,0,38.655,97c2.951,0,4.572-6.152,3.369-10.593-.335-1.628-1.538-4.064-3.208-4.13h-.006v-.006c-.012,0-.018-.012-.03,0v.006a.47.47,0,0,0-.126-.012,2.34,2.34,0,0,0-1.664.748c-.066.06-.12.132-.18.2-.1-.461-.168-.778-.407-1.933a3.032,3.032,0,0,1,2.25-1.185c1.526,0,2.729,1.556,3.387,2.963a16.3,16.3,0,0,1,1.233,8.493c-.443,4.333-2.352,7.613-4.638,7.625Zm-.6-10.982-1-.425.162-1.323c.287.6.575,1.215.838,1.748Zm-.64-4.249a1.832,1.832,0,0,1,1.251-.521H38.7c-.03.18-.114,1.6-.12,1.73-.042.455-.389.664-.545.317C37.824,84.973,37.614,84.453,37.4,83.944Zm.706,4.369a.109.109,0,0,1,.024-.066v-.012a.866.866,0,0,1,.652-.479c.012,0,.012,0,.024.012.323,0,.6.383.706.682a3.029,3.029,0,0,1,.215,1.3,2.13,2.13,0,0,1-.718,1.7H39a.2.2,0,0,1-.078.024.537.537,0,0,1-.587-.186,1.948,1.948,0,0,1-.455-1.065l-1.347,1.6.162-1.317c.407-.114.808-.227,1.167-.329a3.1,3.1,0,0,1,.245-1.867Zm1.855,1.4,1.867-.347a12.4,12.4,0,0,1-.12,1.945c-.6-.557-1.245-1.119-1.748-1.6Zm1.424,3.052a6.9,6.9,0,0,1-.533,1.335c-.12-.437-.239-.868-.371-1.3-.108-.437.132-.784.4-.545C41.049,92.419,41.211,92.592,41.385,92.766ZM40.038,95.2a1.806,1.806,0,0,1-1.825.575c.215-1.173.521-2.795.748-4.064a.065.065,0,0,1,.012-.042c.227.754,1.119,3.723,1.065,3.531Zm1.347-7.074c-.269.042-.425-.335-.239-.575.12-.174.251-.335.371-.491a5.259,5.259,0,0,1,.2,1.023c-.1.018-.221.03-.329.042Zm-.239-2.316c-.4.557-1.077,1.49-1.586,2.214,0,.012,0,.012-.012.012.06-1.293.209-4.423.2-4.225a4.371,4.371,0,0,1,1.4,1.987Zm-4.237,7.421c.281-.317.652-.186.575.186-.12.545-.251,1.107-.371,1.652a5.119,5.119,0,0,1-.784-1.2c.192-.2.395-.431.581-.64Zm3.687,5.943c4.333-3.1,4.542-14.2.784-18.355a.006.006,0,0,0-.006-.006,5.364,5.364,0,0,0-.8-.718h1.155a11.863,11.863,0,0,1,2.2,4.914,35.713,35.713,0,0,1,.838,6.434c.1,2.382-.054,2.3.192,2.472a11.908,11.908,0,0,1-2.376,5.261Zm4.411-.036a16.843,16.843,0,0,1-2.1.036,12.478,12.478,0,0,0,2.274-5.207.246.246,0,0,0,.066-.006c.006,0,.012-.012.024-.012a.421.421,0,0,0,.138-.09l.012-.012c.108-.138,2-2.55,1.891-2.4l.413.036a13.7,13.7,0,0,1-2.717,7.655Zm.461-.162a14.778,14.778,0,0,0,2.49-7.481l1.263.108c-.395,3.729-1.927,6.667-3.752,7.373Zm26.172-2.921a14.315,14.315,0,0,1-.09-1.664c0-6.17,3.016-11.192,6.727-11.192a4.328,4.328,0,0,1,2.059.557c3.316,1.79,4.656,6.793,4.656,10.635,0,6.164-3.01,11.18-6.715,11.18-3.3-.006-6.158-4.088-6.637-9.516Zm9.079,9.51c6.422-3.615,6.7-18.571.006-22.372h2.783c3.92,4.9,2.915,15.088,2.909,14.956a.338.338,0,0,0,.311.371l.521.036a13.335,13.335,0,0,1-3.543,7.008Zm6.362-.024c-.509.054-.12.012-2.933.03a13.786,13.786,0,0,0,3.423-6.99,11.322,11.322,0,0,0,3.07-.3,13.521,13.521,0,0,1-3.561,7.26Zm.61-.15a14.48,14.48,0,0,0,3.34-7.23,7.333,7.333,0,0,0,2.041-.97c-.652,4.261-2.783,7.475-5.38,8.2Zm32.648-.964a3.99,3.99,0,0,1-.958.114c-3.387,0-6.278-4.327-6.667-9.9l1.46-.072a11.536,11.536,0,0,0,1.227,4.417c1.436,2.693,4.028,3.962,6.344,2.041,1.849-1.478,2.759-4.417,2.873-6.96l1.472-.072c-.12,3.669-1.532,8.223-4.525,9.941a10.492,10.492,0,0,1-1.227.5Zm-1.574-3.926c.108-.485-.4,1.754,1.053-4.74a.065.065,0,0,1,.012-.042c.443,1.215,1.562,4.3,1.49,4.118a2.141,2.141,0,0,0,.293-.239,1.919,1.919,0,0,1-.293.251,2.96,2.96,0,0,1-4.034-.1c-.012-.012-.042-.024-.054-.054a5.9,5.9,0,0,1-1.1-1.4V98.29c.281-.239.545-.509.814-.76.389-.359.922-.215.8.227-.162.64-.347,1.293-.521,1.933V99.7c.012.012.042.024.054.042a3.186,3.186,0,0,0,1.478.76Zm-.4-6.14,2.406-.114a1.934,1.934,0,0,1-.335.766,1.568,1.568,0,0,1-.557.479h-.012a.261.261,0,0,1-.108.024c-.694.144-1.179-.473-1.394-1.155Zm-2.885,2.478a11.258,11.258,0,0,1-.467-2.089c.383-.09.808-.186,1.239-.281l1.7-.084Zm7-.455q.359.3.718.61v.012a8.286,8.286,0,0,1-.748,1.532l-.521-1.52c-.156-.5.192-.91.551-.634Zm-.3-2.2,1.6-.078c-.03.407-.072.808-.138,1.191-.491-.377-.988-.748-1.46-1.113Zm-.305,10.348c3.322-1.867,4.764-6.715,4.872-10.569l2.017-.1c-.108,4.59-1.688,8.546-3.98,10.671Zm6.3-.03c-.509.054-.156.012-2.939.03,2.238-2.232,3.753-6.17,3.86-10.683l1.071-.054a.491.491,0,0,1,.467.293l.371.844a1.144,1.144,0,0,0,1,.694c-.419,3.8-1.849,7.026-3.83,8.876Zm.6-.15a15.216,15.216,0,0,0,3.555-8.708l1.9.1c-.592,4.465-2.783,7.864-5.452,8.606Zm6.4-14.274a1.614,1.614,0,0,0,.287-.1c.263-.1.521.269.473.563-.2,1.275-.67,4.351-.64,4.159a.437.437,0,0,1-.485.4c-.491-.024-2.915-.156-2.783-.15a.46.46,0,0,1-.413-.293l-.371-.85a1.182,1.182,0,0,0-1.113-.7l-21.977,1.065a1.112,1.112,0,0,0-1.077,1.011l-.12,1.023a.5.5,0,0,1-.485.443h-4.9a.5.5,0,0,1-.491-.491v-4.6a18.069,18.069,0,0,0,2.262.2c4.722.329,26.645-.1,31.816-1.694a.011.011,0,0,0,.018,0ZM106.644,76.96l-3.519-2.992L128.37,73.7c.042.132.9,2.963.85,2.789a165.694,165.694,0,0,1-22.574.473Zm.515,1.317-17.2-1.2L85.852,72l16.2,1.939Zm1.317.311a164.59,164.59,0,0,0,21.192-.64l1.005,3.334a146.833,146.833,0,0,1-23.353.736c1.167-3.352,1.215-3.22,1.155-3.429ZM131.1,82.7l.982,3.244c-4.513,1.185-20.546,1.682-26.5.916l1.221-3.417A130.429,130.429,0,0,0,131.1,82.7Zm1.4,4.62c.042.132.808,2.675.76,2.514-5.189.916-14.214,1.083-14.346,1.155-2.819.084-9.4.353-14.86.15l1.041-2.909c6.152,1.077,22.947.305,27.405-.91Zm2.292,2.185a5.7,5.7,0,0,1-.874.209c-.042-.132-3.2-10.581-3-9.923a12.56,12.56,0,0,0,3.7-1.065c.479,3.148.88,7.655.18,10.779ZM131.62,71.837a6.038,6.038,0,0,1,2.226,2.9c.209.724.533,2.544.652,3.28a11.321,11.321,0,0,1-3.764,1.125c-.042-.132-1.472-4.836-1.43-4.7a4.391,4.391,0,0,1,2.316-2.609Zm-17.014-4.046c3.465.114,11.8.688,16.357,3.6a7.371,7.371,0,0,0-.688.479,4.482,4.482,0,0,0-.413.413,5.522,5.522,0,0,0-.85,1.209l-.072-.227a.334.334,0,0,0-.317-.233h-.006l-1.029.012-17.183-5.3.365-.467a12.761,12.761,0,0,0,3.836.521Zm2.167-10.414a.422.422,0,0,1,.329.688c-1.323,1.694-7.068,9.055-6.7,8.582a.006.006,0,0,0-.006.006l-.5.652L79.1,70.018c1.071-1.161,9.959-10.791,10.773-11.671a1.04,1.04,0,0,1,.712-.323c.138,0,26.316-.646,26.184-.646ZM80.736,67.265c-2.568.012-4.477.018-5.165.024-.987-5.207-4.71-9.821-5.9-11.186,3.28-.545,19.953-.742,24.675.15a8.521,8.521,0,0,1,2.388.94l-6.164.156a1.7,1.7,0,0,0-1.179.533l-.006.006c-2.777,3.016-8.846,9.588-8.654,9.378ZM43.683,54.439c6.93-.868,47.029-.658,47.16-.616.048.006,5.093.838,7.523,2.974.042.036.365.317.4.353L98,57.168A10.663,10.663,0,0,0,94.471,55.6c-5.159-.976-24.394-.694-25.579.042a.331.331,0,0,0-.066.509c.054.054,5.117,5.518,6.134,11.527a.334.334,0,0,0,.329.275l4.83-.024c-.126.132-2.22,2.406-2.089,2.262l-.006.006a.321.321,0,0,0,.227.545c.006,0,.012.006.018.006h.006c.006,0,.012.006.018.006l1.55-.138,5.063.664a.331.331,0,0,0-.1.5L89.527,77.6a.363.363,0,0,0,.233.126l17.924,1.245L103.34,91.1a15.986,15.986,0,0,1-2.34-.245.339.339,0,0,0-.6.215v4.465c-2.675.006-6.452.042-6.452.042-.371.006-.293.533-1.8,1.377a9.074,9.074,0,0,1-5.057.928c.533-7.08-.778-16.973-7.906-17.823-2.831-.329-4.967.168-6.512,1.514-3.328,2.9-3.2,9.4-3.2,14.166l-2.023-.126c-2.927-3.363-2.747-3.328-3-3.352-18.338-1.6-17.4-1.6-17.578-1.388l-.006.006c-.108.132-1.52,1.927-1.418,1.79-.006-.431-.024-1.023-.066-1.7a36.232,36.232,0,0,0-.832-6.14,14.919,14.919,0,0,0-1.616-4.2,6.62,6.62,0,0,0-.82-1.107,4.589,4.589,0,0,0-2.089-1.329,4.774,4.774,0,0,0-4.172.539c-.826-3.986-1.813-8.792-2.442-11.85,1.909-4.441,5.739-11.874,10.258-12.443ZM32.216,64.272c3.334,16.555,4.447,21.019,4.375,21.551a.488.488,0,0,0,0,.162c-2.568,20.684-2.059,16.608-2.376,19.133a15.846,15.846,0,0,0-7.17-.551c1.736-19.374,1.634-18.1,1.6-18.212L27.177,82.2c-.012-.048-.67-1.909-.688-1.957C25.831,76.516,24.5,69.023,24.5,69.023l-.018,6.733c-.323.2-.03-1.634-1.179,29.343a12.44,12.44,0,0,0-6.691-.066l.054-38.567c.054.066.1.12.192.239a18.8,18.8,0,0,1,1.005,1.837c.192.461.934.317,1.1.329a.44.44,0,0,0,.215.072.177.177,0,0,0,.06.012,4.463,4.463,0,0,0,.988.072.353.353,0,0,0,.239.084c.006,0,.018.006.024.006a.325.325,0,0,0,.108,0,1.68,1.68,0,0,1,.557.048,1.036,1.036,0,0,0,.383.024.335.335,0,0,0,.275.144l.072-.006a.252.252,0,0,1-.132-.03.576.576,0,0,0,.2.024.3.3,0,0,0,.126.006c.521-.066.766.03.97-.239a.455.455,0,0,0,.078-.425,15.757,15.757,0,0,0-.754-2.023,1.333,1.333,0,0,0-.126-.335,2.256,2.256,0,0,0,.61.066.353.353,0,0,0,.257-.251c.347-1.089.437-.9-.012-1.359.509.012,1.017.036,1.532.036a59.717,59.717,0,0,0,7.583-.527Zm-9.606,4.351h.006Zm-.5-20.259.048-.048a1.094,1.094,0,0,1,.718-.305c2.322-.209,5.374-.467,8.253-.658.018.293.527,11.18.664,13.346l.09,1.035a82.411,82.411,0,0,1-13.244.09.447.447,0,0,1-.072-.042l-.006-.006a.412.412,0,0,0-.078-.066,5.012,5.012,0,0,1-1.442-1.448c.012-.108.018-.2.024-.281,1.287.09,2.167.126,2.029.126a.327.327,0,0,0,.323-.263c2.693-12.179,2.3-10.809,2.693-11.479Zm-.018-3.519.036-.006.132.658c-.042-.156-.072-.311-.114-.467C22.132,44.971,22.108,44.911,22.09,44.845Zm22.749,5.739,1.107-1.556.024.018a.268.268,0,0,0,.174.042l.347.251c-.443.341-1.017.772-1.652,1.245Zm8.636-11.491a.323.323,0,0,0,.03-.335,2.376,2.376,0,0,1,1.215-3.184l-.76,1.065a.335.335,0,0,0,.078.467c2.292,1.6,2.179,1.628,2.4,1.6l.114.084a.332.332,0,0,0,.467-.078l.67-.946a2.386,2.386,0,0,1-2.627,2.19.353.353,0,0,0-.305.138L53.17,42.325l-.94-1.49Zm-4.357,6.123.209-.293L50.4,46.5a.312.312,0,0,0,.245.126c.012,0,.018.012.024.012a.332.332,0,0,0,.281-.509c-.078-.132-1.526-2.55-1.448-2.418l.263-.515c.1.132,1.825,2.532,1.712,2.376a.332.332,0,0,0,.545-.377c-.1-.144-2.137-3.28-2.047-3.142l.287-.467c.09.132,1.945,2.807,1.831,2.633l.006.006.186.251a.332.332,0,0,0,.551-.371c-.365-.581-1.55-2.46-1.46-2.322l.365-.437c.09.144,1.879,2.98,1.79,2.843-.114.563-2.621,2.675-3.741,2.992a1.121,1.121,0,0,1-.12.03l-.724-1.694Zm.174,2.556c-.341.545-.628.7-.5.982a2.4,2.4,0,0,1-1.215,3.2c1.041-1.514,1.167-1.508,1.125-1.742s-.06-.12-2.6-1.975a.335.335,0,0,0-.467.078l-.03.036c-.006.006-.018.006-.03.018l-.976,1.377c.006-.054.024-.108.036-.168a2.267,2.267,0,0,1,1.825-1.963c.048-.012.09-.03.132-.042.581-.09.76.1.94-.15l.946-1.323c.64,1.382.569,1.514.808,1.67ZM39.052,49.8a.336.336,0,0,0,.383.054l8.816-4.572-1.143,1.6a3.024,3.024,0,0,0-3.046,3.866.324.324,0,0,0,.1.15.434.434,0,0,0,.054.03.548.548,0,0,0,.1.054c-3.729,2.783-4.417,3.226-5.057,3.687a.856.856,0,0,1-.976-.018L33.97,51.464a11.911,11.911,0,0,1,2.382-4.225Zm-8.528-9.492c1.873,1.963,3.747,4.034,5.584,6.176l-.024.024a12.9,12.9,0,0,0-2.825,4.956c-.2-.221-.359-.395-1.347-1.5-.186-3.573-.1-2.789-.186-3.076-.114-.347-.557-.2-.922-.18-.066-.245-.126-.491-.192-.736.132-.042.251-.012.365-.174.132-.2.018-.239-.323-2.095a.339.339,0,0,0-.395-.263l-.353.072c-.473-1.436-.736-2.017-1.46-3.747,2.119.2,1.813.485,2.077.539Zm-.993,5.207-.1.018-.174-.862c.012.036.03.078.042.114.078.245.15.491.227.73ZM27.513,28.3l.227.09c-1.508.61-2.041,1.592-2.807,2.149s-1.442.539-2.813-.1l-.826-.5a18.132,18.132,0,0,1,5.147-1.616,5.265,5.265,0,0,1,1.071-.03Zm-5.728-3.806a5.854,5.854,0,0,1,1.466-.192,3.878,3.878,0,0,1,3.878,3.316c-2.777.012-6.146,1.748-6.434,1.861a6.941,6.941,0,0,1,1.059-4.83.344.344,0,0,0,.03-.156Zm-3.058,6c-.622-2.484-.227-4.752,2.179-5.728A7.628,7.628,0,0,0,20.05,29.8a.654.654,0,0,0-.066.036c-.2.1-.766.383-1.257.658Zm1.843,2.131a.33.33,0,0,0-.6-.126,1.606,1.606,0,0,1-.539-1.442.538.538,0,0,1,.042-.162c-.012-.012-.012-.012-.012-.024a.021.021,0,0,1,.006-.012c.2-.108.437-.227.694-.365a1.316,1.316,0,0,1,.9,1.55,2.421,2.421,0,0,0,.293-.024c.03-.419.018-.838.012-1.257l.449.269a6.839,6.839,0,0,0,1.317.479,2.034,2.034,0,0,0-.551.233.335.335,0,0,0,.371.557,1.227,1.227,0,0,1,1-.15.319.319,0,0,0,.269-.575,2.634,2.634,0,0,0,1.245-.6,2.681,2.681,0,0,0,1.394.317c.006.054.006.108.012.156a1.878,1.878,0,0,0-1.5.126.335.335,0,1,0,.323.587,1.22,1.22,0,0,1,1.011-.072.378.378,0,0,0,.215-.006c.108,1.664-.156,5-1.754,5.476-1.251.419-4.064-1.759-4.59-4.938Zm4.614,7.631c-.174.539-.491.874-1.454.832-1.724-.066-2.532-1-2.6-1.855l.4-2.945c.012.018.389.419.437.467a5,5,0,0,0,2.34,1.478c.042.006.407.054.425.054a1.015,1.015,0,0,0,.132-.024c.042-.006.09.006.132,0l.239,1.077a1.186,1.186,0,0,1-.054.916Zm-4.662-.634a3,3,0,0,0,.341.742,3.991,3.991,0,0,0,.341.425,3.647,3.647,0,0,0,3.95.634,1.8,1.8,0,0,0,.664-.958,2.189,2.189,0,0,0,.15-.742c.437-.024.85-.024,1.287-.018.61,1.317,1.155,2.663,1.652,4.022l-.174.036a.336.336,0,0,0-.263.395L28.841,46a.339.339,0,0,0,.395.263l.473-.1c.054.2.1.413.144.616-2.071.138-4.3.323-7.1.581-.066-.227-.132-.455-.192-.688l.263-.054a.336.336,0,0,0,.263-.395c-.407-1.843-.311-1.921-.515-2.059-.18-.12-.341-.012-.67.036a37.188,37.188,0,0,0-1.694-4.513,2.918,2.918,0,0,1,.311-.072ZM21.546,46.2l-.066.012-.168-.85c.084.281.162.557.233.838Zm-9.151-3.429a4.532,4.532,0,0,1,2.789-1.64,27.279,27.279,0,0,1,4-1.185c.67,1.442,1.257,2.933,1.79,4.447l-.2.042a.336.336,0,0,0-.263.395l.371,1.843a.339.339,0,0,0,.4.263l.4-.084c.054.3.09.6.114.9a2.654,2.654,0,0,0-.269.263,7.342,7.342,0,0,0-.766,2.526c-.551,2.633-1.688,7.631-1.951,8.876-.4-.024-1.179-.072-1.58-.1-.138-.856-.1-.964-.269-1.837-.509-2.633-.4-4.441-1-6.518a.335.335,0,0,0-.622-.054,14.641,14.641,0,0,1-.922,1.634,12.3,12.3,0,0,0-5.243-1.909c1.5-5.285,2.334-6.476,3.22-7.864Zm4.177,16.578a.271.271,0,0,0-.12.138c-.1-.132-3.387-4.477-3.178-4.2l.964-2.011c.006.006.012.006.018.012a.329.329,0,0,0,.509-.048c.281-.407.539-.826.778-1.251.281,1.293.383,3.645.772,5.62.12.652.12.826.257,1.742ZM9.4,51.326a12.422,12.422,0,0,1,4.3,1.526L12.58,55.187a.321.321,0,0,0,.042.341c3.747,4.944,4.267,5.7,4.4,5.805a5.586,5.586,0,0,0,1.071.916,1.154,1.154,0,0,0,.323.209c1.472,1.029,3.082,1.562,4.279,2.807-.048.156-.1.275-.138.407-.269-.048-.682-.138-.724-.144a.333.333,0,0,0-.479.431c.138.269.192.383.347.754.006.174.275.515.718,1.915-.066.006.084-.006-.437.024-.09-.132-.174-.257-.275-.383a.353.353,0,0,0-.587.2,1.6,1.6,0,0,0-.413-.03c-.108-.545-.652-.467-.724-.084a3.136,3.136,0,0,1-.473-.03c-.024-.5-.545-.527-.682-.126a1.691,1.691,0,0,1-.389-.006,9.209,9.209,0,0,0-1.855-2.873c-7.451-8.666-7.984-8.594-7.864-9.408Z" transform="translate(-8.041 -11.312)" fill="#00b26b"/>
      <path id="Path_479" data-name="Path 479" d="M73.875,22.382l3.31-5.416a.335.335,0,0,0-.569-.353l-3.31,5.416a.339.339,0,0,0,.108.461A.327.327,0,0,0,73.875,22.382Z" transform="translate(26.662 -15.134)" fill="#00b26b"/>
      <path id="Path_480" data-name="Path 480" d="M76.006,21.983l1.43-3.729a.333.333,0,0,0-.622-.239l-1.43,3.729A.333.333,0,0,0,76.006,21.983Z" transform="translate(27.78 -14.418)" fill="#00b26b"/>
      <path id="Path_481" data-name="Path 481" d="M42.759,20.794a.334.334,0,0,0,.581-.06c2.023-4.794,2.2-4.716,2-5s-.168-.09-5.38.192a.332.332,0,0,0-.251.521Zm1.79-4.5-1.58,3.633L40.6,16.551Z" transform="translate(8.78 -15.593)" fill="#00b26b"/>
      <path id="Path_482" data-name="Path 482" d="M57,55.249a.768.768,0,0,0,.628,1.287L83.09,54.3A.775.775,0,0,0,83.628,54l5.428-6.942a.445.445,0,0,0-.359-.718c-24.8.7-23.82.383-24.238.832Z" transform="translate(17.902 0.77)" fill="#00b26b"/>
      <path id="Path_483" data-name="Path 483" d="M81.815,50.049A6.445,6.445,0,0,1,84.2,54.107a5.63,5.63,0,0,1-1.58,4.351c3.124-.174,5.165-2.179,4-5.4a4.413,4.413,0,0,1-.539-2.615c.413-1.592,2.514-2.047,3.747-3.561a3.008,3.008,0,0,0,.742-2.053,2.3,2.3,0,0,0-4.351-.91c.892-2.125,2.161-4.674,1.143-7.056a3.3,3.3,0,0,0-2.992-2.095c-1.885.072-3.405,2.011-3.86,4.028-.622,2.765.377,6.272,1.831,8.69-.341-.353-.592-.85-1.065-.982a1.072,1.072,0,0,0-1.227.874,1.906,1.906,0,0,0,.515,1.55,9.373,9.373,0,0,0,1.257,1.119Z" transform="translate(30.26 -5.39)" fill="#00b26b"/>
    </g>
  </g>
</svg>
