<svg xmlns="http://www.w3.org/2000/svg" width="110.564" height="110.564" viewBox="0 0 110.564 110.564">
  <g id="Charge_your_EV" data-name="Charge your EV" transform="translate(-2 -2)">
    <g id="Group_312" data-name="Group 312" transform="translate(2 2)">
      <path id="Path_397" data-name="Path 397" d="M49.226,32.641V6.843A1.843,1.843,0,0,0,47.383,5H6.843A1.843,1.843,0,0,0,5,6.843v25.8a1.843,1.843,0,0,0,1.843,1.843h40.54A1.843,1.843,0,0,0,49.226,32.641ZM45.54,30.8H8.685V8.685H45.54Z" transform="translate(0.528 0.528)" fill="#00b26b"/>
      <path id="Path_398" data-name="Path 398" d="M107.036,16.742h-2.182a5.528,5.528,0,0,0-5.189-3.685H88.4a16.666,16.666,0,0,0-7.419,1.751l-7.553,3.778a9.166,9.166,0,0,0-5.093,8.241V51.754A1.843,1.843,0,0,0,70.181,53.6h7.371V84A24.877,24.877,0,1,1,27.8,84V72.024h20.27a9.225,9.225,0,0,0,9.214-9.214v-51.6A9.225,9.225,0,0,0,48.069,2H11.214A9.225,9.225,0,0,0,2,11.214v51.6a9.225,9.225,0,0,0,9.214,9.214h12.9V84a28.562,28.562,0,1,0,57.125,0V53.6a1.843,1.843,0,0,0,1.843-1.843V39.994l1.59.8A16.666,16.666,0,0,0,92.09,42.54h7.576a5.528,5.528,0,0,0,5.189-3.685h2.182a5.528,5.528,0,0,0,5.528-5.528V22.27a5.528,5.528,0,0,0-5.528-5.528ZM5.685,62.81v-51.6a5.528,5.528,0,0,1,5.528-5.528H48.069A5.528,5.528,0,0,1,53.6,11.214v51.6a5.528,5.528,0,0,1-5.528,5.528H11.214A5.528,5.528,0,0,1,5.685,62.81Zm93.98-23.956H92.09a12.98,12.98,0,0,1-5.77-1.362l-4.259-2.13A1.843,1.843,0,0,0,79.4,37.012v12.9H72.024V26.825a5.5,5.5,0,0,1,3.055-4.944L82.635,18.1a12.98,12.98,0,0,1,5.77-1.362H99.665a1.843,1.843,0,0,1,1.843,1.843V37.012A1.843,1.843,0,0,1,99.665,38.855Zm9.214-5.528a1.843,1.843,0,0,1-1.843,1.843h-1.843V20.427h1.843a1.843,1.843,0,0,1,1.843,1.843Z" transform="translate(-2 -2)" fill="#00b26b"/>
      <path id="Path_399" data-name="Path 399" d="M35.8,35.9A12.9,12.9,0,1,0,22.9,48.8,12.9,12.9,0,0,0,35.8,35.9Zm-22.113,0A9.214,9.214,0,1,1,22.9,45.113,9.214,9.214,0,0,1,13.685,35.9Z" transform="translate(4.742 15.698)" fill="#00b26b"/>
      <path id="Path_400" data-name="Path 400" d="M27.742,33.371a7.371,7.371,0,1,0-7.371,7.371A7.371,7.371,0,0,0,27.742,33.371Zm-11.056,0a3.685,3.685,0,1,1,3.685,3.685A3.685,3.685,0,0,1,16.685,33.371Z" transform="translate(7.27 18.226)" fill="#00b26b"/>
      <path id="Path_401" data-name="Path 401" d="M19.843,50.427A1.843,1.843,0,0,0,18,52.27v6.45a21.192,21.192,0,0,0,42.383,0V33.843a1.843,1.843,0,1,0-3.685,0V58.72a17.506,17.506,0,0,1-35.012,0V52.27A1.843,1.843,0,0,0,19.843,50.427Z" transform="translate(11.484 23.282)" fill="#00b26b"/>
      <path id="Path_402" data-name="Path 402" d="M57.214,18.371H53.528l3.317-4.423A1.843,1.843,0,1,0,53.9,11.737l-5.528,7.371a1.843,1.843,0,0,0,1.474,2.948h3.685l-3.317,4.423A1.843,1.843,0,1,0,53.16,28.69l5.528-7.371a1.843,1.843,0,0,0-1.474-2.948Z" transform="translate(36.766 5.585)" fill="#00b26b"/>
      <path id="Path_403" data-name="Path 403" d="M10.843,26.427H32.956A1.843,1.843,0,0,0,34.8,24.585V22.742h1.843A1.843,1.843,0,0,0,38.484,20.9V13.528a1.843,1.843,0,0,0-1.843-1.843H34.8V9.843A1.843,1.843,0,0,0,32.956,8H10.843A1.843,1.843,0,0,0,9,9.843V24.585A1.843,1.843,0,0,0,10.843,26.427Zm1.843-14.742H31.113v1.843a1.843,1.843,0,0,0,1.843,1.843H34.8v3.685H32.956A1.843,1.843,0,0,0,31.113,20.9v1.843H12.685Z" transform="translate(3.899 3.056)" fill="#00b26b"/>
      <path id="Path_404" data-name="Path 404" d="M13.843,11A1.843,1.843,0,0,0,12,12.843v3.685a1.843,1.843,0,1,0,3.685,0V12.843A1.843,1.843,0,0,0,13.843,11Z" transform="translate(6.427 5.585)" fill="#00b26b"/>
      <path id="Path_405" data-name="Path 405" d="M16.843,11A1.843,1.843,0,0,0,15,12.843v3.685a1.843,1.843,0,1,0,3.685,0V12.843A1.843,1.843,0,0,0,16.843,11Z" transform="translate(8.956 5.585)" fill="#00b26b"/>
      <path id="Path_406" data-name="Path 406" d="M19.843,11A1.843,1.843,0,0,0,18,12.843v3.685a1.843,1.843,0,1,0,3.685,0V12.843A1.843,1.843,0,0,0,19.843,11Z" transform="translate(11.484 5.585)" fill="#00b26b"/>
    </g>
  </g>
</svg>
