<svg xmlns="http://www.w3.org/2000/svg" width="102.744" height="102.73" viewBox="0 0 102.744 102.73">
  <g id="noun-maintaince-2279385" transform="translate(-5.497 -5.501)">
    <g id="Group_336" data-name="Group 336" transform="translate(5.497 5.501)">
      <path id="Path_484" data-name="Path 484" d="M99.166,31.6a1.605,1.605,0,0,0-2.619-.524L84.06,43.564l-9.08-9.08L87.465,22a1.605,1.605,0,0,0-.524-2.619A22.466,22.466,0,0,0,57.224,47.7L20.5,84.426a9.631,9.631,0,0,0,13.62,13.62L70.854,61.31A22.456,22.456,0,0,0,99.166,31.6ZM83.371,21.552,72.71,32.214,65.946,25.45A19.189,19.189,0,0,1,83.371,21.552ZM31.848,95.776a6.421,6.421,0,1,1-9.08-9.08L58.617,50.848c.307.57.646,1.119,1,1.658.1.155.211.306.317.459q.42.6.879,1.181c.118.148.234.3.356.443.421.5.858.993,1.325,1.46s.956.9,1.456,1.322c.148.125.3.243.452.363q.57.454,1.167.869c.156.109.311.22.47.324.538.354,1.087.692,1.656,1ZM71.175,58.028c-.041-.021-.082-.04-.124-.057A19.257,19.257,0,0,1,60.573,47.492c-.016-.04-.034-.079-.055-.118A19.215,19.215,0,0,1,63.676,27.72L90.824,54.868A19.218,19.218,0,0,1,71.175,58.028ZM93.094,52.6,86.33,45.834,96.992,35.172A19.2,19.2,0,0,1,93.094,52.6Z" transform="translate(1.877 1.867)" fill="#00b26b"/>
      <path id="Path_485" data-name="Path 485" d="M36.341,54.487,23.856,66.972a1.605,1.605,0,1,0,2.27,2.27L38.611,56.757a1.605,1.605,0,0,0-2.27-2.27Z" transform="translate(5.33 23.861)" fill="#00b26b"/>
      <path id="Path_486" data-name="Path 486" d="M16.717,45.6a6.9,6.9,0,1,0,6.9,6.9A6.908,6.908,0,0,0,16.717,45.6Zm0,10.592A3.691,3.691,0,1,1,20.408,52.5,3.694,3.694,0,0,1,16.717,56.2Z" transform="translate(-2.882 18.77)" fill="#00b26b"/>
      <path id="Path_487" data-name="Path 487" d="M26.837,65.9,32.952,55.3a1.608,1.608,0,0,0,0-1.605L26.837,43.108a1.6,1.6,0,0,0-1.39-.8H13.217a1.6,1.6,0,0,0-1.39.8L5.711,53.7a1.608,1.608,0,0,0,0,1.605L11.827,65.9a1.6,1.6,0,0,0,1.39.8h12.23A1.605,1.605,0,0,0,26.837,65.9ZM14.144,63.488,8.956,54.5l5.188-8.986H24.52L29.708,54.5,24.52,63.488Z" transform="translate(-5.497 16.773)" fill="#00b26b"/>
      <path id="Path_488" data-name="Path 488" d="M51.6,59.485a6.9,6.9,0,1,0,6.9-6.9A6.908,6.908,0,0,0,51.6,59.485Zm10.592,0A3.691,3.691,0,1,1,58.5,55.794,3.694,3.694,0,0,1,62.191,59.485Z" transform="translate(22.405 22.993)" fill="#00b26b"/>
      <path id="Path_489" data-name="Path 489" d="M71.891,54.594,61.3,48.478a1.6,1.6,0,0,0-1.605,0L49.1,54.594a1.6,1.6,0,0,0-.8,1.39v12.23a1.6,1.6,0,0,0,.8,1.39l10.591,6.115a1.607,1.607,0,0,0,1.605,0L71.891,69.6a1.6,1.6,0,0,0,.8-1.39V55.984A1.6,1.6,0,0,0,71.891,54.594ZM69.483,67.287,60.5,72.475l-8.986-5.188V56.91L60.5,51.722l8.986,5.188Z" transform="translate(20.409 20.379)" fill="#00b26b"/>
      <path id="Path_490" data-name="Path 490" d="M28.339,41.185A12.842,12.842,0,1,0,15.5,28.343,12.856,12.856,0,0,0,28.339,41.185Zm0-22.473a9.631,9.631,0,1,1-9.631,9.631A9.642,9.642,0,0,1,28.339,18.712Z" transform="translate(0.555 0.551)" fill="#00b26b"/>
      <path id="Path_491" data-name="Path 491" d="M7.008,40.813l4.264.251a23.859,23.859,0,0,0,2.058,4.96l-2.84,3.2a1.606,1.606,0,0,0,.065,2.2l6.81,6.81a1.606,1.606,0,0,0,2.2.065l3.2-2.84a23.86,23.86,0,0,0,4.96,2.058l.251,4.264a1.6,1.6,0,0,0,1.6,1.511h9.631a1.6,1.6,0,0,0,1.6-1.511l.251-4.264a23.86,23.86,0,0,0,4.96-2.058l3.2,2.84a1.6,1.6,0,0,0,2.2-.065l6.81-6.81a1.606,1.606,0,0,0,.065-2.2l-2.84-3.2a23.861,23.861,0,0,0,2.058-4.96l4.264-.251a1.6,1.6,0,0,0,1.511-1.6V29.579a1.6,1.6,0,0,0-1.511-1.6l-4.264-.251a23.883,23.883,0,0,0-2.058-4.961l2.84-3.195a1.606,1.606,0,0,0-.065-2.2l-6.81-6.81a1.606,1.606,0,0,0-2.2-.065l-3.2,2.84a23.86,23.86,0,0,0-4.96-2.058l-.251-4.264a1.6,1.6,0,0,0-1.6-1.511H29.575a1.6,1.6,0,0,0-1.6,1.511l-.251,4.264a23.859,23.859,0,0,0-4.96,2.058l-3.2-2.84a1.606,1.606,0,0,0-2.2.065l-6.81,6.81a1.606,1.606,0,0,0-.065,2.2l2.84,3.195a23.884,23.884,0,0,0-2.058,4.961l-4.264.251a1.6,1.6,0,0,0-1.511,1.6v9.631A1.6,1.6,0,0,0,7.008,40.813Zm1.7-9.72,3.917-.23a1.6,1.6,0,0,0,1.469-1.236,20.7,20.7,0,0,1,2.576-6.208,1.606,1.606,0,0,0-.164-1.913L13.9,18.569l4.67-4.67L21.5,16.51a1.6,1.6,0,0,0,1.914.164A20.662,20.662,0,0,1,29.622,14.1a1.6,1.6,0,0,0,1.236-1.469l.23-3.917h6.6l.23,3.917A1.6,1.6,0,0,0,39.159,14.1a20.662,20.662,0,0,1,6.207,2.576,1.609,1.609,0,0,0,1.914-.164l2.936-2.61,4.67,4.67L52.276,21.5a1.606,1.606,0,0,0-.164,1.913,20.7,20.7,0,0,1,2.576,6.208,1.6,1.6,0,0,0,1.469,1.236l3.917.23v6.6l-3.917.23a1.6,1.6,0,0,0-1.469,1.236,20.662,20.662,0,0,1-2.576,6.207,1.607,1.607,0,0,0,.164,1.914l2.61,2.936-4.67,4.67-2.936-2.61a1.611,1.611,0,0,0-1.914-.164,20.662,20.662,0,0,1-6.207,2.576,1.6,1.6,0,0,0-1.236,1.469l-.23,3.917h-6.6l-.23-3.917a1.6,1.6,0,0,0-1.236-1.469,20.662,20.662,0,0,1-6.207-2.576,1.606,1.606,0,0,0-1.914.164l-2.936,2.61-4.67-4.67,2.61-2.936a1.607,1.607,0,0,0,.164-1.914,20.662,20.662,0,0,1-2.576-6.207,1.6,1.6,0,0,0-1.469-1.236L8.707,37.7Z" transform="translate(-5.497 -5.501)" fill="#00b26b"/>
    </g>
  </g>
</svg>
