<svg xmlns="http://www.w3.org/2000/svg" width="147.779" height="147.779" viewBox="0 0 147.779 147.779">
  <g id="noun-products-services-3694053" transform="translate(-1.975 -1)">
    <g id="Group_334" data-name="Group 334" transform="translate(1.975 1)">
      <rect id="Rectangle_205" data-name="Rectangle 205" width="4.827" height="4.827" transform="translate(33.822 124.304)" fill="#00b26b"/>
      <rect id="Rectangle_206" data-name="Rectangle 206" width="3.62" height="4.827" transform="translate(43.477 124.304)" fill="#00b26b"/>
      <path id="Path_462" data-name="Path 462" d="M30.6,46.571l-1.509-4.519A17.542,17.542,0,0,0,18.051,53.093L22.57,54.6A12.777,12.777,0,0,1,30.6,46.571Z" transform="translate(22.591 55.797)" fill="#00b26b"/>
      <path id="Path_463" data-name="Path 463" d="M141.628,34.369H67.739V24.835H62.822a2.222,2.222,0,0,1-2.055-1.44,2.2,2.2,0,0,1,.467-2.4l3.473-3.478L51.226,4.032l-3.48,3.475a2.229,2.229,0,0,1-2.467.441A2.2,2.2,0,0,1,43.9,5.917V1H24.835V5.917A2.222,2.222,0,0,1,23.4,7.972a2.19,2.19,0,0,1-2.4-.467L17.515,4.032,4.032,17.515l3.475,3.478a2.224,2.224,0,0,1,.441,2.467,2.2,2.2,0,0,1-2.031,1.375H1V43.9H5.917a2.222,2.222,0,0,1,2.055,1.44,2.2,2.2,0,0,1-.467,2.4L4.032,51.226,17.513,64.707l3.478-3.475a2.228,2.228,0,0,1,2.467-.441,2.195,2.195,0,0,1,1.378,2.031v6.245a9.414,9.414,0,0,0-4.767-1.328A4.772,4.772,0,0,0,15.3,72.506V94.775a34.687,34.687,0,0,0,9.534,23.985v30.018H141.628a7.159,7.159,0,0,0,7.151-7.151V41.52A7.159,7.159,0,0,0,141.628,34.369Zm2.384,7.151V53.438H110.642v-14.3h30.986A2.384,2.384,0,0,1,144.012,41.52ZM96.341,91.574v9.534H91.574V91.574H86.807v9.534H82.04V39.136h23.835v61.972h-4.767V91.574ZM77.273,72.506H67.3a7.064,7.064,0,0,0-6.71-4.767h-.007a7.112,7.112,0,0,0-2.66.524,7.14,7.14,0,0,0-5.191-5.07L57.726,58.2H77.273ZM24.954,45.112a14.3,14.3,0,1,1,14.182,2.722V46.287a7.139,7.139,0,0,0-14.182-1.175ZM46.287,64.831A7.084,7.084,0,0,0,43.9,63.41v-.591a2.222,2.222,0,0,1,1.44-2.055,2.191,2.191,0,0,1,2.4.467l1.885,1.883A7.13,7.13,0,0,0,46.287,64.831Zm-7.151,5.291a2.384,2.384,0,0,1,4.767,0v14.3a2.384,2.384,0,0,1-4.767,0Zm9.534,0a2.384,2.384,0,0,1,4.767,0v14.3a2.384,2.384,0,1,1-4.767,0ZM58.2,74.889a2.385,2.385,0,0,1,2.386-2.384h0a2.38,2.38,0,0,1,2.379,2.381v9.536a2.384,2.384,0,1,1-4.767,0ZM110.642,58.2h33.369v14.3H110.642ZM77.273,39.136v14.3H62.493l2.214-2.214-3.475-3.478a2.224,2.224,0,0,1-.441-2.467A2.2,2.2,0,0,1,62.822,43.9h4.917V39.136Zm-59.65,18.72-.107.107-6.741-6.741.1-.107a7.042,7.042,0,0,0-4.963-11.98h-.15V29.6h.15a7.043,7.043,0,0,0,4.963-11.98l-.1-.107,6.741-6.741.107.1A7.042,7.042,0,0,0,29.6,5.917v-.15h9.534v.15a7.043,7.043,0,0,0,11.98,4.963l.107-.107,6.741,6.741-.1.107A7.044,7.044,0,0,0,62.822,29.6h.15v9.534h-.15a7.043,7.043,0,0,0-4.963,11.98l.107.107-6.741,6.741-.107-.1a7.044,7.044,0,0,0-11.982,4.963v-10a19.133,19.133,0,1,0-14.3-2v5.408A6.937,6.937,0,0,0,17.623,57.857Zm2.446,36.918V72.506a4.772,4.772,0,0,1,4.767,4.767V90.449a8.012,8.012,0,0,0,4.455,7.208,9.132,9.132,0,0,1,4.884,6.324L38.839,103a13.879,13.879,0,0,0-7.415-9.606A3.271,3.271,0,0,1,29.6,90.449V46.287a2.384,2.384,0,0,1,4.767,0V84.423a7.12,7.12,0,0,0,11.918,5.291,7.041,7.041,0,0,0,9.534,0,6.931,6.931,0,0,0,7.151,1.421V102.05a25.893,25.893,0,0,1-3.714,13.36H28.272A29.93,29.93,0,0,1,20.068,94.775Zm9.534,25.4H58.2v23.835H29.6Zm112.026,23.835H62.972V118.5a30.65,30.65,0,0,0,4.767-16.449V77.273h9.534v23.835a4.772,4.772,0,0,0,4.767,4.767h23.835a4.772,4.772,0,0,0,4.767-4.767V77.273h33.369v64.355A2.384,2.384,0,0,1,141.628,144.012Z" transform="translate(-1 -1)" fill="#00b26b"/>
      <rect id="Rectangle_207" data-name="Rectangle 207" width="14.482" height="4.827" transform="translate(114.68 133.958)" fill="#00b26b"/>
      <rect id="Rectangle_208" data-name="Rectangle 208" width="24.137" height="4.827" transform="translate(114.68 124.304)" fill="#00b26b"/>
      <rect id="Rectangle_209" data-name="Rectangle 209" width="9.655" height="4.827" transform="translate(114.68 114.649)" fill="#00b26b"/>
      <rect id="Rectangle_210" data-name="Rectangle 210" width="9.655" height="4.827" transform="translate(129.162 114.649)" fill="#00b26b"/>
    </g>
  </g>
</svg>
