<svg xmlns="http://www.w3.org/2000/svg" width="84.77" height="85.597" viewBox="0 0 84.77 85.597">
  <g id="Additional_team_for_installation." data-name="Additional team for installation." transform="translate(-5.115 -4.703)">
    <path id="Path_606" data-name="Path 606" d="M84.343,50.483h-17a1.484,1.484,0,0,0-1.484,1.485,18.363,18.363,0,1,1-36.726,0,1.484,1.484,0,0,0-1.483-1.485h-17a1.484,1.484,0,0,0-1.484,1.485V57.3A1.485,1.485,0,0,0,10.2,58.708l6.4,2.08a31.96,31.96,0,0,0,2.815,6.789l-3.058,6A1.483,1.483,0,0,0,16.63,75.3l7.535,7.535a1.486,1.486,0,0,0,1.724.274l6-3.059a31.862,31.862,0,0,0,6.79,2.816l2.08,6.4A1.485,1.485,0,0,0,42.172,90.3H52.828a1.483,1.483,0,0,0,1.411-1.025l2.081-6.4a32.006,32.006,0,0,0,6.789-2.816l6,3.059a1.486,1.486,0,0,0,1.724-.274L78.369,75.3a1.483,1.483,0,0,0,.273-1.724l-3.058-6a31.9,31.9,0,0,0,2.816-6.79l6.4-2.08A1.485,1.485,0,0,0,85.827,57.3V51.968A1.484,1.484,0,0,0,84.343,50.483Zm-1.485,5.734-6.139,2a1.486,1.486,0,0,0-.978,1.042A29,29,0,0,1,72.62,66.78a1.48,1.48,0,0,0-.045,1.428l2.932,5.757L69.5,79.976l-5.756-2.934a1.487,1.487,0,0,0-1.429.045,28.983,28.983,0,0,1-7.526,3.121,1.482,1.482,0,0,0-1.041.979l-2,6.14h-8.5l-1.995-6.14a1.483,1.483,0,0,0-1.043-.979,28.941,28.941,0,0,1-7.524-3.121,1.489,1.489,0,0,0-1.43-.045L25.5,79.976l-6.01-6.011,2.933-5.757a1.485,1.485,0,0,0-.045-1.428,28.989,28.989,0,0,1-3.121-7.526,1.486,1.486,0,0,0-.978-1.041l-6.14-2V53.452H26.22a21.331,21.331,0,0,0,42.559,0H82.858ZM21.317,28.091a9.2,9.2,0,1,0-9.2-9.2,9.2,9.2,0,0,0,9.2,9.2Zm0-15.434a6.233,6.233,0,1,1-6.232,6.233,6.233,6.233,0,0,1,6.232-6.233ZM73.682,28.091a9.2,9.2,0,1,0-9.2-9.2A9.2,9.2,0,0,0,73.682,28.091Zm0-15.434A6.233,6.233,0,1,1,67.45,18.89a6.233,6.233,0,0,1,6.232-6.233ZM89.851,41.163A16.553,16.553,0,0,0,61.008,34.1a21.36,21.36,0,0,0-27.017,0A16.552,16.552,0,0,0,5.149,41.163a1.483,1.483,0,0,0,1.45,1.8H27.474a21.184,21.184,0,0,0-.984,3.181,1.484,1.484,0,0,0,1.449,1.8h8.38c-.08.2-.16.407-.23.614l-1.39.452a1.484,1.484,0,0,0-1.026,1.412v4.229a1.484,1.484,0,0,0,1.027,1.42l1.391.452a12.606,12.606,0,0,0,.667,1.608l-.664,1.3a1.483,1.483,0,0,0,.273,1.724l2.99,2.99a1.484,1.484,0,0,0,1.724.273l1.3-.664a12.392,12.392,0,0,0,1.609.667l.452,1.391a1.484,1.484,0,0,0,1.411,1.026h4.229A1.485,1.485,0,0,0,51.5,65.816l.451-1.391a12.394,12.394,0,0,0,1.609-.667l1.3.664a1.483,1.483,0,0,0,1.724-.273l2.99-2.99a1.486,1.486,0,0,0,.273-1.723l-.665-1.3a12.327,12.327,0,0,0,.668-1.608l1.391-.452a1.485,1.485,0,0,0,1.025-1.412V50.43a1.484,1.484,0,0,0-1.026-1.412l-1.39-.452c-.07-.207-.15-.41-.23-.614h7.44a1.484,1.484,0,0,0,1.449-1.8,20.956,20.956,0,0,0-.984-3.181H88.4a1.483,1.483,0,0,0,1.45-1.8Zm-68.534-10A13.59,13.59,0,0,1,31.8,36.1,21.5,21.5,0,0,0,28.892,40H8.583a13.684,13.684,0,0,1,12.734-8.842ZM59.3,53.581l-1.1.358a1.486,1.486,0,0,0-.98,1.037,9.435,9.435,0,0,1-.99,2.385,1.486,1.486,0,0,0-.043,1.42l.53,1.041-1.465,1.466-1.033-.527a1.482,1.482,0,0,0-1.428.04,9.437,9.437,0,0,1-2.383.988,1.482,1.482,0,0,0-1.034.968L49,63.874H46.933l-.357-1.1a1.484,1.484,0,0,0-1.039-.984,9.444,9.444,0,0,1-2.384-.988,1.484,1.484,0,0,0-1.426-.041l-1.035.528-1.465-1.466.532-1.045a1.484,1.484,0,0,0-.046-1.415,9.525,9.525,0,0,1-.989-2.387,1.485,1.485,0,0,0-.982-1.036l-1.1-.358V51.508l1.1-.357a1.483,1.483,0,0,0,.982-1.037,9.541,9.541,0,0,1,.989-2.387,1.484,1.484,0,0,0,.042-1.422l-.528-1.037L40.692,43.8l1.035.528a1.487,1.487,0,0,0,1.425-.041,9.538,9.538,0,0,1,2.387-.991,1.484,1.484,0,0,0,1.035-.978l.359-1.1h2.072l.364,1.118a1.485,1.485,0,0,0,1.03.963,9.538,9.538,0,0,1,2.387.991,1.488,1.488,0,0,0,1.427.04l1.033-.528,1.465,1.466L56.185,46.3a1.483,1.483,0,0,0,.039,1.427,9.485,9.485,0,0,1,.99,2.386,1.484,1.484,0,0,0,.98,1.037l1.1.357Zm.694-8.6a1.473,1.473,0,0,0-.417-1.052l-2.99-2.991a1.486,1.486,0,0,0-1.724-.273l-1.3.666a12.422,12.422,0,0,0-1.609-.668l-.451-1.39a1.483,1.483,0,0,0-1.412-1.025H45.854a1.484,1.484,0,0,0-1.411,1.025l-.452,1.39a12.468,12.468,0,0,0-1.608.668l-1.3-.666a1.488,1.488,0,0,0-1.725.273l-2.989,2.991a1.464,1.464,0,0,0-.417,1.052H29.886a18.553,18.553,0,0,1,35.228,0ZM66.107,40A21.458,21.458,0,0,0,63.2,36.1,13.591,13.591,0,0,1,86.417,40ZM47.5,28.183a11.74,11.74,0,1,0-11.74-11.74A11.74,11.74,0,0,0,47.5,28.183Zm0-20.511a8.771,8.771,0,1,1-8.771,8.771A8.771,8.771,0,0,1,47.5,7.672Zm.469,37.683a7.19,7.19,0,1,0,7.189,7.189A7.19,7.19,0,0,0,47.969,45.355Zm0,11.41a4.221,4.221,0,1,1,4.22-4.221A4.221,4.221,0,0,1,47.969,56.765Z" fill="#00b26b"/>
  </g>
</svg>
