<svg xmlns="http://www.w3.org/2000/svg" width="63.99" height="63.993" viewBox="0 0 63.99 63.993">
  <g id="Cost_effective" data-name="Cost effective" transform="translate(-0.793 -0.793)">
    <g id="Group_94" data-name="Group 94" transform="translate(0.793 0.793)">
      <path id="Path_295" data-name="Path 295" d="M32.788.793a4.237,4.237,0,0,0-2.122.7c-.691.38-1.419.869-2.125,1.353s-1.392.962-1.98,1.34a7.456,7.456,0,0,1-1.254.683,7.165,7.165,0,0,1-1.426.045c-.7-.037-1.541-.119-2.394-.185s-1.7-.117-2.493-.1a4.276,4.276,0,0,0-2.2.457,4.259,4.259,0,0,0-1.5,1.668c-.408.674-.786,1.452-1.155,2.224s-.733,1.544-1.054,2.165a7.373,7.373,0,0,1-.741,1.211,7.417,7.417,0,0,1-1.213.741c-.622.321-1.394.672-2.165,1.041s-1.549.76-2.224,1.168a4.226,4.226,0,0,0-1.668,1.482,4.269,4.269,0,0,0-.455,2.2c-.016.788.048,1.655.114,2.508s.137,1.7.17,2.394A7.2,7.2,0,0,1,4.87,25.3a7.044,7.044,0,0,1-.67,1.256c-.378.589-.869,1.275-1.353,1.98s-.96,1.419-1.34,2.109a4.311,4.311,0,0,0-.713,2.137,4.257,4.257,0,0,0,.713,2.122c.38.691.856,1.4,1.34,2.109s.975,1.407,1.353,2a7.068,7.068,0,0,1,.67,1.254,7.076,7.076,0,0,1,.043,1.411c-.033.7-.1,1.541-.17,2.394s-.131,1.72-.114,2.508a4.267,4.267,0,0,0,.455,2.2,4.265,4.265,0,0,0,1.668,1.5c.674.408,1.452.784,2.224,1.153s1.544.72,2.165,1.041a7.093,7.093,0,0,1,1.213.756,7.38,7.38,0,0,1,.741,1.211c.321.622.685,1.381,1.054,2.153s.747,1.547,1.155,2.221a4.3,4.3,0,0,0,1.5,1.683,4.276,4.276,0,0,0,2.2.457c.788.015,1.64-.051,2.493-.114s1.7-.14,2.394-.172a6.793,6.793,0,0,1,1.426.045,7.1,7.1,0,0,1,1.254.67c.589.378,1.275.869,1.98,1.353s1.434.96,2.125,1.34a4.254,4.254,0,0,0,2.122.713,4.262,4.262,0,0,0,2.125-.713c.691-.38,1.417-.857,2.122-1.34s1.394-.975,1.982-1.353a7.065,7.065,0,0,1,1.254-.67,7.139,7.139,0,0,1,1.424-.045c.7.037,1.541.107,2.394.172s1.707.131,2.5.114a3.58,3.58,0,0,0,3.691-2.14c.408-.674.786-1.45,1.155-2.221s.733-1.531,1.054-2.153a7.375,7.375,0,0,1,.741-1.211,7,7,0,0,1,1.211-.756c.622-.321,1.4-.672,2.168-1.041s1.534-.745,2.209-1.153a3.583,3.583,0,0,0,2.137-3.693c.016-.788-.048-1.655-.114-2.508s-.137-1.7-.17-2.394a7.043,7.043,0,0,1,.043-1.411,6.987,6.987,0,0,1,.668-1.254c.378-.589.872-1.29,1.355-2s.96-1.419,1.34-2.109a4.256,4.256,0,0,0,.711-2.122,4.308,4.308,0,0,0-.711-2.137c-.38-.691-.856-1.4-1.34-2.109s-.977-1.392-1.355-1.98a6.985,6.985,0,0,1-.668-1.256,7.223,7.223,0,0,1-.043-1.424c.033-.7.1-1.541.17-2.394s.131-1.72.114-2.508a4.267,4.267,0,0,0-.457-2.2A4.264,4.264,0,0,0,58.813,15.3c-.674-.409-1.437-.8-2.209-1.168s-1.546-.72-2.168-1.041a7.4,7.4,0,0,1-1.211-.741,7.382,7.382,0,0,1-.741-1.211c-.321-.622-.685-1.394-1.054-2.165s-.747-1.549-1.155-2.224a4.267,4.267,0,0,0-1.5-1.668,4.261,4.261,0,0,0-2.194-.457c-.788-.015-1.642.038-2.5.1s-1.7.152-2.394.185a6.768,6.768,0,0,1-1.424-.045,7.591,7.591,0,0,1-1.254-.683c-.589-.378-1.277-.857-1.982-1.34S35.6,1.871,34.913,1.491A4.244,4.244,0,0,0,32.788.793Zm0,2.209a4.527,4.527,0,0,1,1.069.429c.564.31,1.236.752,1.924,1.224s1.386.98,2.038,1.4a6.708,6.708,0,0,0,1.881.939,6.692,6.692,0,0,0,2.094.114c.774-.037,1.635-.106,2.467-.17s1.636-.114,2.28-.1a4.766,4.766,0,0,1,1.14.157,4.578,4.578,0,0,1,.7.9c.333.551.709,1.286,1.069,2.038s.713,1.533,1.069,2.221A6.7,6.7,0,0,0,51.672,13.9a6.694,6.694,0,0,0,1.754,1.155c.689.355,1.469.709,2.222,1.069s1.475.721,2.025,1.054a4.618,4.618,0,0,1,.911.713,4.679,4.679,0,0,1,.157,1.14c.013.644-.037,1.45-.1,2.282s-.149,1.691-.185,2.465a6.713,6.713,0,0,0,.114,2.094,6.721,6.721,0,0,0,.957,1.868c.419.652.909,1.363,1.381,2.051s.931,1.36,1.241,1.924a4.457,4.457,0,0,1,.427,1.069,4.56,4.56,0,0,1-.427,1.054c-.31.564-.769,1.251-1.241,1.939s-.962,1.386-1.381,2.038a6.784,6.784,0,0,0-.957,1.881,6.694,6.694,0,0,0-.114,2.094c.036.774.121,1.62.185,2.452s.115,1.651.1,2.295a4.692,4.692,0,0,1-.157,1.14,5.036,5.036,0,0,1-.911.7c-.551.333-1.273.694-2.025,1.054s-1.533.728-2.222,1.084a6.668,6.668,0,0,0-1.754,1.14,6.778,6.778,0,0,0-1.155,1.767c-.355.689-.709,1.471-1.069,2.224s-.735,1.473-1.069,2.023a5,5,0,0,1-.7.914,4.793,4.793,0,0,1-1.14.155c-.644.015-1.448-.035-2.28-.1s-1.693-.149-2.467-.185a6.642,6.642,0,0,0-2.094.114,6.786,6.786,0,0,0-1.881.955c-.652.419-1.35.911-2.038,1.383s-1.36.914-1.924,1.224a4.96,4.96,0,0,1-1.069.442,4.965,4.965,0,0,1-1.069-.442c-.564-.31-1.236-.752-1.924-1.224s-1.384-.964-2.036-1.383a6.781,6.781,0,0,0-1.883-.954,6.692,6.692,0,0,0-2.094-.114c-.774.037-1.633.12-2.465.185s-1.636.112-2.28.1a4.832,4.832,0,0,1-1.14-.155,4.686,4.686,0,0,1-.713-.914c-.333-.551-.7-1.27-1.056-2.023s-.713-1.535-1.069-2.224a6.773,6.773,0,0,0-1.153-1.767,6.673,6.673,0,0,0-1.754-1.14c-.689-.355-1.471-.723-2.224-1.084s-1.473-.72-2.023-1.054a4.965,4.965,0,0,1-.911-.7,4.674,4.674,0,0,1-.157-1.14c-.013-.644.034-1.463.1-2.295s.149-1.678.185-2.452A6.707,6.707,0,0,0,7.007,39.7a6.766,6.766,0,0,0-.954-1.881c-.419-.652-.909-1.35-1.381-2.038s-.931-1.375-1.241-1.939A4.492,4.492,0,0,1,3,32.788a4.506,4.506,0,0,1,.427-1.069c.31-.564.769-1.236,1.241-1.924s.962-1.4,1.381-2.051a6.711,6.711,0,0,0,.955-1.868,6.694,6.694,0,0,0,.114-2.094c-.036-.774-.121-1.633-.185-2.465s-.113-1.638-.1-2.282a4.677,4.677,0,0,1,.157-1.14,4.7,4.7,0,0,1,.911-.713c.551-.333,1.271-.694,2.023-1.054s1.535-.713,2.224-1.069A6.7,6.7,0,0,0,13.907,13.9a6.7,6.7,0,0,0,1.153-1.754c.355-.689.709-1.469,1.069-2.221s.722-1.488,1.056-2.038a4.3,4.3,0,0,1,.713-.9,4.68,4.68,0,0,1,1.14-.157c.644-.015,1.448.038,2.28.1s1.691.134,2.465.17a6.643,6.643,0,0,0,2.094-.114,6.723,6.723,0,0,0,1.883-.939c.652-.419,1.348-.926,2.036-1.4s1.36-.914,1.924-1.224A4.526,4.526,0,0,1,32.788,3Zm0,8.735A21.047,21.047,0,1,0,53.84,32.788,21.071,21.071,0,0,0,32.788,11.737Zm0,2.206A18.772,18.772,0,0,1,45.312,18.7L39.05,24.962v-1.89H34.295v-4.2H32.088v4.2H30.955a5.4,5.4,0,0,0-.776,10.761L18.7,45.311A18.849,18.849,0,0,1,32.788,13.943Zm14.083,6.315A18.851,18.851,0,0,1,20.261,46.871l6.264-6.264V42.5h5.563v4.2h2.206V42.5h.334A5.4,5.4,0,0,0,35.4,31.733Zm-15.917,5.02h7.778l-6.4,6.4H30.955a3.2,3.2,0,1,1,0-6.4Zm2.29,8.608h1.383a3.2,3.2,0,1,1,0,6.4H26.844Z" transform="translate(-0.793 -0.793)" fill="#00b26b"/>
    </g>
  </g>
</svg>
