<svg xmlns="http://www.w3.org/2000/svg" width="112" height="112" viewBox="0 0 112 112">
  <g id="Daily_kilometres_driven" data-name="Daily kilometres driven" transform="translate(-548 -3274)">
    <g id="Rectangle_238" data-name="Rectangle 238" transform="translate(548 3274)" fill="none" stroke="#fff" stroke-width="3">
      <rect width="112" height="112" rx="16" stroke="none"/>
      <rect x="1.5" y="1.5" width="109" height="109" rx="14.5" fill="none"/>
    </g>
    <g id="noun-gauge-5733248" transform="translate(568.896 3294.896)">
      <path id="Path_609" data-name="Path 609" d="M35.1,0a35.1,35.1,0,1,0,35.1,35.1A35.1,35.1,0,0,0,35.1,0Zm0,68.013a32.961,32.961,0,0,1-32-25.231H29.819a9.307,9.307,0,0,0,10.568,0H67.1A32.961,32.961,0,0,1,35.1,68.013ZM13.164,35.1a21.94,21.94,0,1,1,43.18,5.485H40.035a1.094,1.094,0,0,0-.657.219,7.115,7.115,0,0,1-8.547,0,1.094,1.094,0,0,0-.657-.219H13.863a21.874,21.874,0,0,1-.7-5.485Zm54.383,5.485H64.206a1.095,1.095,0,0,0-2.161-.351,1.068,1.068,0,0,0-.005.351H58.589a24.134,24.134,0,1,0-46.972,0H8.2a1.1,1.1,0,1,0-2.19,0H2.66a32.91,32.91,0,1,1,64.888,0Z" fill="#fff"/>
      <path id="Path_610" data-name="Path 610" d="M63.1,32.388a1.1,1.1,0,0,0,1.1-1.1V29.1A1.1,1.1,0,0,0,62,29.1v2.194a1.1,1.1,0,0,0,1.1,1.1Z" transform="translate(-27.993 -12.642)" fill="#fff"/>
      <path id="Path_611" data-name="Path 611" d="M92,63.1a1.1,1.1,0,0,0,1.1,1.1h2.194a1.1,1.1,0,0,0,0-2.194H93.1A1.1,1.1,0,0,0,92,63.1Z" transform="translate(-41.539 -27.993)" fill="#fff"/>
      <path id="Path_612" data-name="Path 612" d="M31.291,62H29.1a1.1,1.1,0,0,0,0,2.194h2.194a1.1,1.1,0,0,0,0-2.194Z" transform="translate(-12.642 -27.993)" fill="#fff"/>
      <path id="Path_613" data-name="Path 613" d="M39.831,38.28a1.1,1.1,0,0,0-1.551,1.551l1.551,1.551a1.1,1.1,0,1,0,1.551-1.551Z" transform="translate(-17.139 -17.139)" fill="#fff"/>
      <path id="Path_614" data-name="Path 614" d="M84.311,41.7a1.093,1.093,0,0,0,.776-.321l1.551-1.551a1.1,1.1,0,0,0-1.551-1.551l-1.551,1.551a1.1,1.1,0,0,0,.776,1.873Z" transform="translate(-37.572 -17.139)" fill="#fff"/>
      <path id="Path_615" data-name="Path 615" d="M50.87,31.352a1.1,1.1,0,0,0-2.021.854l.854,2.021a1.1,1.1,0,0,0,2.021-.854Z" transform="translate(-22.017 -13.853)" fill="#fff"/>
      <path id="Path_616" data-name="Path 616" d="M89.719,51.14a1.1,1.1,0,0,0,1.437.584l2.021-.854a1.1,1.1,0,1,0-.854-2.021L90.3,49.7a1.1,1.1,0,0,0-.584,1.437Z" transform="translate(-40.47 -22.017)" fill="#fff"/>
      <path id="Path_617" data-name="Path 617" d="M34.037,50.121,32,49.3a1.1,1.1,0,1,0-.825,2.033l2.033.825a1.1,1.1,0,0,0,.825-2.033Z" transform="translate(-13.769 -22.221)" fill="#fff"/>
      <path id="Path_618" data-name="Path 618" d="M73.965,34.641a1.1,1.1,0,0,0,1.429-.6L76.219,32a1.1,1.1,0,1,0-2.033-.825l-.825,2.033A1.1,1.1,0,0,0,73.965,34.641Z" transform="translate(-33.086 -13.769)" fill="#fff"/>
      <path id="Path_619" data-name="Path 619" d="M60.839,64.68a3.845,3.845,0,0,0,3.678-2.742h6.538a1.1,1.1,0,0,0,0-2.194H64.517a3.839,3.839,0,1,0-3.678,4.936Zm0-5.485a1.645,1.645,0,1,1-1.645,1.645,1.645,1.645,0,0,1,1.645-1.645Z" transform="translate(-25.736 -25.737)" fill="#fff"/>
      <path id="Path_620" data-name="Path 620" d="M95.224,22.22a1.1,1.1,0,1,0,1.541-.153,1.1,1.1,0,0,0-1.541.153Z" transform="translate(-42.882 -9.851)" fill="#fff"/>
      <path id="Path_621" data-name="Path 621" d="M101.081,27.6a1.1,1.1,0,1,0,1.55.085,1.1,1.1,0,0,0-1.55-.085Z" transform="translate(-45.475 -12.335)" fill="#fff"/>
      <path id="Path_622" data-name="Path 622" d="M75.075,11.366a1.1,1.1,0,1,0-.494,2.134.945.945,0,0,0,.247.027,1.094,1.094,0,0,0,.247-2.161Z" transform="translate(-33.291 -5.119)" fill="#fff"/>
      <path id="Path_623" data-name="Path 623" d="M82.831,13.8a1.1,1.1,0,0,0-.817,2.035,1.065,1.065,0,0,0,.406.077,1.1,1.1,0,0,0,.411-2.112Z" transform="translate(-36.719 -6.197)" fill="#fff"/>
      <path id="Path_624" data-name="Path 624" d="M90.116,17.4a1.093,1.093,0,1,0,.5.672,1.1,1.1,0,0,0-.5-.672Z" transform="translate(-39.94 -7.788)" fill="#fff"/>
      <path id="Path_625" data-name="Path 625" d="M105.744,35.325a1.1,1.1,0,1,0,.321-1.517,1.088,1.088,0,0,0-.321,1.517Z" transform="translate(-47.664 -15.185)" fill="#fff"/>
      <path id="Path_626" data-name="Path 626" d="M115.1,63.829a1.1,1.1,0,0,0-.077,2.194h.038a1.1,1.1,0,1,0,.039-2.194Z" transform="translate(-51.458 -28.819)" fill="#fff"/>
      <path id="Path_627" data-name="Path 627" d="M109.49,42.146a1.094,1.094,0,0,0,1,.647,1.115,1.115,0,0,0,.455-.1,1.1,1.1,0,1,0-1.453-.548Z" transform="translate(-49.392 -18.33)" fill="#fff"/>
      <path id="Path_628" data-name="Path 628" d="M112.147,49.466a1.1,1.1,0,1,0,2.117-.587h-.006a1.1,1.1,0,0,0-2.112.587Z" transform="translate(-50.617 -21.707)" fill="#fff"/>
      <path id="Path_629" data-name="Path 629" d="M114.614,55.883a1.1,1.1,0,0,0,.126,2.189,1.034,1.034,0,0,0,.132-.006,1.1,1.1,0,0,0-.258-2.183Z" transform="translate(-51.312 -25.228)" fill="#fff"/>
      <path id="Path_630" data-name="Path 630" d="M43.155,13.883a1.1,1.1,0,1,0,1.432.6,1.1,1.1,0,0,0-1.432-.6Z" transform="translate(-19.176 -6.231)" fill="#fff"/>
      <path id="Path_631" data-name="Path 631" d="M16.071,40.892a1.1,1.1,0,1,0,.577.609,1.1,1.1,0,0,0-.577-.609Z" transform="translate(-6.561 -18.42)" fill="#fff"/>
      <path id="Path_632" data-name="Path 632" d="M13.22,48.328a1.1,1.1,0,0,0-.576,2.117,1.013,1.013,0,0,0,.285.039,1.1,1.1,0,0,0,1.059-.812,1.088,1.088,0,0,0-.768-1.344Z" transform="translate(-5.343 -21.803)" fill="#fff"/>
      <path id="Path_633" data-name="Path 633" d="M67.041,10.147a1.1,1.1,0,1,0-.159,2.188h.082a1.1,1.1,0,0,0,.077-2.188Z" transform="translate(-29.738 -4.58)" fill="#fff"/>
      <path id="Path_634" data-name="Path 634" d="M11.075,64.049a1.1,1.1,0,1,0,.044,2.194.138.138,0,0,0,.044-.006,1.1,1.1,0,1,0-.088-2.189Z" transform="translate(-4.515 -28.918)" fill="#fff"/>
      <path id="Path_635" data-name="Path 635" d="M11.554,56.1a1.1,1.1,0,1,0-.247,2.183.906.906,0,0,0,.121.005,1.1,1.1,0,0,0,.126-2.188Z" transform="translate(-4.665 -25.328)" fill="#fff"/>
      <path id="Path_636" data-name="Path 636" d="M20.019,33.985a1.095,1.095,0,1,0-1.19,1.838,1.067,1.067,0,0,0,.592.175,1.094,1.094,0,0,0,.6-2.013Z" transform="translate(-8.276 -15.265)" fill="#fff"/>
      <path id="Path_637" data-name="Path 637" d="M50.9,11.415a1.1,1.1,0,0,0,.252,2.166,1,1,0,0,0,.252-.033,1.1,1.1,0,1,0-.5-2.133Z" transform="translate(-22.602 -5.141)" fill="#fff"/>
      <path id="Path_638" data-name="Path 638" d="M58.926,10.157a1.1,1.1,0,0,0,.082,2.194.514.514,0,0,0,.088-.005,1.1,1.1,0,0,0-.17-2.189Z" transform="translate(-26.149 -4.584)" fill="#fff"/>
      <path id="Path_639" data-name="Path 639" d="M35.894,17.51a1.1,1.1,0,0,0-.373,1.5,1.08,1.08,0,0,0,.938.532,1.1,1.1,0,1,0-.565-2.035Z" transform="translate(-15.967 -7.835)" fill="#fff"/>
      <path id="Path_640" data-name="Path 640" d="M23.423,27.846a1.1,1.1,0,1,0,1.547-.093,1.094,1.094,0,0,0-1.547.093Z" transform="translate(-10.451 -12.406)" fill="#fff"/>
      <path id="Path_641" data-name="Path 641" d="M29.263,22.2a1.1,1.1,0,0,0,.7,1.942,1.078,1.078,0,0,0,.7-.252h.006a1.1,1.1,0,0,0-1.4-1.689Z" transform="translate(-13.033 -9.909)" fill="#fff"/>
      <path id="Path_642" data-name="Path 642" d="M60.839,93a3.839,3.839,0,1,0,3.839,3.839A3.839,3.839,0,0,0,60.839,93Zm0,5.485a1.645,1.645,0,1,1,1.645-1.645A1.645,1.645,0,0,1,60.839,98.485Z" transform="translate(-25.736 -41.99)" fill="#fff"/>
      <path id="Path_643" data-name="Path 643" d="M80.839,100.679A3.839,3.839,0,1,0,77,96.839,3.839,3.839,0,0,0,80.839,100.679Zm0-5.485a1.645,1.645,0,1,1-1.645,1.645,1.645,1.645,0,0,1,1.645-1.645Z" transform="translate(-34.766 -41.99)" fill="#fff"/>
      <path id="Path_644" data-name="Path 644" d="M40.839,93a3.839,3.839,0,1,0,3.839,3.839A3.839,3.839,0,0,0,40.839,93Zm0,5.485a1.645,1.645,0,1,1,1.645-1.645,1.645,1.645,0,0,1-1.645,1.645Z" transform="translate(-16.706 -41.99)" fill="#fff"/>
    </g>
  </g>
</svg>
