<svg xmlns="http://www.w3.org/2000/svg" width="112" height="112" viewBox="0 0 112 112">
  <g id="Your_EV_model_s_" data-name="Your EV model(s)" transform="translate(-96 -3274)">
    <g id="Rectangle_237" data-name="Rectangle 237" transform="translate(96 3274)" fill="none" stroke="#fff" stroke-width="3">
      <rect width="112" height="112" rx="16" stroke="none"/>
      <rect x="1.5" y="1.5" width="109" height="109" rx="14.5" fill="none"/>
    </g>
    <g id="noun-ev-car-7783729" transform="translate(114.688 3292.245)">
      <path id="Path_607" data-name="Path 607" d="M7.695,50.789V49.4a.771.771,0,1,1,1.542,0v1.386a.771.771,0,1,1-1.542,0Zm42.228,1.588a.771.771,0,0,1-.771-.771V49.654a3.8,3.8,0,0,1,3.791-3.794H63.186a.771.771,0,0,1,.771.771v1.952a3.8,3.8,0,0,1-3.791,3.794Zm.768-1.539h9.473a2.255,2.255,0,0,0,2.252-2.252V47.4H52.943a2.255,2.255,0,0,0-2.252,2.252Zm-34.23,1.539a3.8,3.8,0,0,1-3.791-3.794V46.631a.771.771,0,0,1,.771-.771H23.684a3.8,3.8,0,0,1,3.791,3.794v1.952a.771.771,0,0,1-.771.771Zm0-1.539h9.473V49.654A2.255,2.255,0,0,0,23.681,47.4H14.209v1.184A2.255,2.255,0,0,0,16.461,50.838Zm22.624.768V46.631a.771.771,0,1,0-1.542,0v4.975a.771.771,0,1,0,1.542,0Zm4.975,0V46.631a.771.771,0,0,0-1.542,0v4.975a.771.771,0,0,0,1.542,0Zm-9.949,0V46.631a.771.771,0,0,0-1.542,0v4.975a.771.771,0,0,0,1.542,0ZM71.421,36.621V38.29a4.143,4.143,0,0,1-4.137,4.137h-.032a5.465,5.465,0,0,1,1.68,3.941v10a2.3,2.3,0,0,1,.829,1.758v2.723a2.313,2.313,0,0,1-2.31,2.31h-.179V67.07a3.55,3.55,0,0,1-3.545,3.545H56.014a3.55,3.55,0,0,1-3.545-3.545V63.154H24.157V67.07a3.55,3.55,0,0,1-3.545,3.545H12.9A3.55,3.55,0,0,1,9.354,67.07V63.154H9.175a2.313,2.313,0,0,1-2.31-2.31V58.122a2.3,2.3,0,0,1,.829-1.758v-2.8a.771.771,0,0,1,1.542,0v2.249H67.4V46.369a3.946,3.946,0,0,0-3.941-3.941H13.174a3.946,3.946,0,0,0-3.941,3.941v.263a.771.771,0,0,1-1.542,0v-.263a5.46,5.46,0,0,1,1.68-3.941H9.34A4.143,4.143,0,0,1,5.2,38.29V36.621a1.54,1.54,0,0,1,1.539-1.539h5.373A2.091,2.091,0,0,1,14.2,37.164l2.246-6.355a6.019,6.019,0,0,1,5.668-4.016H23.2a15.695,15.695,0,1,1,30.211,0H54.5a6.02,6.02,0,0,1,5.67,4.016l2.243,6.355A2.089,2.089,0,0,1,64.5,35.085h5.373a1.54,1.54,0,0,1,1.539,1.539ZM9.176,61.616H28.424V57.351H9.176a.771.771,0,0,0-.771.771v2.723a.773.773,0,0,0,.771.771Zm13.443,1.539H10.894V67.07A2.01,2.01,0,0,0,12.9,69.076h7.712a2.01,2.01,0,0,0,2.007-2.007Zm24.044-1.539V57.351H29.96v4.264Zm19.07,1.539H54.008V67.07a2.01,2.01,0,0,0,2.007,2.007h7.712a2.01,2.01,0,0,0,2.007-2.007Zm2.489-5.032a.773.773,0,0,0-.771-.771H48.2v4.264H67.451a.771.771,0,0,0,.771-.771ZM24.158,22.587A14.156,14.156,0,1,0,38.313,8.431,14.172,14.172,0,0,0,24.158,22.587ZM9.343,40.889h3.326V37.173a.548.548,0,0,0-.549-.549H6.748v1.669a2.6,2.6,0,0,0,2.6,2.6Zm52.758,0-3.378-9.568a4.479,4.479,0,0,0-4.218-2.988h-1.6a15.673,15.673,0,0,1-29.184,0h-1.6A4.479,4.479,0,0,0,17.9,31.321l-3.381,9.568Zm7.778-4.267H64.506a.548.548,0,0,0-.549.549v3.716h3.326a2.6,2.6,0,0,0,2.6-2.6ZM32.143,23.756a1.481,1.481,0,0,1,.234-1.392l7.31-9.424a1.485,1.485,0,0,1,2.6,1.334L40.66,19.74l2.786.719a1.485,1.485,0,0,1,.8,2.35l-7.31,9.424a1.474,1.474,0,0,1-1.164.58,1.517,1.517,0,0,1-.687-.167A1.468,1.468,0,0,1,34.34,30.9l1.623-5.465-2.786-.719a1.481,1.481,0,0,1-1.034-.959Zm1.5-.511,3.476.9a.776.776,0,0,1,.479.367.759.759,0,0,1,.066.6L35.9,31.055l7.079-9.127-3.476-.9a.776.776,0,0,1-.479-.367.759.759,0,0,1-.066-.6l1.764-5.951Z" transform="translate(-1 -1)" fill="#fff" stroke="#fff" stroke-width="1"/>
    </g>
  </g>
</svg>
