<svg xmlns="http://www.w3.org/2000/svg" width="112" height="112" viewBox="0 0 112 112">
  <g id="Future_expansion_needs" data-name="Future expansion needs" transform="translate(-96 -3455)">
    <g id="Rectangle_239" data-name="Rectangle 239" transform="translate(96 3455)" fill="none" stroke="#fff" stroke-width="3">
      <rect width="112" height="112" rx="16" stroke="none"/>
      <rect x="1.5" y="1.5" width="109" height="109" rx="14.5" fill="none"/>
    </g>
    <g id="noun-expansion-7735859" transform="translate(115.93 3477.97)">
      <path id="Path_608" data-name="Path 608" d="M31.509,8.331a.8.8,0,0,1,0-1.141L35.5,3.2a.8.8,0,0,1,1.141,0L40.635,7.19a.807.807,0,0,1-1.141,1.141L36.882,5.719V16.579a.808.808,0,1,1-1.617,0l0-10.861L32.651,8.331a.8.8,0,0,1-1.141,0ZM5.719,36.879H16.58a.808.808,0,1,0,0-1.617H5.719L8.331,32.65A.807.807,0,0,0,7.19,31.509L3.2,35.5a.813.813,0,0,0-.239.569.79.79,0,0,0,.239.569l3.992,3.992a.819.819,0,0,0,.569.239.784.784,0,0,0,.569-.239.8.8,0,0,0,0-1.141ZM49.851,23.1a.784.784,0,0,0,.569-.239L58.1,15.18v3.7a.808.808,0,1,0,1.617,0V13.231a.81.81,0,0,0-.808-.808H53.266a.808.808,0,0,0,0,1.617h3.7l-7.679,7.679a.8.8,0,0,0,0,1.141.784.784,0,0,0,.569.239ZM21.718,49.282l-7.679,7.679v-3.7a.808.808,0,1,0-1.617,0v5.645a.81.81,0,0,0,.808.808h5.645a.808.808,0,1,0,0-1.617h-3.7l7.679-7.679a.807.807,0,0,0-1.141-1.141Zm-8.488-29.6a.81.81,0,0,0,.808-.808v-3.7l7.679,7.679a.819.819,0,0,0,.569.239.784.784,0,0,0,.569-.239.8.8,0,0,0,0-1.141l-7.676-7.679h3.7a.808.808,0,0,0,0-1.617H13.23a.81.81,0,0,0-.808.808v5.645a.817.817,0,0,0,.808.808ZM68.94,35.5l-3.992-3.992a.807.807,0,0,0-1.141,1.141l2.612,2.612H55.561a.808.808,0,1,0,0,1.617H66.422L63.81,39.491a.8.8,0,0,0,0,1.141.819.819,0,0,0,.569.239.784.784,0,0,0,.569-.239L68.94,36.64a.8.8,0,0,0,0-1.138ZM58.91,52.458a.81.81,0,0,0-.808.808v3.7l-7.679-7.679a.807.807,0,0,0-1.141,1.141L56.96,58.1h-3.7a.808.808,0,1,0,0,1.617H58.91a.81.81,0,0,0,.808-.808V53.266a.817.817,0,0,0-.808-.808ZM39.49,63.811l-2.612,2.612V55.562a.808.808,0,1,0-1.617,0V66.423l-2.612-2.612a.807.807,0,1,0-1.141,1.141L35.5,68.944a.809.809,0,0,0,.569.239.79.79,0,0,0,.569-.239l3.992-3.992a.807.807,0,0,0-1.141-1.141Zm9.321-17.294-2.3,2.3a1.686,1.686,0,0,1-2.153.2l-1.548-1.078a.063.063,0,0,0-.077-.008,13.65,13.65,0,0,1-2.983,1.24c-.036.008-.049.022-.055.055l-.338,1.85A1.689,1.689,0,0,1,37.7,52.455l-3.25,0a1.689,1.689,0,0,1-1.661-1.386l-.338-1.85c-.008-.036-.022-.049-.055-.055a13.325,13.325,0,0,1-2.983-1.24c-.036-.022-.049-.014-.077.008L27.788,49a1.676,1.676,0,0,1-2.153-.2l-2.3-2.3a1.686,1.686,0,0,1-.2-2.153l1.078-1.548a.063.063,0,0,0,.008-.077,13.65,13.65,0,0,1-1.24-2.983c-.008-.036-.022-.049-.055-.055l-1.85-.338A1.689,1.689,0,0,1,19.7,37.7l-.005-3.244a1.689,1.689,0,0,1,1.386-1.661l1.85-.338c.036-.008.049-.022.055-.055a13.488,13.488,0,0,1,1.24-2.983c.022-.036.014-.049-.008-.077L23.136,27.79a1.676,1.676,0,0,1,.2-2.153l2.3-2.3a1.686,1.686,0,0,1,2.153-.2l1.548,1.078a.063.063,0,0,0,.077.008,13.65,13.65,0,0,1,2.983-1.24c.036-.008.049-.022.055-.055l.338-1.85A1.689,1.689,0,0,1,34.444,19.7h3.244a1.689,1.689,0,0,1,1.661,1.386l.338,1.85c.008.036.022.049.055.055a13.488,13.488,0,0,1,2.983,1.24c.036.022.049.014.077-.008l1.548-1.078a1.676,1.676,0,0,1,2.153.2l2.3,2.3A1.686,1.686,0,0,1,49,27.79L47.92,29.337a.063.063,0,0,0-.008.077,13.65,13.65,0,0,1,1.24,2.983c.008.036.022.049.055.055l1.85.338a1.689,1.689,0,0,1,1.386,1.661V37.7a1.689,1.689,0,0,1-1.386,1.661l-1.85.338c-.036.008-.049.022-.055.055a13.488,13.488,0,0,1-1.24,2.983c-.022.036-.014.049.008.077L49,44.358a1.688,1.688,0,0,1-.187,2.158Zm-1.136-1.24L46.6,43.729a1.675,1.675,0,0,1-.085-1.787A11.951,11.951,0,0,0,47.6,39.31a1.669,1.669,0,0,1,1.323-1.2l1.85-.338a.078.078,0,0,0,.074-.077V34.452a.067.067,0,0,0-.063-.071l-1.85-.338a1.681,1.681,0,0,1-1.323-1.2,11.9,11.9,0,0,0-1.092-2.631,1.674,1.674,0,0,1,.085-1.787l1.078-1.548a.062.062,0,0,0-.008-.091l-2.3-2.3a.078.078,0,0,0-.1-.008l-1.548,1.078a1.675,1.675,0,0,1-1.787.085,11.952,11.952,0,0,0-2.631-1.092,1.669,1.669,0,0,1-1.2-1.323l-.338-1.85c-.016-.058-.044-.085-.085-.085H34.45a.067.067,0,0,0-.071.063L34.04,23.2a1.681,1.681,0,0,1-1.2,1.323A11.9,11.9,0,0,0,30.2,25.617a1.674,1.674,0,0,1-1.787-.085L26.87,24.454a.073.073,0,0,0-.1.008l-2.3,2.3a.068.068,0,0,0-.008.091L25.544,28.4a1.675,1.675,0,0,1,.085,1.787,11.951,11.951,0,0,0-1.092,2.631,1.669,1.669,0,0,1-1.323,1.2l-1.85.338c-.049.025-.077.052-.077.093V37.7a.067.067,0,0,0,.063.071l1.85.338a1.681,1.681,0,0,1,1.323,1.2,11.9,11.9,0,0,0,1.092,2.631,1.674,1.674,0,0,1-.085,1.787l-1.078,1.548a.062.062,0,0,0,.008.091l2.3,2.3a.068.068,0,0,0,.091.008L28.4,46.594a1.664,1.664,0,0,1,.957-.3,1.711,1.711,0,0,1,.83.217A12.362,12.362,0,0,0,32.814,47.6a1.669,1.669,0,0,1,1.2,1.323l.338,1.85c.025.052.052.08.093.08h3.244a.067.067,0,0,0,.071-.063l.338-1.85a1.681,1.681,0,0,1,1.2-1.323,11.9,11.9,0,0,0,2.631-1.092,1.674,1.674,0,0,1,1.787.085l1.548,1.078a.073.073,0,0,0,.1-.008l2.3-2.3a.1.1,0,0,0,.005-.107ZM43.2,36.071a7.13,7.13,0,1,1-7.13-7.13A7.133,7.133,0,0,1,43.2,36.071Zm-1.619,0a5.51,5.51,0,1,0-5.51,5.51,5.515,5.515,0,0,0,5.51-5.51Z" fill="#fff" stroke="#fff" stroke-width="1"/>
    </g>
  </g>
</svg>
