<svg xmlns="http://www.w3.org/2000/svg" width="75.54" height="66.05" viewBox="0 0 75.54 66.05">
  <g id="fast-charging" transform="translate(-20.244 -988.711)">
    <g id="Group_96" data-name="Group 96" transform="translate(20.994 989.462)">
      <g id="Group_95" data-name="Group 95" transform="translate(0 0)">
        <path id="Path_297" data-name="Path 297" d="M2131.409,1670.325a.6.6,0,0,1-.295-.075.611.611,0,0,1-.3-.69l3.412-13.071-7.014-.179a.606.606,0,0,1-.543-.365.613.613,0,0,1,.1-.645l14.973-17.2a.611.611,0,0,1,1.051.556l-3.551,13.546,8.025-.141h.011a.611.611,0,0,1,.448,1.025l-15.868,17.045A.621.621,0,0,1,2131.409,1670.325Zm-2.867-15.2,6.489.167a.607.607,0,0,1,.472.244.616.616,0,0,1,.1.521l-3,11.478,13.242-14.225-7.395.132a.608.608,0,0,1-.6-.765l3.094-11.8Z" transform="translate(-2093.331 -1624.036)" fill="#00b26b" stroke="#00b26b" stroke-width="1.5"/>
        <path id="Path_298" data-name="Path 298" d="M1715.157,3080.925a.623.623,0,0,1-.244-.051,24.846,24.846,0,0,1-9.435-7.239.609.609,0,1,1,.951-.763,23.688,23.688,0,0,0,8.971,6.884.61.61,0,0,1-.244,1.169Z" transform="translate(-1681.056 -3028.136)" fill="#00b26b" stroke="#00b26b" stroke-width="1.5"/>
        <path id="Path_299" data-name="Path 299" d="M1687.079,1289.927c-.626,0-1.259-.024-1.882-.071a.611.611,0,1,1,.094-1.218c.592.045,1.194.068,1.791.068a23.494,23.494,0,1,0-19.165-37.088.61.61,0,1,1-.993-.707,24.823,24.823,0,0,1,8.636-7.568,24.573,24.573,0,0,1,5.491-2.1,24.823,24.823,0,0,1,6.027-.741,24.714,24.714,0,1,1,0,49.427Z" transform="translate(-1643.343 -1235.136)" fill="#00b26b" stroke="#00b26b" stroke-width="1.5"/>
        <path id="Path_300" data-name="Path 300" d="M954.329,2006.718h-18.12a.609.609,0,0,1,0-1.218h18.122a.609.609,0,1,1,0,1.218Z" transform="translate(-927.757 -1983.792)" fill="#00b26b" stroke="#00b26b" stroke-width="1.5"/>
        <path id="Path_301" data-name="Path 301" d="M595.072,2369.818H569.109a.609.609,0,0,1,0-1.218h25.963a.609.609,0,1,1,0,1.218Z" transform="translate(-568.5 -2339.134)" fill="#00b26b" stroke="#00b26b" stroke-width="1.5"/>
        <path id="Path_302" data-name="Path 302" d="M954.329,2732.918h-18.12a.609.609,0,0,1,0-1.218h18.122a.609.609,0,1,1,0,1.218Z" transform="translate(-927.757 -2694.476)" fill="#00b26b" stroke="#00b26b" stroke-width="1.5"/>
        <path id="Path_303" data-name="Path 303" d="M2448.959,3314.641a30.061,30.061,0,0,1-3.284-.177.61.61,0,0,1,.133-1.214,29.8,29.8,0,0,0,3.151.171,28.978,28.978,0,0,0,21.259-9.324.611.611,0,1,1,.9.827,30.071,30.071,0,0,1-15.772,9.042A30.558,30.558,0,0,1,2448.959,3314.641Z" transform="translate(-2405.035 -3254.451)" fill="#00b26b" stroke="#00b26b" stroke-width="1.5"/>
        <path id="Path_304" data-name="Path 304" d="M3794.653,1709.551a.589.589,0,0,1-.278-.068.608.608,0,0,1-.263-.82,28.6,28.6,0,0,0,3.173-13.18,28.89,28.89,0,0,0-3.837-14.4.61.61,0,0,1,1.058-.609,29.954,29.954,0,0,1,4,15.009,30.425,30.425,0,0,1-.859,7.179,29.88,29.88,0,0,1-2.448,6.557A.615.615,0,0,1,3794.653,1709.551Z" transform="translate(-3724.465 -1665.409)" fill="#00b26b" stroke="#00b26b" stroke-width="1.5"/>
        <path id="Path_305" data-name="Path 305" d="M2689.958,999.193a.6.6,0,0,1-.429-.177,28.822,28.822,0,0,0-18.789-8.335.61.61,0,1,1,.064-1.218,30.065,30.065,0,0,1,19.586,8.687.61.61,0,0,1-.432,1.043Z" transform="translate(-2625.259 -989.462)" fill="#00b26b" stroke="#00b26b" stroke-width="1.5"/>
        <path id="Path_306" data-name="Path 306" d="M1964.746,1007.9a.61.61,0,0,1-.28-1.152,29.869,29.869,0,0,1,9.14-2.974.61.61,0,0,1,.188,1.205,28.615,28.615,0,0,0-8.771,2.852A.627.627,0,0,1,1964.746,1007.9Z" transform="translate(-1934.317 -1003.458)" fill="#00b26b" stroke="#00b26b" stroke-width="1.5"/>
        <path id="Path_307" data-name="Path 307" d="M1591.022,1256.214a.612.612,0,0,1-.447-1.03,30.359,30.359,0,0,1,4.213-3.711.61.61,0,0,1,.718.987,29.007,29.007,0,0,0-4.042,3.564A.6.6,0,0,1,1591.022,1256.214Z" transform="translate(-1568.578 -1245.761)" fill="#00b26b" stroke="#00b26b" stroke-width="1.5"/>
        <path id="Path_308" data-name="Path 308" d="M1977.167,3241.486a.618.618,0,0,1-.455-.2l-9.185-10.249a.6.6,0,0,1-.141-.541.618.618,0,0,1,.359-.43l12.693-5.322a.615.615,0,0,1,.628.094.609.609,0,0,1,.2.6l-1.292,5.743a.609.609,0,0,1-1.188-.269l1.032-4.589-10.811,4.534,7.824,8.73.76-3.375a.609.609,0,1,1,1.188.269l-1.021,4.53a.618.618,0,0,1-.594.477Z" transform="translate(-1937.482 -3176.937)" fill="#00b26b" stroke="#00b26b" stroke-width="1.5"/>
      </g>
    </g>
  </g>
</svg>
