<svg xmlns="http://www.w3.org/2000/svg" width="89.088" height="89.085" viewBox="0 0 89.088 89.085">
  <g id="No_clear_record_of_documents_and_accountability." data-name="No clear record of documents and accountability." transform="translate(-2.722 -2.722)">
    <path id="Path_605" data-name="Path 605" d="M88.329,63.525a1.455,1.455,0,0,0,.736-.916,1.423,1.423,0,0,0-.136-1.086L77.285,41.362a1.453,1.453,0,0,0-1.965-.53q-22,12.7-43.994,25.4a1.464,1.464,0,0,0-.6,2.009Q36.422,78.1,42.117,87.962c.283.442.409.909,1.126,1.1a1.427,1.427,0,0,0,1.086-.136v0q22-12.708,44-25.405Zm-37.7.283a1.347,1.347,0,1,1,.7-2.6l7.556,2.024L60.9,55.678a1.349,1.349,0,0,1,2.606.7l-2.024,7.556,7.552,2.024a1.349,1.349,0,1,1-.7,2.606l-7.556-2.024-2.024,7.552a1.347,1.347,0,0,1-2.6-.7l2.024-7.556Zm18.8,13.735v1.87A10.714,10.714,0,0,1,58.743,90.1l-11.059,0-2.009,1.159v0a4.132,4.132,0,0,1-5.414-1.163H13.406A10.714,10.714,0,0,1,2.722,79.408v-66A10.714,10.714,0,0,1,13.406,2.722H52.075a1.34,1.34,0,0,1,.961.4L69.023,19.111a1.338,1.338,0,0,1,.4.961V41.133l4.446-2.565A4.14,4.14,0,0,1,79.666,40.1L91.259,60.171a4.132,4.132,0,0,1-1.583,5.679ZM52.362,87.395,66.726,79.1v.309a8.011,8.011,0,0,1-7.986,7.983ZM33.548,61.846H10.973a1.351,1.351,0,0,0,0,2.7H29.11a4.132,4.132,0,0,0-.71,5.035l.53.92H10.973a1.351,1.351,0,0,0,0,2.7H30.49l8.2,14.194H13.41a8.011,8.011,0,0,1-7.983-7.983l0-66.009a8.011,8.011,0,0,1,7.983-7.983H50.723V20.076a1.352,1.352,0,0,0,1.351,1.351H66.725V42.694L59.24,47.019l-31.375,0a1.351,1.351,0,0,0,0,2.7h26.7l-6.923,4H45.582a1.351,1.351,0,0,0-1.233,1.9ZM13.855,35.6H27.87a1.352,1.352,0,0,0,1.351-1.351,8.354,8.354,0,0,0-7.213-8.277,5.454,5.454,0,1,0-2.282,0,8.357,8.357,0,0,0-7.213,8.277A1.343,1.343,0,0,0,13.855,35.6Zm1.513-2.7H26.357a5.658,5.658,0,0,0-10.989,0Zm7.441-14.213a2.753,2.753,0,1,0,0,3.894,2.756,2.756,0,0,0,0-3.894ZM7.989,11.169A1.352,1.352,0,0,0,6.639,12.52V38.271a1.352,1.352,0,0,0,1.351,1.351H33.74a1.349,1.349,0,0,0,1.351-1.351l0-25.751a1.352,1.352,0,0,0-1.351-1.351Zm24.4,2.7H9.336V36.924H32.389Zm6.5,11.431H62.373a1.351,1.351,0,1,0,0-2.7l-23.484,0a1.349,1.349,0,1,0,0,2.7ZM10.974,81.75h13.8a1.351,1.351,0,0,0,0-2.7h-13.8a1.351,1.351,0,0,0,0,2.7Zm24-25.339a1.351,1.351,0,1,1,0-2.7h4.943a1.351,1.351,0,0,1,0,2.7Zm-24,0a1.351,1.351,0,0,1,0-2.7H29.309a1.351,1.351,0,0,1,0,2.7Zm0-6.694H22.511a1.351,1.351,0,0,0,0-2.7H10.974a1.351,1.351,0,0,0,0,2.7ZM38.889,36.427H62.373a1.351,1.351,0,1,0,0-2.7H38.889a1.351,1.351,0,1,0,0,2.7Zm0-5.561H62.373a1.351,1.351,0,1,0,0-2.7H38.889a1.351,1.351,0,1,0,0,2.7ZM53.426,7.331V18.726H64.82Z" fill="#00b26b" fill-rule="evenodd"/>
  </g>
</svg>
