<svg xmlns="http://www.w3.org/2000/svg" width="74.425" height="91" viewBox="0 0 74.425 91">
  <g id="Third-party_services_for_approvals_compliance." data-name="Third-party services for approvals &amp; compliance." transform="translate(-9.519 -0.5)">
    <path id="Path_604" data-name="Path 604" d="M83.009,57.03a5.662,5.662,0,0,0-7.841-1.59L61.611,64.411a5.666,5.666,0,0,0-4.044-3.254l-22.631-4.6a8.124,8.124,0,0,0-5.864.956l-6.8,3.916-1.333-2.316a3.166,3.166,0,0,0-4.32-1.158L11.1,61.148A3.118,3.118,0,0,0,9.63,63.06a3.152,3.152,0,0,0,.313,2.408L24.062,89.919a3.154,3.154,0,0,0,4.311,1.158l5.515-3.19a3.161,3.161,0,0,0,1.471-1.921,3.129,3.129,0,0,0-.313-2.4L33.7,81.251l1.471-.846a5.36,5.36,0,0,1,4.8-.358l7.933,3.116a8.5,8.5,0,0,0,3.116.607A8.261,8.261,0,0,0,55.673,82.3L81.41,64.88a5.684,5.684,0,0,0,1.6-7.85Zm-50.4,28.2a.293.293,0,0,1-.147.193l-5.515,3.19a.317.317,0,0,1-.432-.119L12.4,64.044a.311.311,0,0,1-.028-.248.317.317,0,0,1,.138-.184h.009l5.515-3.19a.31.31,0,0,1,.156-.046.339.339,0,0,1,.285.156L20.5,64.053c.009.009.009.018.018.028s.009.018.018.028l10,17.327h0l2.05,3.548A.344.344,0,0,1,32.61,85.231ZM81.042,60.716a2.762,2.762,0,0,1-1.213,1.792L54.082,79.946a5.327,5.327,0,0,1-5.138.57L41.011,77.4a8.13,8.13,0,0,0-7.262.542l-1.471.846-8.594-14.9,6.8-3.925a5.306,5.306,0,0,1,3.879-.634L57,63.924a2.837,2.837,0,0,1,2.261,2.785v.037c0,.018-.009.037-.009.064a3.547,3.547,0,0,1-.055.45,2.814,2.814,0,0,1-3.318,2.2L40.589,66.351a1.421,1.421,0,1,0-.561,2.785l15.3,3.107a5.891,5.891,0,0,0,1.131.11,5.592,5.592,0,0,0,3.116-.947A5.66,5.66,0,0,0,62,67.822a2.815,2.815,0,0,0,.046-.294L76.75,57.793a2.833,2.833,0,0,1,3.907.8A2.91,2.91,0,0,1,81.042,60.716ZM56.693,46.165a9.178,9.178,0,1,0-9.183-9.174A9.187,9.187,0,0,0,56.693,46.165Zm0-15.516a6.338,6.338,0,1,1-6.342,6.342A6.341,6.341,0,0,1,56.693,30.649ZM38.373,13.433v6.655a1.412,1.412,0,0,0,.414,1l3.088,3.088-.267.267a3.1,3.1,0,0,0-.57,3.612L42.592,31.1c-.009.018-.018.046-.028.064l-3.254,1.057a3.113,3.113,0,0,0-2.142,2.96v3.6a3.1,3.1,0,0,0,2.142,2.96L42.565,42.8c.009.028.018.046.028.074l-1.553,3.043a3.1,3.1,0,0,0,.57,3.612l2.546,2.555a3.1,3.1,0,0,0,3.612.561L50.81,51.1c.018.009.046.018.064.028l1.057,3.254a3.11,3.11,0,0,0,2.96,2.151h3.6a3.093,3.093,0,0,0,2.96-2.151l1.057-3.245c.018-.009.046-.018.064-.028l3.033,1.544a3.088,3.088,0,0,0,3.622-.57l2.546-2.546a3.1,3.1,0,0,0,.57-3.612l-1.553-3.033c.009-.028.018-.046.028-.074l3.245-1.057a3.1,3.1,0,0,0,2.16-2.96V35.2a3.11,3.11,0,0,0-2.151-2.96L70.83,31.183c-.009-.018-.018-.046-.028-.064l1.544-3.043a3.1,3.1,0,0,0-.57-3.622l-.267-.267L74.6,21.1a1.412,1.412,0,0,0,.414-1V13.442a4.173,4.173,0,1,0-2.831,0v6.067l-2.675,2.675-.267-.267a3.1,3.1,0,0,0-3.622-.579l-3.043,1.553c-.018-.009-.046-.018-.064-.028l-1.057-3.236a3.1,3.1,0,0,0-2.96-2.16h-.377V8.6a4.178,4.178,0,1,0-2.84,0V17.45h-.386a3.11,3.11,0,0,0-2.96,2.151l-1.057,3.245c-.018.009-.046.018-.064.028L47.768,21.32a3.1,3.1,0,0,0-3.612.579l-.267.267L41.214,19.5V13.433a4.169,4.169,0,1,0-2.84,0ZM73.6,8.175a1.333,1.333,0,1,1-1.333,1.333A1.334,1.334,0,0,1,73.6,8.175ZM56.693,3.34A1.333,1.333,0,1,1,55.36,4.673,1.334,1.334,0,0,1,56.693,3.34ZM46.481,23.857l3.649,1.857a1.422,1.422,0,0,0,1.25.018c.4-.193.772-.34,1.121-.469a1.432,1.432,0,0,0,.882-.9l1.259-3.888a.255.255,0,0,1,.257-.193h3.6a.257.257,0,0,1,.257.184l1.268,3.888a1.411,1.411,0,0,0,.882.9c.358.129.735.285,1.112.46a1.392,1.392,0,0,0,1.25-.018l3.649-1.857a.264.264,0,0,1,.322.055l1.25,1.25.028.028.028.028,1.241,1.241a.252.252,0,0,1,.046.322l-1.857,3.649a1.422,1.422,0,0,0-.018,1.25,11.518,11.518,0,0,1,.46,1.121,1.432,1.432,0,0,0,.9.882l3.888,1.259a.249.249,0,0,1,.175.257v3.6a.257.257,0,0,1-.184.257L69.3,40.31a1.411,1.411,0,0,0-.9.882c-.138.386-.294.763-.46,1.112a1.411,1.411,0,0,0,.018,1.259l1.866,3.649a.251.251,0,0,1-.046.313l-2.546,2.546a.248.248,0,0,1-.313.046l-3.64-1.857a1.422,1.422,0,0,0-1.25-.018c-.368.175-.745.322-1.121.46a1.432,1.432,0,0,0-.882.9l-1.268,3.9a.243.243,0,0,1-.257.184H54.9a.257.257,0,0,1-.257-.184l-1.268-3.9a1.411,1.411,0,0,0-.882-.9c-.377-.129-.735-.285-1.121-.46a1.394,1.394,0,0,0-.607-.138,1.444,1.444,0,0,0-.643.156l-3.658,1.857a.265.265,0,0,1-.313-.046L43.6,47.517a.259.259,0,0,1-.046-.313l1.857-3.64a1.392,1.392,0,0,0,.018-1.25c-.184-.4-.34-.763-.469-1.121a1.432,1.432,0,0,0-.9-.882l-3.9-1.268a.244.244,0,0,1-.175-.257v-3.6a.25.25,0,0,1,.184-.257l3.9-1.268a1.411,1.411,0,0,0,.9-.882c.119-.34.276-.708.469-1.121a1.453,1.453,0,0,0-.018-1.25l-1.857-3.649a.265.265,0,0,1,.046-.322l1.223-1.223c.018-.018.037-.028.055-.046a.244.244,0,0,0,.046-.055l1.223-1.223A.311.311,0,0,1,46.481,23.857ZM39.8,8.175a1.333,1.333,0,1,1-1.333,1.333A1.334,1.334,0,0,1,39.8,8.175Z" fill="#00b26b"/>
  </g>
</svg>
