<svg id="noun-ready-4959299" xmlns="http://www.w3.org/2000/svg" width="25.252" height="25.255" viewBox="0 0 25.252 25.255">
  <g id="Group_265" data-name="Group 265" transform="translate(0)">
    <g id="Group_264" data-name="Group 264">
      <path id="Path_138" data-name="Path 138" d="M62.626,17.626a12.591,12.591,0,0,1-3.706,8.94L57.871,25.52A11.346,11.346,0,0,0,60.937,19.8a11.484,11.484,0,0,0-.62-6.461,11.264,11.264,0,0,0-4.1-5.015A11.061,11.061,0,0,0,50,6.461V5A12.626,12.626,0,0,1,62.626,17.626Z" transform="translate(-37.374 -5)" fill="#00b26b"/>
      <path id="Path_139" data-name="Path 139" d="M21.487,79.906l-.723,1.259h0a12.649,12.649,0,0,1-2.62-2.015l1.026-1.026A9.929,9.929,0,0,0,21.487,79.906Z" transform="translate(-14.455 -57.605)" fill="#00b26b"/>
      <path id="Path_140" data-name="Path 140" d="M41.413,88.871v1.421a12.737,12.737,0,0,1-3.233-.441l.374-1.395a14.591,14.591,0,0,0,1.45.288C40.5,88.788,41,88.828,41.413,88.871Z" transform="translate(-28.871 -65.037)" fill="#00b26b"/>
      <path id="Path_141" data-name="Path 141" d="M63.615,85.752a12.5,12.5,0,0,1-3.044,1.254l-.383-1.415a10.3,10.3,0,0,0,2.691-1.118Z" transform="translate(-44.703 -62.171)" fill="#00b26b"/>
      <path id="Path_142" data-name="Path 142" d="M9.023,62.948l-1.254.721a12.422,12.422,0,0,1-1.254-3.04L7.9,60.254A10.326,10.326,0,0,0,9.023,62.948Z" transform="translate(-6.092 -44.749)" fill="#00b26b"/>
      <path id="Path_143" data-name="Path 143" d="M30.949,7.886A10.336,10.336,0,0,0,28.254,9l-.706-1.231A12.662,12.662,0,0,1,30.58,6.52Z" transform="translate(-21.222 -6.093)" fill="#00b26b"/>
      <path id="Path_144" data-name="Path 144" d="M14.063,19.149a10.969,10.969,0,0,0-1.781,2.32l-1.236-.712a12.7,12.7,0,0,1,2.015-2.611Z" transform="translate(-9.35 -14.457)" fill="#00b26b"/>
      <path id="Path_145" data-name="Path 145" d="M6.819,38.66c-.124.455-.208.954-.291,1.45a8.966,8.966,0,0,0-.081,1.45H5.006A12.689,12.689,0,0,1,5.438,38.3Z" transform="translate(-5.006 -28.953)" fill="#00b26b"/>
      <path id="Path_146" data-name="Path 146" d="M30.162,43.5a.443.443,0,0,1-.232-.1L26.3,39.818a.247.247,0,0,1-.081-.209.442.442,0,0,1,.1-.231l1.057-1.057a.25.25,0,0,1,.211-.082.443.443,0,0,1,.232.1l1.762,1.72a.818.818,0,0,0,.615.248,1,1,0,0,0,.572-.213l.023-.015,7.189-7.064a.3.3,0,0,1,.093-.072l.021-.01h.089l.022,0c.023.018.05.037.076.054s.031.02.043.03l1.115,1.114a.3.3,0,0,1,.07.091l.011.022c0,.018,0,.037,0,.056a.327.327,0,0,1,0,.054c-.018.024-.036.05-.054.077s-.02.03-.029.043l-9.068,8.943A.248.248,0,0,1,30.162,43.5Z" transform="translate(-20.27 -25.097)" fill="#00b26b"/>
    </g>
  </g>
</svg>
