<svg id="noun-ccs-combo-plug-5820065" xmlns="http://www.w3.org/2000/svg" width="18.916" height="27.853" viewBox="0 0 18.916 27.853">
  <path id="Path_299" data-name="Path 299" d="M430.153,237.205a1.753,1.753,0,1,1-1.753-1.753A1.753,1.753,0,0,1,430.153,237.205Zm-2.539,0a.786.786,0,1,0,.786-.786A.786.786,0,0,0,427.614,237.205Z" transform="translate(-421.659 -230.927)" fill="#00b26b" fill-rule="evenodd"/>
  <path id="Path_300" data-name="Path 300" d="M414.614,418.377a1.251,1.251,0,1,1-1.251-1.251A1.251,1.251,0,0,1,414.614,418.377Zm-1.757,0a.506.506,0,1,0,.506-.506A.506.506,0,0,0,412.857,418.377Z" transform="translate(-407.499 -407.916)" fill="#00b26b" fill-rule="evenodd"/>
  <path id="Path_301" data-name="Path 301" d="M691.274,418.377a1.251,1.251,0,1,1-1.251-1.251A1.251,1.251,0,0,1,691.274,418.377Zm-1.757,0a.506.506,0,1,0,.506-.506A.506.506,0,0,0,689.517,418.377Z" transform="translate(-677.024 -407.916)" fill="#00b26b" fill-rule="evenodd"/>
  <path id="Path_302" data-name="Path 302" d="M638.767,237.205a1.753,1.753,0,1,1-1.753-1.753A1.753,1.753,0,0,1,638.767,237.205Zm-2.539,0a.786.786,0,1,0,.786-.786A.786.786,0,0,0,636.228,237.205Z" transform="translate(-624.893 -230.927)" fill="#00b26b" fill-rule="evenodd"/>
  <path id="Path_303" data-name="Path 303" d="M534.453,464.011a1.753,1.753,0,1,1-1.753-1.754A1.753,1.753,0,0,1,534.453,464.011Zm-2.539,0a.786.786,0,1,0,.786-.786A.786.786,0,0,0,531.914,464.011Z" transform="translate(-523.269 -451.884)" fill="#00b26b" fill-rule="evenodd"/>
  <path id="Path_304" data-name="Path 304" d="M334.154,842.587a2.827,2.827,0,1,1-2.827-2.827A2.827,2.827,0,0,1,334.154,842.587Zm-4.387,0a1.56,1.56,0,1,0,1.56-1.56A1.56,1.56,0,0,0,329.767,842.587Z" transform="translate(-326.044 -819.65)" fill="#00b26b" fill-rule="evenodd"/>
  <path id="Path_305" data-name="Path 305" d="M658.144,842.587a2.827,2.827,0,1,1-2.827-2.827A2.827,2.827,0,0,1,658.144,842.587Zm-4.387,0a1.56,1.56,0,1,0,1.56-1.56A1.56,1.56,0,0,0,653.757,842.587Z" transform="translate(-641.678 -819.65)" fill="#00b26b" fill-rule="evenodd"/>
  <path id="Path_306" data-name="Path 306" d="M244.472,61.43v-.559c-.021-.2-.187-.864-.589-.875h-.108v.1h-2.188V60h-.108c-.4.011-.568.68-.589.875v.559a7.55,7.55,0,0,0,.4,14.755v1.784h-3.1a4.94,4.94,0,1,0,0,9.879h9.037a4.94,4.94,0,1,0,0-9.879h-3.154V76.183a7.55,7.55,0,0,0,.393-14.753Zm-2.884-.135a7.649,7.649,0,0,1,2.188,0v-1h-2.188Zm1.094,13.661a6.192,6.192,0,1,1,6.192-6.192A6.192,6.192,0,0,1,242.682,74.956Zm4.551,4.349H238.2a3.6,3.6,0,0,0,0,7.209h9.037a3.6,3.6,0,1,0,0-7.209Z" transform="translate(-233.257 -59.996)" fill="#00b26b" fill-rule="evenodd"/>
</svg>
