<svg id="noun-warranty-4011575" xmlns="http://www.w3.org/2000/svg" width="22.971" height="24.611" viewBox="0 0 22.971 24.611">
  <path id="Path_307" data-name="Path 307" d="M22.547,56.263a1.165,1.165,0,0,0,.343.052,1.151,1.151,0,0,0,.334-.05,15.361,15.361,0,0,0,4.61-2.206.41.41,0,0,0-.473-.669,14.554,14.554,0,0,1-4.371,2.088.344.344,0,0,1-.209,0,14.386,14.386,0,0,1-5.53-3,.41.41,0,1,0-.541.615A15.2,15.2,0,0,0,22.547,56.263Z" transform="translate(-11.404 -31.704)" fill="#00b26b"/>
  <path id="Path_308" data-name="Path 308" d="M4.644,15.048a.41.41,0,0,0-.461.352c-.289,2.162-.634,7.707,2.4,12.5a.41.41,0,0,0,.693-.439C4.386,22.9,4.718,17.582,5,15.509A.41.41,0,0,0,4.644,15.048Z" transform="translate(-4 -9.695)" fill="#00b26b"/>
  <path id="Path_309" data-name="Path 309" d="M12.819,48.416a.41.41,0,0,0-.062.577c.123.153.255.305.39.458a.411.411,0,0,0,.615-.544c-.127-.143-.25-.287-.365-.428a.41.41,0,0,0-.578-.062Z" transform="translate(-9.111 -29.323)" fill="#00b26b"/>
  <path id="Path_310" data-name="Path 310" d="M37.336,6.359a22.319,22.319,0,0,1-4.358-1.225,22.327,22.327,0,0,1-5.162-2.885,1.216,1.216,0,0,0-1.462,0A22.521,22.521,0,0,1,23.876,3.86a.41.41,0,0,0,.4.715A23.359,23.359,0,0,0,26.847,2.9a.39.39,0,0,1,.475,0A23.149,23.149,0,0,0,32.676,5.9,23.164,23.164,0,0,0,37.2,7.168a.4.4,0,0,1,.328.342,19.358,19.358,0,0,1-1.3,10.528.41.41,0,1,0,.746.342A20.2,20.2,0,0,0,38.339,7.386a1.22,1.22,0,0,0-1-1.027Z" transform="translate(-15.599 -2.005)" fill="#00b26b"/>
  <path id="Path_311" data-name="Path 311" d="M18.631,33.347a1.16,1.16,0,0,0,.4.071,1.138,1.138,0,0,0,.39-.069,13.267,13.267,0,0,0,1.652-.71.41.41,0,1,0-.376-.73,12.389,12.389,0,0,1-1.553.669.318.318,0,0,1-.232,0A11.691,11.691,0,0,1,14.1,29.439c-3.1-3.377-3.369-7.9-3.257-10.283a.5.5,0,0,1,.047-.183.41.41,0,0,0-.738-.354,1.334,1.334,0,0,0-.126.492C9.906,21.633,10.2,26.4,13.5,30A12.491,12.491,0,0,0,18.631,33.347Z" transform="translate(-7.541 -11.679)" fill="#00b26b"/>
  <path id="Path_312" data-name="Path 312" d="M49.988,25.607a.4.4,0,0,0,.141.025.41.41,0,0,0,.385-.27,17.349,17.349,0,0,0,.939-6.681,1.256,1.256,0,0,0-.414-.874.41.41,0,1,0-.548.608.439.439,0,0,1,.144.306,16.52,16.52,0,0,1-.89,6.358.41.41,0,0,0,.243.527Z" transform="translate(-30.964 -11.252)" fill="#00b26b"/>
  <path id="Path_313" data-name="Path 313" d="M30.811,9.854a.379.379,0,0,1,.363.027,24.982,24.982,0,0,0,3.716,1.976.41.41,0,0,0,.322-.754,24.218,24.218,0,0,1-3.594-1.912A1.2,1.2,0,0,0,30.48,9.1a.41.41,0,0,0,.328.751Z" transform="translate(-19.484 -6.13)" fill="#00b26b"/>
  <path id="Path_314" data-name="Path 314" d="M46.185,16.725a.406.406,0,0,0,.118.017.41.41,0,0,0,.117-.8c-.2-.059-.4-.127-.594-.2a.41.41,0,0,0-.278.772C45.76,16.589,45.972,16.661,46.185,16.725Z" transform="translate(-28.344 -10.092)" fill="#00b26b"/>
  <path id="Path_315" data-name="Path 315" d="M22.712,25.069a1.3,1.3,0,0,0-1.826,0l-.514.524a1.321,1.321,0,0,0,0,1.839l3.143,3.208a1.274,1.274,0,0,0,1.825,0l5.773-5.891a1.321,1.321,0,0,0,0-1.839l-.514-.524A1.268,1.268,0,0,0,29.688,22h0a1.269,1.269,0,0,0-.913.385l-4.02,4.1a.464.464,0,0,1-.653,0Zm2.629,1.992,4.02-4.1a.454.454,0,0,1,.653,0l.514.524a.5.5,0,0,1,0,.691l-5.773,5.892a.464.464,0,0,1-.653,0l-3.143-3.208a.5.5,0,0,1,0-.691l.514-.524a.465.465,0,0,1,.653,0l1.39,1.419a1.3,1.3,0,0,0,1.825,0Z" transform="translate(-13.436 -13.798)" fill="#00b26b"/>
  <path id="Path_316" data-name="Path 316" d="M9,8.1a.41.41,0,0,0,.336.4c2.6.479,2.884.762,3.364,3.364a.41.41,0,0,0,.806,0c.479-2.6.762-2.884,3.364-3.364a.41.41,0,0,0,0-.806c-2.6-.479-2.884-.762-3.364-3.364a.41.41,0,0,0-.806,0c-.479,2.6-.762,2.884-3.364,3.364A.41.41,0,0,0,9,8.1Zm4.1-1.932A2.707,2.707,0,0,0,15.034,8.1,2.707,2.707,0,0,0,13.1,10.034,2.707,2.707,0,0,0,11.17,8.1,2.707,2.707,0,0,0,13.1,6.171Z" transform="translate(-6.949 -3.182)" fill="#00b26b"/>
  <path id="Path_317" data-name="Path 317" d="M47.868,43.7c-2.6-.479-2.884-.762-3.364-3.364a.41.41,0,0,0-.806,0c-.479,2.6-.762,2.884-3.364,3.364a.41.41,0,0,0,0,.806c2.6.479,2.884.762,3.364,3.364a.41.41,0,0,0,.806,0c.479-2.6.762-2.884,3.364-3.364a.41.41,0,0,0,0-.806ZM44.1,46.034A2.707,2.707,0,0,0,42.17,44.1,2.707,2.707,0,0,0,44.1,42.171,2.707,2.707,0,0,0,46.033,44.1,2.707,2.707,0,0,0,44.1,46.034Z" transform="translate(-25.231 -24.414)" fill="#00b26b"/>
</svg>
