<svg id="noun-download-4576131" xmlns="http://www.w3.org/2000/svg" width="35.808" height="35.719" viewBox="0 0 35.808 35.719">
  <g id="Group_285" data-name="Group 285" transform="translate(0 0)">
    <path id="Path_297" data-name="Path 297" d="M35.205,36.285a1.607,1.607,0,0,0,.448.313,1.135,1.135,0,0,0,.537.09,2.247,2.247,0,0,0,.537-.09,1.607,1.607,0,0,0,.448-.313l9.8-9.8a1.393,1.393,0,1,0-1.969-1.969l-7.43,7.43V11.488a1.388,1.388,0,1,0-2.775,0V31.9l-7.43-7.385A1.393,1.393,0,1,0,25.4,26.482Z" transform="translate(-18.286 -10.1)" fill="#00b26b"/>
    <path id="Path_298" data-name="Path 298" d="M44.421,63.3a1.4,1.4,0,0,0-1.388,1.388,7.7,7.7,0,0,1-7.7,7.7H20.519a7.7,7.7,0,0,1-7.7-7.7A1.4,1.4,0,0,0,11.432,63.3,1.434,1.434,0,0,0,10,64.688,10.535,10.535,0,0,0,20.519,75.206H35.334A10.5,10.5,0,0,0,45.808,64.688,1.4,1.4,0,0,0,44.421,63.3Z" transform="translate(-10 -39.488)" fill="#00b26b"/>
  </g>
</svg>
