<svg xmlns="http://www.w3.org/2000/svg" width="62.135" height="62.135" viewBox="0 0 62.135 62.135">
  <g id="noun-charging-7143573" transform="translate(-6.25 -6.25)">
    <path id="Path_296" data-name="Path 296" d="M37.317,6.25A31.067,31.067,0,1,0,68.385,37.317,31.083,31.083,0,0,0,37.317,6.25Zm0,2.96A28.108,28.108,0,1,1,9.21,37.317,28.121,28.121,0,0,1,37.317,9.21Zm0,4.438a23.671,23.671,0,0,0-1.576,47.289,1.479,1.479,0,0,0,.194-2.951,20.694,20.694,0,1,1,7.656-.921L38.8,52.918v-3.85c5.015-.585,8.876-4.186,8.876-10.269V29.922A1.48,1.48,0,0,0,46.2,28.444h-2.96V24.006a1.478,1.478,0,1,0-2.957,0v4.438H34.363V24.006a1.478,1.478,0,1,0-2.957,0v4.438h-2.96a1.48,1.48,0,0,0-1.478,1.478V38.8c0,6.08,3.861,9.684,8.876,10.269v4.524a1.468,1.468,0,0,0,.513,1.118l5.917,5.121a1.474,1.474,0,0,0,1.365.305,23.673,23.673,0,0,0-6.314-46.487ZM29.919,31.4H44.712v7.4c0,4.763-3.315,7.4-7.4,7.4s-7.4-2.632-7.4-7.4V31.4Zm7.387,1.478a1.482,1.482,0,0,0-1.223.657l-2.96,4.438a1.479,1.479,0,0,0,1.232,2.3h3.154l-1.426,2.139A1.48,1.48,0,0,0,38,44.543c.042-.022.083-.05.125-.075a1.475,1.475,0,0,0,.416-.413l2.96-4.438a1.479,1.479,0,0,0-1.232-2.3H37.117l1.429-2.139a1.479,1.479,0,0,0-.411-2.053,1.5,1.5,0,0,0-.829-.25Z" fill="#00b26b" fill-rule="evenodd"/>
  </g>
</svg>