<svg xmlns="http://www.w3.org/2000/svg" width="65.964" height="73" viewBox="0 0 65.964 73">
  <g id="noun-charging-timer-6911957" transform="translate(-12.499 -8.499)">
    <path id="Path_336" data-name="Path 336" d="M56.036,45.44H50.494l1.574-12.585a1.324,1.324,0,0,0-2.3-1.048L33.942,49.4a1.294,1.294,0,0,0-.22,1.416,1.335,1.335,0,0,0,1.206.783h5.542L38.9,64.181a1.323,1.323,0,0,0,2.3,1.048l15.831-17.59a1.294,1.294,0,0,0,.22-1.415,1.344,1.344,0,0,0-1.209-.783Zm-14,14.907,1.24-9.905a1.319,1.319,0,0,0-1.309-1.488H37.892L48.931,36.685l-1.24,9.905A1.319,1.319,0,0,0,49,48.078h4.071ZM65.913,22.661,67.5,20.49l1.776,1.292a1.325,1.325,0,0,0,.773.254,1.3,1.3,0,0,0,1.065-.546,1.313,1.313,0,0,0-.289-1.838l-5.689-4.133a1.316,1.316,0,0,0-1.549,2.127l1.776,1.292L63.786,21.1a32.877,32.877,0,0,0-13.465-5.208l0-4.755h2.2a1.319,1.319,0,1,0,0-2.639H38.445a1.319,1.319,0,1,0,0,2.639h2.2V15.9A32.65,32.65,0,0,0,27.179,21.1L25.605,18.94l1.776-1.292a1.316,1.316,0,0,0-1.549-2.127l-5.689,4.133a1.308,1.308,0,0,0-.289,1.838,1.325,1.325,0,0,0,1.065.546,1.257,1.257,0,0,0,.773-.254l1.776-1.292,1.584,2.171a32.979,32.979,0,1,0,40.86,0ZM43.283,11.138h4.4v4.477c-.728-.045-1.46-.079-2.2-.079s-1.47.034-2.2.079Zm2.2,67.723A30.343,30.343,0,1,1,75.825,48.517,30.382,30.382,0,0,1,45.482,78.861ZM44.163,22.132V20.373a1.319,1.319,0,1,1,2.639,0v1.759a1.319,1.319,0,1,1-2.639,0ZM46.8,74.9v1.759a1.319,1.319,0,0,1-2.639,0V74.9a1.319,1.319,0,1,1,2.639,0ZM20.416,48.517A1.32,1.32,0,0,1,19.1,49.836H17.337a1.319,1.319,0,1,1,0-2.639H19.1A1.32,1.32,0,0,1,20.416,48.517Zm54.53,0a1.32,1.32,0,0,1-1.319,1.319H71.867a1.319,1.319,0,0,1,0-2.639h1.759A1.32,1.32,0,0,1,74.946,48.517Z" fill="#00b26b"/>
  </g>
</svg>