<svg xmlns="http://www.w3.org/2000/svg" width="68.464" height="75.909" viewBox="0 0 68.464 75.909">
  <g id="noun-charging-station-6923997" transform="translate(-22.768 -19.044)">
    <g id="Group_98" data-name="Group 98" transform="translate(16.162 17.159)">
      <path id="Path_323" data-name="Path 323" d="M41.739,16.98H19.414a1.487,1.487,0,0,0-1.488,1.488V31.863a1.487,1.487,0,0,0,1.488,1.488h5.655a1.488,1.488,0,1,0,0-2.977H20.9V19.956H40.25V30.375H31.022a1.488,1.488,0,1,0,0,2.977H41.739a1.487,1.487,0,0,0,1.488-1.488V18.468a1.487,1.487,0,0,0-1.488-1.488Z" transform="translate(-2.39 -3.187)" fill="#00b26b"/>
      <path id="Path_324" data-name="Path 324" d="M35.639,61.311,32.1,62.491l1.867-3.732a1.488,1.488,0,1,0-2.662-1.331l-3.473,6.946a1.488,1.488,0,0,0,1.8,2.077l3.9-1.3-1.125,2.807a1.489,1.489,0,1,0,2.764,1.106l2.314-5.787a1.489,1.489,0,0,0-1.852-1.966Z" transform="translate(-4.449 -11.554)" fill="#00b26b"/>
      <path id="Path_325" data-name="Path 325" d="M43.227,61.707A12.652,12.652,0,1,0,30.574,74.36,12.667,12.667,0,0,0,43.227,61.707ZM30.574,71.384a9.676,9.676,0,1,1,9.676-9.676A9.687,9.687,0,0,1,30.574,71.384Z" transform="translate(-2.389 -9.959)" fill="#00b26b"/>
      <path id="Path_326" data-name="Path 326" d="M28.848,12.41h7.442a1.488,1.488,0,1,0,0-2.977H28.848a1.488,1.488,0,1,0,0,2.977Z" transform="translate(-4.382 -1.594)" fill="#00b26b"/>
      <path id="Path_327" data-name="Path 327" d="M73.582,15.282a1.487,1.487,0,0,0-1.488,1.488v2.977H66.14V16.77a1.488,1.488,0,0,0-2.977,0v7.442a5.965,5.965,0,0,0,4.465,5.765V62.912a4.465,4.465,0,0,1-8.93,0V45.051a7.459,7.459,0,0,0-5.953-7.294V34.63a1.487,1.487,0,0,0-1.488-1.488H46.791V9.327a7.449,7.449,0,0,0-7.442-7.442H17.024A7.449,7.449,0,0,0,9.582,9.327V67.472a3.842,3.842,0,0,0-2.977,3.735v2.755a3.837,3.837,0,0,0,3.83,3.833h35.5a3.837,3.837,0,0,0,3.833-3.833V71.207a3.839,3.839,0,0,0-2.977-3.735V45.051h4.465a1.487,1.487,0,0,0,1.488-1.488V40.842a4.471,4.471,0,0,1,2.977,4.209V62.911a7.442,7.442,0,0,0,14.884,0V29.977a5.965,5.965,0,0,0,4.465-5.765V16.769a1.487,1.487,0,0,0-1.488-1.488ZM12.559,9.328a4.47,4.47,0,0,1,4.465-4.465H39.35a4.47,4.47,0,0,1,4.465,4.465V33.142H12.56ZM46.792,73.962a.859.859,0,0,1-.857.857h-35.5a.859.859,0,0,1-.857-.857V71.208a.859.859,0,0,1,.857-.857h20.9a1.488,1.488,0,0,0,0-2.977l-18.779,0V36.119H43.815V67.374H37.291a1.488,1.488,0,0,0,0,2.977h8.644a.859.859,0,0,1,.857.857Zm2.977-31.887H46.792V36.122h2.977ZM72.094,24.211a2.977,2.977,0,1,1-5.953,0V22.723h5.953Z" transform="translate(0)" fill="#00b26b"/>
    </g>
  </g>
</svg>