<svg xmlns="http://www.w3.org/2000/svg" width="92.31" height="79.754" viewBox="0 0 92.31 79.754">
  <g id="noun-charging-station-7009512" transform="translate(-3.847 -10.121)">
    <g id="Group_99" data-name="Group 99">
      <path id="Path_329" data-name="Path 329" d="M95.7,76.023,86.469,52.535a6.351,6.351,0,0,0-5.941-4.051H53.308a6.383,6.383,0,0,0-4.859,2.242L46.1,53.48V19.156a9.045,9.045,0,0,0-9.035-9.035H15.656a9.045,9.045,0,0,0-9.035,9.035v68.5H4.957a1.109,1.109,0,1,0,0,2.219H91.7a1.109,1.109,0,0,0,0-2.219H83.172A7.393,7.393,0,0,0,84.707,85.3l5.7-.566a6.41,6.41,0,0,0,5.547-4.742,6.317,6.317,0,0,0-.238-3.945Zm-2.664-.7L91.226,75.3l-.9-2.453h1.742ZM47.773,54.945H62.035v7.426h-20.6ZM8.843,87.656v-68.5a6.821,6.821,0,0,1,6.812-6.813H37.061a6.821,6.821,0,0,1,6.813,6.813v36.93L36.53,64.7l-13.4,0a9.562,9.562,0,0,0-9.324,7.352l-.441,1.84a9.561,9.561,0,0,0,6.09,11.25,7.274,7.274,0,0,0,1.594,2.523ZM20.218,71.633l-2.531,2.289H15.644l.328-1.359a7.2,7.2,0,0,1,.309-.93ZM26.28,87.656a5.068,5.068,0,1,1,5.066-5.066A5.07,5.07,0,0,1,26.28,87.656Zm0-12.359A7.3,7.3,0,0,0,19,82.484a7.34,7.34,0,0,1-3.66-6.34h2.781a1.111,1.111,0,0,0,.746-.285l4.988-4.512a1.109,1.109,0,0,0-.746-1.934H17.612a7.326,7.326,0,0,1,5.52-2.5h13.91a1.115,1.115,0,0,0,.844-.391l1.648-1.934H55.7l-2.82,13.4-20.953,0A7.286,7.286,0,0,0,26.28,75.3Zm44.4,7.855H33.541c.016-.187.027-.371.027-.562a7.3,7.3,0,0,0-.406-2.383H71.057a7.283,7.283,0,0,0-.406,2.383c0,.188.012.375.027.563Zm-26.805,4.5H31.51a7.262,7.262,0,0,0,1.5-2.285H43.873l0,2.285Zm2.223,0V85.371H71.205a7.319,7.319,0,0,0,1.508,2.285Zm26.195-9.672H55.158l2.82-13.395H74.845l2.094,3.734a1.784,1.784,0,0,1,.027,1.7l-3.543,6.852a7.417,7.417,0,0,0-1.133,1.109ZM64.252,62.371V54.946H79.147l2.793,7.426ZM77.94,87.656a5.068,5.068,0,1,1,5.066-5.066A5.074,5.074,0,0,1,77.94,87.656Zm15.855-8.23a4.175,4.175,0,0,1-3.617,3.09l-4.969.5c.008-.141.023-.281.023-.426a7.3,7.3,0,0,0-7.289-7.293,7.039,7.039,0,0,0-1.258.117l2.258-4.367a4.007,4.007,0,0,0-.062-3.8L77.4,64.59h6.152a1.112,1.112,0,0,0,1.039-1.5l-3.629-9.648a1.111,1.111,0,0,0-1.039-.719l-30.254,0,.473-.555a4.159,4.159,0,0,1,3.168-1.461H80.529A4.141,4.141,0,0,1,84.4,53.348L91.2,70.629H88.733a1.1,1.1,0,0,0-.91.477,1.115,1.115,0,0,0-.133,1.02L89.408,76.8a1.11,1.11,0,0,0,1.031.727l3.406.031a4.209,4.209,0,0,1-.051,1.871Z" fill="#00b26b"/>
      <path id="Path_330" data-name="Path 330" d="M49.09,69.578H51.7a1.109,1.109,0,1,0,0-2.219H49.09a1.109,1.109,0,1,0,0,2.219Z" fill="#00b26b"/>
      <path id="Path_331" data-name="Path 331" d="M75.414,68.469A1.109,1.109,0,0,0,74.3,67.36H71.766a1.109,1.109,0,0,0,0,2.219H74.3A1.111,1.111,0,0,0,75.414,68.469Z" fill="#00b26b"/>
      <path id="Path_332" data-name="Path 332" d="M26.359,47.672A11.645,11.645,0,1,0,14.714,36.027,11.657,11.657,0,0,0,26.359,47.672Zm0-21.062a9.422,9.422,0,1,1-9.422,9.422,9.433,9.433,0,0,1,9.422-9.422Z" fill="#00b26b"/>
      <path id="Path_333" data-name="Path 333" d="M22.066,37.062h4.172L21.347,41.2a1.111,1.111,0,0,0,.715,1.961,1.1,1.1,0,0,0,.715-.262l7.207-6.1a1.111,1.111,0,0,0-.715-1.961H25.16l4.816-3.973a1.109,1.109,0,1,0-1.41-1.711l-7.207,5.937a1.111,1.111,0,0,0,.707,1.969Z" fill="#00b26b"/>
      <path id="Path_334" data-name="Path 334" d="M15.828,54.43H36.89a1.109,1.109,0,0,0,0-2.219l-21.062,0a1.111,1.111,0,0,0,0,2.223Z" fill="#00b26b"/>
      <path id="Path_335" data-name="Path 335" d="M15.828,59.77H36.89a1.109,1.109,0,0,0,0-2.219l-21.062,0a1.111,1.111,0,0,0,0,2.223Z" fill="#00b26b"/>
    </g>
  </g>
</svg>