<svg xmlns="http://www.w3.org/2000/svg" xmlns:xlink="http://www.w3.org/1999/xlink" width="198" height="198" viewBox="0 0 198 198">
  <defs>
    <linearGradient id="linear-gradient" x1="0.5" x2="0.5" y2="1" gradientUnits="objectBoundingBox">
      <stop offset="0" stop-color="#64ffc5" stop-opacity="0.729"/>
      <stop offset="1" stop-opacity="0.451"/>
    </linearGradient>
  </defs>
  <g id="Montly" transform="translate(-409 -2373)">
    <rect id="Rectangle_35" data-name="Rectangle 35" width="198" height="198" rx="37" transform="translate(409 2373)" fill="url(#linear-gradient)"/>
    <g id="noun-subscription-5918151" transform="translate(458.266 2417.117)">
      <path id="Path_320" data-name="Path 320" d="M79.174,75.981A1.817,1.817,0,0,0,77.357,77.8v1.363A3.639,3.639,0,0,1,73.722,82.8H42.11c.2-8.528,3.673-13.856,8.483-21.2,4.219-5.632,3.617-11.722,1.76-14.647a5.707,5.707,0,0,0-9.5-.583L34.433,57.589V11.269a3.639,3.639,0,0,1,3.635-3.635h5.106v2.2a3.639,3.639,0,0,0,3.635,3.635H64.98a3.639,3.639,0,0,0,3.635-3.635v-2.2h5.107a3.639,3.639,0,0,1,3.635,3.635V33.276a1.817,1.817,0,1,0,3.635,0V11.269A7.277,7.277,0,0,0,73.722,4H38.067A7.277,7.277,0,0,0,30.8,11.269V35.505l-18.2,30.351A16.12,16.12,0,0,0,10.3,74.13v29.819a1.817,1.817,0,1,0,3.635,0V74.13a12.474,12.474,0,0,1,1.776-6.407L30.8,42.57V62.435L21.471,74.872a1.817,1.817,0,1,0,2.907,2.181L45.759,48.544a2.019,2.019,0,0,1,3.4.131c1.881,3.237,1.02,7.33-1.6,10.927-4.98,7.607-8.914,13.615-9.088,23.289a18.586,18.586,0,0,1-6.059,13.581,1.817,1.817,0,1,0,2.414,2.717,21.93,21.93,0,0,0,6.927-12.758H56.922C55.37,92.771,51.55,94.1,51.331,99.588v4.361a1.817,1.817,0,0,0,3.635,0c.11-2.268-.509-5.768,1.109-7.634A29.211,29.211,0,0,0,60.7,86.431H73.722a7.277,7.277,0,0,0,7.269-7.269C81.062,77.694,81.043,76.087,79.174,75.981ZM46.808,7.635H64.98v2.2H46.808Z" transform="translate(0)" fill="#fff"/>
      <path id="Path_321" data-name="Path 321" d="M56.284,15H30.842a5.452,5.452,0,1,0,0,10.9H56.284a5.452,5.452,0,1,0,0-10.9Zm0,7.269H30.842a1.817,1.817,0,1,1,0-3.635H56.284a1.817,1.817,0,1,1,0,3.635Z" transform="translate(12.332 8.99)" fill="#fff"/>
      <path id="Path_322" data-name="Path 322" d="M55.42,38.1h-.909V30.833h6.36a1.817,1.817,0,0,0,0-3.635h-6.36V24.927a1.817,1.817,0,1,0-3.635,0V27.2h-.909a7.269,7.269,0,1,0,0,14.538h.909v7.269h-6.36a1.817,1.817,0,1,0,0,3.635h6.36v2.272a1.817,1.817,0,1,0,3.635,0V52.64h.909a7.269,7.269,0,1,0,0-14.538Zm-4.543,0h-.909a3.682,3.682,0,1,1,.909-7.269Zm4.543,10.9h-.909V41.736a3.682,3.682,0,1,1,.909,7.269Z" transform="translate(26.478 15.617)" fill="#fff"/>
    </g>
  </g>
</svg>
