<svg xmlns="http://www.w3.org/2000/svg" xmlns:xlink="http://www.w3.org/1999/xlink" width="198" height="198" viewBox="0 0 198 198">
  <defs>
    <linearGradient id="linear-gradient" x1="0.5" x2="0.5" y2="1" gradientUnits="objectBoundingBox">
      <stop offset="0" stop-color="#64ffc5" stop-opacity="0.729"/>
      <stop offset="1" stop-opacity="0.451"/>
    </linearGradient>
  </defs>
  <g id="On_Demand" data-name="On Demand" transform="translate(-409 -2373)">
    <rect id="Rectangle_35" data-name="Rectangle 35" width="198" height="198" rx="37" transform="translate(409 2373)" fill="url(#linear-gradient)"/>
    <g id="noun-on-demand-6407504" transform="translate(455.869 2419.845)">
      <path id="Path_309" data-name="Path 309" d="M91.568,25H54.376A4.38,4.38,0,0,0,50,29.376v64.54a4.38,4.38,0,0,0,4.376,4.376H91.568a4.38,4.38,0,0,0,4.376-4.376V29.376A4.38,4.38,0,0,0,91.568,25Zm2.188,68.916A2.19,2.19,0,0,1,91.568,96.1H54.376a2.19,2.19,0,0,1-2.188-2.188V29.376a2.19,2.19,0,0,1,2.188-2.188H91.568a2.19,2.19,0,0,1,2.188,2.188Z" transform="translate(4.32 1.967)" fill="#fff"/>
      <path id="Path_310" data-name="Path 310" d="M34.761,26.01h-8c-.322,0-7.944.06-12.848,5.253-1.691,1.516-2.869,6.58-3.115,9.936H9.485A5.493,5.493,0,0,0,4,46.685V59.563a5.492,5.492,0,0,0,5.116,5.473v4.72a1.094,1.094,0,0,0,1.829.809l6.08-5.518H34.613A5.493,5.493,0,0,0,40.1,59.562V47.735h9.845a1.1,1.1,0,0,0,1.094-1.109c-.063-4.449-.592-12.362-3.427-15.361-4.905-5.195-12.527-5.255-12.85-5.255Zm3.15,33.552a3.3,3.3,0,0,1-3.3,3.3H16.6a1.1,1.1,0,0,0-.735.284L11.3,67.286V63.954A1.093,1.093,0,0,0,10.21,62.86a3.426,3.426,0,0,1-4.022-3.3V46.684a3.3,3.3,0,0,1,3.3-3.3H34.614a3.3,3.3,0,0,1,3.3,3.3V59.562Zm2.066-14.015A5.493,5.493,0,0,0,34.613,41.2H13c.09-.831.194-1.651.328-2.438.617-3.708,1.525-5.3,2.178-5.992,4.247-4.5,11.19-4.569,11.258-4.569h8c.069,0,7,.053,11.26,4.569,1.559,1.649,2.613,6.493,2.8,12.78H39.976Z" transform="translate(0 2.062)" fill="#fff"/>
      <path id="Path_311" data-name="Path 311" d="M48.457,79.738l-10.83-6.892a1.1,1.1,0,0,0-1.681.923v2.9a12.244,12.244,0,0,1-9.892-6.877l-1.972-4.128A1.1,1.1,0,0,0,22,66.136v4.577A13.906,13.906,0,0,0,35.891,84.6l.055,2.95a1.1,1.1,0,0,0,1.681.923l10.83-6.892a1.1,1.1,0,0,0,0-1.847ZM38.133,85.56V83.508a1.093,1.093,0,0,0-1.094-1.094A11.835,11.835,0,0,1,24.191,70.963a14.435,14.435,0,0,0,12.848,7.945,1.189,1.189,0,0,0,1.094-1.2V75.762l7.7,4.9-7.7,4.9Z" transform="translate(1.69 5.729)" fill="#fff"/>
      <path id="Path_312" data-name="Path 312" d="M31.878,46.894H11.094a1.094,1.094,0,1,0,0,2.188H31.878A1.094,1.094,0,0,0,31.878,46.894Z" transform="translate(0.564 4.023)" fill="#fff"/>
      <path id="Path_313" data-name="Path 313" d="M23.125,51.894H11.093a1.094,1.094,0,0,0,0,2.188H23.125A1.094,1.094,0,0,0,23.125,51.894Z" transform="translate(0.565 4.493)" fill="#fff"/>
      <path id="Path_314" data-name="Path 314" d="M29.376,25.266A10.648,10.648,0,0,0,40.012,14.63C39.428.521,19.322.524,18.741,14.63A10.648,10.648,0,0,0,29.377,25.266Zm0-19.083a8.458,8.458,0,0,1,8.448,8.448c-.456,11.2-16.441,11.2-16.9,0a8.458,8.458,0,0,1,8.448-8.448Z" transform="translate(1.384 0)" fill="#fff"/>
      <path id="Path_315" data-name="Path 315" d="M74.062,85h-5.47a1.094,1.094,0,0,0,0,2.188h5.47A1.094,1.094,0,0,0,74.062,85Z" transform="translate(5.964 7.602)" fill="#fff"/>
      <path id="Path_316" data-name="Path 316" d="M70.788,32.188h4.637a1.094,1.094,0,0,0,0-2.188H70.788A1.094,1.094,0,0,0,70.788,32.188Z" transform="translate(6.17 2.437)" fill="#fff"/>
      <path id="Path_317" data-name="Path 317" d="M67.153,32.188a1.089,1.089,0,1,0-.766-1.871A1.1,1.1,0,0,0,67.153,32.188Z" transform="translate(5.829 2.437)" fill="#fff"/>
      <path id="Path_318" data-name="Path 318" d="M89.174,63.195a1.1,1.1,0,0,0-.109-.83l-2.613-4.525a1.093,1.093,0,0,0-1.494-.4l-1.907,1.1a9.975,9.975,0,0,0-2.94-1.7c-.03-1.575-.059-9.985-.044-11.747A1.094,1.094,0,0,0,78.972,44H57.094A1.094,1.094,0,0,0,56,45.094v18.6a1.093,1.093,0,0,0,1.094,1.094h8.654l.3.174a10.562,10.562,0,0,0,0,3.4l-1.907,1.1a1.092,1.092,0,0,0-.4,1.494l2.612,4.525a1.1,1.1,0,0,0,1.494.4l1.908-1.1a9.944,9.944,0,0,0,2.94,1.7v2.2a1.093,1.093,0,0,0,1.094,1.094h5.224a1.093,1.093,0,0,0,1.094-1.094v-2.2a10.491,10.491,0,0,0,2.942-1.7l1.906,1.1a1.1,1.1,0,0,0,1.494-.4l2.613-4.525a1.094,1.094,0,0,0-.4-1.494l-1.906-1.1a10.563,10.563,0,0,0,0-3.4l1.907-1.1a1.1,1.1,0,0,0,.51-.664ZM58.188,46.188h19.69v7.359H73.791A1.093,1.093,0,0,0,72.7,54.64v2.2a10.522,10.522,0,0,0-2.942,1.7l-1.906-1.1a1.1,1.1,0,0,0-1.494.4l-2.612,4.525a1.051,1.051,0,0,0-.078.232H58.189V46.189Zm26.278,18.48a8.342,8.342,0,0,1,0,3.98,1.093,1.093,0,0,0,.515,1.21l1.64.946L85.1,73.434l-1.64-.946a1.1,1.1,0,0,0-1.305.16,8.318,8.318,0,0,1-3.446,1.987,1.094,1.094,0,0,0-.791,1.051v1.9H74.885v-1.9c-.051-1.321-1.853-1.17-2.636-1.828-.962-.353-1.733-1.984-2.9-1.37l-1.644.948L66.185,70.8l1.641-.947a1.1,1.1,0,0,0,.515-1.209,8.328,8.328,0,0,1,0-3.98,1.093,1.093,0,0,0-.515-1.21l-1.64-.946,1.518-2.63,1.64.946a1.091,1.091,0,0,0,1.3-.16A8.331,8.331,0,0,1,74.1,58.682a1.094,1.094,0,0,0,.791-1.051v-1.9h3.037v1.9c.051,1.321,1.855,1.17,2.637,1.828.959.35,1.731,1.984,2.9,1.37l1.643-.948,1.519,2.63-1.642.947a1.1,1.1,0,0,0-.515,1.209Z" transform="translate(4.883 3.752)" fill="#fff"/>
      <path id="Path_319" data-name="Path 319" d="M75.068,60.245c-6.457.206-6.456,9.568,0,9.773,6.457-.206,6.456-9.568,0-9.773Zm0,7.585a2.7,2.7,0,0,1,0-5.4A2.7,2.7,0,0,1,75.068,67.83Z" transform="translate(6.219 5.277)" fill="#fff"/>
    </g>
  </g>
</svg>
