<svg xmlns="http://www.w3.org/2000/svg" width="74.968" height="73.245" viewBox="0 0 74.968 73.245">
  <g id="noun-time-is-money-5589596" transform="translate(-3.132 -4.143)">
    <path id="Path_328" data-name="Path 328" d="M47.7,38.938H36.733a1.176,1.176,0,0,1-1.176-1.176V26.794a1.176,1.176,0,0,1,2.351,0v9.8h9.8a1.176,1.176,0,1,1,0,2.35ZM78.1,59A18.375,18.375,0,0,1,45.215,70.286,33.613,33.613,0,1,1,70.357,37.762a34.1,34.1,0,0,1-.525,5.9A18.381,18.381,0,0,1,78.1,59ZM43.812,68.214A18.225,18.225,0,0,1,42.266,64.8a27.686,27.686,0,0,1-4.3.53,1.056,1.056,0,0,1-.147.015c-.027,0-.052-.006-.079-.008-.338.013-.669.03-1.005.03A27.638,27.638,0,0,1,9.15,38.881v-.044c-.014-.357-.027-.714-.027-1.074A27.638,27.638,0,0,1,35.566,10.187c.023,0,.045-.007.068-.007a.11.11,0,0,1,.041,0c.351-.014.7-.027,1.057-.027A27.632,27.632,0,0,1,64.3,36.479a1.209,1.209,0,0,1,.019.193,1.058,1.058,0,0,1-.012.115c.012.324.025.649.025.976a28.642,28.642,0,0,1-.224,3.385,18.242,18.242,0,0,1,3.555,1.274,31.659,31.659,0,0,0,.345-4.659,31.319,31.319,0,1,0-24.2,30.452Zm15.905-27.6a18.3,18.3,0,0,1,2.074.121,26.54,26.54,0,0,0,.186-2.888H56.971a1.176,1.176,0,1,1,0-2.35h4.9A25.28,25.28,0,0,0,36.81,12.511V17.52a1.176,1.176,0,1,1-2.35,0v-4.9A25.288,25.288,0,0,0,11.474,37.678h5.006a1.176,1.176,0,1,1,0,2.35h-4.9a25.287,25.287,0,0,0,25.06,22.984V58a1.176,1.176,0,1,1,2.35,0v4.9a25.29,25.29,0,0,0,2.673-.38A18.376,18.376,0,0,1,59.717,40.614ZM75.746,59A16.037,16.037,0,1,0,59.714,75.031,16.037,16.037,0,0,0,75.746,59ZM59.717,53.174A2.322,2.322,0,0,1,62.032,55.5a1.176,1.176,0,1,0,2.35,0A4.676,4.676,0,0,0,60.956,51V49.639a1.176,1.176,0,0,0-2.351,0v1.324a4.67,4.67,0,0,0,1.111,9.205,2.323,2.323,0,1,1-2.329,2.323,1.176,1.176,0,0,0-2.35,0,4.679,4.679,0,0,0,3.5,4.519v1.341a1.176,1.176,0,0,0,2.35,0V67.014a4.672,4.672,0,0,0-1.173-9.194,2.323,2.323,0,1,1,0-4.645Z" transform="translate(0 0)" fill="#00b26b"/>
  </g>
</svg>