<svg id="Rating" xmlns="http://www.w3.org/2000/svg" width="80.163" height="87.5" viewBox="0 0 80.163 87.5">
  <path id="Path_303" data-name="Path 303" d="M46.332,6.25C24.287,6.25,6.25,25.938,6.25,50S24.287,93.75,46.332,93.75,86.413,74.062,86.413,50,68.376,6.25,46.332,6.25Zm0,84.375C25.861,90.625,9.113,72.344,9.113,50S25.861,9.375,46.332,9.375,83.55,27.656,83.55,50,66.8,90.625,46.332,90.625Z" transform="translate(-6.25 -6.25)" fill="#00b26b"/>
  <path id="Path_304" data-name="Path 304" d="M79.9,38.594A1.439,1.439,0,0,0,78.469,37.5H70.024C66.3,29.375,59,23.594,50.841,22.188l-2.433-8.594a1.484,1.484,0,0,0-2.863,0l-2.433,8.594A25.932,25.932,0,0,0,23.929,37.5H15.483a1.734,1.734,0,0,0-1.431,1.094,1.369,1.369,0,0,0,.573,1.719L21.5,45.625c-.143,1.406-.286,2.969-.286,4.375A28.951,28.951,0,0,0,28.8,69.844l-3.149,9.219a1.5,1.5,0,0,0,.429,1.719,1.222,1.222,0,0,0,1.718,0l7.587-5.937a23.073,23.073,0,0,0,23.19,0l7.587,5.938a1.337,1.337,0,0,0,1.718,0,1.566,1.566,0,0,0,.429-1.719l-3.149-9.219A28.951,28.951,0,0,0,72.742,50c0-1.406-.143-2.969-.286-4.375l6.871-5.312a1.821,1.821,0,0,0,.573-1.719ZM57.57,53.438A1.8,1.8,0,0,0,57,55.313L62.007,70l1.861,5.469L47.693,62.814a1.048,1.048,0,0,0-.716-.312,1.92,1.92,0,0,0-.859.313L29.943,75.47,31.8,70l5.01-14.688a1.638,1.638,0,0,0-.573-1.875L19.923,40.626h19.9a1.734,1.734,0,0,0,1.431-1.094l5.726-20.156L52.7,39.532a1.439,1.439,0,0,0,1.431,1.094h19.9Z" transform="translate(-6.895 -6.25)" fill="#00b26b"/>
</svg>
