<svg id="APP_Download" data-name="APP Download" xmlns="http://www.w3.org/2000/svg" xmlns:xlink="http://www.w3.org/1999/xlink" width="137.772" height="40.821" viewBox="0 0 137.772 40.821">
  <defs>
    <linearGradient id="linear-gradient" x1="-1.199" y1="2.436" x2="-1.199" y2="1.535" gradientUnits="objectBoundingBox">
      <stop offset="0" stop-color="#1a1a1a" stop-opacity="0.102"/>
      <stop offset="0.123" stop-color="#212121" stop-opacity="0.153"/>
      <stop offset="0.308" stop-color="#353535" stop-opacity="0.227"/>
      <stop offset="0.532" stop-color="#575757" stop-opacity="0.318"/>
      <stop offset="0.783" stop-color="#858585" stop-opacity="0.42"/>
      <stop offset="1" stop-color="#b3b3b3" stop-opacity="0.51"/>
    </linearGradient>
  </defs>
  <path id="Path_224" data-name="Path 224" d="M139.511,38.655a3.91,3.91,0,0,1-3.915,3.91H7.482a3.915,3.915,0,0,1-3.92-3.91V7.476a3.92,3.92,0,0,1,3.92-3.915H135.6a3.914,3.914,0,0,1,3.915,3.915V38.655Z" transform="translate(-2.653 -2.652)" fill="#fff"/>
  <path id="Path_225" data-name="Path 225" d="M132.943,40.821H4.829A4.829,4.829,0,0,1,0,36V4.824A4.832,4.832,0,0,1,4.829,0H132.942a4.834,4.834,0,0,1,4.829,4.824V36A4.828,4.828,0,0,1,132.943,40.821Z" transform="translate(0 0)" fill="#a6a6a6"/>
  <path id="Path_226" data-name="Path 226" d="M139.511,38.655a3.91,3.91,0,0,1-3.915,3.91H7.482a3.915,3.915,0,0,1-3.92-3.91V7.476a3.92,3.92,0,0,1,3.92-3.915H135.6a3.914,3.914,0,0,1,3.915,3.915V38.655Z" transform="translate(-2.653 -2.652)"/>
  <path id="Path_227" data-name="Path 227" d="M68.9,38.724a5.917,5.917,0,0,1,2.819-4.965,6.063,6.063,0,0,0-4.775-2.581c-2.008-.211-3.957,1.2-4.98,1.2-1.044,0-2.619-1.181-4.317-1.146a6.357,6.357,0,0,0-5.35,3.263c-2.314,4-.588,9.89,1.629,13.127,1.109,1.586,2.4,3.355,4.1,3.293,1.659-.067,2.279-1.057,4.281-1.057,1.984,0,2.566,1.057,4.3,1.017,1.781-.028,2.9-1.592,3.972-3.192a13.084,13.084,0,0,0,1.817-3.7A5.725,5.725,0,0,1,68.9,38.724Zm-3.267-9.675a5.823,5.823,0,0,0,1.334-4.174,5.935,5.935,0,0,0-3.837,1.984,5.542,5.542,0,0,0-1.368,4.02A4.9,4.9,0,0,0,65.629,29.049Z" transform="translate(-38.134 -18.528)" fill="#fff"/>
  <path id="Path_228" data-name="Path 228" d="M320.73,0H252.108l26.878,40.821H320.73A4.832,4.832,0,0,0,325.559,36V4.824A4.833,4.833,0,0,0,320.73,0Z" transform="translate(-187.787 0)" fill="url(#linear-gradient)"/>
  <g id="Group_49" data-name="Group 49" transform="translate(43.325 18.374)">
    <path id="Path_229" data-name="Path 229" d="M181.284,85.8h-2.319l-1.27-3.99h-4.415l-1.21,3.99h-2.258l4.375-13.585h2.7Zm-3.972-5.665-1.149-3.547q-.182-.544-.685-2.559h-.041q-.2.867-.645,2.559l-1.129,3.547Zm15.2.646a5.546,5.546,0,0,1-1.358,3.95,3.982,3.982,0,0,1-3.02,1.29,3.024,3.024,0,0,1-2.8-1.389v5.14H183.16V79.226q0-1.57-.081-3.22h1.915l.122,1.553h.041a3.873,3.873,0,0,1,6.2-.385A5.416,5.416,0,0,1,192.513,80.784Zm-2.218.08a4.038,4.038,0,0,0-.645-2.359,2.231,2.231,0,0,0-1.9-.967,2.264,2.264,0,0,0-1.461.534,2.476,2.476,0,0,0-.857,1.4,2.844,2.844,0,0,0-.1.663V81.77a2.62,2.62,0,0,0,.656,1.8,2.176,2.176,0,0,0,1.7.736,2.231,2.231,0,0,0,1.915-.947A4.169,4.169,0,0,0,190.3,80.863Zm13.488-.08a5.546,5.546,0,0,1-1.358,3.95,3.984,3.984,0,0,1-3.021,1.29,3.024,3.024,0,0,1-2.8-1.389v5.14h-2.177V79.226q0-1.57-.081-3.22h1.915l.122,1.553h.041a3.874,3.874,0,0,1,6.2-.385,5.421,5.421,0,0,1,1.158,3.61Zm-2.219.08a4.038,4.038,0,0,0-.646-2.359,2.227,2.227,0,0,0-1.893-.967,2.274,2.274,0,0,0-1.463.534,2.475,2.475,0,0,0-.856,1.4,2.909,2.909,0,0,0-.1.663V81.77a2.629,2.629,0,0,0,.655,1.8,2.181,2.181,0,0,0,1.705.736,2.229,2.229,0,0,0,1.915-.947A4.168,4.168,0,0,0,201.564,80.863Zm14.819,1.128a3.628,3.628,0,0,1-1.208,2.823,5.355,5.355,0,0,1-3.7,1.189,6.462,6.462,0,0,1-3.519-.846l.5-1.814a6.058,6.058,0,0,0,3.145.847,2.968,2.968,0,0,0,1.915-.554,1.811,1.811,0,0,0,.687-1.48,1.9,1.9,0,0,0-.566-1.391,5.245,5.245,0,0,0-1.875-1.047q-3.569-1.331-3.57-3.891a3.435,3.435,0,0,1,1.26-2.741,4.983,4.983,0,0,1,3.337-1.069,6.6,6.6,0,0,1,3.085.645l-.546,1.774a5.4,5.4,0,0,0-2.611-.625,2.656,2.656,0,0,0-1.8.565,1.615,1.615,0,0,0-.546,1.231,1.664,1.664,0,0,0,.626,1.33,7.052,7.052,0,0,0,1.975,1.047,6.7,6.7,0,0,1,2.58,1.652A3.442,3.442,0,0,1,216.383,81.991Zm7.216-4.352h-2.4V82.4q0,1.814,1.27,1.813a3.825,3.825,0,0,0,.967-.1l.06,1.653A4.933,4.933,0,0,1,221.8,86a2.61,2.61,0,0,1-2.017-.787,3.859,3.859,0,0,1-.726-2.641V77.635h-1.43V76h1.43V74.209l2.138-.645V76h2.4v1.637ZM234.4,80.823a5.373,5.373,0,0,1-1.291,3.709,4.6,4.6,0,0,1-3.588,1.491,4.386,4.386,0,0,1-3.438-1.429,5.21,5.21,0,0,1-1.28-3.608,5.329,5.329,0,0,1,1.32-3.728,4.577,4.577,0,0,1,3.559-1.452,4.478,4.478,0,0,1,3.467,1.431A5.142,5.142,0,0,1,234.4,80.823Zm-2.257.05a4.385,4.385,0,0,0-.583-2.311,2.155,2.155,0,0,0-1.956-1.167,2.186,2.186,0,0,0-2,1.167,4.458,4.458,0,0,0-.584,2.352,4.373,4.373,0,0,0,.584,2.312,2.233,2.233,0,0,0,3.934-.019A4.4,4.4,0,0,0,232.148,80.873Zm9.336-2.953a3.79,3.79,0,0,0-.686-.06,2.055,2.055,0,0,0-1.775.868,3.267,3.267,0,0,0-.543,1.934V85.8H236.3V79.091q0-1.542-.063-3.084h1.9l.08,1.874h.06a3.36,3.36,0,0,1,1.089-1.553,2.633,2.633,0,0,1,1.573-.525,3.5,3.5,0,0,1,.544.04l0,2.076Zm9.736,2.52a5.1,5.1,0,0,1-.08.987h-6.531a2.841,2.841,0,0,0,.948,2.219,3.241,3.241,0,0,0,2.136.684,7.225,7.225,0,0,0,2.643-.462l.341,1.51a8.172,8.172,0,0,1-3.285.605,4.763,4.763,0,0,1-3.58-1.339,4.951,4.951,0,0,1-1.3-3.6,5.61,5.61,0,0,1,1.211-3.687,4.173,4.173,0,0,1,3.426-1.571,3.652,3.652,0,0,1,3.207,1.571A5.286,5.286,0,0,1,251.22,80.441Zm-2.076-.565a2.946,2.946,0,0,0-.423-1.673,1.9,1.9,0,0,0-1.734-.909,2.064,2.064,0,0,0-1.733.887,3.251,3.251,0,0,0-.644,1.693Z" transform="translate(-169.812 -72.016)" fill="#fff"/>
  </g>
  <g id="Group_50" data-name="Group 50" transform="translate(44.599 6.689)">
    <path id="Path_230" data-name="Path 230" d="M176.372,33.3a13.9,13.9,0,0,1-1.565-.08V26.654a11.853,11.853,0,0,1,1.843-.139c2.5,0,3.646,1.228,3.646,3.23C180.3,32.054,178.938,33.3,176.372,33.3Zm.366-5.944a4.368,4.368,0,0,0-.862.069V32.42a5.651,5.651,0,0,0,.723.03,2.366,2.366,0,0,0,2.567-2.675A2.178,2.178,0,0,0,176.737,27.357Zm7.141,5.994a2.292,2.292,0,0,1-2.319-2.476,2.345,2.345,0,0,1,2.4-2.546,2.273,2.273,0,0,1,2.319,2.467A2.359,2.359,0,0,1,183.879,33.352Zm.041-4.24c-.773,0-1.268.723-1.268,1.733,0,.991.505,1.714,1.258,1.714s1.258-.773,1.258-1.734C185.167,29.844,184.672,29.111,183.92,29.111Zm10.381-.683-1.506,4.814h-.981l-.624-2.091A15.846,15.846,0,0,1,190.8,29.6h-.02a10.422,10.422,0,0,1-.386,1.555l-.664,2.091h-.991l-1.417-4.814h1.1l.545,2.289q.193.818.327,1.546h.02c.079-.405.207-.912.4-1.535l.684-2.3h.872l.655,2.249c.158.545.287,1.08.387,1.585h.029a13.854,13.854,0,0,1,.327-1.585l.585-2.249H194.3Zm5.544,4.814h-1.07V30.478c0-.851-.327-1.278-.971-1.278a1.111,1.111,0,0,0-1.07,1.179v2.863h-1.07V29.8c0-.426-.01-.882-.04-1.377h.941l.05.743h.03a1.73,1.73,0,0,1,1.527-.841c1.011,0,1.675.773,1.675,2.03v2.883Zm2.951,0h-1.071V26.219H202.8Zm3.9.109a2.292,2.292,0,0,1-2.319-2.476,2.345,2.345,0,0,1,2.4-2.546A2.273,2.273,0,0,1,209.1,30.8,2.358,2.358,0,0,1,206.7,33.352Zm.04-4.24c-.773,0-1.268.723-1.268,1.733,0,.991.506,1.714,1.257,1.714s1.258-.773,1.258-1.734c0-.98-.493-1.713-1.247-1.713Zm6.577,4.131-.078-.554h-.029a1.644,1.644,0,0,1-1.408.664,1.4,1.4,0,0,1-1.475-1.417c0-1.188,1.03-1.8,2.814-1.8v-.089c0-.634-.336-.951-1-.951a2.254,2.254,0,0,0-1.258.357l-.217-.7a3.078,3.078,0,0,1,1.653-.416c1.258,0,1.893.664,1.893,1.992v1.773a7.27,7.27,0,0,0,.069,1.149h-.965Zm-.147-2.4c-1.189,0-1.785.288-1.785.971a.682.682,0,0,0,.734.752,1.025,1.025,0,0,0,1.051-.98Zm6.239,2.4-.05-.773h-.03a1.614,1.614,0,0,1-1.546.882,2.194,2.194,0,0,1-2.021-2.457,2.284,2.284,0,0,1,2.109-2.566,1.447,1.447,0,0,1,1.358.654h.021V26.219h1.071v5.726c0,.465.011.9.04,1.3h-.953Zm-.158-2.833a1.165,1.165,0,0,0-1.127-1.248c-.793,0-1.278.7-1.278,1.694,0,.971.5,1.635,1.257,1.635a1.2,1.2,0,0,0,1.149-1.278Zm7.862,2.942a2.291,2.291,0,0,1-2.318-2.476,2.345,2.345,0,0,1,2.4-2.546,2.273,2.273,0,0,1,2.319,2.467,2.358,2.358,0,0,1-2.4,2.555Zm.04-4.24c-.772,0-1.267.723-1.267,1.733,0,.991.505,1.714,1.257,1.714s1.258-.773,1.258-1.734C228.4,29.844,227.9,29.111,227.15,29.111Zm8.114,4.131h-1.071V30.478c0-.851-.327-1.278-.971-1.278a1.11,1.11,0,0,0-1.069,1.179v2.863h-1.071V29.8c0-.426-.01-.882-.04-1.377h.941l.05.743h.03a1.729,1.729,0,0,1,1.525-.842c1.011,0,1.676.773,1.676,2.03Zm7.2-4.012h-1.177v2.338c0,.6.206.892.623.892a2.108,2.108,0,0,0,.475-.05l.03.813a2.371,2.371,0,0,1-.83.119c-.843,0-1.348-.465-1.348-1.684V29.231h-.7v-.8h.7v-.882l1.051-.317v1.2h1.177Zm5.665,4.012h-1.069V30.5c0-.862-.326-1.3-.971-1.3a1.049,1.049,0,0,0-1.071,1.139v2.9h-1.069V26.219h1.069v2.892h.021a1.624,1.624,0,0,1,1.448-.783c1.019,0,1.642.792,1.642,2.051v2.863Zm5.8-2.15h-3.211a1.382,1.382,0,0,0,1.517,1.426,3.617,3.617,0,0,0,1.3-.228l.166.743a4.021,4.021,0,0,1-1.615.3,2.235,2.235,0,0,1-2.4-2.426,2.351,2.351,0,0,1,2.277-2.586,2.022,2.022,0,0,1,2,2.289A2.059,2.059,0,0,1,253.932,31.093Zm-.981-.763c0-.743-.375-1.268-1.059-1.268a1.269,1.269,0,0,0-1.17,1.268Z" transform="translate(-174.806 -26.219)" fill="#fff"/>
  </g>
</svg>
