<svg id="Bokking" xmlns="http://www.w3.org/2000/svg" width="80.164" height="87.499" viewBox="0 0 80.164 87.499">
  <path id="Path_302" data-name="Path 302" d="M6.25,85.938V14.063a8.16,8.16,0,0,1,2.1-5.523,6.864,6.864,0,0,1,5.06-2.289H50.626a6.863,6.863,0,0,1,5.06,2.289,8.16,8.16,0,0,1,2.1,5.523V37.676L68.4,43.082a10.619,10.619,0,0,1,5.182,6.168l8.861,26.578,3.149,1.625a1.581,1.581,0,0,1,.82,1.43L86.284,92.2a1.576,1.576,0,0,1-.15.68,1.421,1.421,0,0,1-1.3.867,1.3,1.3,0,0,1-.623-.164L65.8,83.57a10.414,10.414,0,0,1-4.2-4.3.925.925,0,0,1-.05-.105,19.578,19.578,0,0,1-1.764-9.141,5.608,5.608,0,0,1,.115-.812c.05-.23.125-.574.193-.867a.367.367,0,0,0-.007-.187l-2.3-6.9v24.68a8.16,8.16,0,0,1-2.1,5.523,6.864,6.864,0,0,1-5.06,2.289H13.407a6.863,6.863,0,0,1-5.06-2.289,8.16,8.16,0,0,1-2.1-5.523ZM20,9.376H13.408a4.119,4.119,0,0,0-3.038,1.375,4.9,4.9,0,0,0-1.256,3.313V75H54.921V50.881l-9.759-9.273a4.686,4.686,0,0,1-1.17-1.8L33.474,54.31a1.425,1.425,0,0,1-.977.586,1.342,1.342,0,0,1-1.059-.355l-8.023-7.3a1.658,1.658,0,0,1-.183-2.2,1.347,1.347,0,0,1,2.015-.2l6.893,6.27L43.931,34.861a1.357,1.357,0,0,1,1.421-.559,4,4,0,0,1,4.552-.637l5.017,2.551V14.064a4.9,4.9,0,0,0-1.256-3.312,4.119,4.119,0,0,0-3.038-1.375H44.035l-.905,5.43A4.419,4.419,0,0,1,38.9,18.658H25.132a4.419,4.419,0,0,1-4.226-3.852Zm63.447,80.3c.032-3.6.093-9.824.093-9.824l-2.845-1.469a1.535,1.535,0,0,1-.737-.875L70.893,50.321a7.588,7.588,0,0,0-3.7-4.406L48.694,36.5a1.358,1.358,0,0,0-1.761.488l-.1.16a1.658,1.658,0,0,0,.211,2.1L60.6,52.142a4.309,4.309,0,0,1,4.305,3.074l3.428,10.277a1.6,1.6,0,0,1-.859,2,1.4,1.4,0,0,1-1.832-.934L62.222,56.286a1.407,1.407,0,0,0-1.839-.934h0a1.611,1.611,0,0,0-.855,2l3.25,9.742a3.71,3.71,0,0,1,.1,2c-.061.281-.136.609-.179.82,0,.008,0,.023-.007.035a1.4,1.4,0,0,0-.039.273,16.257,16.257,0,0,0,1.467,7.547,7.437,7.437,0,0,0,2.963,3ZM37.095,56.931a1.374,1.374,0,0,1,1.925.68,1.641,1.641,0,0,1-.626,2.105,13.792,13.792,0,0,1-6.714,1.75c-8.167,0-14.8-7.234-14.8-16.152s6.631-16.152,14.8-16.152a13.863,13.863,0,0,1,8.3,2.777,1.65,1.65,0,0,1,.383,2.168,1.36,1.36,0,0,1-1.986.418,11.2,11.2,0,0,0-6.692-2.242c-6.588,0-11.935,5.844-11.935,13.031S25.092,58.345,31.68,58.345A11.115,11.115,0,0,0,37.1,56.931Zm6.374-3.8H41.558a1.571,1.571,0,0,1,0-3.129h1.911V47.919a1.437,1.437,0,1,1,2.863,0V50h1.911a1.571,1.571,0,0,1,0,3.129H46.332v2.082a1.437,1.437,0,1,1-2.863,0ZM25.833,85.939H38.2a1.568,1.568,0,0,0,0-3.125H25.833a1.568,1.568,0,0,0,0,3.125Z" transform="translate(-6.25 -6.251)" fill="#00b26b" fill-rule="evenodd"/>
</svg>
