<svg id="EV_Car_Drivers" data-name="EV Car Drivers" xmlns="http://www.w3.org/2000/svg" width="83.15" height="90.767" viewBox="0 0 83.15 90.767">
  <path id="Path_296" data-name="Path 296" d="M49.21,36.5a1.956,1.956,0,1,1-3.9,0,1.956,1.956,0,1,1,3.9,0" transform="translate(-7.634 -3.175)" fill="#00b26b"/>
  <path id="Path_297" data-name="Path 297" d="M38.272,36.5a1.956,1.956,0,1,1-3.9,0,1.956,1.956,0,1,1,3.9,0" transform="translate(-5.791 -3.175)" fill="#00b26b"/>
  <path id="Path_298" data-name="Path 298" d="M41.925,46.153a1.362,1.362,0,0,0,1.3-1.418V40.481a1.3,1.3,0,1,0-2.6,0v4.255A1.362,1.362,0,0,0,41.925,46.153Z" transform="translate(-6.844 -3.608)" fill="#00b26b"/>
  <path id="Path_299" data-name="Path 299" d="M44.129,48.838a4.273,4.273,0,0,1-2.995,1.018,4.292,4.292,0,0,1-2.992-1.018,1.225,1.225,0,0,0-1.825.014,1.514,1.514,0,0,0,0,2.007,6.607,6.607,0,0,0,4.817,1.833,6.607,6.607,0,0,0,4.817-1.833,1.5,1.5,0,0,0,.007-1.978,1.231,1.231,0,0,0-1.829-.043Z" transform="translate(-6.054 -4.474)" fill="#00b26b"/>
  <path id="Path_300" data-name="Path 300" d="M58.059,90.625h-5.2a1.424,1.424,0,0,0,0,2.836h5.2a1.424,1.424,0,0,0,0-2.836Z" transform="translate(-8.687 -8.37)" fill="#00b26b"/>
  <path id="Path_301" data-name="Path 301" d="M67.562,56.727A14.972,14.972,0,0,0,56.3,62l-9.53-3.464v-7.6A17.766,17.766,0,0,0,50.626,40.8a9.88,9.88,0,0,0,6.542-9.6V25.527c0-1.344-1.429-3.957-2.6-5.456V15.6C54.569,7,48.157,0,40.277,0H29.883a13.623,13.623,0,0,0-10.1,4.57A16.23,16.23,0,0,0,15.591,15.6V20.07c-1.169,1.5-2.6,4.489-2.6,5.456V31.2a9.887,9.887,0,0,0,6.542,9.6A17.7,17.7,0,0,0,23.387,50.94v7.516l-9.5,2.6C4.93,64.31,0,70.33,0,78V89.348a1.362,1.362,0,0,0,1.3,1.418H67.558c8.6,0,15.591-7.633,15.591-17.018S76.156,56.73,67.558,56.73ZM54.569,31.2a6.938,6.938,0,0,1-3.9,6.517V26.945h3.9ZM31.182,8.509h7.8a1.362,1.362,0,0,1,1.3,1.418,1.362,1.362,0,0,1-1.3,1.418h-7.8a1.362,1.362,0,0,1-1.3-1.418A1.362,1.362,0,0,1,31.182,8.509ZM19.489,37.727a6.9,6.9,0,0,1-3.9-6.527V26.945h3.9Zm-3.3-13.618a11.849,11.849,0,0,1,1.65-2.567A12.944,12.944,0,0,1,20,19.535a12.4,12.4,0,0,1,7.286-2.521H42.873a12.791,12.791,0,0,1,9.44,4.52,11.581,11.581,0,0,1,1.657,2.57Zm5.9,15.6V26.946H48.073V39.709a14.839,14.839,0,0,1-3.547,9.736,12.35,12.35,0,0,1-9.445,4.446,12.759,12.759,0,0,1-9.449-4.449,14.836,14.836,0,0,1-3.544-9.733ZM28.9,87.927H25.986V83.672a1.362,1.362,0,0,0-1.3-1.418h-9.1a1.362,1.362,0,0,0-1.3,1.418v4.255h-2.6V79.418A1.362,1.362,0,0,0,10.394,78a1.362,1.362,0,0,0-1.3,1.418v8.509H2.6V78c0-8.569,7.584-12.612,12.008-14.224l7.351-2.007-2.283,4.155a1.528,1.528,0,0,0-.133,1.127,1.4,1.4,0,0,0,.666.872l4.924,2.687,3.69,5.371,2.248,3.677L28.9,87.926ZM30.023,73l-3-4.364a1.34,1.34,0,0,0-.458-.418L22.621,66.07,25,61.748l8.179,7.811L30.02,73ZM25.986,58.922v-5.4a14.739,14.739,0,0,0,9.1,3.2,14.565,14.565,0,0,0,9.1-3.191v5.386l-9.1,8.686ZM45.16,61.751l2.378,4.322-3.943,2.152a1.311,1.311,0,0,0-.458.418l-3,4.364-3.157-3.446,8.179-7.811Zm-3.9,26.18-2.163-8.268,2.248-3.677,3.69-5.371,4.924-2.687a1.39,1.39,0,0,0,.666-.872,1.544,1.544,0,0,0-.133-1.127l-2.092-3.8,6.175,2.244a18.191,18.191,0,0,0-2.6,9.381,17.463,17.463,0,0,0,6.99,14.182ZM63.661,66.4v3.829l-3.888,3.4A8.567,8.567,0,0,1,63.661,66.4Zm3.9,15.855a7.3,7.3,0,0,1-4.317-1.425L66.695,78h1.731l3.453,2.829a7.3,7.3,0,0,1-4.317,1.425Zm6.23-3.4-4.151-3.4a1.23,1.23,0,0,0-.78-.284h-2.6a1.223,1.223,0,0,0-.78.284l-4.148,3.4A8.838,8.838,0,0,1,60.3,76.805l5.476-4.786a1.469,1.469,0,0,0,.487-1.106V65.367a6.677,6.677,0,0,1,2.6,0v5.545a1.464,1.464,0,0,0,.487,1.106l5.476,4.786a8.757,8.757,0,0,1-1.033,2.049Zm-2.332-8.623V66.4a8.574,8.574,0,0,1,3.888,7.226Z" transform="translate(0 0)" fill="#00b26b"/>
</svg>
