<svg xmlns="http://www.w3.org/2000/svg" xmlns:xlink="http://www.w3.org/1999/xlink" width="438.447" height="183.143" viewBox="0 0 438.447 183.143">
  <defs>
    <linearGradient id="linear-gradient" x1="0.5" y1="0.409" x2="0.5" y2="1.02" gradientUnits="objectBoundingBox">
      <stop offset="0" stop-color="#64ffc5"/>
      <stop offset="0.478" stop-color="#0ac982"/>
      <stop offset="1" stop-color="#aaf5d9"/>
    </linearGradient>
    <linearGradient id="linear-gradient-5" x1="0.5" y1="0.191" x2="0.5" y2="1" gradientUnits="objectBoundingBox">
      <stop offset="0" stop-color="#64ffc5"/>
      <stop offset="0.542" stop-color="#12cd87"/>
      <stop offset="1" stop-color="#64ffc5"/>
    </linearGradient>
    <clipPath id="clip-path">
      <rect id="Rectangle_14" data-name="Rectangle 14" width="208.353" height="26.903" fill="url(#linear-gradient-5)"/>
    </clipPath>
  </defs>
  <g id="Group_159" data-name="Group 159" transform="translate(0 0)">
    <path id="PLUS_X_LOGO" data-name="PLUS X LOGO" d="M2.856,183.143A2.856,2.856,0,0,1,0,180.286V70.836a2.856,2.856,0,0,1,2.856-2.856h8.607a2.856,2.856,0,0,1,2.857,2.856v4.213h.307a36.061,36.061,0,0,1,21.263-7.069q16.837,0,28.452,13.827,7.559,10.2,7.559,21.078V105.1q0,14.256-11.983,25.81-10.877,8.969-22.492,8.97H34.6q-10.078,0-19.972-6.944h-.307v47.351a2.857,2.857,0,0,1-2.857,2.857ZM18.433,91.4a22,22,0,0,0-4.114,12.474q0,12.045,11.307,19.174a22.107,22.107,0,0,0,9.464,2.52h1.9q8.911,0,16.347-8.481a22.58,22.58,0,0,0,4.24-12.782v-.615q0-10.386-9.283-17.452A22.227,22.227,0,0,0,36.008,82.3Q25.623,82.3,18.433,91.4Zm264.415,91.656c-9.006-.03-15.645-4.654-20.1-12.611a25.221,25.221,0,0,1-2.543-10.591c.032-18,0-35.991,0-53.986,0-.905.046-1.812.1-2.715a2.272,2.272,0,0,1,2.415-2.39c1.931-.056,3.863-.055,5.794-.026a2.75,2.75,0,0,1,2.742,2.209,11.788,11.788,0,0,1,.39,3.4q.03,23.822.066,47.645a42.333,42.333,0,0,0,.612,7.2,11.947,11.947,0,0,0,11.037,9.8c1.326.065,2.656.053,3.984.053q62.049,0,124.1-.013a29.982,29.982,0,0,0,5.927-.459c5.548-1.105,9.459-6.534,9.538-12.369.134-9.9.068-19.806.078-29.71.006-7-.011-14.009.007-21.015a17.694,17.694,0,0,1,.231-2.877c.635-3.8.808-4.054,4.72-4.189,6.263-.218,6.453.6,6.456,5.838.009,17.993.15,35.989-.11,53.979-.166,11.494-7.754,20.456-18.714,22.334a26.451,26.451,0,0,1-4.481.565q-19.031-.005-38.06,0-13.427,0-26.857.005Q316.512,183.142,282.848,183.053Zm60.908-37.908v-13.3a5.421,5.421,0,0,1,10.842,0v13.3a5.421,5.421,0,1,1-10.842,0Zm-47.847,1.742a12.373,12.373,0,0,1-.306-17.5l36.524-37.822L295.6,53.75a12.372,12.372,0,1,1,17.8-17.189l35.923,37.2,35.923-37.2a12.372,12.372,0,1,1,17.8,17.189L366.527,91.571l36.524,37.822a12.373,12.373,0,0,1-17.8,17.19l-35.923-37.2-35.923,37.2a12.371,12.371,0,0,1-17.494.305Zm-191.268-29.34V76.91a2.856,2.856,0,0,1,2.857-2.856h8.909a2.856,2.856,0,0,1,2.857,2.856v40.018c0,7.438,5.2,11.772,13.01,11.773,10.039,0,15.984-6.569,16.108-14.994V76.91a2.856,2.856,0,0,1,2.857-2.856h8.906A2.856,2.856,0,0,1,163,76.91v59.962a2.856,2.856,0,0,1-2.857,2.856h-6.371a2.856,2.856,0,0,1-2.837-2.524l-.581-4.965a.712.712,0,0,0-1.289-.332c-4.111,6.041-11.367,9.68-19.768,9.68C113.686,141.586,104.641,131.8,104.641,117.547ZM84.9,140.126a4,4,0,0,1-4-4V36.217a4,4,0,0,1,4-4H91.22a4,4,0,0,1,4,4v99.909a4,4,0,0,1-4,4Zm90.092,0a2.856,2.856,0,0,1-2.856-2.856v-8.6a2.856,2.856,0,0,1,2.856-2.857h51.825s5.57-1.413,6.76-4.24l.491-3.011q0-7.251-8.788-7.25h-20.77q-8.174,0-15.118-6.268a21.118,21.118,0,0,1-5.837-15.118,23.373,23.373,0,0,1,5.654-15.056q5.592-6.637,17.944-6.637H260.21q.012-22.467,0-44.935A25.221,25.221,0,0,1,262.752,12.7C267.2,4.743,273.841.118,282.848.089Q329.941-.065,377.036,0q19.03.005,38.06,0a26.36,26.36,0,0,1,4.481.565c10.96,1.877,18.548,10.841,18.715,22.334.259,17.99.118,35.986.109,53.979,0,4.759-.159,5.87-4.892,5.87-.474,0-.995-.012-1.564-.032-3.912-.135-4.085-.392-4.72-4.189a17.7,17.7,0,0,1-.231-2.878c-.018-7,0-14.009-.007-21.014-.01-9.9.056-19.809-.078-29.711-.079-5.834-3.991-11.264-9.538-12.368a29.982,29.982,0,0,0-5.927-.459q-62.049-.024-124.1-.014c-1.328,0-2.659-.012-3.984.053a11.947,11.947,0,0,0-11.037,9.8,42.333,42.333,0,0,0-.612,7.2q-.011,23.822-.066,47.645a11.788,11.788,0,0,1-.39,3.4,2.75,2.75,0,0,1-2.742,2.209q-1.556.023-3.112.018a2.857,2.857,0,0,1-.812.117H207.153q-5.839,0-7.251,1.905a9.851,9.851,0,0,0-2.028,5.654,6.324,6.324,0,0,0,4.427,6.453l2.642.491h19.233q17.453,0,22.8,13.336a26.328,26.328,0,0,1,1.414,8.354q0,13.273-11.8,19.174a21.517,21.517,0,0,1-8.972,2.213Zm212.9-44.7a5.421,5.421,0,0,1,0-10.842h13.3a5.421,5.421,0,1,1,0,10.842Zm-89.942,0a5.421,5.421,0,0,1,0-10.842h13.3a5.421,5.421,0,1,1,0,10.842Zm45.807-44.136V38A5.421,5.421,0,0,1,354.6,38v13.3a5.421,5.421,0,1,1-10.842,0Z" transform="translate(0 0)" fill="url(#linear-gradient)"/>
    <g id="Group_13" data-name="Group 13" transform="translate(35.133 156.239)">
      <g id="Group_12" data-name="Group 12" transform="translate(0 0)" clip-path="url(#clip-path)">
        <path id="Path_6" data-name="Path 6" d="M10.014,26.9a11.7,11.7,0,0,0,6.708-2.128.711.711,0,0,0,.19-.941l-.57-.968a.706.706,0,0,0-1-.236,9.4,9.4,0,0,1-5.29,1.6,6.842,6.842,0,0,1-6.815-5.342.716.716,0,0,1,.7-.863h14.1a.713.713,0,0,0,.713-.666c.011-.162.019-.339.019-.512,0-5.459-4.045-9.857-9.15-9.857A9.694,9.694,0,0,0,0,16.965,9.7,9.7,0,0,0,10.014,26.9M3.958,15.748a.719.719,0,0,1-.7-.879A6.434,6.434,0,0,1,9.465,9.661a6.434,6.434,0,0,1,6.262,5.251.715.715,0,0,1-.708.836ZM35.509,26.509h1.557a.714.714,0,0,0,.714-.714V1.382a.714.714,0,0,0-.714-.714H35.509a.714.714,0,0,0-.714.714V25.795a.714.714,0,0,0,.714.714m28.308.393a11.7,11.7,0,0,0,6.708-2.128.711.711,0,0,0,.19-.941l-.57-.968a.706.706,0,0,0-1-.236,9.4,9.4,0,0,1-5.29,1.6,6.842,6.842,0,0,1-6.815-5.342.716.716,0,0,1,.7-.863h14.1a.713.713,0,0,0,.713-.666c.011-.162.019-.339.019-.512,0-5.459-4.045-9.857-9.15-9.857A9.694,9.694,0,0,0,53.8,16.965,9.7,9.7,0,0,0,63.816,26.9ZM57.761,15.748a.719.719,0,0,1-.7-.88,6.33,6.33,0,0,1,12.466.044.715.715,0,0,1-.708.836ZM97.866,26.9a10.512,10.512,0,0,0,6.8-2.386.706.706,0,0,0,.095-.973l-.856-1.109a.705.705,0,0,0-1-.13A7.715,7.715,0,0,1,97.984,24a6.851,6.851,0,0,1-7.106-6.586c-.005-.148-.006-.3,0-.444A6.865,6.865,0,0,1,97.529,9.9c.125,0,.251,0,.376,0a7.129,7.129,0,0,1,4.418,1.373.7.7,0,0,0,.939-.11L104.2,10.1a.721.721,0,0,0-.111-1.054A10.2,10.2,0,0,0,97.866,6.99,9.932,9.932,0,0,0,87.813,16.8c0,.055,0,.11,0,.165A9.9,9.9,0,0,0,97.674,26.9h.192m29.061,0a7.877,7.877,0,0,0,3.847-1.062.725.725,0,0,0,.316-.908l-.424-1a.713.713,0,0,0-.994-.346,5.7,5.7,0,0,1-2.47.647c-1.532,0-2.671-.746-2.671-3.377V10.571a.714.714,0,0,1,.714-.714h5.091a.714.714,0,0,0,.714-.714V8.1a.714.714,0,0,0-.714-.714h-5.091a.714.714,0,0,1-.714-.714v-3.1a.714.714,0,0,0-.843-.7l-1.557.286a.714.714,0,0,0-.585.7V6.669a.714.714,0,0,1-.714.714H119.4a.714.714,0,0,0-.714.714V9.143a.714.714,0,0,0,.714.714h1.439a.714.714,0,0,1,.714.714v10.2c0,4.477,2,6.126,5.379,6.126m20.429-.393h1.557a.714.714,0,0,0,.714-.714V17.44c0-4.44,2.623-6.93,6.723-7.168a.715.715,0,0,0,.66-.72V7.735a.722.722,0,0,0-.785-.713,7.487,7.487,0,0,0-6.332,3.864.142.142,0,0,1-.266-.071V8.1a.714.714,0,0,0-.714-.714h-2.271V25.795a.714.714,0,0,0,.714.714m25.605,0h1.558a.714.714,0,0,0,.714-.714V8.1a.714.714,0,0,0-.714-.714h-1.557a.714.714,0,0,0-.714.714v17.7a.714.714,0,0,0,.714.714m.778-22.542a1.978,1.978,0,0,0,2-1.953V2a2.012,2.012,0,0,0-2-2,1.978,1.978,0,0,0-1.964,1.992V2A1.944,1.944,0,0,0,173.7,3.966h.039M201.308,26.9a10.513,10.513,0,0,0,6.8-2.386.705.705,0,0,0,.094-.973l-.855-1.109a.705.705,0,0,0-1-.13A7.715,7.715,0,0,1,201.426,24a6.851,6.851,0,0,1-7.106-6.586c-.005-.148-.006-.3,0-.444A6.865,6.865,0,0,1,200.972,9.9c.125,0,.251,0,.376,0a7.129,7.129,0,0,1,4.418,1.373.7.7,0,0,0,.939-.11l.941-1.058a.721.721,0,0,0-.111-1.054,10.208,10.208,0,0,0-6.226-2.057,9.932,9.932,0,0,0-10.053,9.81c0,.055,0,.11,0,.165a9.9,9.9,0,0,0,9.862,9.937h.192" transform="translate(0 0)" fill="url(#linear-gradient-5)"/>
      </g>
    </g>
  </g>
</svg>
