<svg id="google-play-badge-logo-svgrepo-com" xmlns="http://www.w3.org/2000/svg" xmlns:xlink="http://www.w3.org/1999/xlink" width="137.773" height="40.822" viewBox="0 0 137.773 40.822">
  <defs>
    <linearGradient id="linear-gradient" x1="0.908" y1="1.032" x2="-0.383" y2="0.36" gradientUnits="objectBoundingBox">
      <stop offset="0" stop-color="#00a0ff"/>
      <stop offset="0.007" stop-color="#00a1ff"/>
      <stop offset="0.26" stop-color="#00beff"/>
      <stop offset="0.512" stop-color="#00d2ff"/>
      <stop offset="0.76" stop-color="#00dfff"/>
      <stop offset="1" stop-color="#00e3ff"/>
    </linearGradient>
    <linearGradient id="linear-gradient-2" x1="1.077" y1="0.729" x2="-1.307" y2="0.729" gradientUnits="objectBoundingBox">
      <stop offset="0" stop-color="#ffe000"/>
      <stop offset="0.409" stop-color="#ffbd00"/>
      <stop offset="0.775" stop-color="orange"/>
      <stop offset="1" stop-color="#ff9c00"/>
    </linearGradient>
    <linearGradient id="linear-gradient-3" x1="0.864" y1="-0.023" x2="-0.499" y2="-1.789" gradientUnits="objectBoundingBox">
      <stop offset="0" stop-color="#ff3a44"/>
      <stop offset="1" stop-color="#c31162"/>
    </linearGradient>
    <linearGradient id="linear-gradient-4" x1="-0.186" y1="2.701" x2="0.423" y2="1.909" gradientUnits="objectBoundingBox">
      <stop offset="0" stop-color="#32a071"/>
      <stop offset="0.069" stop-color="#2da771"/>
      <stop offset="0.476" stop-color="#15cf74"/>
      <stop offset="0.801" stop-color="#06e775"/>
      <stop offset="1" stop-color="#00f076"/>
    </linearGradient>
  </defs>
  <path id="Path_213" data-name="Path 213" d="M132.67,40.822H5.1a5.053,5.053,0,0,1-5.1-5.1V5.1A5.053,5.053,0,0,1,5.1,0H132.67a5.053,5.053,0,0,1,5.1,5.1V35.719A5.053,5.053,0,0,1,132.67,40.822Z"/>
  <path id="Path_214" data-name="Path 214" d="M132.67.816A4.312,4.312,0,0,1,136.957,5.1V35.719a4.312,4.312,0,0,1-4.286,4.286H5.1A4.312,4.312,0,0,1,.816,35.719V5.1A4.312,4.312,0,0,1,5.1.816H132.67m0-.816H5.1A5.118,5.118,0,0,0,0,5.1V35.719a5.053,5.053,0,0,0,5.1,5.1H132.67a5.053,5.053,0,0,0,5.1-5.1V5.1A5.118,5.118,0,0,0,132.67,0Z" fill="#a6a6a6"/>
  <path id="Path_215" data-name="Path 215" d="M47.523,10.268a2.78,2.78,0,0,1-.714,2.041A3.164,3.164,0,0,1,41.4,10.064,3.136,3.136,0,0,1,44.564,6.9a2.717,2.717,0,0,1,1.225.306,2.222,2.222,0,0,1,.918.714l-.51.51a1.9,1.9,0,0,0-1.633-.714,2.031,2.031,0,0,0-1.633.714,2.1,2.1,0,0,0-.714,1.735,2.1,2.1,0,0,0,.714,1.735,2.628,2.628,0,0,0,1.633.714A2.238,2.238,0,0,0,46.3,11.9a1.69,1.69,0,0,0,.51-1.225H44.564V9.86h2.96Zm4.694-2.551H49.462V9.655h2.551v.714H49.462v1.939h2.755v.816H48.646V7h3.572Zm3.368,5.409h-.816V7.716H53.034V7H57.32v.714H55.586Zm4.694,0V7H61.1v6.123Zm4.286,0H63.75V7.716H62.015V7H66.2v.714H64.464v5.409Zm9.7-.816a3.164,3.164,0,0,1-5.409-2.245,3.164,3.164,0,1,1,6.327,0A3,3,0,0,1,74.261,12.309Zm-3.878-.51a2.408,2.408,0,0,0,1.633.714,2.031,2.031,0,0,0,1.633-.714,2.462,2.462,0,0,0,.714-1.735,2.1,2.1,0,0,0-.714-1.735,2.408,2.408,0,0,0-1.633-.714,2.031,2.031,0,0,0-1.633.714,2.462,2.462,0,0,0-.714,1.735A2.1,2.1,0,0,0,70.383,11.8ZM76.3,13.125V7h.918l2.96,4.8V7H81v6.123h-.816l-3.164-5v5Z" transform="translate(0.85 0.142)" fill="#fff" stroke="#fff" stroke-miterlimit="10" stroke-width="0.2"/>
  <path id="Path_216" data-name="Path 216" d="M68.655,21.9a4.294,4.294,0,0,0-4.388,4.388,4.356,4.356,0,0,0,4.388,4.388,4.294,4.294,0,0,0,4.388-4.388A4.234,4.234,0,0,0,68.655,21.9Zm0,6.94a2.662,2.662,0,0,1,0-5.307A2.472,2.472,0,0,1,71.1,26.183,2.533,2.533,0,0,1,68.655,28.836ZM59.164,21.9a4.294,4.294,0,0,0-4.388,4.388,4.356,4.356,0,0,0,4.388,4.388,4.294,4.294,0,0,0,4.388-4.388A4.234,4.234,0,0,0,59.164,21.9Zm0,6.94a2.662,2.662,0,0,1,0-5.307,2.472,2.472,0,0,1,2.449,2.653A2.533,2.533,0,0,1,59.164,28.836ZM47.836,23.223V25.06h4.388A3.859,3.859,0,0,1,51.2,27.407a4.517,4.517,0,0,1-3.368,1.327,4.751,4.751,0,0,1-4.8-4.9,4.814,4.814,0,0,1,4.8-4.9A5.06,5.06,0,0,1,51.2,20.264l1.327-1.327A6.54,6.54,0,0,0,47.938,17.1,6.884,6.884,0,0,0,41.1,23.836a6.884,6.884,0,0,0,6.838,6.736,5.873,5.873,0,0,0,4.694-1.939,6.144,6.144,0,0,0,1.633-4.286,3.827,3.827,0,0,0-.1-1.123H47.836Zm46.333,1.429A3.965,3.965,0,0,0,90.494,21.9a4.11,4.11,0,0,0-4.082,4.388A4.271,4.271,0,0,0,90.7,30.673a4.186,4.186,0,0,0,3.572-1.939l-1.429-1.021A2.488,2.488,0,0,1,90.7,28.938a2.214,2.214,0,0,1-2.143-1.327l5.817-2.449-.2-.51Zm-5.919,1.429a2.479,2.479,0,0,1,2.245-2.551,1.805,1.805,0,0,1,1.633.918Zm-4.8,4.184h1.939V17.508H83.452Zm-3.062-7.45a3.36,3.36,0,0,0-2.347-1.021,4.385,4.385,0,0,0-4.184,4.388,4.226,4.226,0,0,0,4.184,4.286,2.93,2.93,0,0,0,2.245-1.021h.1v.612a2.32,2.32,0,0,1-4.49,1.021l-1.633.714a4.21,4.21,0,0,0,3.878,2.551c2.245,0,4.082-1.327,4.082-4.49V22.1H80.391v.714Zm-2.245,6.021a2.662,2.662,0,0,1,0-5.307,2.455,2.455,0,0,1,2.347,2.653A2.455,2.455,0,0,1,78.146,28.836Zm24.9-11.328H98.454V30.265h1.939v-4.8h2.653a3.985,3.985,0,1,0,0-7.96Zm.1,6.123h-2.755V19.243h2.755a2.242,2.242,0,0,1,2.245,2.143,2.336,2.336,0,0,1-2.245,2.245Zm11.736-1.837a3.43,3.43,0,0,0-3.368,1.939l1.735.714a1.8,1.8,0,0,1,1.735-.918,1.918,1.918,0,0,1,2.041,1.633v.1a4.048,4.048,0,0,0-1.939-.51c-1.837,0-3.674,1.021-3.674,2.858a2.99,2.99,0,0,0,3.164,2.858,2.872,2.872,0,0,0,2.449-1.225h.1v1.021h1.837v-4.9a3.862,3.862,0,0,0-4.082-3.572Zm-.2,7.042c-.612,0-1.531-.306-1.531-1.123,0-1.021,1.123-1.327,2.041-1.327a3.947,3.947,0,0,1,1.735.408A2.377,2.377,0,0,1,114.681,28.836ZM125.4,22.1l-2.143,5.511h-.1L120.906,22.1h-2.041l3.368,7.756-1.939,4.286h1.939l5.2-12.042H125.4Zm-17.145,8.164h1.939V17.508h-1.939Z" transform="translate(0.844 0.351)" fill="#fff"/>
  <g id="Group_48" data-name="Group 48" transform="translate(10.205 7.294)">
    <path id="Path_217" data-name="Path 217" d="M10.408,7.5A2,2,0,0,0,10,8.929V31.483a2.019,2.019,0,0,0,.51,1.429l.1.1L23.267,20.359v-.2Z" transform="translate(-10 -7.14)" fill="url(#linear-gradient)"/>
    <path id="Path_218" data-name="Path 218" d="M27.084,24.475,22.9,20.29v-.306L27.084,15.8l.1.1,5,2.858c1.429.816,1.429,2.143,0,2.96Z" transform="translate(-9.735 -6.969)" fill="url(#linear-gradient-2)"/>
    <path id="Path_219" data-name="Path 219" d="M27.443,24.286,23.157,20,10.4,32.757c.51.51,1.225.51,2.143.1l14.9-8.573" transform="translate(-9.992 -6.883)" fill="url(#linear-gradient-3)"/>
    <path id="Path_220" data-name="Path 220" d="M27.443,15.977l-14.9-8.47a1.654,1.654,0,0,0-2.143.1L23.157,20.264Z" transform="translate(-9.992 -7.147)" fill="url(#linear-gradient-4)"/>
    <path id="Path_221" data-name="Path 221" d="M27.341,24.1l-14.8,8.368a1.669,1.669,0,0,1-2.041,0l-.1.1.1.1a1.669,1.669,0,0,0,2.041,0Z" transform="translate(-9.992 -6.799)" opacity="0.2"/>
    <path id="Path_222" data-name="Path 222" d="M10.408,32.553A2,2,0,0,1,10,31.124v.1a2.019,2.019,0,0,0,.51,1.429v-.1h-.1ZM32.452,21.327l-5.1,2.858.1.1,5-2.858A1.7,1.7,0,0,0,33.472,20C33.472,20.51,33.064,20.918,32.452,21.327Z" transform="translate(-10 -6.883)" opacity="0.12"/>
    <path id="Path_223" data-name="Path 223" d="M12.551,7.609l19.9,11.328c.612.408,1.021.816,1.021,1.327a1.7,1.7,0,0,0-1.021-1.429L12.551,7.507C11.123,6.691,10,7.3,10,8.936v.1C10,7.507,11.123,6.793,12.551,7.609Z" transform="translate(-10 -7.147)" fill="#fff" opacity="0.25"/>
  </g>
</svg>
