<svg xmlns="http://www.w3.org/2000/svg" width="80.828" height="90.754" viewBox="0 0 80.828 90.754">
  <g id="noun-wallbox-6490658" transform="translate(-15.406)">
    <path id="Path_138" data-name="Path 138" d="M27.016,17A17.016,17.016,0,1,0,44.033,34.016,17.017,17.017,0,0,0,27.016,17ZM24.224,45.322,25.6,37.562,17.09,34.016,29.853,22.672l-1.418,7.8,8.508,3.545Z" transform="translate(15.332 7.107)" fill="#00b26b"/>
    <rect id="Rectangle_176" data-name="Rectangle 176" width="22.643" height="9.941" transform="translate(31.034 8.56)" fill="#00b26b"/>
    <path id="Path_139" data-name="Path 139" d="M10.418,17.762a1.418,1.418,0,0,0,1.418-1.418V6.418A1.418,1.418,0,0,0,9,6.418v9.926A1.418,1.418,0,0,0,10.418,17.762Z" transform="translate(14.914 2.09)" fill="#00b26b"/>
    <path id="Path_140" data-name="Path 140" d="M34.418,17.762a1.418,1.418,0,0,0,1.418-1.418V6.418a1.418,1.418,0,1,0-2.836,0v9.926A1.418,1.418,0,0,0,34.418,17.762Z" transform="translate(24.947 2.09)" fill="#00b26b"/>
    <path id="Path_141" data-name="Path 141" d="M82.843,21.132a17.323,17.323,0,0,0-2.869-5.17l-4.256-5.335A13.172,13.172,0,0,0,65.4,5.672H58.3a4.209,4.209,0,0,0-2.127.591A9.936,9.936,0,0,0,46.961,0H12.926A9.938,9.938,0,0,0,3,9.926V55.3a9.933,9.933,0,0,0,8.508,9.813v2.95a4.259,4.259,0,0,0,4.254,4.254H27.107a4.259,4.259,0,0,0,4.254-4.254V65.23h7.09v2.836A22.715,22.715,0,0,0,61.14,90.754,22.721,22.721,0,0,0,83.828,68.066V26.943A17.56,17.56,0,0,0,82.843,21.132ZM66.812,14.18A1.418,1.418,0,1,1,65.394,15.6,1.419,1.419,0,0,1,66.812,14.18Zm-5.672,0A1.418,1.418,0,1,1,59.722,15.6,1.419,1.419,0,0,1,61.14,14.18ZM56.885,55.3V26.693a4.257,4.257,0,0,0,1.418.25h3.667l7.677,7.677V48.213A5.666,5.666,0,0,0,73.9,53.684V68.066a12.762,12.762,0,1,1-25.525,0v-2.95A9.933,9.933,0,0,0,56.885,55.3Zm-43.959,7.09a7.1,7.1,0,0,1-7.09-7.09V9.926a7.1,7.1,0,0,1,7.09-7.09H46.959a7.1,7.1,0,0,1,7.09,7.09V55.3a7.1,7.1,0,0,1-7.09,7.09Zm68.066,5.672A19.884,19.884,0,0,1,61.14,87.918,19.874,19.874,0,0,1,41.287,68.066V65.23h4.254v2.836a15.6,15.6,0,0,0,31.2,0V53.885h4.254Z" transform="translate(12.406 0)" fill="#00b26b"/>
  </g>
</svg>
