<svg width="32" height="32" viewBox="0 0 32 32" fill="none" xmlns="http://www.w3.org/2000/svg">
<path fill-rule="evenodd" clip-rule="evenodd" d="M24.272 7.6829C22.0773 5.4869 19.1587 4.27624 16.0493 4.2749C9.64001 4.2749 4.42535 9.4869 4.42401 15.8936C4.42135 17.9322 4.95601 19.9362 5.97468 21.7029L4.32535 27.7242L10.488 26.1082C12.1933 27.0362 14.1027 27.5229 16.044 27.5229H16.0493C22.456 27.5229 27.6707 22.3096 27.6733 15.9029C27.6747 12.7989 26.4667 9.88024 24.272 7.6829Z" stroke="black" stroke-width="2" stroke-linecap="round" stroke-linejoin="round"/>
<path d="M17.46 18.0797L18.0014 17.5424C18.4987 17.049 19.2854 16.9864 19.8587 17.389C20.3819 17.7563 20.8577 18.088 21.3017 18.3975L21.3814 18.453C22.1227 18.9677 22.212 20.0237 21.5734 20.661L21.0947 21.1397C19.12 23.105 15.8014 21.4357 13.1814 18.8144C10.5614 16.193 8.89472 12.8797 10.86 10.905L11.3387 10.4264C11.976 9.78903 13.032 9.87837 13.5467 10.6184C13.8707 11.085 14.22 11.5864 14.6107 12.141C15.0134 12.7144 14.952 13.501 14.4574 13.9984L13.92 14.5397C14.5799 15.5801 15.5094 16.493 15.5094 16.493C16.1254 17.109 16.7894 17.6544 17.46 18.0797Z" fill="black"/>
</svg>
