<svg xmlns="http://www.w3.org/2000/svg" width="74" height="75" viewBox="0 0 74 75">
  <g id="APP_with_Shape" data-name="APP_with Shape" transform="translate(-10.092 -93.178)">
    <g id="Rectangle_35" data-name="Rectangle 35" transform="translate(10.092 93.178)" fill="#f6f5f5" stroke="#00b26b" stroke-width="2">
      <rect width="74" height="75" rx="15" stroke="none"/>
      <rect x="1" y="1" width="72" height="73" rx="14" fill="none"/>
    </g>
    <g id="App" transform="translate(29.328 108.256)">
      <path id="Path_320" data-name="Path 320" d="M41.326,36.426a.818.818,0,0,0-.819.819v.614A1.639,1.639,0,0,1,38.87,39.5H24.63c.088-3.841,1.654-6.242,3.821-9.551a6.061,6.061,0,0,0,.793-6.6,2.571,2.571,0,0,0-4.28-.263L21.172,28.14V7.275a1.639,1.639,0,0,1,1.637-1.637h2.3v.991a1.639,1.639,0,0,0,1.637,1.637h8.186A1.639,1.639,0,0,0,36.57,6.628V5.637h2.3a1.639,1.639,0,0,1,1.637,1.637v9.913a.819.819,0,1,0,1.637,0V7.275A3.278,3.278,0,0,0,38.87,4H22.809a3.278,3.278,0,0,0-3.275,3.275V18.192l-8.2,13.672A7.262,7.262,0,0,0,10.3,35.592V49.024a.819.819,0,1,0,1.637,0V35.592a5.619,5.619,0,0,1,.8-2.886l6.8-11.331v8.949l-4.2,5.6a.819.819,0,1,0,1.31.983l9.631-12.843a.909.909,0,0,1,1.53.059c.847,1.458.46,3.3-.722,4.922-2.243,3.427-4.016,6.133-4.094,10.491a8.373,8.373,0,0,1-2.729,6.118.819.819,0,1,0,1.087,1.224,9.879,9.879,0,0,0,3.12-5.747H31.3c-.7,2.856-2.42,3.453-2.519,5.927v1.965a.819.819,0,0,0,1.637,0c.05-1.022-.229-2.6.5-3.439A13.159,13.159,0,0,0,33,41.133H38.87a3.278,3.278,0,0,0,3.275-3.275C42.177,37.2,42.168,36.473,41.326,36.426ZM26.746,5.637h8.186v.991H26.746Z" transform="translate(-10.301 -4)" fill="#00b26b"/>
      <path id="Path_321" data-name="Path 321" d="M39.307,15H27.846a2.456,2.456,0,1,0,0,4.912H39.307a2.456,2.456,0,1,0,0-4.912Zm0,3.275H27.846a.819.819,0,1,1,0-1.637H39.307a.819.819,0,1,1,0,1.637Z" transform="translate(-13.038 -5.995)" fill="#00b26b"/>
      <g id="Group_323" data-name="Group 323" transform="translate(-346.095 -64.255)">
        <g id="Group_314" data-name="Group 314" transform="translate(372.079 82.631)">
          <path id="Union_1" data-name="Union 1" d="M7.175,8.767,4.407,5.9,1.639,8.767A.953.953,0,1,1,.267,7.443L3.082,4.529.268,1.615A.953.953,0,1,1,1.639.291L4.407,3.157,7.175.291A.953.953,0,1,1,8.546,1.615L5.732,4.529,8.546,7.443A.953.953,0,1,1,7.175,8.767Z" transform="translate(0 0.016)" fill="#00b26b"/>
          <g id="Group_1" data-name="Group 1" transform="translate(0.03 0)">
            <rect id="Rectangle_5" data-name="Rectangle 5" width="0.835" height="1.86" rx="0.418" transform="translate(3.947 0)" fill="#00b26b"/>
            <rect id="Rectangle_6" data-name="Rectangle 6" width="0.835" height="1.86" rx="0.418" transform="translate(3.947 7.231)" fill="#00b26b"/>
            <rect id="Rectangle_7" data-name="Rectangle 7" width="0.835" height="1.86" rx="0.418" transform="translate(1.86 4.007) rotate(90)" fill="#00b26b"/>
            <rect id="Rectangle_8" data-name="Rectangle 8" width="0.835" height="1.86" rx="0.418" transform="translate(8.79 4.007) rotate(90)" fill="#00b26b"/>
          </g>
        </g>
        <path id="Path_1" data-name="Path 1" d="M267.829,540.266a1.943,1.943,0,0,1-.2-.816c0-1.387,0-2.773,0-4.16,0-.07,0-.14.008-.209a.175.175,0,0,1,.186-.184c.149,0,.3,0,.446,0a.212.212,0,0,1,.211.17.908.908,0,0,1,.03.262q0,1.835.005,3.671a3.254,3.254,0,0,0,.047.555.92.92,0,0,0,.85.755c.1,0,.2,0,.307,0h9.561a2.314,2.314,0,0,0,.457-.035.973.973,0,0,0,.735-.953c.01-.763.005-1.526.006-2.289,0-.54,0-1.079,0-1.619a1.366,1.366,0,0,1,.018-.222c.049-.293.062-.312.364-.323.483-.017.5.046.5.45,0,1.386.012,2.773-.008,4.159a1.717,1.717,0,0,1-1.442,1.721,2.035,2.035,0,0,1-.345.044c-3.4,0-6.793,0-10.189-.006A1.715,1.715,0,0,1,267.829,540.266Z" transform="translate(101.986 -447.012)" fill="#00b26b"/>
        <path id="Path_2" data-name="Path 2" d="M267.829,535.847a1.943,1.943,0,0,0-.2.816c0,1.387,0,2.773,0,4.16,0,.07,0,.14.008.209a.175.175,0,0,0,.186.184c.149,0,.3,0,.446,0a.212.212,0,0,0,.211-.17.907.907,0,0,0,.03-.262q0-1.835.005-3.671a3.254,3.254,0,0,1,.047-.555.92.92,0,0,1,.85-.755c.1-.005.2,0,.307,0h9.561a2.309,2.309,0,0,1,.457.035.973.973,0,0,1,.735.953c.01.763.005,1.526.006,2.289,0,.54,0,1.079,0,1.619a1.366,1.366,0,0,0,.018.222c.049.293.062.312.364.323.483.017.5-.046.5-.45,0-1.386.012-2.773-.008-4.159a1.717,1.717,0,0,0-1.442-1.721,2.042,2.042,0,0,0-.345-.044c-3.4,0-6.793,0-10.189.006A1.715,1.715,0,0,0,267.829,535.847Z" transform="translate(101.986 -454.748)" fill="#00b26b"/>
      </g>
    </g>
  </g>
</svg>
