<svg id="App" xmlns="http://www.w3.org/2000/svg" width="61.766" height="75.999" viewBox="0 0 61.766 75.999">
  <path id="Path_320" data-name="Path 320" d="M61.735,57.756a1.357,1.357,0,0,0-1.357,1.357v1.018a2.717,2.717,0,0,1-2.714,2.714H34.056C34.2,56.477,36.8,52.5,40.391,47.011c3.151-4.206,2.7-8.754,1.315-10.939a4.262,4.262,0,0,0-7.1-.435L28.323,44.02V9.429a2.717,2.717,0,0,1,2.714-2.714H34.85V8.356a2.717,2.717,0,0,0,2.714,2.714H51.135A2.717,2.717,0,0,0,53.85,8.356V6.714h3.814a2.717,2.717,0,0,1,2.714,2.714V25.863a1.357,1.357,0,1,0,2.714,0V9.429A5.434,5.434,0,0,0,57.664,4H31.037a5.434,5.434,0,0,0-5.429,5.429v18.1l-13.6,22.666A12.038,12.038,0,0,0,10.3,56.373V78.642a1.357,1.357,0,1,0,2.715,0V56.373a9.315,9.315,0,0,1,1.327-4.784L25.608,32.8V47.639l-6.966,9.288a1.357,1.357,0,1,0,2.171,1.629L36.781,37.266a1.508,1.508,0,0,1,2.537.1c1.4,2.417.762,5.474-1.2,8.16C34.4,51.2,31.464,55.691,31.334,62.916a13.88,13.88,0,0,1-4.525,10.142,1.357,1.357,0,0,0,1.8,2.029,16.377,16.377,0,0,0,5.173-9.528H45.118c-1.159,4.735-4.012,5.724-4.176,9.826v3.257a1.357,1.357,0,1,0,2.714,0c.082-1.694-.38-4.308.828-5.7a21.815,21.815,0,0,0,3.454-7.382h9.725a5.434,5.434,0,0,0,5.429-5.429C63.145,59.035,63.131,57.835,61.735,57.756ZM37.564,6.714H51.135V8.356H37.564Z" transform="translate(-10.301 -4)" fill="#00b26b"/>
  <path id="Path_321" data-name="Path 321" d="M48.462,15h-19a4.072,4.072,0,1,0,0,8.143h19a4.072,4.072,0,1,0,0-8.143Zm0,5.429h-19a1.357,1.357,0,1,1,0-2.715h19a1.357,1.357,0,1,1,0,2.715Z" transform="translate(-4.912 -0.072)" fill="#00b26b"/>
  <g id="Group_323" data-name="Group 323" transform="translate(38.998 26.303)">
    <g id="Group_314" data-name="Group 314" transform="translate(4.078 4.161)">
      <path id="Union_1" data-name="Union 1" d="M11.894,14.535,7.306,9.784,2.717,14.535a1.58,1.58,0,1,1-2.274-2.2L5.109,7.509.444,2.678A1.58,1.58,0,1,1,2.717.482L7.306,5.234,11.894.482a1.58,1.58,0,1,1,2.274,2.2L9.5,7.509l4.665,4.831a1.58,1.58,0,1,1-2.274,2.2Z" transform="translate(0 0.027)" fill="#00b26b"/>
      <g id="Group_1" data-name="Group 1" transform="translate(0.05 0)">
        <rect id="Rectangle_5" data-name="Rectangle 5" width="1.385" height="3.083" rx="0.692" transform="translate(6.543 0)" fill="#00b26b"/>
        <rect id="Rectangle_6" data-name="Rectangle 6" width="1.385" height="3.083" rx="0.692" transform="translate(6.543 11.988)" fill="#00b26b"/>
        <rect id="Rectangle_7" data-name="Rectangle 7" width="1.385" height="3.083" rx="0.692" transform="translate(3.083 6.643) rotate(90)" fill="#00b26b"/>
        <rect id="Rectangle_8" data-name="Rectangle 8" width="1.385" height="3.083" rx="0.692" transform="translate(14.572 6.643) rotate(90)" fill="#00b26b"/>
      </g>
    </g>
    <path id="Path_1" data-name="Path 1" d="M267.958,543.817a3.221,3.221,0,0,1-.325-1.353c0-2.3,0-4.6,0-6.9,0-.116.006-.231.013-.347a.29.29,0,0,1,.308-.305c.247-.007.493-.007.74,0a.351.351,0,0,1,.35.282,1.505,1.505,0,0,1,.05.435q0,3.043.008,6.086a5.4,5.4,0,0,0,.078.92,1.526,1.526,0,0,0,1.41,1.252c.17.008.34.007.509.007l15.851,0a3.824,3.824,0,0,0,.757-.059,1.612,1.612,0,0,0,1.219-1.58c.017-1.265.009-2.53.01-3.795,0-.895,0-1.789,0-2.684a2.258,2.258,0,0,1,.03-.368c.081-.485.1-.518.6-.535.8-.028.824.077.825.746,0,2.3.019,4.6-.014,6.895a2.847,2.847,0,0,1-2.39,2.853,3.366,3.366,0,0,1-.572.072c-5.631,0-11.261.008-16.892-.01A2.844,2.844,0,0,1,267.958,543.817Z" transform="translate(-267.633 -522.046)" fill="#00b26b"/>
    <path id="Path_2" data-name="Path 2" d="M267.958,536.491a3.221,3.221,0,0,0-.325,1.353c0,2.3,0,4.6,0,6.9,0,.116.006.231.013.347a.29.29,0,0,0,.308.305c.247.007.493.007.74,0a.351.351,0,0,0,.35-.282,1.5,1.5,0,0,0,.05-.435q0-3.043.008-6.086a5.4,5.4,0,0,1,.078-.92,1.526,1.526,0,0,1,1.409-1.251c.17-.008.34-.007.509-.007l15.851,0a3.815,3.815,0,0,1,.757.059,1.612,1.612,0,0,1,1.219,1.58c.017,1.265.009,2.53.01,3.795,0,.895,0,1.79,0,2.684a2.267,2.267,0,0,0,.03.368c.081.485.1.518.6.535.8.028.824-.077.825-.746,0-2.3.019-4.6-.014-6.895a2.847,2.847,0,0,0-2.39-2.853,3.383,3.383,0,0,0-.572-.072c-5.631,0-11.261-.008-16.892.01A2.843,2.843,0,0,0,267.958,536.491Z" transform="translate(-267.633 -534.869)" fill="#00b26b"/>
  </g>
</svg>
