<svg xmlns="http://www.w3.org/2000/svg" width="74" height="75" viewBox="0 0 74 75">
  <g id="EV_cycle_rent" data-name="EV cycle rent" transform="translate(-10.092 -93.178)">
    <g id="Rectangle_35" data-name="Rectangle 35" transform="translate(10.092 93.178)" fill="#f6f5f5" stroke="#00b26b" stroke-width="2">
      <rect width="74" height="75" rx="15" stroke="none"/>
      <rect x="1" y="1" width="72" height="73" rx="14" fill="none"/>
    </g>
    <g id="noun-electric-bicycle-6511617" transform="translate(21.02 97.223)">
      <g id="Group_324" data-name="Group 324" transform="translate(2.5 17.994)">
        <path id="Path_435" data-name="Path 435" d="M40.251,30.115a9.512,9.512,0,0,0-2.771.414l-2.5-6.721h2.441c-.058.231-.126.445-.157.66a3.3,3.3,0,0,0,1.676,3.374,3.24,3.24,0,0,0,3.793-.5A3.281,3.281,0,0,0,41.6,21.811a5.315,5.315,0,0,0-1.844-.141c-1.53.037-3.065.016-4.6.021a.915.915,0,0,1-.178-.031c0-.718.005-1.425,0-2.127A1.531,1.531,0,0,0,33.487,18c-1.252-.016-2.509-.005-3.761,0a1.129,1.129,0,0,0-.9.435,1.009,1.009,0,0,0-.147,1.147,1.134,1.134,0,0,0,1.09.644c.912.005,1.823,0,2.729,0h.382v.4c0,.676.026,1.357.005,2.033a6.866,6.866,0,0,0,.451,2.7c.126.341.236.692.361,1.069H29.04q-4.236,0-8.471-.005c-.1,0-.246-.026-.283-.089a6.68,6.68,0,0,1-.335-.749c.22,0,.388.005.555,0a2.427,2.427,0,0,0,2.368-2.4,2.364,2.364,0,0,0-2.384-2.326c-1.383-.01-2.766-.016-4.154,0a2.306,2.306,0,0,0-2.253,2.122,2.363,2.363,0,0,0,1.923,2.551,9.486,9.486,0,0,0,1.446.047.272.272,0,0,1,.293.189c.126.3.246.6.4.885a.651.651,0,0,1-.052.723L15.859,31a9.4,9.4,0,1,0,5.354,9.692h.519c.052.136.094.257.141.377a3.4,3.4,0,0,0,4.642,1.855,3.338,3.338,0,0,0,1.462-4.715.619.619,0,0,1,.052-.807q3.049-4.133,6.082-8.277c.084-.115.183-.22.3-.361l1.058,2.672a9.378,9.378,0,1,0,4.783-1.32Zm.267-6.475a1.34,1.34,0,0,1,1.252,1.289,1.255,1.255,0,1,1-2.509-.031A1.268,1.268,0,0,1,40.518,23.639ZM16.4,23.519a.309.309,0,0,1,0-.618h4.1a.309.309,0,0,1,0,.618Zm-4.5,23.14a7.14,7.14,0,1,1,2.782-13.72l-2.7,4.427a.388.388,0,0,1-.314.21,1.956,1.956,0,0,0-1.634,1.991A1.9,1.9,0,0,0,11.8,41.388a2.032,2.032,0,0,0,1.446-.555.6.6,0,0,1,.309-.141c1.739-.01,3.473-.01,5.213-.01h.173A7.142,7.142,0,0,1,11.9,46.659Zm7.025-8.078H13.643L16.44,34a7.134,7.134,0,0,1,2.536,4.579Zm3.6-.943a3.1,3.1,0,0,0-.519.718.376.376,0,0,1-.414.236H21.25a9.4,9.4,0,0,0-3.63-6.522l1.671-2.74c.466,1.053.912,2.048,1.352,3.049.665,1.509,1.315,3.028,1.985,4.532A.546.546,0,0,1,22.528,37.637Zm2.509,3.615A1.4,1.4,0,0,1,23.659,39.8a1.419,1.419,0,0,1,1.425-1.352,1.439,1.439,0,0,1,1.373,1.467A1.371,1.371,0,0,1,25.037,41.252Zm1.069-4.663c-.435-.021-.854-.031-1.273-.068-.079-.005-.173-.12-.21-.2-.519-1.179-1.032-2.363-1.551-3.541-.587-1.341-1.179-2.682-1.765-4.023-.037-.084-.068-.168-.11-.278H32.062Q29.045,32.585,26.106,36.59ZM40.251,46.659a7.139,7.139,0,0,1-3.934-13.1l1.865,4.694a1.082,1.082,0,0,1,.068.692,1.923,1.923,0,0,0,1.629,2.426,1.972,1.972,0,0,0,2.111-1.5,1.9,1.9,0,0,0-1.708-2.3c-.225-.016-.241-.168-.293-.3l-1.713-4.6a7.067,7.067,0,0,1,1.98-.283,7.14,7.14,0,1,1-.005,14.281Z" transform="translate(-2.5 -17.994)" fill="#00b26b"/>
        <path id="Path_436" data-name="Path 436" d="M44.486,42.769h1.346c-.1.131-.183.231-.262.325-.309.367-.629.718-.917,1.1a.583.583,0,0,0-.1.435.477.477,0,0,0,.77.267,3.531,3.531,0,0,0,.409-.43q.872-1,1.745-1.991c.231-.267.278-.451.1-.629a.637.637,0,0,0-.393-.168c-.555-.016-1.111-.005-1.718-.005.058-.073.089-.11.115-.147.283-.346.576-.681.838-1.043a.721.721,0,0,0,.131-.435.518.518,0,0,0-.9-.236c-.545.665-1.09,1.325-1.634,1.991-.168.2-.356.4-.215.7S44.224,42.769,44.486,42.769Z" transform="translate(-22.142 -28.296)" fill="#00b26b"/>
      </g>
    </g>
  </g>
</svg>
