<svg xmlns="http://www.w3.org/2000/svg" width="98.535" height="90.332" viewBox="0 0 98.535 90.332">
  <g id="eco-friendly_rides" data-name="eco-friendly rides" transform="translate(-0.703 -4.805)">
    <path id="Path_439" data-name="Path 439" d="M19.625,95.137A18.863,18.863,0,1,1,38.488,76.274,18.9,18.9,0,0,1,19.625,95.137Zm0-35.383a16.52,16.52,0,1,0,16.52,16.52A16.588,16.588,0,0,0,19.625,59.754Z" fill="#00b26b" fill-rule="evenodd"/>
    <path id="Path_440" data-name="Path 440" d="M80.375,95.137A18.863,18.863,0,1,1,99.238,76.274,18.891,18.891,0,0,1,80.375,95.137Zm0-35.383A16.52,16.52,0,1,0,96.9,76.274,16.576,16.576,0,0,0,80.375,59.754Z" fill="#00b26b" fill-rule="evenodd"/>
    <path id="Path_441" data-name="Path 441" d="M41.477,77.445h-4.16a1.172,1.172,0,1,1,0-2.344h3.105a6.535,6.535,0,0,1,6.387-5.273,6.215,6.215,0,0,1,2.813.645L66.434,47.8H36.382l-7.5,13.355a1.183,1.183,0,0,1-1.582.469,1.238,1.238,0,0,1-.469-1.641L34.683,46.1a1.083,1.083,0,0,1,1-.645H68.718a1.208,1.208,0,0,1,1.055.645,1.059,1.059,0,0,1-.117,1.23L50.851,72.757a1.07,1.07,0,0,1-.762.469,1.187,1.187,0,0,1-.879-.234,3.726,3.726,0,0,0-2.4-.82,4.164,4.164,0,0,0-4.16,4.1,1.175,1.175,0,0,1-1.172,1.172Z" fill="#00b26b" fill-rule="evenodd"/>
    <path id="Path_442" data-name="Path 442" d="M46.809,82.777a6.475,6.475,0,1,1,6.445-6.5A6.527,6.527,0,0,1,46.809,82.777Zm0-10.6a4.131,4.131,0,1,0,4.1,4.1A4.04,4.04,0,0,0,46.809,72.175Z" fill="#00b26b" fill-rule="evenodd"/>
    <path id="Path_443" data-name="Path 443" d="M50.613,87.406H46.8a1.175,1.175,0,0,1-1.172-1.172V78.09a1.172,1.172,0,0,1,2.344,0v6.973h2.637a1.172,1.172,0,1,1,0,2.344Z" fill="#00b26b" fill-rule="evenodd"/>
    <path id="Path_444" data-name="Path 444" d="M46.809,75.629a1.175,1.175,0,0,1-1.172-1.172V67.484h-2.7a1.172,1.172,0,1,1,0-2.344h3.867a1.175,1.175,0,0,1,1.172,1.172v8.145a1.175,1.175,0,0,1-1.172,1.172Z" fill="#00b26b" fill-rule="evenodd"/>
    <path id="Path_445" data-name="Path 445" d="M73.871,60.984a1.158,1.158,0,0,1-1.055-.7L67.66,47.1a1.168,1.168,0,0,1,.645-1.523,1.189,1.189,0,0,1,1.523.645L74.984,59.4a1.189,1.189,0,0,1-.645,1.523,1.29,1.29,0,0,1-.469.059Z" fill="#00b26b" fill-rule="evenodd"/>
    <path id="Path_446" data-name="Path 446" d="M70.355,38.312a1.172,1.172,0,0,1,0-2.344,1.377,1.377,0,1,0,0-2.754H64.613a1.172,1.172,0,1,1,0-2.344h5.742a3.721,3.721,0,1,1,0,7.441Z" fill="#00b26b" fill-rule="evenodd"/>
    <path id="Path_447" data-name="Path 447" d="M68.719,47.805a1.175,1.175,0,0,1-1.172-1.172V40.891a1.172,1.172,0,1,1,2.344,0v5.742A1.175,1.175,0,0,1,68.719,47.805Z" fill="#00b26b" fill-rule="evenodd"/>
    <path id="Path_448" data-name="Path 448" d="M28.121,43.117a4.54,4.54,0,0,1-4.277-4.629c0-2.109,1.7-4.512,4.1-4.512a2.4,2.4,0,0,1,.645.059l12.594,2.4a1.124,1.124,0,0,1,.938,1.113v3.164a1.156,1.156,0,0,1-1.055,1.172l-7.734.7-4.863.469c-.117,0-.234.059-.352.059Zm-.176-6.8a2.126,2.126,0,0,0-1.758,2.168,2.247,2.247,0,0,0,1.934,2.285c.059,0,.117,0,.117-.059l4.863-.469,6.68-.586V38.547l-11.6-2.227h-.234Z" fill="#00b26b" fill-rule="evenodd"/>
    <path id="Path_449" data-name="Path 449" d="M35.676,47.805a1.2,1.2,0,0,1-1.113-.82l-1.406-5.273a1.187,1.187,0,0,1,2.285-.644l1.406,5.273a1.219,1.219,0,0,1-.82,1.465h-.352Z" fill="#00b26b" fill-rule="evenodd"/>
    <path id="Path_450" data-name="Path 450" d="M19.625,90.449A14.147,14.147,0,1,1,33.742,76.273,14.187,14.187,0,0,1,19.625,90.449Zm0-25.953A11.8,11.8,0,1,0,31.4,76.269,11.824,11.824,0,0,0,19.625,64.5Z" fill="#00b26b" fill-rule="evenodd"/>
    <path id="Path_451" data-name="Path 451" d="M19.625,90.449a1.175,1.175,0,0,1-1.172-1.172v-8.5a1.172,1.172,0,0,1,2.344,0v8.5A1.175,1.175,0,0,1,19.625,90.449Zm0-17.516a1.175,1.175,0,0,1-1.172-1.172V63.324a1.172,1.172,0,1,1,2.344,0v8.438A1.175,1.175,0,0,1,19.625,72.933Z" fill="#00b26b" fill-rule="evenodd"/>
    <path id="Path_452" data-name="Path 452" d="M32.57,77.445H24.132a1.172,1.172,0,1,1,0-2.344H32.57a1.172,1.172,0,1,1,0,2.344Zm-17.457,0h-8.5a1.172,1.172,0,1,1,0-2.344h8.5a1.172,1.172,0,1,1,0,2.344Z" fill="#00b26b" fill-rule="evenodd"/>
    <path id="Path_453" data-name="Path 453" d="M28.766,86.645a1.157,1.157,0,0,1-.82-.352l-5.977-5.977a1.132,1.132,0,0,1,0-1.641,1.2,1.2,0,0,1,1.7,0l5.977,5.977a1.247,1.247,0,0,1,0,1.641,1.192,1.192,0,0,1-.879.352ZM16.407,74.286a1.157,1.157,0,0,1-.82-.352L9.61,67.958a1.247,1.247,0,0,1,0-1.641,1.2,1.2,0,0,1,1.7,0l5.977,5.977a1.247,1.247,0,0,1,0,1.641,1.192,1.192,0,0,1-.879.352Z" fill="#00b26b" fill-rule="evenodd"/>
    <path id="Path_454" data-name="Path 454" d="M10.426,86.645a1.157,1.157,0,0,1-.82-.352,1.247,1.247,0,0,1,0-1.641l5.977-5.977a1.2,1.2,0,0,1,1.7,0,1.247,1.247,0,0,1,0,1.641L11.3,86.293a1.192,1.192,0,0,1-.879.352ZM22.785,74.286a1.157,1.157,0,0,1-.82-.352,1.132,1.132,0,0,1,0-1.641l5.977-5.977a1.2,1.2,0,0,1,1.7,0,1.247,1.247,0,0,1,0,1.641l-5.977,5.977a1.192,1.192,0,0,1-.879.352Z" fill="#00b26b" fill-rule="evenodd"/>
    <path id="Path_455" data-name="Path 455" d="M80.375,90.449A14.147,14.147,0,1,1,94.492,76.273,14.137,14.137,0,0,1,80.375,90.449Zm0-25.953A11.8,11.8,0,1,0,92.148,76.269,11.773,11.773,0,0,0,80.375,64.5Z" fill="#00b26b" fill-rule="evenodd"/>
    <path id="Path_456" data-name="Path 456" d="M80.375,90.449A1.175,1.175,0,0,1,79.2,89.277v-8.5a1.172,1.172,0,0,1,2.344,0v8.5A1.175,1.175,0,0,1,80.375,90.449Zm0-17.516A1.175,1.175,0,0,1,79.2,71.761V63.324a1.172,1.172,0,1,1,2.344,0v8.438A1.175,1.175,0,0,1,80.375,72.933Z" fill="#00b26b" fill-rule="evenodd"/>
    <path id="Path_457" data-name="Path 457" d="M93.32,77.445H84.882a1.172,1.172,0,0,1,0-2.344H93.32a1.172,1.172,0,0,1,0,2.344Zm-17.457,0H67.425a1.172,1.172,0,0,1,0-2.344h8.438a1.172,1.172,0,0,1,0,2.344Z" fill="#00b26b" fill-rule="evenodd"/>
    <path id="Path_458" data-name="Path 458" d="M89.574,86.645a1.157,1.157,0,0,1-.82-.352l-6.035-5.977a1.16,1.16,0,0,1,1.641-1.641l6.035,5.977a1.133,1.133,0,0,1,0,1.641,1.157,1.157,0,0,1-.82.352ZM77.215,74.286a1.157,1.157,0,0,1-.82-.352l-6.035-5.977A1.16,1.16,0,0,1,72,66.317l6.035,5.977a1.133,1.133,0,0,1,0,1.641,1.064,1.064,0,0,1-.82.352Z" fill="#00b26b" fill-rule="evenodd"/>
    <path id="Path_459" data-name="Path 459" d="M71.176,86.645a1.157,1.157,0,0,1-.82-.352,1.133,1.133,0,0,1,0-1.641l6.035-5.977a1.16,1.16,0,0,1,1.641,1.641L72,86.293a1.157,1.157,0,0,1-.82.352ZM83.535,74.286a1.157,1.157,0,0,1-.82-.352,1.133,1.133,0,0,1,0-1.641l6.035-5.977a1.16,1.16,0,0,1,1.641,1.641l-6.035,5.977a1.157,1.157,0,0,1-.82.352Z" fill="#00b26b" fill-rule="evenodd"/>
    <path id="Path_460" data-name="Path 460" d="M70.941,42.062H66.429a1.677,1.677,0,0,1-1.641-1.641V37.668a1.714,1.714,0,0,1,1.758-1.7h4.395a1.638,1.638,0,0,1,1.641,1.641v2.813a1.6,1.6,0,0,1-1.641,1.641Zm-3.809-2.344h3.105V38.312H67.132Z" fill="#00b26b" fill-rule="evenodd"/>
    <path id="Path_461" data-name="Path 461" d="M97.129,95.137H2.871a1.172,1.172,0,1,1,0-2.344H97.129a1.172,1.172,0,0,1,0,2.344Z" fill="#00b26b" fill-rule="evenodd"/>
    <path id="Path_462" data-name="Path 462" d="M33.391,37.258h-.234a1.21,1.21,0,0,1-.879-1.406A16.224,16.224,0,0,1,48.094,22.907a1.172,1.172,0,1,1,0,2.344,13.906,13.906,0,0,0-13.531,11.07,1.141,1.141,0,0,1-1.172.938Z" fill="#00b26b" fill-rule="evenodd"/>
    <path id="Path_463" data-name="Path 463" d="M57.234,27.77a19.7,19.7,0,0,1-9.727-2.637,1.231,1.231,0,0,1-.586-1.055A19.181,19.181,0,0,1,75.808,7.442a1.208,1.208,0,0,1,.586,1,19.182,19.182,0,0,1-9.609,16.754,19.61,19.61,0,0,1-9.551,2.578Zm-7.91-4.336A16.859,16.859,0,0,0,74.05,9.141,16.522,16.522,0,0,0,57.7,9.493a16.864,16.864,0,0,0-8.379,13.941Z" fill="#00b26b" fill-rule="evenodd"/>
    <path id="Path_464" data-name="Path 464" d="M48.1,25.25a1.4,1.4,0,0,1-.82-.293,1.2,1.2,0,0,1,0-1.7c.293-.234,6.387-6.269,14.176-8.086a1.148,1.148,0,0,1,1.406.879,1.193,1.193,0,0,1-.879,1.406c-7.148,1.641-13,7.441-13.062,7.5a1.27,1.27,0,0,1-.82.293Z" fill="#00b26b" fill-rule="evenodd"/>
    <path id="Path_465" data-name="Path 465" d="M62.215,56.59H30.7a1.172,1.172,0,0,1,0-2.344H62.215a1.172,1.172,0,0,1,0,2.344Z" fill="#00b26b" fill-rule="evenodd"/>
    <path id="Path_466" data-name="Path 466" d="M80.375,81.957a5.684,5.684,0,1,1,5.684-5.684A5.58,5.58,0,0,1,80.375,81.957Zm0-9.023a3.376,3.376,0,0,0-3.34,3.34,3.338,3.338,0,0,0,3.34,3.34,3.3,3.3,0,0,0,3.34-3.34A3.338,3.338,0,0,0,80.375,72.934Z" fill="#00b26b" fill-rule="evenodd"/>
    <path id="Path_467" data-name="Path 467" d="M19.625,81.957a5.615,5.615,0,0,1-5.684-5.684,5.684,5.684,0,1,1,11.367,0A5.652,5.652,0,0,1,19.625,81.957Zm0-9.023a3.376,3.376,0,0,0-3.34,3.34,3.34,3.34,0,0,0,6.68,0A3.376,3.376,0,0,0,19.625,72.934Z" fill="#00b26b" fill-rule="evenodd"/>
  </g>
</svg>
