<svg xmlns="http://www.w3.org/2000/svg" width="74" height="75" viewBox="0 0 74 75">
  <g id="QR_Code" data-name="QR Code" transform="translate(-10.092 -93.178)">
    <g id="Rectangle_35" data-name="Rectangle 35" transform="translate(10.092 93.178)" fill="#f6f5f5" stroke="#00b26b" stroke-width="2">
      <rect width="74" height="75" rx="15" stroke="none"/>
      <rect x="1" y="1" width="72" height="73" rx="14" fill="none"/>
    </g>
    <g id="noun-qr-code-insecure-717728" transform="translate(20.891 105.181)">
      <path id="Path_437" data-name="Path 437" d="M12.752,34.7H16.6v3.852H12.752ZM8.9,30.849H20.456V42.405H8.9V30.849Zm1.926,9.63h7.7v-7.7h-7.7ZM38.753,12.552H34.9V16.4h3.852Zm3.852,7.7H31.049V8.7H42.605Zm-1.926-9.63h-7.7v7.7h7.7ZM16.6,12.552H12.752V16.4H16.6Zm3.852,7.7H8.9V8.7H20.456Zm-1.926-9.63h-7.7v7.7h7.7Zm.963,10.882H9.141v8.041h1.445v-6.6h8.908Zm-6.115,7.511v-3.9H11.067v1.445h.867v2.456ZM15.4,24.782h6.211V23.338H13.956V29.5H15.4Zm10.112,0h2.552V23.338H25.512V17.223H24.067v2.07H22.141v1.445h1.926v8.041h-5.2V27.238H17.423v2.985h8.089ZM22.864,12.648H26.33V10.385h2.408v7.271h1.445V8.941H22.141v1.445h2.745V11.2H21.419v4.719h1.445Zm.626,1.782h3.033v6.163h1.445V12.985H23.49Zm6.693,4.863H28.738v2.215H27.2v1.445h2.985ZM17.134,26.612h2.841v.963h1.445V25.167h-5.73v4.382h1.445Zm5.874-5.1H20.6v1.445h2.408Zm-.144-4.767H21.419V18.33h1.445Zm2.456-.1V15.2H23.875v1.445ZM21.9,24.06v4.382h1.445V24.06Zm-10.3-.722v1.445h1.637V23.338ZM28.738,40.72H22.864V31.427H21.419V42.213h8.763V37.831H28.738V40.72Zm-.53-6.26H23.875v5.248h1.445V35.9h1.445v2.937h1.445Zm-2.167-2.311H23.875v1.445h2.167Zm1.878-3.708H26.475v4.43h1.445Zm-.722-.915H31V26.082H27.2ZM30.182,25.5V24.06H28.738V25.5Zm-1.059,5.874h4V29.934h-4Zm-2.7,9.052h1.011V38.987H26.427ZM31.29,21.315v7.126h1.445V21.315Zm4.093.193H33.746v1.445h1.637Zm1.733,11.363V22.23H35.672V32.871ZM33.5,26.949h.337v4.43h1.445V25.5H33.5Zm1.782-2.167V24.06H33.842v.722Zm-1.252,7.367H29.46v1.445h4.574ZM38.8,23.386H37.357v4.767H38.8Zm3.659-2.793H37.4v1.445h5.056Zm-2.552,2.745v1.445h1.156V23.338ZM42.461,25.5H39.909v1.445h2.552ZM40.92,27.671V28.3h-1.4v1.445h2.841v-2.07ZM31.29,41.442h.53a8.083,8.083,0,0,1,.337-2.408H31.29Zm-1.107-5.73V34.653H28.738v2.5h4.141a5.647,5.647,0,0,1,.915-1.445ZM40.1,31.379h2.359V29.934h-3.8v2.311a7.677,7.677,0,0,1,1.445-.289Zm-4.671,2.552H33.7v1.445h.289A10.24,10.24,0,0,1,35.431,33.931ZM49.2,41.442A7.752,7.752,0,1,1,41.45,33.69,7.747,7.747,0,0,1,49.2,41.442Zm-1.445,0A6.308,6.308,0,1,0,41.45,47.75,6.329,6.329,0,0,0,47.757,41.442Zm-2.456.626v1.685a1.932,1.932,0,0,1-1.926,1.926H39.909a1.932,1.932,0,0,1-1.926-1.926V42.068a1.932,1.932,0,0,1,1.926-1.926h3.467A2,2,0,0,1,45.3,42.068Zm-1.445,0a.483.483,0,0,0-.481-.482H39.909a.483.483,0,0,0-.482.482v1.685a.483.483,0,0,0,.482.482h3.467a.483.483,0,0,0,.481-.482Zm-2.215,0a.867.867,0,1,0,.867.867A.863.863,0,0,0,41.642,42.068Zm-.819-3.756a1.308,1.308,0,0,1,.819-.289,1.275,1.275,0,0,1,1.252,1.252.722.722,0,1,0,1.445,0,2.692,2.692,0,0,0-2.7-2.7,2.833,2.833,0,0,0-1.782.674.746.746,0,0,0-.1,1.011A.869.869,0,0,0,40.824,38.312Z" fill="#00b26b"/>
    </g>
  </g>
</svg>
