<svg xmlns="http://www.w3.org/2000/svg" width="63.649" height="70.329" viewBox="0 0 63.649 70.329">
  <g id="Reduced_maintenance" data-name="Reduced maintenance" transform="translate(185.83 -36.852)">
    <path id="Path_438" data-name="Path 438" d="M65.277,13.41V12.275a.826.826,0,0,1,1.651,0V13.41a.826.826,0,0,1-1.651,0Zm4.474,6.522A.828.828,0,0,0,69,19.442H66.928V15.887a.826.826,0,0,0-1.651,0v4.38a.827.827,0,0,0,.826.828h1.033L63.4,25.229,59.663,21.1H60.7a.827.827,0,0,0,.826-.828V16.381a.826.826,0,0,0-1.651,0v3.061H57.8a.826.826,0,0,0-.613,1.379l5.6,6.19h0a.822.822,0,0,0,1.223,0l5.6-6.19h0a.823.823,0,0,0,.139-.888ZM51.425,13.881a.831.831,0,0,0,1.226,0l4.312-4.766a.827.827,0,0,0-.613-1.382H54.942V5.563a.826.826,0,0,0-1.651,0v3a.824.824,0,0,0,.826.826h.372l-2.451,2.706L49.586,9.385h.372a.826.826,0,0,0,.826-.826V5.807a.825.825,0,0,0-1.418-.6.814.814,0,0,0-.233.6V7.734H47.725a.826.826,0,0,0-.613,1.379ZM49.955,4.1a.826.826,0,0,0,.587-.241.836.836,0,0,0,.241-.584V2.4a.826.826,0,0,0-1.651,0v.877a.826.826,0,0,0,.823.826Zm12.8,43.1c1.172,1.535,1.191,4.142-1.41,6.505-2.357,2.136-4.888,4.1-7.819,6.369-1.333,1.033-2.712,2.1-4.233,3.308-.3.241-.6.477-.888.709a25.914,25.914,0,0,1-6.582,4.321,9.5,9.5,0,0,1-3.427.638c-2.755,0-5.348-1.143-7.875-2.255l0,0a28.729,28.729,0,0,0-5.458-1.98,9.419,9.419,0,0,0-1.123-.17l.04.128v0a1.649,1.649,0,0,1-1.092,2.057l-2.8.857v0a2.209,2.209,0,0,1-1.54,2.374l-5.816,1.773a2.273,2.273,0,0,1-1.81-.213,2.011,2.011,0,0,1-.962-1.322L6.238,52.247a2.258,2.258,0,0,1,1.481-2.672L11.892,48.3v0a2.212,2.212,0,0,1,2.6,1.1l2.8-.857a1.65,1.65,0,0,1,2.057,1.1l.028.094.809-.369c.233-.281.451-.556.664-.823a9.742,9.742,0,0,1,4.7-3.779,8.953,8.953,0,0,1,4.755-.108c.774.119,1.651.255,2.684.338,7.146.565,8.374-.1,10.074-1.024.343-.187.7-.377,1.121-.579.967-.46,2.187,1.058,2.627,1.966.6,1.262,1.418,4.5-4.139,7.2h0a20.179,20.179,0,0,1-2.321.928c-.44.156-.936.332-1.543.559l2.8,1.279L59.4,46.335a2.56,2.56,0,0,1,3.353.868ZM18.429,67.783l-5.365-17.54,0,0a.557.557,0,0,0-.692-.369L8.2,51.156a.616.616,0,0,0-.349.755l3.719,18.051a.365.365,0,0,0,.187.233.63.63,0,0,0,.485.06l5.816-1.776v0a.558.558,0,0,0,.366-.692ZM22.4,65.244,17.776,50.123l-2.76.845L19.64,66.089ZM61.442,48.205c-.309-.4-.814-.689-1.189-.454-.023.014-.048.028-.071.04L42.007,56.982a.821.821,0,0,1-.715.014l-4.6-2.1s-1.5.652-1.679.726A.826.826,0,0,1,34.37,54.1s1.793-.783,2.02-.874c1.572-.633,2.6-1,3.418-1.285a19.167,19.167,0,0,0,2.15-.857c2.386-1.163,3.645-2.5,3.643-3.881a3.048,3.048,0,0,0-1.044-2.148c-.247.125-.477.25-.7.369-1.949,1.058-3.356,1.821-10.99,1.217-1.1-.085-2.006-.227-2.809-.352a7.515,7.515,0,0,0-3.955.037c-1.906.667-2.766,1.75-3.957,3.248-.255.321-.516.65-.806,1a.807.807,0,0,1-.292.224l-1.18.536,3.555,11.623,0,0a12.268,12.268,0,0,1,1.98.247,29.958,29.958,0,0,1,5.784,2.085c3.4,1.5,6.6,2.911,10.048,1.589a24.869,24.869,0,0,0,6.139-4.068q.438-.353.894-.715c1.529-1.211,2.911-2.284,4.247-3.319,2.9-2.25,5.41-4.193,7.722-6.287,1.946-1.773,1.864-3.416,1.2-4.281ZM14.911,14.086a.823.823,0,0,0,.826-.826V12.253a.826.826,0,0,0-1.651,0v1a.823.823,0,0,0,.826.826Zm8.114,9.986,1.469-3.626a.826.826,0,0,1,.967-.491l2.6.65a8.885,8.885,0,0,1,.689-.7l-.7-2.587a.825.825,0,0,1,.474-.973l3.6-1.526a.829.829,0,0,1,1.033.335l1.379,2.3h0a9.5,9.5,0,0,1,.984-.009l1.336-2.321a.825.825,0,0,1,1.027-.352L40,15.629a4.72,4.72,0,0,1,1.089-.817L44.2,13.107c1.722-.945,3.453.235,4.843,1.183.292.2.567.386.826.542v0a.826.826,0,0,1-.031,1.43l-5.691,3.123-.011.55.511-.136a.827.827,0,0,1,.973.477l1.174,2.774,3.762-2.065h0a.825.825,0,0,1,1.223.74c-.006.3,0,.633.014.984.051,1.682.119,3.773-1.606,4.718l-1.665.919a4.768,4.768,0,0,1-1.413.511.828.828,0,0,1,.085.774l-1.469,3.631a.824.824,0,0,1-.965.491l-2.6-.652a9.416,9.416,0,0,1-.689.7l.692,2.59a.824.824,0,0,1-.474.973l-3.606,1.526a.829.829,0,0,1-1.033-.335l-1.379-2.3a9.389,9.389,0,0,1-.979.009L33.349,38.58a.827.827,0,0,1-1.024.352L28.7,37.462a.825.825,0,0,1-.491-.965l.454-1.824-3,1.711-1.923,1.058a.824.824,0,0,1-.59.079,5.5,5.5,0,0,1-3.109-2.116,4.941,4.941,0,0,1-.956-2.78.827.827,0,0,1,.428-.763l1.714-.942,1.864-1.058-.014-.031a.829.829,0,0,1,.335-1.033l2.3-1.379v0a9.5,9.5,0,0,1-.009-.984L23.38,25.1a.823.823,0,0,1-.355-1.027Zm4.63,9.274-2.079.556a.825.825,0,0,1-.973-.477l-.865-2.043-1.705.979-1.245.687h0a3.309,3.309,0,0,0,.6,1.41,3.933,3.933,0,0,0,1.853,1.373l1.614-.888Zm16.44-11.691-.006.318.613.372-.323-.766Zm-4.241.576L31.457,27a3.669,3.669,0,0,0,.289,1.277,3.615,3.615,0,0,0,1.651,1.8l8.182-4.661a.826.826,0,0,1,.837.011l2.312,1.4a2.88,2.88,0,0,0,3,.068l1.671-.919c.723-.4.791-1.444.757-2.894L46.68,24.991a.825.825,0,0,1-.826-.017l-3.03-1.841a.82.82,0,0,1-.4-.723l.077-3.54h0a.832.832,0,0,1,.428-.706L47.84,15.47c-1.206-.809-2.128-1.311-2.848-.916l-3.109,1.705a2.894,2.894,0,0,0-1.552,2.562c-.023,1.084-.04,1.867-.06,2.706a.821.821,0,0,1-.417.7Zm-3.475,8.048c.051-.02.1-.04.156-.062a3.774,3.774,0,0,0,.871-.522Zm-1.6-7.07a3.673,3.673,0,0,0-1.1.275A3.632,3.632,0,0,0,32.154,24.7Zm-9.955.817,2.148,1.243v0a.826.826,0,0,1,.409.8,7.684,7.684,0,0,0,.014,1.694.824.824,0,0,1-.394.806l-2.128,1.274.967,2.281,2.394-.641a.829.829,0,0,1,.854.278A7.689,7.689,0,0,0,30.3,32.946a.829.829,0,0,1,.3.854l-.6,2.4,2.3.925,1.243-2.145a.823.823,0,0,1,.794-.406,8.354,8.354,0,0,0,1.705-.014.816.816,0,0,1,.8.394L38.1,37.085l2.281-.967-.641-2.394a.832.832,0,0,1,.278-.854A7.584,7.584,0,0,0,41.2,31.661a.829.829,0,0,1,.854-.3l2.409.6.93-2.3-2.148-1.24,0,0a.823.823,0,0,1-.409-.8v-.02l-.865-.525-1.7.973a5.307,5.307,0,1,1-3.217-6.142l1.572-.894.048-2.238h0a4.713,4.713,0,0,1,.372-1.762l-1.121-.454L36.7,18.719a.833.833,0,0,1-.8.409,7.538,7.538,0,0,0-1.7.014.826.826,0,0,1-.809-.4l-1.274-2.125-2.281.967.644,2.394a.826.826,0,0,1-.281.857,7.569,7.569,0,0,0-1.189,1.2.824.824,0,0,1-.848.289l-2.4-.6Zm-8.136,1.322a.826.826,0,0,0,1.226,0l4.948-5.472h0a.823.823,0,0,0-.613-1.379H20.517v-2.61a.826.826,0,0,0-1.651,0v3.436a.826.826,0,0,0,.826.826h.7L17.3,23.564l-3.089-3.416h.7a.826.826,0,0,0,.826-.826V15.876a.827.827,0,0,0-1.418-.6.832.832,0,0,0-.233.6V18.5H12.353a.825.825,0,0,0-.613,1.379Zm-2.772,36.8a.826.826,0,0,0-1.58.482l1.106,3.626a.821.821,0,0,0,.789.584.765.765,0,0,0,.241-.037.816.816,0,0,0,.488-.4.824.824,0,0,0,.06-.63Z" transform="translate(-192.004 35.255)" fill="#00b26b"/>
  </g>
</svg>
