<svg xmlns="http://www.w3.org/2000/svg" width="75.129" height="75.129" viewBox="0 0 75.129 75.129">
  <g id="Charge_your_EV" data-name="Charge your EV" transform="translate(-2 -2)">
    <g id="Group_312" data-name="Group 312" transform="translate(2 2)">
      <path id="Path_397" data-name="Path 397" d="M35.052,23.782V6.252A1.252,1.252,0,0,0,33.8,5H6.252A1.252,1.252,0,0,0,5,6.252v17.53a1.252,1.252,0,0,0,1.252,1.252H33.8A1.252,1.252,0,0,0,35.052,23.782Zm-2.5-1.252H7.5V7.5H32.547Z" transform="translate(-1.244 -1.244)" fill="#00b26b"/>
      <path id="Path_398" data-name="Path 398" d="M73.372,12.017H71.89a3.756,3.756,0,0,0-3.526-2.5H60.712a11.324,11.324,0,0,0-5.041,1.19l-5.133,2.567a6.228,6.228,0,0,0-3.461,5.6V35.808a1.252,1.252,0,0,0,1.252,1.252h5.009v20.66a16.9,16.9,0,0,1-33.808,0V49.582H33.3a6.268,6.268,0,0,0,6.261-6.261V8.261A6.268,6.268,0,0,0,33.3,2H8.261A6.268,6.268,0,0,0,2,8.261v35.06a6.268,6.268,0,0,0,6.261,6.261h8.765v8.139a19.408,19.408,0,0,0,38.817,0V37.06a1.252,1.252,0,0,0,1.252-1.252V27.817l1.081.541a11.324,11.324,0,0,0,5.041,1.19h5.148a3.756,3.756,0,0,0,3.526-2.5h1.483a3.756,3.756,0,0,0,3.756-3.756V15.774a3.756,3.756,0,0,0-3.756-3.756ZM4.5,43.321V8.261A3.756,3.756,0,0,1,8.261,4.5H33.3A3.756,3.756,0,0,1,37.06,8.261v35.06A3.756,3.756,0,0,1,33.3,47.077H8.261A3.756,3.756,0,0,1,4.5,43.321Zm63.86-16.278H63.216a8.82,8.82,0,0,1-3.92-.925L56.4,24.67a1.252,1.252,0,0,0-1.812,1.121v8.765H49.582V18.869a3.739,3.739,0,0,1,2.076-3.36l5.134-2.567a8.82,8.82,0,0,1,3.92-.925h7.652a1.252,1.252,0,0,1,1.252,1.252V25.791A1.252,1.252,0,0,1,68.364,27.043Zm6.261-3.756a1.252,1.252,0,0,1-1.252,1.252H72.12V14.521h1.252a1.252,1.252,0,0,1,1.252,1.252Z" transform="translate(-2 -2)" fill="#00b26b"/>
      <path id="Path_399" data-name="Path 399" d="M27.53,31.765a8.765,8.765,0,1,0-8.765,8.765A8.765,8.765,0,0,0,27.53,31.765Zm-15.026,0a6.261,6.261,0,1,1,6.261,6.261A6.261,6.261,0,0,1,12.5,31.765Z" transform="translate(0.017 3.295)" fill="#00b26b"/>
      <path id="Path_400" data-name="Path 400" d="M23.017,31.009a5.009,5.009,0,1,0-5.009,5.009A5.009,5.009,0,0,0,23.017,31.009Zm-7.513,0a2.5,2.5,0,1,1,2.5,2.5A2.5,2.5,0,0,1,15.5,31.009Z" transform="translate(0.774 4.052)" fill="#00b26b"/>
      <path id="Path_401" data-name="Path 401" d="M19.252,44.521A1.252,1.252,0,0,0,18,45.774v4.383a14.4,14.4,0,0,0,28.8,0v-16.9a1.252,1.252,0,0,0-2.5,0v16.9a11.9,11.9,0,0,1-23.791,0V45.774A1.252,1.252,0,0,0,19.252,44.521Z" transform="translate(2.034 5.564)" fill="#00b26b"/>
      <path id="Path_402" data-name="Path 402" d="M54.261,16.009h-2.5L54.01,13a1.252,1.252,0,1,0-2-1.5L48.25,16.509a1.252,1.252,0,0,0,1,2h2.5L49.5,21.518a1.252,1.252,0,1,0,2,1.5l3.756-5.009a1.252,1.252,0,0,0-1-2Z" transform="translate(9.599 0.269)" fill="#00b26b"/>
      <path id="Path_403" data-name="Path 403" d="M10.252,20.521H25.278a1.252,1.252,0,0,0,1.252-1.252V18.017h1.252a1.252,1.252,0,0,0,1.252-1.252V11.756A1.252,1.252,0,0,0,27.782,10.5H26.53V9.252A1.252,1.252,0,0,0,25.278,8H10.252A1.252,1.252,0,0,0,9,9.252V19.269A1.252,1.252,0,0,0,10.252,20.521ZM11.5,10.5H24.026v1.252a1.252,1.252,0,0,0,1.252,1.252H26.53v2.5H25.278a1.252,1.252,0,0,0-1.252,1.252v1.252H11.5Z" transform="translate(-0.235 -0.487)" fill="#00b26b"/>
      <path id="Path_404" data-name="Path 404" d="M13.252,11A1.252,1.252,0,0,0,12,12.252v2.5a1.252,1.252,0,1,0,2.5,0v-2.5A1.252,1.252,0,0,0,13.252,11Z" transform="translate(0.521 0.269)" fill="#00b26b"/>
      <path id="Path_405" data-name="Path 405" d="M16.252,11A1.252,1.252,0,0,0,15,12.252v2.5a1.252,1.252,0,1,0,2.5,0v-2.5A1.252,1.252,0,0,0,16.252,11Z" transform="translate(1.278 0.269)" fill="#00b26b"/>
      <path id="Path_406" data-name="Path 406" d="M19.252,11A1.252,1.252,0,0,0,18,12.252v2.5a1.252,1.252,0,1,0,2.5,0v-2.5A1.252,1.252,0,0,0,19.252,11Z" transform="translate(2.034 0.269)" fill="#00b26b"/>
    </g>
  </g>
</svg>
