<svg xmlns="http://www.w3.org/2000/svg" width="83.91" height="83.912" viewBox="0 0 83.91 83.912">
  <g id="Hassle-Free_Experience_" data-name="Hassle-Free Experience " transform="translate(0 -0.002)">
    <path id="Path_407" data-name="Path 407" d="M41.348,24.246a7.172,7.172,0,1,1,7.172-7.172A7.182,7.182,0,0,1,41.348,24.246Zm0-12.551a5.379,5.379,0,1,0,5.379,5.379A5.384,5.384,0,0,0,41.348,11.7Z" transform="translate(-5.498 -1.593)" fill="#00b26b"/>
    <path id="Path_408" data-name="Path 408" d="M84.909,84.3h-2.19a2.692,2.692,0,0,1-2.688-2.691,6.12,6.12,0,0,1,6.113-6.113h2.19a2.692,2.692,0,0,1,2.688,2.691A6.12,6.12,0,0,1,84.909,84.3Zm1.236-7.011a4.324,4.324,0,0,0-4.32,4.32.9.9,0,0,0,.9.9h2.19a4.324,4.324,0,0,0,4.32-4.32.9.9,0,0,0-.9-.9Z" transform="translate(-12.874 -12.143)" fill="#00b26b"/>
    <path id="Path_409" data-name="Path 409" d="M48.869,84.3H46.68a6.12,6.12,0,0,1-6.113-6.113,2.694,2.694,0,0,1,2.688-2.691h2.19a6.12,6.12,0,0,1,6.113,6.113A2.692,2.692,0,0,1,48.869,84.3Zm-5.615-7.011a.9.9,0,0,0-.9.9,4.324,4.324,0,0,0,4.32,4.32h2.19a.9.9,0,0,0,.9-.9,4.324,4.324,0,0,0-4.32-4.32Z" transform="translate(-6.525 -12.143)" fill="#00b26b"/>
    <path id="Path_410" data-name="Path 410" d="M72.409,85.406H58.223a.9.9,0,0,1,0-1.8h14.19a.9.9,0,1,1,0,1.8Z" transform="translate(-9.221 -13.449)" fill="#00b26b"/>
    <path id="Path_411" data-name="Path 411" d="M72.409,77.519H58.223a.9.9,0,1,1,0-1.8h14.19a.9.9,0,1,1,0,1.8Z" transform="translate(-9.221 -12.18)" fill="#00b26b"/>
    <path id="Path_412" data-name="Path 412" d="M83.7,61.065a.894.894,0,0,1-.633-.262l-6.982-6.975a.9.9,0,1,1,1.269-1.269l6.982,6.975a.9.9,0,0,1-.636,1.531Z" transform="translate(-12.196 -8.412)" fill="#00b26b"/>
    <path id="Path_413" data-name="Path 413" d="M77.8,64.47a.894.894,0,0,1-.633-.262l-3.9-3.9a.9.9,0,0,1,1.269-1.269l3.9,3.9A.9.9,0,0,1,77.8,64.47Z" transform="translate(-11.743 -9.454)" fill="#00b26b"/>
    <path id="Path_414" data-name="Path 414" d="M14.154,60.13a.9.9,0,0,1-.731-1.416l3.288-4.635-4.222,0a.9.9,0,0,1-.764-1.364l3.678-6a.9.9,0,0,1,1.527.937l-2.839,4.628h4.36a.9.9,0,0,1,.731,1.416l-4.294,6.048a.9.9,0,0,1-.734.377Z" transform="translate(-1.865 -7.447)" fill="#00b26b"/>
    <path id="Path_415" data-name="Path 415" d="M79.9,58.157l-.826-2.406A5.336,5.336,0,0,0,83.767,49.3a4.454,4.454,0,0,0-4.373-3.5h-3.73l-.311-.9a8.06,8.06,0,0,0-7.628-5.454H65.371V27.377h5.441a.9.9,0,0,0,.528-1.619l-11.886-8.7V2.692a.9.9,0,0,0-.9-.9H50.09a.9.9,0,0,0-.9.9V9.552L36.381.174a.9.9,0,0,0-1.059,0L.361,25.758a.9.9,0,0,0,.528,1.619H6.33v8.057H4.845a.9.9,0,0,0-.9.9V55.2a.9.9,0,0,0,.9.9H6.33V75a.9.9,0,0,0,1.8,0V56.091h4.582V67.423a.9.9,0,0,0,.9.9H28.521v3.245a6.282,6.282,0,0,0,3.589,5.671v3.271a3.409,3.409,0,0,0,3.406,3.406h4.15a3.409,3.409,0,0,0,3.406-3.406V77.84H69.114v2.668a3.409,3.409,0,0,0,3.406,3.406h4.15a3.409,3.409,0,0,0,3.406-3.406V77.233a6.282,6.282,0,0,0,3.589-5.671V65.7a6.256,6.256,0,0,0-1.055-3.484ZM79.4,47.6a2.668,2.668,0,0,1,2.622,2.1,3.541,3.541,0,0,1-3.55,4.287L76.28,47.6ZM67.725,41.24a6.276,6.276,0,0,1,5.936,4.238l4.176,12.181-43.484,0,4.176-12.181a6.275,6.275,0,0,1,5.936-4.242ZM33.717,53.985H33.6A3.535,3.535,0,0,1,30.17,49.7a2.674,2.674,0,0,1,2.622-2.1h3.114Zm17.271-50.4h6.674V15.744L50.988,10.86Zm-47.353,22L35.851,2.007,68.07,25.581ZM5.743,54.3V37.228h15.72V54.3ZM28.522,65.7v.823H14.5V56.092h7.86a.9.9,0,0,0,.9-.9l0-18.861a.9.9,0,0,0-.9-.9H8.127V27.377H63.579V39.447H44.466A8.065,8.065,0,0,0,36.835,44.9l-.311.9h-3.73a4.457,4.457,0,0,0-4.373,3.5,5.339,5.339,0,0,0,4.691,6.451l-.823,2.4-2.711,4.065A6.257,6.257,0,0,0,28.522,65.7ZM41.282,80.51a1.616,1.616,0,0,1-1.613,1.613H35.52a1.616,1.616,0,0,1-1.613-1.613V77.776a6.172,6.172,0,0,0,.892.066h6.487Zm37,0a1.616,1.616,0,0,1-1.613,1.613h-4.15a1.616,1.616,0,0,1-1.613-1.613V77.842H77.4a6.171,6.171,0,0,0,.892-.066Zm3.589-8.945A4.488,4.488,0,0,1,77.4,76.049H34.8a4.486,4.486,0,0,1-4.481-4.484V65.7a4.484,4.484,0,0,1,.754-2.488l2.508-3.76H78.614l2.508,3.76a4.477,4.477,0,0,1,.754,2.488Z" transform="translate(0)" fill="#00b26b"/>
  </g>
</svg>
