<svg xmlns="http://www.w3.org/2000/svg" width="51.144" height="82.605" viewBox="0 0 51.144 82.605">
  <g id="App" transform="translate(-20.406 -2.199)">
    <path id="Path_426" data-name="Path 426" d="M71.55,15.336a1.728,1.728,0,1,1-3.456,0V11.42a5.774,5.774,0,0,0-5.765-5.765H57.292v6.1a1.727,1.727,0,0,1-1.728,1.728H36.392a1.727,1.727,0,0,1-1.728-1.728v-6.1H29.631a5.785,5.785,0,0,0-5.765,5.765V75.582a5.785,5.785,0,0,0,5.765,5.765h32.7A5.755,5.755,0,0,0,66.4,79.653l.074-.071a5.749,5.749,0,0,0,1.62-4V28.263a1.728,1.728,0,1,1,3.456,0V75.582A9.181,9.181,0,0,1,68.934,82l-.095.1A9.2,9.2,0,0,1,62.325,84.8h-32.7a9.242,9.242,0,0,1-9.221-9.221V11.42A9.242,9.242,0,0,1,29.628,2.2h32.7a9.242,9.242,0,0,1,9.221,9.221v3.915ZM53.832,5.655H38.116v4.371H53.832ZM52.3,37.71h6.366V31.344H52.3Zm8.1,3.456H50.575a1.727,1.727,0,0,1-1.728-1.728V29.613a1.727,1.727,0,0,1,1.728-1.728H60.4a1.727,1.727,0,0,1,1.728,1.728v9.826A1.727,1.727,0,0,1,60.4,41.167ZM33.28,37.71h6.369V31.344H33.28Zm8.1,3.456H31.552a1.727,1.727,0,0,1-1.728-1.728V29.613a1.727,1.727,0,0,1,1.728-1.728h9.826a1.727,1.727,0,0,1,1.728,1.728v9.826A1.727,1.727,0,0,1,41.377,41.167Zm-8.1,14.5h6.369V49.3H33.28Zm8.1,3.456H31.552a1.727,1.727,0,0,1-1.728-1.728V47.566a1.727,1.727,0,0,1,1.728-1.728h9.826a1.727,1.727,0,0,1,1.728,1.728v9.826A1.727,1.727,0,0,1,41.377,59.12ZM39.122,75.534a1.728,1.728,0,0,1,0-3.456H52.829a1.728,1.728,0,1,1,0,3.456ZM71.549,22.221a1.728,1.728,0,1,1-3.456,0v-.844a1.728,1.728,0,0,1,3.456,0Z" fill="#00b26b"/>
    <g id="Group_316" data-name="Group 316" transform="translate(-320.667 -33.81)">
      <g id="Group_314" data-name="Group 314" transform="translate(371.778 82.324)">
        <path id="Union_1" data-name="Union 1" d="M6.3,7.693,3.867,5.178,1.438,7.693a.836.836,0,1,1-1.2-1.162L2.7,3.974.235,1.417A.837.837,0,1,1,1.438.255L3.867,2.77,6.3.255A.837.837,0,1,1,7.5,1.417L5.03,3.974,7.5,6.531A.836.836,0,1,1,6.3,7.693Z" transform="translate(0 0.014)" fill="#00b26b"/>
        <g id="Group_1" data-name="Group 1" transform="translate(0.027 0)">
          <rect id="Rectangle_5" data-name="Rectangle 5" width="0.733" height="1.632" rx="0.366" transform="translate(3.463 0)" fill="#00b26b"/>
          <rect id="Rectangle_6" data-name="Rectangle 6" width="0.733" height="1.632" rx="0.366" transform="translate(3.463 6.345)" fill="#00b26b"/>
          <rect id="Rectangle_7" data-name="Rectangle 7" width="0.733" height="1.632" rx="0.366" transform="translate(1.632 3.516) rotate(90)" fill="#00b26b"/>
          <rect id="Rectangle_8" data-name="Rectangle 8" width="0.733" height="1.632" rx="0.366" transform="translate(7.713 3.516) rotate(90)" fill="#00b26b"/>
        </g>
      </g>
      <path id="Path_1" data-name="Path 1" d="M267.8,539.6a1.7,1.7,0,0,1-.172-.716c0-1.217,0-2.433,0-3.65,0-.061,0-.122.007-.184a.153.153,0,0,1,.163-.162c.13,0,.261,0,.392,0a.186.186,0,0,1,.185.149.8.8,0,0,1,.026.23q0,1.611,0,3.221a2.858,2.858,0,0,0,.041.487.808.808,0,0,0,.746.663c.09,0,.18,0,.27,0h8.39a2.027,2.027,0,0,0,.4-.031.853.853,0,0,0,.645-.836c.009-.669,0-1.339.005-2.009,0-.474,0-.947,0-1.421a1.2,1.2,0,0,1,.016-.195c.043-.257.055-.274.319-.283.424-.015.436.041.437.395,0,1.216.01,2.433-.007,3.649a1.507,1.507,0,0,1-1.265,1.51,1.783,1.783,0,0,1-.3.038c-2.98,0-5.961,0-8.941-.005A1.5,1.5,0,0,1,267.8,539.6Z" transform="translate(101.986 -447.96)" fill="#00b26b"/>
      <path id="Path_2" data-name="Path 2" d="M267.8,535.728a1.7,1.7,0,0,0-.172.716c0,1.217,0,2.433,0,3.65,0,.061,0,.122.007.184a.153.153,0,0,0,.163.162c.13,0,.261,0,.392,0a.186.186,0,0,0,.185-.149.8.8,0,0,0,.026-.23q0-1.611,0-3.221a2.858,2.858,0,0,1,.041-.487.808.808,0,0,1,.746-.662c.09,0,.18,0,.27,0h8.39a2.027,2.027,0,0,1,.4.031.853.853,0,0,1,.645.836c.009.669,0,1.339.005,2.009,0,.474,0,.947,0,1.421a1.2,1.2,0,0,0,.016.195c.043.257.055.274.319.283.423.015.436-.041.436-.395,0-1.216.01-2.433-.007-3.649a1.507,1.507,0,0,0-1.265-1.51,1.789,1.789,0,0,0-.3-.038c-2.98,0-5.961,0-8.941.005A1.5,1.5,0,0,0,267.8,535.728Z" transform="translate(101.986 -454.748)" fill="#00b26b"/>
    </g>
  </g>
</svg>
