<svg xmlns="http://www.w3.org/2000/svg" width="62.072" height="63.382" viewBox="0 0 62.072 63.382">
  <g id="Fast_Assistance" data-name="Fast Assistance" transform="translate(-11.62 -13.254)">
    <path id="Path_416" data-name="Path 416" d="M47.029,74.027a21.17,21.17,0,1,0-21.17-21.17,21.192,21.192,0,0,0,21.17,21.17Zm0-40.318A19.148,19.148,0,1,1,27.881,52.857,19.171,19.171,0,0,1,47.029,33.709Z" transform="translate(-3.558 -2.536)" fill="#00b26b"/>
    <path id="Path_417" data-name="Path 417" d="M36.037,59.494h3.052A1.009,1.009,0,0,0,40.1,58.484V49.563a7.87,7.87,0,1,1,15.739,0V58.4a3.591,3.591,0,0,1-3.584,3.584h-.162A2.742,2.742,0,0,0,49.58,60.34H46.359a2.746,2.746,0,1,0,0,5.491H49.58a2.742,2.742,0,0,0,2.581-1.823h.094a5.615,5.615,0,0,0,5.5-4.511H59.9a3.338,3.338,0,0,0,3.335-3.335V51.891A3.338,3.338,0,0,0,59.9,48.555H57.81a9.9,9.9,0,0,0-19.687,0H36.03A3.338,3.338,0,0,0,32.7,51.891v4.272a3.348,3.348,0,0,0,3.342,3.332ZM49.58,63.807H46.359a.724.724,0,0,1,0-1.449H49.58a.724.724,0,0,1,0,1.449ZM61.215,51.888v4.272A1.316,1.316,0,0,1,59.9,57.473H57.86v-6.9H59.9a1.316,1.316,0,0,1,1.314,1.314Zm-26.493,0a1.316,1.316,0,0,1,1.314-1.314h2.042v6.9H36.036a1.316,1.316,0,0,1-1.314-1.314Z" transform="translate(-4.498 -3.635)" fill="#00b26b"/>
    <path id="Path_418" data-name="Path 418" d="M14.484,75.795h5.538a1.011,1.011,0,1,0,0-2.021H14.484a1.011,1.011,0,1,0,0,2.021Z" transform="translate(-1.854 -8.326)" fill="#00b26b"/>
    <path id="Path_419" data-name="Path 419" d="M14.484,65.162h2.769a1.011,1.011,0,0,0,0-2.021H14.484a1.011,1.011,0,1,0,0,2.021Z" transform="translate(-1.854 -6.863)" fill="#00b26b"/>
    <path id="Path_420" data-name="Path 420" d="M14.484,47.108a1.011,1.011,0,0,0,0,2.021h4.555c-.02.4-.027.8-.027,1.193a26.355,26.355,0,0,0,16.2,24.293H20.022a1.011,1.011,0,1,0,0,2.021h25.3A26.317,26.317,0,0,0,67.038,35.451L70.33,32.16a3.177,3.177,0,0,0,4.285-4.683l-7.162-7.162A3.178,3.178,0,0,0,62.77,24.6L59.334,28.04a25.918,25.918,0,0,0-8.668-3.49l0-4.956a3.176,3.176,0,0,0-.28-6.34H40.263a3.176,3.176,0,0,0-.28,6.34v4.959A26.309,26.309,0,0,0,22.108,37.948a.732.732,0,0,0-.121-.007H17.253a1.011,1.011,0,0,0,0,2.021h3.888a26.272,26.272,0,0,0-1.927,7.149Zm49.9-25.357a1.155,1.155,0,0,1,1.631,0l7.162,7.162a1.158,1.158,0,0,1-1.637,1.637l-.512-.512a.01.01,0,0,0,0-.007l-6.643-6.643a1.144,1.144,0,0,1-.337-.815,1.186,1.186,0,0,1,.34-.822Zm-.2,4.3,4.7,4.7-3.072,3.072c-.209-.256-.421-.512-.64-.761-.061-.074-.128-.141-.192-.216-.168-.189-.34-.377-.519-.566-.067-.071-.131-.141-.2-.209-.236-.243-.472-.482-.714-.714a.559.559,0,0,1-.047-.044c-.229-.219-.465-.431-.7-.643-.074-.067-.148-.128-.222-.2-.2-.168-.391-.337-.593-.5-.067-.054-.135-.115-.205-.168-.249-.2-.5-.4-.761-.59ZM47.96,24.139c-.084-.007-.168-.017-.253-.024-.206-.02-.414-.034-.62-.047-.1-.007-.192-.013-.29-.017-.155-.007-.31-.017-.468-.02l-.323-.01c-.152,0-.3-.007-.458-.007H45.1c-.148,0-.293,0-.438.007l-.337.01-.441.02-.377.02-.546.04c-.094.007-.189.017-.283.027-.179.02-.357.037-.536.061-.047.007-.094.01-.141.013V19.6h6.643v4.609c-.04-.007-.081-.007-.121-.013l-.559-.061ZM39.1,16.431a1.157,1.157,0,0,1,1.155-1.155H50.385a1.155,1.155,0,1,1,0,2.311H40.258A1.157,1.157,0,0,1,39.1,16.431Zm2.058,9.955a24.644,24.644,0,0,1,8.321,0A24.027,24.027,0,0,1,58.9,30.18c.579.391,1.142.809,1.684,1.246s1.065.9,1.563,1.381a24.709,24.709,0,0,1,2.756,3.14,24.292,24.292,0,1,1-23.743-9.561Z" transform="translate(-1.854)" fill="#00b26b"/>
    <path id="Path_421" data-name="Path 421" d="M17.691,33.5H24.2a1.011,1.011,0,0,0,0-2.021H17.691a1.011,1.011,0,0,0,0,2.021Z" transform="translate(-2.295 -2.507)" fill="#00b26b"/>
  </g>
</svg>
