<svg xmlns="http://www.w3.org/2000/svg" width="55.386" height="55.388" viewBox="0 0 55.386 55.388">
  <g id="noun-free-4716625" transform="translate(-0.793 -0.793)">
    <g id="Group_94" data-name="Group 94" transform="translate(0.793 0.793)">
      <path id="Path_295" data-name="Path 295" d="M28.486.793a3.667,3.667,0,0,0-1.837.6c-.6.329-1.228.752-1.839,1.171s-1.2.833-1.714,1.16a6.453,6.453,0,0,1-1.085.591,6.2,6.2,0,0,1-1.235.039c-.6-.032-1.334-.1-2.072-.16s-1.476-.1-2.158-.088a3.7,3.7,0,0,0-1.9.4A3.687,3.687,0,0,0,13.352,5.95c-.353.584-.68,1.257-1,1.925s-.634,1.336-.912,1.874A6.381,6.381,0,0,1,10.8,10.8a6.419,6.419,0,0,1-1.05.642c-.538.278-1.206.581-1.874.9S6.534,13,5.95,13.35a3.658,3.658,0,0,0-1.443,1.283,3.7,3.7,0,0,0-.394,1.9c-.014.682.041,1.433.1,2.171s.119,1.467.147,2.072a6.236,6.236,0,0,1-.037,1.233,6.1,6.1,0,0,1-.58,1.087c-.327.51-.753,1.1-1.171,1.714s-.831,1.228-1.16,1.826a3.732,3.732,0,0,0-.617,1.85,3.684,3.684,0,0,0,.617,1.837c.329.6.741,1.215,1.16,1.826s.844,1.217,1.171,1.727a6.118,6.118,0,0,1,.58,1.085,6.125,6.125,0,0,1,.037,1.222c-.028.605-.09,1.334-.147,2.072s-.113,1.489-.1,2.171a3.693,3.693,0,0,0,.394,1.9,3.692,3.692,0,0,0,1.443,1.3c.584.353,1.257.678,1.925,1s1.336.623,1.874.9a6.139,6.139,0,0,1,1.05.655,6.388,6.388,0,0,1,.642,1.048c.278.538.593,1.2.912,1.863s.646,1.339,1,1.923a3.726,3.726,0,0,0,1.294,1.457,3.7,3.7,0,0,0,1.9.4c.682.013,1.42-.045,2.158-.1s1.467-.121,2.072-.149a5.879,5.879,0,0,1,1.235.039,6.146,6.146,0,0,1,1.085.58c.509.327,1.1.752,1.714,1.171s1.241.831,1.839,1.16a3.682,3.682,0,0,0,1.837.617,3.689,3.689,0,0,0,1.839-.617c.6-.329,1.227-.741,1.837-1.16s1.206-.844,1.716-1.171a6.115,6.115,0,0,1,1.085-.58,6.179,6.179,0,0,1,1.233-.039c.6.032,1.334.092,2.072.149s1.477.113,2.16.1a3.1,3.1,0,0,0,3.195-1.852c.353-.584.68-1.255,1-1.923s.634-1.325.912-1.863a6.383,6.383,0,0,1,.642-1.048,6.059,6.059,0,0,1,1.048-.655c.538-.278,1.208-.581,1.876-.9s1.328-.644,1.912-1a3.1,3.1,0,0,0,1.85-3.2c.014-.682-.041-1.433-.1-2.171s-.119-1.467-.147-2.072a6.1,6.1,0,0,1,.037-1.222,6.047,6.047,0,0,1,.578-1.085c.327-.51.754-1.116,1.173-1.727s.831-1.228,1.16-1.826a3.683,3.683,0,0,0,.615-1.837,3.728,3.728,0,0,0-.615-1.85c-.329-.6-.741-1.215-1.16-1.826s-.846-1.2-1.173-1.714a6.046,6.046,0,0,1-.578-1.087,6.252,6.252,0,0,1-.037-1.233c.029-.605.09-1.334.147-2.072s.113-1.489.1-2.171a3.693,3.693,0,0,0-.4-1.9,3.691,3.691,0,0,0-1.455-1.283c-.584-.354-1.244-.692-1.912-1.011s-1.338-.623-1.876-.9a6.4,6.4,0,0,1-1.048-.642,6.39,6.39,0,0,1-.642-1.048c-.278-.538-.593-1.206-.912-1.874s-.646-1.341-1-1.925a3.693,3.693,0,0,0-1.3-1.443,3.688,3.688,0,0,0-1.9-.4c-.682-.013-1.422.033-2.16.088s-1.467.132-2.072.16a5.858,5.858,0,0,1-1.233-.039,6.57,6.57,0,0,1-1.085-.591c-.509-.327-1.105-.741-1.716-1.16S30.923,1.726,30.325,1.4A3.674,3.674,0,0,0,28.486.793Zm0,1.912a3.919,3.919,0,0,1,.925.371c.488.268,1.07.651,1.665,1.059s1.2.848,1.764,1.21a5.806,5.806,0,0,0,1.628.813,5.792,5.792,0,0,0,1.813.1c.67-.032,1.415-.092,2.135-.147s1.416-.1,1.973-.088a4.125,4.125,0,0,1,.987.136,3.963,3.963,0,0,1,.6.778c.288.477.614,1.113.925,1.764s.617,1.327.925,1.923a5.8,5.8,0,0,0,1,1.518,5.794,5.794,0,0,0,1.518,1c.6.308,1.271.614,1.923.925s1.277.624,1.753.912a4,4,0,0,1,.789.617,4.05,4.05,0,0,1,.136.987c.011.557-.032,1.255-.088,1.975s-.129,1.464-.16,2.134a5.811,5.811,0,0,0,.1,1.813,5.818,5.818,0,0,0,.828,1.617c.362.565.787,1.18,1.2,1.775s.806,1.177,1.074,1.665a3.858,3.858,0,0,1,.369.925,3.947,3.947,0,0,1-.369.912c-.268.488-.666,1.083-1.074,1.678s-.833,1.2-1.2,1.764a5.872,5.872,0,0,0-.828,1.628,5.794,5.794,0,0,0-.1,1.813c.031.67.1,1.4.16,2.122s.1,1.429.088,1.986a4.061,4.061,0,0,1-.136.987,4.359,4.359,0,0,1-.789.6c-.477.289-1.1.6-1.753.912s-1.327.63-1.923.938a5.772,5.772,0,0,0-1.518.987,5.867,5.867,0,0,0-1,1.529c-.308.6-.614,1.273-.925,1.925s-.636,1.275-.925,1.751a4.323,4.323,0,0,1-.6.791,4.149,4.149,0,0,1-.987.134c-.557.013-1.253-.031-1.973-.086s-1.465-.129-2.135-.16a5.749,5.749,0,0,0-1.813.1,5.874,5.874,0,0,0-1.628.826c-.564.363-1.169.789-1.764,1.2s-1.177.791-1.665,1.059a4.293,4.293,0,0,1-.925.382,4.3,4.3,0,0,1-.925-.382c-.488-.269-1.07-.651-1.665-1.059s-1.2-.835-1.762-1.2A5.869,5.869,0,0,0,22.5,50.8a5.792,5.792,0,0,0-1.813-.1c-.67.032-1.414.1-2.134.16s-1.416.1-1.973.086a4.182,4.182,0,0,1-.987-.134,4.056,4.056,0,0,1-.617-.791c-.289-.477-.6-1.1-.914-1.751s-.617-1.329-.925-1.925a5.862,5.862,0,0,0-1-1.529,5.776,5.776,0,0,0-1.518-.987c-.6-.307-1.273-.626-1.925-.938s-1.275-.623-1.751-.912a4.3,4.3,0,0,1-.789-.6,4.046,4.046,0,0,1-.136-.987c-.011-.557.03-1.266.086-1.986s.129-1.452.16-2.122a5.805,5.805,0,0,0-.1-1.813,5.856,5.856,0,0,0-.826-1.628c-.362-.565-.787-1.169-1.2-1.764s-.806-1.19-1.074-1.678a3.888,3.888,0,0,1-.369-.912,3.9,3.9,0,0,1,.369-.925c.268-.488.666-1.07,1.074-1.665s.833-1.211,1.2-1.775A5.808,5.808,0,0,0,6.172,22.5a5.794,5.794,0,0,0,.1-1.813c-.032-.67-.1-1.414-.16-2.134s-.1-1.418-.086-1.975a4.048,4.048,0,0,1,.136-.987,4.07,4.07,0,0,1,.789-.617c.477-.289,1.1-.6,1.751-.912s1.329-.618,1.925-.925a5.8,5.8,0,0,0,1.518-1,5.8,5.8,0,0,0,1-1.518c.308-.6.614-1.271.925-1.923s.625-1.288.914-1.764a3.718,3.718,0,0,1,.617-.778,4.051,4.051,0,0,1,.987-.136c.557-.013,1.253.033,1.973.088s1.464.116,2.134.147a5.749,5.749,0,0,0,1.813-.1,5.819,5.819,0,0,0,1.63-.813c.564-.363,1.167-.8,1.762-1.21s1.177-.791,1.665-1.059a3.917,3.917,0,0,1,.925-.371Zm0,7.561A18.217,18.217,0,1,0,46.707,28.486,18.238,18.238,0,0,0,28.486,10.265Zm0,1.91a16.248,16.248,0,0,1,10.839,4.118l-5.42,5.42V20.077H29.79V16.44H27.88v3.637H26.9a4.673,4.673,0,0,0-.671,9.314l-9.935,9.935a16.315,16.315,0,0,1,12.193-27.15Zm12.189,5.466A16.316,16.316,0,0,1,17.643,40.676l5.421-5.421v1.634H27.88v3.637h1.91V36.888h.289a4.674,4.674,0,0,0,.666-9.316ZM26.9,21.987h6.733l-5.541,5.541H26.9a2.773,2.773,0,1,1,0-5.541Zm1.982,7.451h1.2a2.773,2.773,0,1,1,0,5.541H23.341Z" transform="translate(-0.793 -0.793)" fill="#64ffc5"/>
    </g>
  </g>
</svg>
