<svg xmlns="http://www.w3.org/2000/svg" width="78.412" height="64.355" viewBox="0 0 78.412 64.355">
  <g id="Jump-Start" transform="translate(0 0)">
    <g id="Group_313" data-name="Group 313" transform="translate(0 0)">
      <path id="Path_422" data-name="Path 422" d="M77.79,142.11a7.647,7.647,0,0,0-7.611,7.017H60.524a2.392,2.392,0,0,1-2.388-2.388V142.3a2.4,2.4,0,0,1,.538-1.512l1.518-1.858a3.208,3.208,0,0,0,2.9,1.839h4.291a.622.622,0,1,0,0-1.245H63.088a1.963,1.963,0,0,1-1.96-1.96v-3.956a9.139,9.139,0,0,0,3.482.653c3.543,0,6.318-1.775,6.318-4.04a3.515,3.515,0,0,0-1.907-2.911l8.926-2.306a.623.623,0,0,0-.311-1.206l-5.338,1.38c-.787-1.862-3.79-7.879-9.727-7.879a8.486,8.486,0,0,0-6.733,3.238,7.718,7.718,0,0,0-6.285,3.7,15.22,15.22,0,0,0-1.887,7.846V152.9a7.743,7.743,0,0,1-2.861.546H33.61a7.743,7.743,0,0,1-2.861-.546v-20.81a15.22,15.22,0,0,0-1.887-7.846,7.718,7.718,0,0,0-6.285-3.7,8.486,8.486,0,0,0-6.733-3.238c-5.937,0-8.94,6.016-9.727,7.879L.778,123.8a.623.623,0,0,0-.311,1.206l8.926,2.306a3.515,3.515,0,0,0-1.907,2.911c0,2.265,2.776,4.04,6.318,4.04a9.139,9.139,0,0,0,3.482-.653v3.956a1.963,1.963,0,0,1-1.96,1.96H11.034a.622.622,0,1,0,0,1.245h4.291a3.208,3.208,0,0,0,2.9-1.839l1.518,1.858a2.4,2.4,0,0,1,.538,1.512v4.434a2.392,2.392,0,0,1-2.388,2.388H8.234A7.647,7.647,0,0,0,.623,142.11a.622.622,0,0,0-.622.622v4.285a.622.622,0,0,0,.622.622,2.11,2.11,0,1,1,0,4.219A.622.622,0,0,0,0,152.48v4.285a.623.623,0,0,0,.622.622,7.647,7.647,0,0,0,7.611-7.017h9.655a3.638,3.638,0,0,0,3.633-3.633V142.3a3.644,3.644,0,0,0-.82-2.3l-2.172-2.659V130.87a3.2,3.2,0,0,0-2.4-3.1l-1.7-.439c.649-1.568,2.763-5.571,7.438-5.571l.073,0a15.38,15.38,0,0,1,2.632,8.641v15.25A9.048,9.048,0,0,0,29.5,153.7v.008a9.7,9.7,0,1,0,19.4,0V153.7a9.048,9.048,0,0,0,4.932-8.048V130.4a15.38,15.38,0,0,1,2.632-8.641l.073,0c4.675,0,6.789,4,7.438,5.571l-1.7.439a3.2,3.2,0,0,0-2.4,3.1v6.475L57.711,140a3.643,3.643,0,0,0-.82,2.3v4.434a3.638,3.638,0,0,0,3.633,3.633h9.655a7.647,7.647,0,0,0,7.611,7.017.623.623,0,0,0,.622-.622V152.48a.622.622,0,0,0-.622-.622,2.11,2.11,0,1,1,0-4.219.622.622,0,0,0,.622-.622v-4.285A.622.622,0,0,0,77.79,142.11ZM14.908,124.067a12.547,12.547,0,0,0-1.693,2.948L7.341,125.5c.815-1.822,3.55-6.95,8.5-6.95a7.111,7.111,0,0,1,5.052,2.019A8.68,8.68,0,0,0,14.908,124.067Zm14.6,28.2a7.792,7.792,0,0,1-3.687-6.62V130.4a16.685,16.685,0,0,0-2.264-8.479c5.332,1.084,5.951,7.336,5.951,10.166Zm9.7,9.893a8.467,8.467,0,0,1-8.44-7.936,9,9,0,0,0,2.844.461H44.8a9,9,0,0,0,2.844-.461A8.467,8.467,0,0,1,39.206,162.164ZM52.6,130.4v15.25a7.792,7.792,0,0,1-3.687,6.62V132.087c0-2.83.619-9.081,5.951-10.166A16.685,16.685,0,0,0,52.6,130.4ZM63.5,124.067a8.68,8.68,0,0,0-5.987-3.5,7.111,7.111,0,0,1,5.052-2.019c4.952,0,7.687,5.128,8.5,6.95L65.2,127.015A12.547,12.547,0,0,0,63.5,124.067Z" transform="translate(0 -99.054)" fill="#00b26b"/>
      <path id="Path_423" data-name="Path 423" d="M410.84,22.316,398.6,15.584a3.068,3.068,0,0,0-2.958,5.377l14.593,8.029a.622.622,0,0,0,.923-.545V22.862A.622.622,0,0,0,410.84,22.316Z" transform="translate(-332.75 -12.839)" fill="#00b26b"/>
      <path id="Path_424" data-name="Path 424" d="M205.85,13.243l5.484,1.073-3.967,8.05a.623.623,0,0,0,.991.723l11.37-11.01a.621.621,0,0,0-.208-1.027L212.94,8.5,214.092.713a.621.621,0,0,0-1.142-.42L205.441,12.3a.623.623,0,0,0,.409.94Zm6.575-9.764-.789,5.332a.625.625,0,0,0,.391.672l6.138,2.379L210.07,19.7l2.741-5.564a.623.623,0,0,0-.439-.885l-5.4-1.055Z" transform="translate(-173.4 0)" fill="#00b26b"/>
      <path id="Path_425" data-name="Path 425" d="M.306,28.981a.62.62,0,0,0,.618.009l14.593-8.029a3.068,3.068,0,0,0-2.958-5.377L.323,22.316A.622.622,0,0,0,0,22.862v5.584A.624.624,0,0,0,.306,28.981Z" transform="translate(-0.001 -12.839)" fill="#00b26b"/>
    </g>
  </g>
</svg>
