<svg xmlns="http://www.w3.org/2000/svg" width="97" height="97" viewBox="0 0 97 97">
  <g id="No_towing" data-name="No towing" transform="translate(20.201 11.414)">
    <path id="Path_427" data-name="Path 427" d="M69.2,62.5H67.337a.931.931,0,0,0,0,1.861H69.2a.931.931,0,0,0,0-1.861Z" transform="translate(-26.85 -22.734)" fill="#00b26b"/>
    <path id="Path_428" data-name="Path 428" d="M15.815,81.681a5.212,5.212,0,0,0-5.305-5.119,5.119,5.119,0,0,0,0,10.238,5.212,5.212,0,0,0,5.305-5.119Zm-8.749,0a3.35,3.35,0,0,1,3.444-3.258,3.258,3.258,0,0,1,0,6.515,3.35,3.35,0,0,1-3.444-3.258Z" transform="translate(-2.18 -28.419)" fill="#00b26b"/>
    <path id="Path_429" data-name="Path 429" d="M77.276,76.561a5.119,5.119,0,1,0,5.305,5.119,5.212,5.212,0,0,0-5.305-5.119Zm0,8.376A3.258,3.258,0,1,1,80.72,81.68a3.35,3.35,0,0,1-3.444,3.258Z" transform="translate(-29.25 -28.419)" fill="#00b26b"/>
    <path id="Path_430" data-name="Path 430" d="M14.792,83.419a2.514,2.514,0,1,0-2.513,2.467,2.514,2.514,0,0,0,2.513-2.467Zm-3.165,0a.269.269,0,1,1-.046,0Z" transform="translate(-3.949 -30.157)" fill="#00b26b"/>
    <path id="Path_431" data-name="Path 431" d="M78.982,81.016A2.466,2.466,0,1,0,81.5,83.482a2.512,2.512,0,0,0-2.513-2.466Zm0,3.025a.606.606,0,0,1-.365-1.047.6.6,0,0,1,1.017.442.65.65,0,0,1-.652.652Z" transform="translate(-30.956 -30.221)" fill="#00b26b"/>
    <path id="Path_432" data-name="Path 432" d="M11.1,47.772H25.989a.931.931,0,0,0,.6-1.629l-2.885-2.606-.652-.6a2.281,2.281,0,0,0-1.629-.745H14.121a2.514,2.514,0,0,0-2.234,1.536l-1.582,2.653a.93.93,0,0,0,.791,1.4Zm10.7-3.537.7.652,1.07,1.024H19.008V44.049h2.42a.468.468,0,0,1,.372.186Zm-8.283.372v-.093a.654.654,0,0,1,.558-.465h3.071V45.91H12.726Z" transform="translate(-4.116 -14.521)" fill="#00b26b"/>
    <path id="Path_433" data-name="Path 433" d="M48.051,53.916a.746.746,0,1,1-1.489,0,.746.746,0,1,1,1.489,0" transform="translate(-18.826 -18.944)" fill="#00b26b"/>
    <path id="Path_434" data-name="Path 434" d="M57.473,45.164h-.279V44.14a1.038,1.038,0,0,0,.047-.186V41.162a.88.88,0,0,0-.047-.233v-.7a3.3,3.3,0,0,0-2-3.071l-3.211-1.4a.934.934,0,0,0-.512-.233l-1.024-.419-4.1-3.863a8.235,8.235,0,0,0-5.491-2.187h-4.1V21.29a.937.937,0,0,0-.279-.7L21.965,6.538a.933.933,0,0,0-1.3,0l-1.955,2a.932.932,0,0,0-.047,1.21V13.8a4.094,4.094,0,0,0-3.258,4,4.188,4.188,0,0,0,8.377,0,.931.931,0,1,0-1.861,0,2.327,2.327,0,0,1-4.654,0,2.28,2.28,0,0,1,1.815-2.187,1.863,1.863,0,0,0,1.4-1.815V11.564L32.11,22.918V42.557H24.618A3.724,3.724,0,0,0,26.526,39.3h2.606a2.513,2.513,0,0,0,2.373-2.513v-2.42c.093-1.722-2.7-2.56-4.421-2.885h-.093l-4.933-4.188-.372-.372a5.813,5.813,0,0,0-4.1-1.582H10.424A5.817,5.817,0,0,0,5.3,28.41L2.513,32.319h-.6A1.908,1.908,0,0,0,0,34.227v1.536a3.489,3.489,0,0,0,3.351,3.49h1.3a3.724,3.724,0,0,0,1.955,3.258H.93A.93.93,0,0,0,0,43.442v7.446a.929.929,0,0,0,.931.931H1.3A6.765,6.765,0,0,1,2,49.957h-.14V44.419H32.11V50H14.659a6.765,6.765,0,0,1,.7,1.861H41A6.765,6.765,0,0,1,41.7,50H36.764V30.923h2.792v5.584a.93.93,0,0,0,.931.931H51.051l3.4,1.489a1.447,1.447,0,0,1,.884,1.3H53.89a3.212,3.212,0,0,0-3.211,3.211v.512a.929.929,0,0,0,.931.931h3.676v1.163a.929.929,0,0,0,.931.931H57.38a.28.28,0,0,1,.279.279v2.42a.28.28,0,0,1-.279.279H54.308a6.765,6.765,0,0,1,.7,1.861h2.42a2.142,2.142,0,0,0,2.094-2.141v-2.42a2.14,2.14,0,0,0-2.048-2.094ZM22.8,41.208a1.859,1.859,0,1,1,1.317-.544,1.861,1.861,0,0,1-1.317.544ZM3.351,37.392a1.583,1.583,0,0,1-1.443-1.163h.186a.931.931,0,1,0,0-1.861H1.861v-.14H3.025a.933.933,0,0,0,.745-.419l3.071-4.421v-.093A3.955,3.955,0,0,1,10.424,27.2h7.167a3.952,3.952,0,0,1,2.746,1.117l.093.093.419.372,4.886,4a1.666,1.666,0,0,0,1.07.465,7.957,7.957,0,0,1,2.839,1.07v2.373c0,.326-.279.652-.512.652H26.014a3.722,3.722,0,0,0-6.376,0H15.31v-2.42a.931.931,0,0,0-1.861,0v2.513H11.587a3.724,3.724,0,0,0-6.422,0Zm5.026.047A1.861,1.861,0,1,1,6.515,39.3a1.861,1.861,0,0,1,1.861-1.861ZM12.1,39.3H19.08a3.724,3.724,0,0,0,1.908,3.258H10.145A3.724,3.724,0,0,0,12.1,39.3ZM34.9,23.1V30.6a.935.935,0,0,0-.093.372V49.818h-.838V23.8l.14-.093ZM21.314,8.492,34.391,21.1l-.838.652L20.662,9.19ZM48.166,35.577H41.418V30.97a6.335,6.335,0,0,1,3.676,1.675Zm4.468,7.446a1.349,1.349,0,0,1,1.257-.931h1.443v.931Z" transform="translate(0 0)" fill="#00b26b"/>
    <g id="Ellipse_46" data-name="Ellipse 46" transform="translate(-20.201 -11.414)" fill="none" stroke="#00b26b" stroke-width="3">
      <circle cx="48.5" cy="48.5" r="48.5" stroke="none"/>
      <circle cx="48.5" cy="48.5" r="47" fill="none"/>
    </g>
    <line id="Line_15" data-name="Line 15" y1="45" x2="82" transform="translate(-13.701 13.086)" fill="none" stroke="#00b26b" stroke-width="4"/>
  </g>
</svg>
