<svg xmlns="http://www.w3.org/2000/svg" width="51.878" height="57" viewBox="0 0 51.878 57">
  <g id="noun-electric-charger-station-6695164" transform="translate(1 1)">
    <g id="Group_2" data-name="Group 2" transform="translate(0)">
      <g id="Path_16" data-name="Path 16" transform="translate(-11.164 -15.393)" fill="none">
        <path d="M13.467,29.726H58.739a1.571,1.571,0,0,0,0-3.128H13.467a1.571,1.571,0,0,0,0,3.128Z" stroke="none"/>
        <path d="M 58.73907852172852 29.7260627746582 C 59.52404022216797 29.7260627746582 60.16535949707031 29.02425193786621 60.16535949707031 28.16193199157715 C 60.16535949707031 27.29961204528809 59.52650833129883 26.59780120849609 58.73907852172852 26.59780120849609 L 13.46671962738037 26.59780120849609 C 12.68175983428955 26.59780120849609 12.04290008544922 27.29961204528809 12.04290008544922 28.16193199157715 C 12.04290008544922 29.02425193786621 12.68175983428955 29.7260627746582 13.46671962738037 29.7260627746582 L 58.73907852172852 29.7260627746582 M 58.73907852172852 30.7260627746582 L 13.46671962738037 30.7260627746582 C 12.13021945953369 30.7260627746582 11.04290008544922 29.57580184936523 11.04290008544922 28.16193199157715 C 11.04290008544922 26.74806213378906 12.13021945953369 25.59780120849609 13.46671962738037 25.59780120849609 L 58.73907852172852 25.59780120849609 C 60.07693862915039 25.59780120849609 61.16535949707031 26.74806213378906 61.16535949707031 28.16193199157715 C 61.16535949707031 29.57580184936523 60.07693862915039 30.7260627746582 58.73907852172852 30.7260627746582 Z" stroke="none" fill="#64ffc5"/>
      </g>
      <g id="Path_17" data-name="Path 17" transform="translate(-17.346 -17.23)" fill="none">
        <path d="M55.642,33.7v-1.05l-26.713,0V33.7a1.669,1.669,0,0,0,1.582,1.738H54.058A1.67,1.67,0,0,0,55.643,33.7Z" stroke="none"/>
        <path d="M 55.64245986938477 32.64820098876953 L 28.92900085449219 32.65092086791992 L 28.92900085449219 33.70091247558594 C 28.92900085449219 34.65843200683594 29.63966751098633 35.43914031982422 30.51129913330078 35.43914031982422 L 54.05775833129883 35.43914031982422 C 54.93184661865234 35.43914031982422 55.64252853393555 34.65843200683594 55.64252853393555 33.69820022583008 L 55.64245986938477 33.69820022583008 L 55.64245986938477 32.64820098876953 M 56.64245986938477 31.64810180664062 L 56.64245986938477 33.69820022583008 C 56.64250946044922 34.412109375 56.38501739501953 35.08821105957031 55.91742706298828 35.60190963745117 C 55.42596817016602 36.14179992675781 54.76552963256836 36.43914031982422 54.05775833129883 36.43914031982422 L 30.51129913330078 36.43914031982422 C 29.08740997314453 36.43914031982422 27.92900085449219 35.21078109741211 27.92900085449219 33.70091247558594 L 27.92900085449219 31.65102005004883 L 56.64245986938477 31.64810180664062 Z" stroke="none" fill="#64ffc5"/>
      </g>
      <g id="Path_18" data-name="Path 18" transform="translate(-16.266 -28.569)" fill="none">
        <path d="M27.115,72.953a.745.745,0,0,0,.708-.778v-1.4A.745.745,0,0,0,27.115,70h-.426a.745.745,0,0,0-.708.778v1.4a.745.745,0,0,0,.708.778Z" stroke="none"/>
        <path d="M 27.11502456665039 72.95277404785156 C 27.50626564025879 72.95277404785156 27.8232250213623 72.60459899902344 27.8232250213623 72.17478942871094 L 27.8232250213623 70.77389526367188 C 27.8232250213623 70.34409332275391 27.50627517700195 69.99588012695312 27.11502456665039 69.99588012695312 L 26.68911552429199 69.99588012695312 C 26.29787445068359 69.99588012695312 25.98092460632324 70.34407043457031 25.98092460632324 70.77389526367188 L 25.98092460632324 72.17478942871094 C 25.98092460632324 72.60459899902344 26.29787445068359 72.95277404785156 26.68911552429199 72.95277404785156 L 27.11502456665039 72.95277404785156 M 27.11502456665039 73.95277404785156 L 26.68911552429199 73.95277404785156 C 25.74721527099609 73.95277404785156 24.98092460632324 73.15517425537109 24.98092460632324 72.17478942871094 L 24.98092460632324 70.77389526367188 C 24.98092460632324 69.79349517822266 25.74721527099609 68.99588012695312 26.68911552429199 68.99588012695312 L 27.11502456665039 68.99588012695312 C 28.05692481994629 68.99588012695312 28.8232250213623 69.79349517822266 28.8232250213623 70.77389526367188 L 28.8232250213623 72.17478942871094 C 28.8232250213623 73.15517425537109 28.05692481994629 73.95277404785156 27.11502456665039 73.95277404785156 Z" stroke="none" fill="#64ffc5"/>
      </g>
      <g id="Path_19" data-name="Path 19" transform="translate(-20.837 -10.507)" fill="none">
        <path d="M53.087,11.242a.7.7,0,0,0-.669-.734H39.133a.7.7,0,0,0-.669.734v9.379H53.086l0-9.379Zm-5.851,4.6-1.156,2.179a.485.485,0,0,1-.428.269.462.462,0,0,1-.248-.073.573.573,0,0,1-.178-.743l.721-1.36h-1.2a.484.484,0,0,1-.428-.272.587.587,0,0,1,0-.544l1.156-2.179a.471.471,0,0,1,.676-.2.571.571,0,0,1,.178.743l-.721,1.36h1.2a.484.484,0,0,1,.428.272.594.594,0,0,1,0,.544Z" stroke="none"/>
        <path d="M 39.13318252563477 10.50730514526367 C 38.76422500610352 10.50730514526367 38.46460342407227 10.83644485473633 38.46460342407227 11.24176597595215 L 38.46460342407227 20.62124633789062 L 53.0863037109375 20.62124633789062 L 53.08382415771484 11.24176597595215 L 53.08654403686523 11.24176597595215 C 53.08654403686523 10.83645629882812 52.78692245483398 10.50730514526367 52.41796493530273 10.50730514526367 L 39.13318252563477 10.50730514526367 M 45.6505241394043 18.28715515136719 C 45.56633377075195 18.28715515136719 45.47966384887695 18.26267623901367 45.40290451049805 18.21370697021484 C 45.16766357421875 18.06137466430664 45.08595275878906 17.72950553894043 45.22461318969727 17.47109603881836 L 45.94518280029297 16.11100578308105 L 44.74423217773438 16.11100578308105 C 44.56595230102539 16.11100578308105 44.40252304077148 16.00763702392578 44.31585311889648 15.83897590637207 C 44.22671508789062 15.67031574249268 44.22919464111328 15.46358585357666 44.31833267211914 15.29492568969727 L 45.47470474243164 13.11603546142578 C 45.61337661743164 12.85762596130371 45.91547012329102 12.76786041259766 46.15070343017578 12.92018508911133 C 46.38841247558594 13.0725154876709 46.4676628112793 13.40437507629395 46.32898330688477 13.66280555725098 L 45.60843276977539 15.02289581298828 L 46.80936431884766 15.02289581298828 C 46.98765182495117 15.02289581298828 47.15107345581055 15.12625503540039 47.23775482177734 15.2949161529541 C 47.32441329956055 15.46356582641602 47.32441329956055 15.67029571533203 47.23526382446289 15.83895587921143 L 47.23527526855469 15.83895587921143 L 46.07890319824219 18.01785659790039 C 45.98728561401367 18.19194602966309 45.82137298583984 18.28715515136719 45.6505241394043 18.28715515136719 M 39.13318252563477 9.507305145263672 L 52.41796493530273 9.507305145263672 C 53.3380241394043 9.507305145263672 54.08654403686523 10.28538513183594 54.08654403686523 11.24176597595215 L 54.08656311035156 21.62124633789062 L 37.46460342407227 21.62124633789062 L 37.46460342407227 11.24176597595215 C 37.46460342407227 10.28538513183594 38.2131233215332 9.507305145263672 39.13318252563477 9.507305145263672 Z" stroke="none" fill="#64ffc5"/>
      </g>
      <g id="Path_20" data-name="Path 20" transform="translate(-19.272 -28.57)" fill="none">
        <path d="M34.191,70h.842v5.03h-.842Z" stroke="none"/>
        <path d="M 34.19100570678711 69.99601745605469 L 34.19100570678711 75.02572631835938 L 35.03289794921875 75.02572631835938 L 35.03289794921875 69.99601745605469 L 34.19100570678711 69.99601745605469 M 33.19100570678711 68.99601745605469 L 36.03289794921875 68.99601745605469 L 36.03289794921875 76.02572631835938 L 33.19100570678711 76.02572631835938 L 33.19100570678711 68.99601745605469 Z" stroke="none" fill="#64ffc5"/>
      </g>
      <g id="Path_21" data-name="Path 21" transform="translate(-32.789 -28.569)" fill="none">
        <path d="M72.244,72.953a.745.745,0,0,0,.708-.778v-1.4A.745.745,0,0,0,72.244,70h-.423a.745.745,0,0,0-.708.778v1.4a.745.745,0,0,0,.708.778Z" stroke="none"/>
        <path d="M 72.24446105957031 72.95277404785156 C 72.63570404052734 72.95277404785156 72.95268249511719 72.60459899902344 72.95268249511719 72.17478942871094 L 72.95268249511719 70.77389526367188 C 72.95268249511719 70.34409332275391 72.63571929931641 69.99588012695312 72.24446105957031 69.99588012695312 L 71.82103729248047 69.99588012695312 C 71.42979431152344 69.99588012695312 71.11283874511719 70.34407043457031 71.11283874511719 70.77389526367188 L 71.11283874511719 72.17478942871094 C 71.11283874511719 72.60459899902344 71.42979431152344 72.95277404785156 71.82103729248047 72.95277404785156 L 72.24446105957031 72.95277404785156 M 72.24446105957031 73.95277404785156 L 71.82103729248047 73.95277404785156 C 70.87914276123047 73.95277404785156 70.11283874511719 73.15517425537109 70.11283874511719 72.17478942871094 L 70.11283874511719 70.77389526367188 C 70.11283874511719 69.79349517822266 70.87914276123047 68.99588012695312 71.82103729248047 68.99588012695312 L 72.24446105957031 68.99588012695312 C 73.18637847900391 68.99588012695312 73.95268249511719 69.79349517822266 73.95268249511719 70.77389526367188 L 73.95268249511719 72.17478942871094 C 73.95268249511719 73.15517425537109 73.18637847900391 73.95277404785156 72.24446105957031 73.95277404785156 Z" stroke="none" fill="#64ffc5"/>
      </g>
      <g id="Path_22" data-name="Path 22" transform="translate(-10.656 -33.12)" fill="none">
        <path d="M59.358,84.984H11.825a1.237,1.237,0,0,0-1.169,1.292V88.12H60.535V86.276a1.238,1.238,0,0,0-1.176-1.292Z" stroke="none"/>
        <path d="M 11.82499694824219 84.9840087890625 C 11.18120574951172 84.9840087890625 10.65619659423828 85.56339263916016 10.65619659423828 86.27613830566406 L 10.65619659423828 88.12042236328125 L 60.53450775146484 88.12042236328125 L 60.53450775146484 86.27613830566406 C 60.5369873046875 85.56345367431641 60.00707626342773 84.9840087890625 59.35830688476562 84.9840087890625 L 11.82499694824219 84.9840087890625 M 11.82499694824219 83.9840087890625 L 59.35785675048828 83.9840087890625 C 59.92049407958984 83.9840087890625 60.45409393310547 84.20877838134766 60.86081695556641 84.61691284179688 C 61.2911262512207 85.04872894287109 61.53667449951172 85.65475463867188 61.53449630737305 86.27961730957031 L 61.53450775146484 89.12042236328125 L 9.656196594238281 89.12042236328125 L 9.656196594238281 86.27613830566406 C 9.656196594238281 85.01225280761719 10.62911605834961 83.9840087890625 11.82499694824219 83.9840087890625 Z" stroke="none" fill="#64ffc5"/>
      </g>
      <g id="Path_23" data-name="Path 23" transform="translate(-32.197 -24.069)" fill="none">
        <path d="M77.405,55.172H69.821a.34.34,0,0,0-.324.354v5.359a.343.343,0,0,0,.324.356h7.587a.343.343,0,0,0,.324-.356V55.526a.346.346,0,0,0-.327-.354ZM75.073,58.48l-1.156,2.179a.485.485,0,0,1-.428.269.462.462,0,0,1-.248-.073.573.573,0,0,1-.178-.743l.721-1.36h-1.2a.484.484,0,0,1-.428-.272.587.587,0,0,1,0-.544l1.156-2.179a.47.47,0,0,1,.676-.2.571.571,0,0,1,.178.743l-.721,1.36h1.2a.484.484,0,0,1,.428.272A.594.594,0,0,1,75.073,58.48Z" stroke="none"/>
        <path d="M 69.82065582275391 55.17199325561523 C 69.64237213134766 55.17199325561523 69.49626922607422 55.32976531982422 69.49626922607422 55.5256233215332 L 69.49626922607422 60.88444519042969 C 69.49626922607422 61.08030319213867 69.64237213134766 61.24079513549805 69.82065582275391 61.24079513549805 L 77.40787506103516 61.24079513549805 C 77.58616638183594 61.24079513549805 77.73226165771484 61.08030319213867 77.73226165771484 60.88444519042969 L 77.73226165771484 55.5256233215332 C 77.72978210449219 55.33249282836914 77.58369445800781 55.17199325561523 77.40541839599609 55.17199325561523 L 69.82065582275391 55.17199325561523 M 73.48799896240234 60.92797470092773 C 73.40381622314453 60.92797470092773 73.31714630126953 60.90350341796875 73.24039459228516 60.85452270507812 C 73.00515747070312 60.70219421386719 72.92343902587891 60.37033462524414 73.06210327148438 60.11191558837891 L 73.78267669677734 58.75182342529297 L 72.58173370361328 58.75182342529297 C 72.4034423828125 58.75182342529297 72.24002838134766 58.64845275878906 72.15335845947266 58.47980499267578 C 72.06421661376953 58.31115341186523 72.06668853759766 58.10442352294922 72.15583801269531 57.93576431274414 L 73.31220245361328 55.75687408447266 C 73.44840240478516 55.49845886230469 73.75294494628906 55.40867614746094 73.98819732666016 55.5610237121582 C 74.22590637207031 55.71335601806641 74.30514526367188 56.04521560668945 74.16648864746094 56.30363464355469 L 73.4459228515625 57.66373443603516 L 74.64685821533203 57.66373443603516 C 74.82514190673828 57.66373443603516 74.98857879638672 57.76710510253906 75.07523345947266 57.93573379516602 C 75.16191864013672 58.10439300537109 75.16191864013672 58.3138542175293 75.07276916503906 58.47978591918945 L 73.91639709472656 60.65867233276367 C 73.82477569580078 60.832763671875 73.65887451171875 60.92797470092773 73.48799896240234 60.92797470092773 M 69.82065582275391 54.17199325561523 L 77.40534210205078 54.17199325561523 C 78.12747192382812 54.17199325561523 78.72268676757812 54.77347564697266 78.73218536376953 55.51278305053711 L 78.73226165771484 55.5256233215332 L 78.73226165771484 60.88444519042969 C 78.73226165771484 61.6323356628418 78.13814544677734 62.24079513549805 77.40787506103516 62.24079513549805 L 69.82065582275391 62.24079513549805 C 69.09038543701172 62.24079513549805 68.49626922607422 61.6323356628418 68.49626922607422 60.88444519042969 L 68.49626922607422 55.5256233215332 C 68.49626922607422 54.77923583984375 69.09038543701172 54.17199325561523 69.82065582275391 54.17199325561523 Z" stroke="none" fill="#64ffc5"/>
      </g>
      <g id="Path_24" data-name="Path 24" transform="translate(-30.651 -22.237)" fill="none">
        <path d="M78.858,50.447a1.252,1.252,0,0,0-1.189-1.306h-11.2a1.252,1.252,0,0,0-1.189,1.306V69.241a.621.621,0,0,0,.592.647H68.1a1.369,1.369,0,0,0,1.3-1.425v-.783a1.823,1.823,0,0,1-1.416-1.836v-1.4a1.791,1.791,0,0,1,1.7-1.866h.423a1.791,1.791,0,0,1,1.7,1.866v1.4a1.825,1.825,0,0,1-1.416,1.836v.783a2.412,2.412,0,0,1-2.29,2.514H65.865a1.454,1.454,0,0,1-.592-.128v2.168H78.855l0-22.57ZM77.174,69.238a.523.523,0,0,1-.5.544H74.846a.523.523,0,0,1-.5-.544V63.12a.523.523,0,0,1,.5-.544h1.832a.523.523,0,0,1,.5.544Zm0-10.182A1.385,1.385,0,0,1,75.859,60.5H68.274a1.385,1.385,0,0,1-1.315-1.444V53.7a1.384,1.384,0,0,1,1.315-1.442h7.587A1.384,1.384,0,0,1,77.176,53.7Z" stroke="none"/>
        <path d="M 66.46414184570312 49.14099884033203 C 65.80792236328125 49.14099884033203 65.27556610107422 49.72584533691406 65.27556610107422 50.44670867919922 L 65.27556610107422 69.24050903320312 C 65.27556610107422 69.59955596923828 65.54051971435547 69.88791656494141 65.86738586425781 69.88791656494141 L 68.10089111328125 69.88791656494141 C 68.81649017333984 69.88791656494141 69.40088653564453 69.24866485595703 69.40088653564453 68.46248626708984 L 69.40088653564453 67.6790771484375 C 68.5986328125 67.52944946289062 67.9844970703125 66.76779174804688 67.9844970703125 65.84293365478516 L 67.9844970703125 64.44203186035156 C 67.9844970703125 63.41375350952148 68.74714660644531 62.57595443725586 69.68318176269531 62.57595443725586 L 70.10661315917969 62.57595443725586 C 71.04263305664062 62.57595443725586 71.80528259277344 63.41375350952148 71.80528259277344 64.44203186035156 L 71.80528259277344 65.84293365478516 C 71.80528259277344 66.76508331298828 71.19119262695312 67.52949523925781 70.38889312744141 67.6790771484375 L 70.38889312744141 68.46248626708984 C 70.38889312744141 69.84981536865234 69.36126708984375 70.97598266601562 68.09839630126953 70.97598266601562 L 65.86487579345703 70.97598266601562 C 65.65689086914062 70.97598266601562 65.45632171630859 70.92974853515625 65.2730712890625 70.84814453125 L 65.2730712890625 73.01615905761719 L 78.85515594482422 73.01615905761719 L 78.86012268066406 50.44663238525391 L 78.85765838623047 50.44670867919922 C 78.85765838623047 49.72582244873047 78.32527923583984 49.14099884033203 77.66905975341797 49.14099884033203 L 66.46414184570312 49.14099884033203 M 75.85900115966797 60.50041580200195 L 68.27432250976562 60.50041580200195 C 67.54882049560547 60.50041580200195 66.95947265625 59.85300445556641 66.95947265625 59.05598449707031 L 66.95947265625 53.69718170166016 C 66.95947265625 52.90288543701172 67.54881286621094 52.25547790527344 68.27432250976562 52.25547790527344 L 75.86154174804688 52.25547790527344 C 76.5870361328125 52.25547790527344 77.17640686035156 52.90288543701172 77.17640686035156 53.69718170166016 L 77.17386627197266 59.05598449707031 C 77.17386627197266 59.85300445556641 76.58452606201172 60.50041580200195 75.85900115966797 60.50041580200195 M 76.67864227294922 69.78174591064453 L 74.84626007080078 69.78174591064453 C 74.57388305664062 69.78174591064453 74.35102081298828 69.53693389892578 74.35102081298828 69.23770141601562 L 74.35102081298828 63.11990356445312 C 74.35102081298828 62.82068634033203 74.57388305664062 62.57586669921875 74.84626007080078 62.57586669921875 L 76.67864227294922 62.57586669921875 C 76.95099639892578 62.57586669921875 77.17386627197266 62.82068634033203 77.17386627197266 63.11990356445312 L 77.17386627197266 69.23770141601562 C 77.17386627197266 69.53693389892578 76.95099639892578 69.78174591064453 76.67864227294922 69.78174591064453 M 66.46414184570312 48.14099884033203 L 77.66905975341797 48.14099884033203 C 78.52753448486328 48.14099884033203 79.27218627929688 48.66448211669922 79.63050842285156 49.42430877685547 L 79.85788726806641 49.41783142089844 L 79.86012268066406 50.44685363769531 L 79.85494232177734 74.01615905761719 L 64.2730712890625 74.01615905761719 L 64.2730712890625 69.30818176269531 L 64.27696228027344 69.30992126464844 C 64.27603912353516 69.28691864013672 64.27556610107422 69.26373291015625 64.27556610107422 69.24050903320312 L 64.27556610107422 50.44670867919922 C 64.27556610107422 49.17533874511719 65.25736236572266 48.14099884033203 66.46414184570312 48.14099884033203 Z M 75.85900115966797 59.50041580200195 C 76.00792694091797 59.50041580200195 76.17386627197266 59.31789398193359 76.17386627197266 59.05598449707031 L 76.17640686035156 53.69671630859375 C 76.17640686035156 53.43687438964844 76.01046752929688 53.25547790527344 75.86154174804688 53.25547790527344 L 68.27432250976562 53.25547790527344 C 68.12539672851562 53.25547790527344 67.95947265625 53.43687438964844 67.95947265625 53.69718170166016 L 67.95947265625 59.05598449707031 C 67.95947265625 59.31789398193359 68.12539672851562 59.50041580200195 68.27432250976562 59.50041580200195 L 75.85900115966797 59.50041580200195 Z M 76.17386627197266 63.57586669921875 L 75.35102081298828 63.57586669921875 L 75.35102081298828 68.78174591064453 L 76.17386627197266 68.78174591064453 L 76.17386627197266 63.57586669921875 Z M 69.89484405517578 66.75395202636719 L 70.20561218261719 66.69601440429688 C 70.54747772216797 66.63227844238281 70.80528259277344 66.26553344726562 70.80528259277344 65.84293365478516 L 70.80528259277344 64.44203186035156 C 70.80528259277344 63.97257614135742 70.48532867431641 63.57595443725586 70.10661315917969 63.57595443725586 L 69.68318176269531 63.57595443725586 C 69.30445861816406 63.57595443725586 68.9844970703125 63.97257614135742 68.9844970703125 64.44203186035156 L 68.9844970703125 65.84293365478516 C 68.9844970703125 66.26551818847656 69.24233245849609 66.63226318359375 69.584228515625 66.69602966308594 L 69.89484405517578 66.75395202636719 Z" stroke="none" fill="#64ffc5"/>
      </g>
      <g id="Path_25" data-name="Path 25" transform="translate(-36.466 -28.57)" fill="none">
        <path d="M81.156,70H82v5.03h-.842Z" stroke="none"/>
        <path d="M 81.15601348876953 69.99601745605469 L 81.15601348876953 75.02572631835938 L 81.99790191650391 75.02572631835938 L 81.99790191650391 69.99601745605469 L 81.15601348876953 69.99601745605469 M 80.15601348876953 68.99601745605469 L 82.99790191650391 68.99601745605469 L 82.99790191650391 76.02572631835938 L 80.15601348876953 76.02572631835938 L 80.15601348876953 68.99601745605469 Z" stroke="none" fill="#64ffc5"/>
      </g>
      <g id="Path_26" data-name="Path 26" transform="translate(-24.237 -18.921)" fill="none">
        <path d="M47.754,38.219H50.6V69.7H47.754Z" stroke="none"/>
        <path d="M 47.75400161743164 38.218994140625 L 47.75400161743164 69.70005798339844 L 50.60164260864258 69.70005798339844 L 50.60164260864258 38.218994140625 L 47.75400161743164 38.218994140625 M 46.75400161743164 37.218994140625 L 51.60164260864258 37.218994140625 L 51.60164260864258 70.70005798339844 L 46.75400161743164 70.70005798339844 L 46.75400161743164 37.218994140625 Z" stroke="none" fill="#64ffc5"/>
      </g>
      <g id="Path_27" data-name="Path 27" transform="translate(-15.004 -24.069)" fill="none">
        <path d="M30.762,60.887V55.528a.338.338,0,0,0-.322-.354l-7.587,0a.338.338,0,0,0-.322.354v5.359a.341.341,0,0,0,.322.356l7.587,0A.342.342,0,0,0,30.762,60.887ZM28.108,58.48l-1.156,2.179a.485.485,0,0,1-.428.269.462.462,0,0,1-.248-.073.573.573,0,0,1-.178-.743l.721-1.36h-1.2a.484.484,0,0,1-.428-.272.587.587,0,0,1,0-.544l1.156-2.179a.47.47,0,0,1,.676-.2.571.571,0,0,1,.178.743l-.721,1.36h1.2a.484.484,0,0,1,.428.272A.594.594,0,0,1,28.108,58.48Z" stroke="none"/>
        <path d="M 30.44051742553711 61.24349975585938 C 30.61879920959473 61.24078750610352 30.76241874694824 61.0830078125 30.76241874694824 60.88715744018555 L 30.76241874694824 55.52833938598633 C 30.76241874694824 55.33247756958008 30.61879920959473 55.17470932006836 30.44051742553711 55.17470932006836 L 22.85327911376953 55.1719970703125 C 22.67499732971191 55.1719970703125 22.5313777923584 55.32975769042969 22.5313777923584 55.52561950683594 L 22.5313777923584 60.88442993164062 C 22.5313777923584 61.08028793334961 22.67499732971191 61.24078750610352 22.85327911376953 61.24078750610352 L 30.44051742553711 61.24349975585938 M 26.77541923522949 55.48666381835938 C 26.85993003845215 55.48666381835938 26.94543266296387 55.51055145263672 27.02336883544922 55.56101989746094 C 27.26107788085938 55.71334838867188 27.34032821655273 56.04521942138672 27.20165824890137 56.30363845825195 L 26.48108863830566 57.66371917724609 L 27.68202781677246 57.66371917724609 C 27.86031913757324 57.66371917724609 28.02373886108398 57.76708984375 28.11040878295898 57.93574905395508 C 28.19707870483398 58.10439682006836 28.19707870483398 58.31385803222656 28.1079273223877 58.47977828979492 L 26.95155906677246 60.6586799621582 C 26.81480979919434 60.91854476928711 26.50807952880859 61.00286102294922 26.27556800842285 60.85453796386719 C 26.04032897949219 60.70219802856445 25.95860862731934 60.37032699584961 26.0972785949707 60.11191940307617 L 26.81783866882324 58.75182723999023 L 25.61689758300781 58.75182723999023 C 25.43860816955566 58.75182723999023 25.27518844604492 58.64845657348633 25.18851852416992 58.47980880737305 C 25.09937858581543 58.31114959716797 25.10184860229492 58.10441970825195 25.19099807739258 57.93576812744141 L 26.34736824035645 55.75687789916992 C 26.43843841552734 55.58407211303711 26.60484313964844 55.48666381835938 26.77541923522949 55.48666381835938 M 30.44793891906738 62.24349975585938 L 30.44015884399414 62.24349975585938 L 22.85291862487793 62.24078750610352 C 22.1243782043457 62.24078750610352 21.5313777923584 61.63232803344727 21.5313777923584 60.88442993164062 L 21.5313777923584 55.52561950683594 C 21.5313777923584 54.77922821044922 22.1243782043457 54.1719970703125 22.85327911376953 54.1719970703125 L 30.44087791442871 54.17470932006836 C 31.16941833496094 54.17470932006836 31.76241874694824 54.78194808959961 31.76241874694824 55.52833938598633 L 31.76241874694824 60.88715744018555 C 31.76241874694824 61.62402725219727 31.17623901367188 62.23242950439453 30.45571899414062 62.24337768554688 L 30.44793891906738 62.24349975585938 Z" stroke="none" fill="#64ffc5"/>
      </g>
      <g id="Path_28" data-name="Path 28" transform="translate(-13.458 -22.237)" fill="none">
        <path d="M21.134,70.976H18.9a1.454,1.454,0,0,1-.592-.128v2.168H31.891l0-22.57A1.252,1.252,0,0,0,30.7,49.141H19.5a1.252,1.252,0,0,0-1.189,1.306V69.24a.621.621,0,0,0,.592.647h2.234a1.369,1.369,0,0,0,1.3-1.425l0-1.3a.562.562,0,0,1,.062-.25,1.98,1.98,0,0,1-.314-1.075v-1.4a1.791,1.791,0,0,1,1.7-1.866h.426a1.791,1.791,0,0,1,1.7,1.866v1.4a1.791,1.791,0,0,1-1.7,1.866H23.88a1.59,1.59,0,0,1-.456-.076v.83a2.414,2.414,0,0,1-2.29,2.516Zm9.072-1.738a.523.523,0,0,1-.5.544H27.879a.523.523,0,0,1-.5-.544l0-6.118a.523.523,0,0,1,.5-.544h1.832a.523.523,0,0,1,.5.544Zm-8.9-8.74A1.385,1.385,0,0,1,20,59.053V53.694a1.384,1.384,0,0,1,1.312-1.442h7.587a1.384,1.384,0,0,1,1.312,1.442v5.359A1.385,1.385,0,0,1,28.895,60.5Z" stroke="none"/>
        <path d="M 31.89109420776367 73.01594543457031 L 31.89357376098633 50.44641494750977 C 31.89357376098633 49.72553253173828 31.36119270324707 49.14071273803711 30.70500373840332 49.14071273803711 L 19.50006294250488 49.14071273803711 C 18.84384346008301 49.14071273803711 18.31149291992188 49.72555160522461 18.31149291992188 50.44641494750977 L 18.31149291992188 69.24020385742188 C 18.31149291992188 69.59926605224609 18.57644271850586 69.88760375976562 18.90329360961914 69.88760375976562 L 21.13680267333984 69.88760375976562 C 21.8524227142334 69.88760375976562 22.43682289123535 69.24835968017578 22.43682289123535 68.46219635009766 L 22.4343433380127 67.16464996337891 C 22.4343433380127 67.07215118408203 22.45910263061523 66.99055480957031 22.49624443054199 66.91437530517578 C 22.30063438415527 66.60972595214844 22.1817741394043 66.24248504638672 22.1817741394043 65.83987426757812 L 22.1817741394043 64.43897247314453 C 22.1817741394043 63.41070175170898 22.94442367553711 62.57289505004883 23.88045310974121 62.57289505004883 L 24.30636405944824 62.57289505004883 C 25.24238395690918 62.57289505004883 26.00504302978516 63.41070175170898 26.00504302978516 64.43897247314453 L 26.00504302978516 65.83987426757812 C 26.00504302978516 66.86815643310547 25.24238395690918 67.70595550537109 24.30636405944824 67.70595550537109 L 23.88045310974121 67.70595550537109 C 23.72197341918945 67.70595550537109 23.5709342956543 67.67331695556641 23.42483329772949 67.62978363037109 L 23.42483329772949 68.45944976806641 C 23.42483329772949 69.84677124023438 22.39720344543457 70.97565460205078 21.13433265686035 70.97565460205078 L 21.13432312011719 70.97577667236328 L 18.90081405639648 70.97577667236328 C 18.69281387329102 70.97577667236328 18.49224281311035 70.92951202392578 18.30901336669922 70.84792327880859 L 18.30901336669922 73.01594543457031 L 31.89109420776367 73.01594543457031 M 27.88166427612305 62.57570266723633 L 29.71403312683105 62.57570266723633 C 29.98642349243164 62.57570266723633 30.20927429199219 62.82052230834961 30.20927429199219 63.11975479125977 L 30.2068042755127 69.23755645751953 C 30.2068042755127 69.53676605224609 29.98394393920898 69.78159332275391 29.71156311035156 69.78159332275391 L 27.87919425964355 69.78159332275391 C 27.60681343078613 69.78159332275391 27.38395309448242 69.53676605224609 27.38395309448242 69.23755645751953 L 27.38642311096191 63.11975479125977 C 27.38642311096191 62.82052230834961 27.60928344726562 62.57570266723633 27.88166427612305 62.57570266723633 M 21.3073844909668 52.25238418579102 L 28.89461326599121 52.25238418579102 C 29.61764335632324 52.25238418579102 30.20699310302734 52.89980316162109 30.20699310302734 53.694091796875 L 30.20699310302734 59.05291366577148 C 30.20699310302734 59.84992218017578 29.61765289306641 60.49733352661133 28.89461326599121 60.49733352661133 L 21.3073844909668 60.49733352661133 C 20.58435440063477 60.49733352661133 19.99501419067383 59.84992218017578 19.99501419067383 59.05291366577148 L 19.99501419067383 53.694091796875 C 19.99501419067383 52.89980316162109 20.58434295654297 52.25238418579102 21.3073844909668 52.25238418579102 M 32.89098358154297 74.01594543457031 L 17.30901336669922 74.01594543457031 L 17.30901336669922 69.30797576904297 L 17.31289100646973 69.30970001220703 C 17.31196212768555 69.28664398193359 17.31149291992188 69.26348876953125 17.31149291992188 69.24020385742188 L 17.31149291992188 50.44641494750977 C 17.31149291992188 49.17504501342773 18.29328346252441 48.14071273803711 19.50006294250488 48.14071273803711 L 30.70500373840332 48.14071273803711 C 31.91178321838379 48.14071273803711 32.89357376098633 49.17504501342773 32.89357376098633 50.44641494750977 L 32.89098358154297 74.01594543457031 Z M 28.3841381072998 68.78159332275391 L 29.20698738098145 68.78159332275391 L 29.2090892791748 63.57570266723633 L 28.38624000549316 63.57570266723633 L 28.3841381072998 68.78159332275391 Z M 23.48564529418945 66.60445404052734 L 23.71037292480469 66.67140960693359 C 23.78729438781738 66.6943359375 23.84451293945312 66.70595550537109 23.88045310974121 66.70595550537109 L 24.30636405944824 66.70595550537109 C 24.68508338928223 66.70595550537109 25.00504302978516 66.30933380126953 25.00504302978516 65.83987426757812 L 25.00504302978516 64.43897247314453 C 25.00504302978516 63.96951293945312 24.68508338928223 63.57289505004883 24.30636405944824 63.57289505004883 L 23.88045310974121 63.57289505004883 C 23.50173377990723 63.57289505004883 23.1817741394043 63.96951293945312 23.1817741394043 64.43897247314453 L 23.1817741394043 65.83987426757812 C 23.1817741394043 66.03046417236328 23.23570442199707 66.21518707275391 23.33772277832031 66.37407684326172 L 23.48564529418945 66.60445404052734 Z M 21.3073844909668 53.25238418579102 C 21.15993309020996 53.25238418579102 20.99501419067383 53.4412841796875 20.99501419067383 53.694091796875 L 20.99501419067383 59.05291366577148 C 20.99501419067383 59.31481170654297 21.15963363647461 59.49733352661133 21.3073844909668 59.49733352661133 L 28.89461326599121 59.49733352661133 C 29.0423641204834 59.49733352661133 29.20699310302734 59.31481170654297 29.20699310302734 59.05291366577148 L 29.20699310302734 53.694091796875 C 29.20699310302734 53.4412841796875 29.04207420349121 53.25238418579102 28.89461326599121 53.25238418579102 L 21.3073844909668 53.25238418579102 Z" stroke="none" fill="#64ffc5"/>
      </g>
      <g id="Path_29" data-name="Path 29" transform="translate(-28.245 -23.715)" fill="none">
        <path d="M61.144,56l.735-.62V54.008l-1.34,1.129a5.394,5.394,0,0,0-1.84,4.1v1.94a2.645,2.645,0,0,0,.3,1.238,1.924,1.924,0,0,1,0,1.776,2.657,2.657,0,0,0-.3,1.238v2.3a2.362,2.362,0,0,0,2.243,2.462H61.4a.506.506,0,0,1,.48.528V69.2a1.357,1.357,0,0,0-.48-.1h-.456a1.32,1.32,0,0,1-1.253-1.374v-2.3a1.505,1.505,0,0,1,.168-.691,3.1,3.1,0,0,0,0-2.867,1.475,1.475,0,0,1-.168-.691v-1.94A4.243,4.243,0,0,1,61.144,56Z" stroke="none"/>
        <path d="M 61.87903594970703 54.00757598876953 L 60.53939819335938 55.136474609375 C 59.38796615600586 56.10756683349609 58.69960784912109 57.63909912109375 58.69960784912109 59.23582458496094 L 58.69960784912109 61.17536926269531 C 58.69960784912109 61.60788726806641 58.80360794067383 62.03497695922852 59.00417709350586 62.41302871704102 C 59.29388809204102 62.95978927612305 59.29388809204102 63.63983917236328 59.00417709350586 64.18934631347656 C 58.80608749389648 64.56474304199219 58.70208740234375 64.99176788330078 58.70208740234375 65.42701721191406 L 58.70208740234375 67.72831726074219 C 58.70208740234375 69.08570861816406 59.7073974609375 70.19015502929688 60.9455451965332 70.19015502929688 L 61.40115737915039 70.19015502929688 C 61.6661262512207 70.19015502929688 61.88154602050781 70.42682647705078 61.88154602050781 70.71788024902344 L 61.88154602050781 69.197265625 C 61.73049545288086 69.14015197753906 61.56954574584961 69.10206604003906 61.40115737915039 69.10206604003906 L 60.9455451965332 69.10206604003906 C 60.25471878051758 69.10206604003906 59.69256591796875 68.48457336425781 59.69256591796875 67.72831726074219 L 59.69256591796875 65.42700958251953 C 59.69256591796875 65.18490600585938 59.75198745727539 64.94552612304688 59.86094665527344 64.73606872558594 C 60.32894515991211 63.85201644897461 60.32894515991211 62.75300979614258 59.86094665527344 61.86895751953125 C 59.74950790405273 61.65949630737305 59.69256591796875 61.42011642456055 59.69256591796875 61.17801666259766 L 59.69256591796875 59.23846435546875 C 59.69008636474609 57.97357940673828 60.23238754272461 56.76577758789062 61.14364624023438 55.99872589111328 L 61.14357757568359 55.99881744384766 L 61.87903594970703 55.37860107421875 L 61.87903594970703 54.00757598876953 M 62.87903594970703 51.85717010498047 L 62.87903594970703 55.84340667724609 L 61.78824615478516 56.76327514648438 L 61.78279495239258 56.75803375244141 L 61.78762817382812 56.76377868652344 C 61.10002517700195 57.34254455566406 60.69066619873047 58.26693725585938 60.69256591796875 59.23651123046875 L 60.69256591796875 61.17801666259766 C 60.69256591796875 61.25861740112305 60.71075820922852 61.33719635009766 60.74377822875977 61.39925765991211 C 61.36483001708984 62.57242202758789 61.36562347412109 64.02736663818359 60.74713134765625 65.19943237304688 C 60.71193313598633 65.26786804199219 60.69256591796875 65.34859466552734 60.69256591796875 65.42700958251953 L 60.69256591796875 67.72831726074219 C 60.69256591796875 67.94223022460938 60.82612609863281 68.10206604003906 60.9455451965332 68.10206604003906 L 61.40115737915039 68.10206604003906 C 61.67414855957031 68.10206604003906 61.95477676391602 68.15585327148438 62.23525619506836 68.26190948486328 L 62.88154602050781 68.50630950927734 L 62.88154602050781 70.71788024902344 L 60.88154602050781 70.71788024902344 C 60.88154602050781 70.97830200195312 61.11464691162109 71.19015502929688 61.40115737915039 71.19015502929688 L 60.9455451965332 71.19015502929688 C 59.15709686279297 71.19015502929688 57.70208740234375 69.63719177246094 57.70208740234375 67.72831726074219 L 57.70208740234375 65.42701721191406 C 57.70208740234375 64.82981872558594 57.84651565551758 64.24046325683594 58.11975860595703 63.72264862060547 C 58.2550163269043 63.46610641479492 58.25539779663086 63.13570785522461 58.12055587768555 62.88122940063477 C 57.84525680541992 62.36231994628906 57.69960784912109 61.77227783203125 57.69960784912109 61.17536926269531 L 57.69960784912109 59.23582458496094 C 57.69960784912109 57.34949493408203 58.52019882202148 55.53125762939453 59.89469528198242 54.37204742431641 L 62.87903594970703 51.85717010498047 Z" stroke="none" fill="#64ffc5"/>
      </g>
      <g id="Path_30" data-name="Path 30" transform="translate(-11.05 -23.717)" fill="none">
        <path d="M13.974,70.193h.456a.506.506,0,0,1,.48.528V69.2a1.357,1.357,0,0,0-.48-.1h-.456a1.32,1.32,0,0,1-1.253-1.374v-2.3a1.505,1.505,0,0,1,.168-.691,3.1,3.1,0,0,0,0-2.867,1.475,1.475,0,0,1-.168-.691v-1.94a4.246,4.246,0,0,1,1.454-3.234l.735-.62V54.015l-1.34,1.129a5.394,5.394,0,0,0-1.84,4.1v1.94a2.673,2.673,0,0,0,.3,1.238,1.924,1.924,0,0,1,0,1.776,2.657,2.657,0,0,0-.3,1.238v2.3a2.364,2.364,0,0,0,2.243,2.456Z" stroke="none"/>
        <path d="M 14.91040229797363 70.7203369140625 L 14.91040229797363 69.19973754882812 C 14.75935173034668 69.14260101318359 14.59839248657227 69.10453033447266 14.43002223968506 69.10453033447266 L 13.97440242767334 69.10453033447266 C 13.28356170654297 69.10453033447266 12.72142219543457 68.48703765869141 12.72142219543457 67.73078918457031 L 12.72142219543457 65.42948150634766 C 12.72142219543457 65.18736267089844 12.78084182739258 64.94799041748047 12.88979244232178 64.738525390625 C 13.35779190063477 63.85448837280273 13.35779190063477 62.75547027587891 12.88979244232178 61.87141799926758 C 12.77836227416992 61.66196823120117 12.72142219543457 61.42258834838867 12.72142219543457 61.18047714233398 L 12.72142219543457 59.24094009399414 C 12.72142219543457 57.98147964477539 13.26371192932129 56.77095794677734 14.17496204376221 56.00661849975586 L 14.91042232513428 55.38640975952148 L 14.91042232513428 54.01538848876953 L 13.57079219818115 55.144287109375 C 12.41936206817627 56.11537933349609 11.73100185394287 57.64691925048828 11.73100185394287 59.24363708496094 L 11.73100185394287 61.18317794799805 C 11.73100185394287 61.61568832397461 11.83500194549561 62.04277801513672 12.0330924987793 62.42084884643555 C 12.3228120803833 62.96760940551758 12.3228120803833 63.64764785766602 12.0330924987793 64.19715118408203 C 11.83500194549561 64.57254028320312 11.73100185394287 64.99958801269531 11.73100185394287 65.43482208251953 L 11.73100185394287 67.73615264892578 C 11.73100185394287 69.08538055419922 12.73878192901611 70.19246673583984 13.97446250915527 70.19246673583984 L 13.97440242767334 70.19261932373047 L 14.43001174926758 70.19261932373047 C 14.69497203826904 70.19261932373047 14.91040229797363 70.42927551269531 14.91040229797363 70.7203369140625 M 14.43001174926758 71.19261932373047 L 12.49737167358398 71.19261932373047 L 12.62319183349609 70.87806701660156 C 11.50745105743408 70.33101654052734 10.73100185394287 69.12841033935547 10.73100185394287 67.73615264892578 L 10.73100185394287 65.43482208251953 C 10.73100185394287 64.83761596679688 10.87543201446533 64.24826049804688 11.14867210388184 63.73044967651367 C 11.28393173217773 63.47390747070312 11.28431224822998 63.14352798461914 11.14948177337646 62.88905715942383 C 10.87496185302734 62.36515045166016 10.73100185394287 61.77668762207031 10.73100185394287 61.18317794799805 L 10.73100185394287 59.24363708496094 C 10.73100185394287 57.35730743408203 11.55159187316895 55.53907012939453 12.92609214782715 54.37985992431641 L 15.91042232513428 51.86496734619141 L 15.91042232513428 55.85121917724609 L 14.8196325302124 56.77108001708984 C 14.13121223449707 57.34851837158203 13.72142219543457 58.27119827270508 13.72142219543457 59.24094009399414 L 13.72142219543457 61.18047714233398 C 13.72142219543457 61.26108932495117 13.73961162567139 61.33966827392578 13.77263164520264 61.40173721313477 C 14.39375114440918 62.57503509521484 14.39451122283936 64.03011322021484 13.77578926086426 65.20223999023438 C 13.74071502685547 65.27060699462891 13.72142219543457 65.3511962890625 13.72142219543457 65.42948150634766 L 13.72142219543457 67.73078918457031 C 13.72142219543457 67.9447021484375 13.85498237609863 68.10453033447266 13.97440242767334 68.10453033447266 L 14.43002223968506 68.10453033447266 C 14.70308208465576 68.10453033447266 14.98374176025391 68.1583251953125 15.26422214508057 68.26441955566406 L 15.91040229797363 68.50886535644531 L 15.91040229797363 70.7203369140625 L 13.97446250915527 70.7203369140625 L 13.97446250915527 70.94734954833984 C 14.06292533874512 71.09342956542969 14.23396301269531 71.19261932373047 14.43001174926758 71.19261932373047 Z" stroke="none" fill="#64ffc5"/>
      </g>
    </g>
  </g>
</svg>
