<svg xmlns="http://www.w3.org/2000/svg" width="78.04" height="71.95" viewBox="0 0 78.04 71.95">
  <g id="noun-fleet-management-5747249" transform="translate(-0.684 -4.6)">
    <path id="Path_285" data-name="Path 285" d="M39.719,31.67A9.188,9.188,0,0,0,48.9,22.489c-.475-12.11-17.81-12.11-18.284,0A9.071,9.071,0,0,0,39.719,31.67Zm0-16.7a7.6,7.6,0,0,1,7.6,7.6c-.475,9.973-14.723,9.973-15.2-.079A7.533,7.533,0,0,1,39.719,14.969ZM23.493,26.684h2.216a12.186,12.186,0,0,0,1.187,2.77l-1.583,1.583a1.722,1.722,0,0,0,0,2.375l3.562,3.483a1.722,1.722,0,0,0,2.375,0l1.583-1.583A17.172,17.172,0,0,0,35.6,36.5v2.216a1.672,1.672,0,0,0,1.662,1.662h4.987a1.672,1.672,0,0,0,1.662-1.662V36.5a12.186,12.186,0,0,0,2.77-1.187l1.583,1.583a1.722,1.722,0,0,0,2.375,0l3.483-3.483a1.722,1.722,0,0,0,0-2.375l-1.583-1.583a17.172,17.172,0,0,0,1.187-2.77h2.216a1.672,1.672,0,0,0,1.662-1.662V20.035a1.672,1.672,0,0,0-1.662-1.662H53.729a12.187,12.187,0,0,0-1.187-2.77l1.583-1.583a1.722,1.722,0,0,0,0-2.375L50.563,8.083a1.722,1.722,0,0,0-2.375,0L46.606,9.666a17.172,17.172,0,0,0-2.77-1.187V6.262A1.672,1.672,0,0,0,42.173,4.6H37.186a1.672,1.672,0,0,0-1.662,1.662V8.479a17.172,17.172,0,0,0-2.77,1.187L31.171,8.083a1.722,1.722,0,0,0-2.375,0l-3.562,3.562a1.722,1.722,0,0,0,0,2.375L26.817,15.6a17.172,17.172,0,0,0-1.187,2.77H23.414a1.672,1.672,0,0,0-1.662,1.662v4.987A1.743,1.743,0,0,0,23.493,26.684Zm-.158-6.649a.078.078,0,0,1,.079-.079h2.85a.771.771,0,0,0,.792-.633A13.437,13.437,0,0,1,28.48,15.84a.732.732,0,0,0-.158-.95l-1.9-2.058c0-.079-.079-.079,0-.158l3.562-3.562h.158l1.979,1.979a.842.842,0,0,0,.95.158,14.671,14.671,0,0,1,3.483-1.425.852.852,0,0,0,.633-.792V6.262a.078.078,0,0,1,.079-.079h4.987a.078.078,0,0,1,.079.079v2.85a.771.771,0,0,0,.633.792,13.437,13.437,0,0,1,3.483,1.425.732.732,0,0,0,.95-.158l1.979-1.979h.158l3.483,3.562v.158L51.038,14.89a.842.842,0,0,0-.158.95A14.671,14.671,0,0,1,52.3,19.323a.852.852,0,0,0,.792.633h2.85a.078.078,0,0,1,.079.079v4.987a.078.078,0,0,1-.079.079H53.1a.771.771,0,0,0-.792.633,14.671,14.671,0,0,1-1.425,3.483.732.732,0,0,0,.158.95l1.979,1.979V32.3l-3.483,3.483.554.554c-.475-.317-2.3-2.137-2.691-2.533a.842.842,0,0,0-.95-.158,14.671,14.671,0,0,1-3.483,1.425.852.852,0,0,0-.633.792v2.85a.078.078,0,0,1-.079.079H37.266a.078.078,0,0,1-.079-.079v-2.85a.771.771,0,0,0-.633-.792,14.671,14.671,0,0,1-3.483-1.425.732.732,0,0,0-.95.158l-1.979,1.979.554.554c-.4-.237-3.8-3.641-4.2-4.116,0-.079-.079-.079,0-.158l1.979-1.979a.842.842,0,0,0,.158-.95,14.671,14.671,0,0,1-1.425-3.483.852.852,0,0,0-.792-.633h-2.85a.078.078,0,0,1-.079-.079V20.035Zm31.424,31.9Zm23.825,2.454a4.85,4.85,0,0,0-1.5-2.533,3.537,3.537,0,0,0,1.5-3.008A1.184,1.184,0,0,0,77.555,47.5c-1.108.079-3.641-.237-4.591.4L70.51,42.989A4.8,4.8,0,0,0,66.236,40.3H51.83a5.121,5.121,0,0,0-4.591,3.324H32.833a1.543,1.543,0,0,0-.633.079,5.083,5.083,0,0,0-4.591-3.4H13.282a4.9,4.9,0,0,0-4.274,2.691L6.475,47.9c-.95-.712-3.483-.317-4.591-.4A1.1,1.1,0,0,0,.855,48.847a3.744,3.744,0,0,0,1.5,3.008,4.409,4.409,0,0,0-1.5,2.375c-.554,1.5.4,4.908.633,6.411v6.728a2.113,2.113,0,0,0,2.058,2.137H7.108a2.039,2.039,0,0,0,1.979-1.741H19.614v6.411a2.354,2.354,0,0,0,2.216,2.375h4.037a2.355,2.355,0,0,0,2.216-1.979H53.967a2.29,2.29,0,0,0,2.216,1.979H60.22a2.3,2.3,0,0,0,2.216-2.375V67.764h7.994a2.03,2.03,0,0,0,1.979,1.741h3.562a2.113,2.113,0,0,0,2.058-2.137V60.641C78.188,59.137,79.058,55.733,78.584,54.387Zm-4.037-5.3H77a1.725,1.725,0,0,1-1.662,1.662h-.95l-.712-1.425A1.6,1.6,0,0,1,74.547,49.084Zm-22.717-7.2H66.157a3.322,3.322,0,0,1,2.85,1.821s2.85,5.7,2.929,5.7l.633,1.266H55.946L53.888,46.63a5.517,5.517,0,0,0-4.828-3.008A3.383,3.383,0,0,1,51.83,41.881Zm-19,3.324H49.139a3.8,3.8,0,0,1,3.324,2.137c1.029,2.058,3.087,6.095,4.116,8.074H25.393c.475-.871,1.346-2.691,1.821-3.562C28.717,49.48,29.429,45.364,32.833,45.206ZM53.017,59.532a3.783,3.783,0,0,0-2.058,2.216c0-.079,0-.079.079-.158a1.491,1.491,0,0,0-.158.633,3.429,3.429,0,0,1,.079-.4.861.861,0,0,0-.079.4H31.092a3.377,3.377,0,0,0-6.649-.158,7.565,7.565,0,0,1-3.879-2.612,3.524,3.524,0,0,1,3.562-2.375h33.4a3.58,3.58,0,0,1,3.879,2.375,8.12,8.12,0,0,1-3.879,2.533A3.4,3.4,0,0,0,53.017,59.532Zm3.087,3.4c-.079,2.77-3.641,2.77-3.72,0C52.463,60.166,56.025,60.166,56.1,62.936Zm-26.516,0c-.079,2.77-3.641,2.77-3.72,0C25.947,60.166,29.508,60.166,29.588,62.936ZM7.5,49.48c0-.079,2.929-5.7,2.929-5.778a3.091,3.091,0,0,1,2.85-1.821H27.609a3.466,3.466,0,0,1,3.087,2.3c-2.533,1.346-3.324,4.2-4.591,6.57H6.871Zm-2.612-.4a1.6,1.6,0,0,1,.871.237L5.05,50.746H4.1a1.784,1.784,0,0,1-1.662-1.662ZM7.029,67.923H3.467c-.554,0-.4-1.029-.475-1.425a2.936,2.936,0,0,0,1.9,1.108,12.727,12.727,0,0,0,2.454.079C7.266,67.844,7.187,67.923,7.029,67.923ZM5.6,66.1a2.11,2.11,0,0,1-1.9-1.9l-.633-3.879v-.158l-.633-3.8a8.235,8.235,0,0,0,3.324,1.662,3.09,3.09,0,0,0,6.095.158h7.6a4.842,4.842,0,0,0-.4.95H18.031a4.2,4.2,0,0,0-3.958,2.3l-.95,2.216a.744.744,0,0,0,.079.712.807.807,0,0,0,.633.4h5.62l.237,1.266H5.6Zm1.583-8.628c0-1.266,1.187-2.216,2.216-1.583,1.266.792.95,3.324-.712,3.324A1.671,1.671,0,0,1,7.187,57.474Zm4.591-.4a3.018,3.018,0,0,1-.079,1.187A2.036,2.036,0,0,0,11.778,57.079Zm6.965,4.2h0c0,.4.237,1.583.317,2.058H14.944l.475-1.187A2.661,2.661,0,0,1,17.952,60.8h.792Q18.744,61.036,18.744,61.274Zm-6.965-4.591c0,.158.079.237.079.4a3.1,3.1,0,0,0-6.095-.554,6.658,6.658,0,0,1-3.245-2.216,2.883,2.883,0,0,1,2.375-1.979H25.234A27.06,27.06,0,0,1,23.176,55.5,4.565,4.565,0,0,0,20.564,56.6H11.778ZM25.867,74.967H21.831c-.871,0-.554-1.425-.633-1.979,1.187,1.741,3.4,1.662,5.224,1.583C26.263,74.73,26.1,74.967,25.867,74.967Zm34.907-.792a.782.782,0,0,1-.633.792H56.1a.6.6,0,0,1-.554-.4,5.936,5.936,0,0,0,1.187,0,4.148,4.148,0,0,0,4.037-1.583Zm.792-12.506c-.237,1.583-.554,3.087-.792,4.67l-.792,4.433a2.512,2.512,0,0,1-2.216,2.216H24.205a2.517,2.517,0,0,1-2.3-2.216c-.237-1.5-.871-5.3-1.187-6.728l-.4-2.375a8.67,8.67,0,0,0,3.958,2.058,3.4,3.4,0,0,0,6.728.158H50.8v-.95c.079,4.433,5.937,5.066,6.807.712a8.918,8.918,0,0,0,3.958-1.979Zm-.237-4.987A5.074,5.074,0,0,0,58.32,55.5l-1.583-3.166h17.81a2.883,2.883,0,0,1,2.375,1.979,6.345,6.345,0,0,1-3.245,2.137,3,3,0,0,0-.475-1.029h0a3.028,3.028,0,0,0-5.541,1.108C67.66,56.683,61.328,56.683,61.328,56.683Zm12.11-.871c0-.079-.079-.158-.158-.237C73.359,55.654,73.439,55.733,73.439,55.812Zm-1.187,1.662a1.553,1.553,0,1,1-3.087,0C69.243,55.179,72.172,55.021,72.251,57.474Zm4.116,9.815a.529.529,0,0,1-.475.554H72.33a.411.411,0,0,1-.317-.158,13.345,13.345,0,0,0,2.533-.079A3.367,3.367,0,0,0,76.367,66.5Zm.079-7.045V60.4l-.633,3.879a2.038,2.038,0,0,1-1.9,1.9H62.436l.237-1.266h3.087a.8.8,0,0,0,.712-1.108l-.95-2.216a3.878,3.878,0,0,0-2.375-2.058h0a3.123,3.123,0,0,0-.475-1.187H67.74a3.085,3.085,0,0,0,6.095-.158,8.772,8.772,0,0,0,3.324-1.662ZM62.911,63.253a17.142,17.142,0,0,0,.317-1.979c.712.4.95,1.346,1.266,1.979Zm6.095-8.628-.079.079.079-.079Zm-65.7,2.533a1.093,1.093,0,0,1,.317.237,1.656,1.656,0,0,0-.475-.317C3.23,57.079,3.309,57.079,3.309,57.158Zm6.253-2.929ZM48.189,67.606a4.635,4.635,0,0,0-4.353-2.533h-5.7A4.844,4.844,0,0,0,33.7,67.606L32.6,70.139a.8.8,0,0,0,.712,1.108H48.426a.8.8,0,0,0,.712-1.108A20.251,20.251,0,0,0,48.189,67.606ZM34.653,69.664l.633-1.425a3.093,3.093,0,0,1,2.929-1.583h5.62a3.093,3.093,0,0,1,2.929,1.583l.633,1.425Z" fill="#00b26b"/>
  </g>
</svg>