<svg xmlns="http://www.w3.org/2000/svg" width="69.84" height="71.427" viewBox="0 0 69.84 71.427">
  <g id="noun-hotels-1650624" transform="translate(-6 -5)">
    <g id="Group_91" data-name="Group 91" transform="translate(6 5)">
      <path id="Path_287" data-name="Path 287" d="M58.156,957.391l-26.19,7.936a.817.817,0,0,0-.57.769v13.764L6.446,991.565a.812.812,0,0,0-.446.719V1028a.825.825,0,0,0,.794.794H75.046a.825.825,0,0,0,.794-.794V966.889a.812.812,0,0,0-.422-.719l-16.666-8.73A.92.92,0,0,0,58.156,957.391Zm-.57,1.81v20.981l-18.08-3.77c-.182-.138-.333.033-.5.05l-6.027,2.678V966.666Zm1.587.273,15.079,7.886V1027.2H59.173V959.474Zm3.175,13.764v6.349h3.175v-6.349Zm5.555,0v6.349h3.175v-6.349Zm-27.777,4.935,17.46,3.646V1027.2H40.126Zm-1.587.248V1027.2H7.587V992.8c10.289-4.862,20.555-9.778,30.952-14.384Zm23.809,4.34v6.349h3.175v-6.349Zm5.555,0v6.349h3.175v-6.349Zm-25.4,1.587V990.7h3.175v-6.349Zm4.762,0V990.7h3.175v-6.349Zm4.762,0V990.7h3.175v-6.349Zm-9.524,7.936v6.349h3.175v-6.349Zm4.762,0v6.349h3.175v-6.349Zm4.762,0v6.349h3.175v-6.349Zm10.317,0v6.349h3.175v-6.349Zm5.555,0v6.349h3.175v-6.349Zm-25.4,9.523v6.349h3.175v-6.349Zm4.762,0v6.349h3.175v-6.349Zm4.762,0v6.349h3.175v-6.349Zm10.317,0v6.349h3.175v-6.349Zm5.555,0v6.349h3.175v-6.349Zm-25.4,9.523v6.349h3.175v-6.349Zm4.762,0v6.349h3.175v-6.349Zm4.762,0v6.349h3.175v-6.349Zm10.317,0v6.349h3.175v-6.349Zm5.555,0v6.349h3.175v-6.349Z" transform="translate(-6 -957.362)" fill="#00b26b"/>
    </g>
  </g>
</svg>