<svg xmlns="http://www.w3.org/2000/svg" width="56.702" height="60.921" viewBox="0 0 56.702 60.921">
  <g id="noun-retail-7177156" transform="translate(-6.318 -3.078)">
    <path id="Path_286" data-name="Path 286" d="M59.158,26.419V39.445a1.3,1.3,0,0,1-2.6,0V26.419a4.6,4.6,0,0,1-1.651-1.058,6.227,6.227,0,0,1-.916-1.146,6.223,6.223,0,0,1-.916,1.146,4.031,4.031,0,0,1-5.9,0,6.228,6.228,0,0,1-.916-1.146,6.223,6.223,0,0,1-.916,1.146,4.031,4.031,0,0,1-5.9,0,6.227,6.227,0,0,1-.916-1.146,6.223,6.223,0,0,1-.916,1.146,4.031,4.031,0,0,1-5.9,0,6.227,6.227,0,0,1-.916-1.146,6.223,6.223,0,0,1-.916,1.146,4.031,4.031,0,0,1-5.9,0,6.227,6.227,0,0,1-.916-1.146,6.223,6.223,0,0,1-.916,1.146,4.031,4.031,0,0,1-5.9,0,6.227,6.227,0,0,1-.916-1.146,6.223,6.223,0,0,1-.916,1.146,4.621,4.621,0,0,1-1.633,1.053V61.405H28.283V46.489a1.3,1.3,0,0,1,1.3-1.3H39.762a1.3,1.3,0,0,1,1.3,1.3V61.405H56.552V48.151a1.3,1.3,0,0,1,2.6,0V62.7a1.3,1.3,0,0,1-1.3,1.3H11.493a1.3,1.3,0,0,1-1.3-1.3V26.425a4.588,4.588,0,0,1-1.666-1.063,7.2,7.2,0,0,1-1.76-3.008A10.324,10.324,0,0,1,6.337,18.7V8.453A5.352,5.352,0,0,1,7.912,4.666l.008-.008A5.361,5.361,0,0,1,11.7,3.083h.8a1.3,1.3,0,1,1,0,2.6h-.8A2.775,2.775,0,0,0,8.929,8.45V17.4H60.413V8.45a2.788,2.788,0,0,0-2.775-2.775H21.21a1.3,1.3,0,0,1,0-2.6H57.638a5.378,5.378,0,0,1,5.369,5.369V18.717a10.5,10.5,0,0,1-.454,3.642,7.252,7.252,0,0,1-1.76,3,4.552,4.552,0,0,1-1.651,1.058ZM25.21,11.344a1.3,1.3,0,1,1,0-2.6H44.156a1.3,1.3,0,0,1,0,2.6ZM30.315,39.91a1.3,1.3,0,0,1,0-2.6h8.727a1.3,1.3,0,1,1,0,2.6Zm0-5.184a1.3,1.3,0,0,1,0-2.6h8.727a1.3,1.3,0,1,1,0,2.6Zm5.664,13.062V61.4h2.493V47.787ZM30.889,61.4h2.493V47.787H30.889ZM49.216,44.44a4.884,4.884,0,0,1,4.877,4.877v5.3a1.3,1.3,0,0,1-1.3,1.3H45.638a1.3,1.3,0,0,1-1.3-1.3v-5.3a4.893,4.893,0,0,1,4.877-4.875Zm0,2.6a2.274,2.274,0,0,0-1.611.67,2.244,2.244,0,0,0-.67,1.608v4H51.5v-4a2.286,2.286,0,0,0-2.278-2.278Zm0-17.772a4.884,4.884,0,0,1,4.877,4.877v5.3a1.3,1.3,0,0,1-1.3,1.3H45.638a1.3,1.3,0,0,1-1.3-1.3v-5.3a4.893,4.893,0,0,1,4.877-4.877Zm0,2.6a2.274,2.274,0,0,0-1.611.67,2.244,2.244,0,0,0-.67,1.608v4H51.5v-4a2.286,2.286,0,0,0-2.278-2.28ZM20.14,44.442a4.893,4.893,0,0,1,4.877,4.877v5.3a1.3,1.3,0,0,1-1.3,1.3H16.562a1.3,1.3,0,0,1-1.3-1.3v-5.3a4.893,4.893,0,0,1,4.877-4.875Zm0,2.6a2.277,2.277,0,0,0-2.283,2.28v4h4.563v-4a2.277,2.277,0,0,0-2.28-2.28Zm0-17.772a4.884,4.884,0,0,1,4.877,4.877v5.3a1.3,1.3,0,0,1-1.3,1.3H16.562a1.3,1.3,0,0,1-1.3-1.3v-5.3a4.884,4.884,0,0,1,4.877-4.877Zm0,2.6a2.286,2.286,0,0,0-2.28,2.278v4h4.563v-4a2.286,2.286,0,0,0-2.278-2.278ZM8.945,20a7.344,7.344,0,0,0,.307,1.585,4.64,4.64,0,0,0,1.088,1.925,1.675,1.675,0,0,0,1.144.543H11.5a1.688,1.688,0,0,0,1.126-.543,4.614,4.614,0,0,0,1.088-1.922A7.558,7.558,0,0,0,14.03,20H8.943Zm7.721,0a7.558,7.558,0,0,0,.315,1.588,4.669,4.669,0,0,0,1.088,1.922,1.477,1.477,0,0,0,2.288,0,4.617,4.617,0,0,0,1.091-1.922A7.558,7.558,0,0,0,21.761,20h-5.1Zm7.728,0a7.558,7.558,0,0,0,.315,1.588A4.644,4.644,0,0,0,25.8,23.512a1.477,1.477,0,0,0,2.288,0,4.614,4.614,0,0,0,1.088-1.922A7.558,7.558,0,0,0,29.489,20h-5.1Zm7.728,0a7.559,7.559,0,0,0,.315,1.588,4.669,4.669,0,0,0,1.088,1.922,1.477,1.477,0,0,0,2.288,0A4.614,4.614,0,0,0,36.9,21.59,7.558,7.558,0,0,0,37.214,20h-5.1Zm7.728,0a7.559,7.559,0,0,0,.314,1.588,4.669,4.669,0,0,0,1.088,1.922,1.477,1.477,0,0,0,2.288,0,4.614,4.614,0,0,0,1.088-1.922A7.559,7.559,0,0,0,44.942,20h-5.1Zm7.728,0a7.558,7.558,0,0,0,.315,1.588,4.669,4.669,0,0,0,1.088,1.922,1.477,1.477,0,0,0,2.288,0,4.617,4.617,0,0,0,1.091-1.922A7.559,7.559,0,0,0,52.673,20h-5.1ZM55.3,20a7.558,7.558,0,0,0,.315,1.588,4.644,4.644,0,0,0,1.091,1.922,1.477,1.477,0,0,0,2.288,0,4.617,4.617,0,0,0,1.091-1.922A7.559,7.559,0,0,0,60.4,20H55.3ZM16.639,5.687a1.3,1.3,0,1,1,0-2.6h.454a1.3,1.3,0,1,1,0,2.6ZM56.555,43.577a1.3,1.3,0,1,1,2.6,0v.454a1.3,1.3,0,0,1-2.6,0Z" fill="#00b26b"/>
  </g>
</svg>