<svg xmlns="http://www.w3.org/2000/svg" width="67.913" height="67.641" viewBox="0 0 67.913 67.641">
  <g id="noun-city-1121843" transform="translate(-10 -10)">
    <path id="Path_241" data-name="Path 241" d="M81.539,22.425a5.76,5.76,0,1,0-5.76,5.76A5.767,5.767,0,0,0,81.539,22.425Zm-5.76,4.066a4.067,4.067,0,1,1,4.067-4.067A4.072,4.072,0,0,1,75.779,26.491Z" transform="translate(-9.217 -1.023)" fill="#00b26b"/>
    <path id="Path_242" data-name="Path 242" d="M76.868,75.948H73.654V36.239a.845.845,0,0,0-.744-.84L52.7,32.933a.822.822,0,0,0-.664.206.849.849,0,0,0-.285.634V39.9l-11.2,1.842a.846.846,0,0,0-.709.835V56.531H36.274V10.846A.846.846,0,0,0,35.427,10H15.217a.846.846,0,0,0-.846.846v65.1H10.846a.846.846,0,1,0,0,1.693H76.868a.846.846,0,1,0,0-1.693ZM53.443,34.729l18.518,2.26V75.948h-6.2V72.459a3.77,3.77,0,1,0-1.693,0v3.489h-4.89V39.677a.848.848,0,0,0-.3-.646.839.839,0,0,0-.685-.19l-4.748.78V34.729ZM64.912,70.871a2.078,2.078,0,1,1,2.077-2.078A2.08,2.08,0,0,1,64.912,70.871Zm-7.429-30.2V75.948H53.63V71.363a4.124,4.124,0,0,0-8.248,0v4.585H41.529V73.1a3.792,3.792,0,0,0,1.164-6.844,3.252,3.252,0,0,0-1.164-5.63V43.3ZM51.937,75.948H47.075V71.363a2.431,2.431,0,1,1,4.862,0v4.585ZM40.592,62.161A1.59,1.59,0,1,1,39,63.751,1.591,1.591,0,0,1,40.592,62.161Zm0,5.145a2.113,2.113,0,1,1-2.114,2.114A2.116,2.116,0,0,1,40.592,67.306Zm-.756-6.742a3.259,3.259,0,0,0-1.346,5.686,3.8,3.8,0,0,0,1.346,6.9v2.8H31.29V72.459a3.763,3.763,0,0,0,1.247-6.8,3.253,3.253,0,1,0-4.186,0,3.763,3.763,0,0,0,1.247,6.8v3.489H22.749V73.105a3.355,3.355,0,0,0,1.145-5.968,2.906,2.906,0,0,0-1.145-4.924V58.224H39.837Zm-9.393,4.187A1.56,1.56,0,1,1,32,63.192,1.562,1.562,0,0,1,30.444,64.752Zm0,1.964a2.078,2.078,0,1,1-2.077,2.077A2.08,2.08,0,0,1,30.444,66.716ZM21.9,63.767A1.236,1.236,0,1,1,20.667,65,1.237,1.237,0,0,1,21.9,63.767Zm0,4.4a1.683,1.683,0,1,1-1.684,1.683A1.685,1.685,0,0,1,21.9,68.166ZM16.063,11.693H34.581V56.532H21.9a.846.846,0,0,0-.846.846v4.836a2.906,2.906,0,0,0-1.145,4.924,3.355,3.355,0,0,0,1.145,5.968v2.843H16.064V11.693Z" fill="#00b26b"/>
    <path id="Path_243" data-name="Path 243" d="M22.782,31.827a.846.846,0,0,0,.846-.846V26.692a.846.846,0,1,0-1.693,0V30.98A.846.846,0,0,0,22.782,31.827Z" transform="translate(-1.833 -2.434)" fill="#00b26b"/>
    <path id="Path_244" data-name="Path 244" d="M27.948,31.827a.846.846,0,0,0,.846-.846V26.692a.846.846,0,1,0-1.693,0V30.98A.846.846,0,0,0,27.948,31.827Z" transform="translate(-2.626 -2.434)" fill="#00b26b"/>
    <path id="Path_245" data-name="Path 245" d="M33.115,31.827a.846.846,0,0,0,.846-.846V26.692a.846.846,0,1,0-1.693,0V30.98A.846.846,0,0,0,33.115,31.827Z" transform="translate(-3.42 -2.434)" fill="#00b26b"/>
    <path id="Path_246" data-name="Path 246" d="M22.782,41.84a.846.846,0,0,0,.846-.846V36.705a.846.846,0,0,0-1.693,0v4.288A.846.846,0,0,0,22.782,41.84Z" transform="translate(-1.833 -3.971)" fill="#00b26b"/>
    <path id="Path_247" data-name="Path 247" d="M27.948,41.84a.846.846,0,0,0,.846-.846V36.705a.846.846,0,0,0-1.693,0v4.288A.846.846,0,0,0,27.948,41.84Z" transform="translate(-2.626 -3.971)" fill="#00b26b"/>
    <path id="Path_248" data-name="Path 248" d="M33.115,41.84a.846.846,0,0,0,.846-.846V36.705a.846.846,0,0,0-1.693,0v4.288A.846.846,0,0,0,33.115,41.84Z" transform="translate(-3.42 -3.971)" fill="#00b26b"/>
    <path id="Path_249" data-name="Path 249" d="M22.782,21.814a.846.846,0,0,0,.846-.846V16.679a.846.846,0,0,0-1.693,0v4.288A.846.846,0,0,0,22.782,21.814Z" transform="translate(-1.833 -0.896)" fill="#00b26b"/>
    <path id="Path_250" data-name="Path 250" d="M27.948,21.814a.846.846,0,0,0,.846-.846V16.679a.846.846,0,1,0-1.693,0v4.288A.846.846,0,0,0,27.948,21.814Z" transform="translate(-2.626 -0.896)" fill="#00b26b"/>
    <path id="Path_251" data-name="Path 251" d="M33.115,21.814a.846.846,0,0,0,.846-.846V16.679a.846.846,0,1,0-1.693,0v4.288A.846.846,0,0,0,33.115,21.814Z" transform="translate(-3.42 -0.896)" fill="#00b26b"/>
    <path id="Path_252" data-name="Path 252" d="M52.09,71.965h7.5a.846.846,0,1,0,0-1.693h-7.5a.846.846,0,1,0,0,1.693Z" transform="translate(-6.334 -9.256)" fill="#00b26b"/>
    <path id="Path_253" data-name="Path 253" d="M52.09,66.5h7.5a.846.846,0,1,0,0-1.693h-7.5a.846.846,0,1,0,0,1.693Z" transform="translate(-6.334 -8.417)" fill="#00b26b"/>
    <path id="Path_254" data-name="Path 254" d="M52.09,61.038h7.5a.846.846,0,0,0,0-1.693h-7.5a.846.846,0,1,0,0,1.693Z" transform="translate(-6.334 -7.578)" fill="#00b26b"/>
    <path id="Path_255" data-name="Path 255" d="M52.09,55.573h7.5a.846.846,0,0,0,0-1.693h-7.5a.846.846,0,1,0,0,1.693Z" transform="translate(-6.334 -6.739)" fill="#00b26b"/>
    <path id="Path_256" data-name="Path 256" d="M22.782,51.853a.846.846,0,0,0,.846-.846V46.718a.846.846,0,0,0-1.693,0v4.288A.846.846,0,0,0,22.782,51.853Z" transform="translate(-1.833 -5.509)" fill="#00b26b"/>
    <path id="Path_257" data-name="Path 257" d="M27.948,51.853a.846.846,0,0,0,.846-.846V46.718a.846.846,0,0,0-1.693,0v4.288A.847.847,0,0,0,27.948,51.853Z" transform="translate(-2.626 -5.509)" fill="#00b26b"/>
    <path id="Path_258" data-name="Path 258" d="M33.115,51.853a.846.846,0,0,0,.846-.846V46.718a.846.846,0,0,0-1.693,0v4.288A.846.846,0,0,0,33.115,51.853Z" transform="translate(-3.42 -5.509)" fill="#00b26b"/>
    <path id="Path_259" data-name="Path 259" d="M22.782,61.434a.846.846,0,0,0,.846-.846V56.3a.846.846,0,1,0-1.693,0v4.288A.846.846,0,0,0,22.782,61.434Z" transform="translate(-1.833 -6.98)" fill="#00b26b"/>
    <path id="Path_260" data-name="Path 260" d="M27.948,61.434a.846.846,0,0,0,.846-.846V56.3a.846.846,0,1,0-1.693,0v4.288A.847.847,0,0,0,27.948,61.434Z" transform="translate(-2.626 -6.98)" fill="#00b26b"/>
    <path id="Path_261" data-name="Path 261" d="M33.115,61.434a.846.846,0,0,0,.846-.846V56.3a.846.846,0,1,0-1.693,0v4.288A.846.846,0,0,0,33.115,61.434Z" transform="translate(-3.42 -6.98)" fill="#00b26b"/>
    <path id="Path_262" data-name="Path 262" d="M72.138,52.068a.846.846,0,0,0,.846-.846V46.933a.846.846,0,1,0-1.693,0v4.288A.846.846,0,0,0,72.138,52.068Z" transform="translate(-9.413 -5.542)" fill="#00b26b"/>
    <path id="Path_263" data-name="Path 263" d="M77.517,13.333V10.846a.846.846,0,0,0-1.693,0v2.487a.846.846,0,0,0,1.693,0Z" transform="translate(-10.109)" fill="#00b26b"/>
    <path id="Path_264" data-name="Path 264" d="M81.306,10.894a.848.848,0,0,0-1.094.484l-.9,2.319a.846.846,0,0,0,1.579.609l.9-2.319A.847.847,0,0,0,81.306,10.894Z" transform="translate(-10.636 -0.129)" fill="#00b26b"/>
    <path id="Path_265" data-name="Path 265" d="M82.509,16.55a.846.846,0,0,0,1.2-.058l1.671-1.84a.846.846,0,0,0-1.254-1.138l-1.671,1.84A.846.846,0,0,0,82.509,16.55Z" transform="translate(-11.093 -0.497)" fill="#00b26b"/>
    <path id="Path_266" data-name="Path 266" d="M85.57,19.595l2.222-1.115a.846.846,0,0,0-.759-1.513L84.81,18.082a.847.847,0,0,0,.381,1.6A.857.857,0,0,0,85.57,19.595Z" transform="translate(-11.417 -1.056)" fill="#00b26b"/>
    <path id="Path_267" data-name="Path 267" d="M88.551,21.272l-2.474.24a.846.846,0,0,0,.08,1.689c.027,0,.054,0,.082,0l2.474-.24a.846.846,0,1,0-.163-1.684Z" transform="translate(-11.566 -1.731)" fill="#00b26b"/>
    <path id="Path_268" data-name="Path 268" d="M88.247,27.391a.846.846,0,0,0,.227-1.661l-2.395-.668a.846.846,0,1,0-.455,1.629l2.395.668A.82.82,0,0,0,88.247,27.391Z" transform="translate(-11.519 -2.308)" fill="#00b26b"/>
    <path id="Path_269" data-name="Path 269" d="M86.305,31.345a.846.846,0,0,0,.507-1.524l-1.993-1.486a.846.846,0,1,0-1.011,1.357L85.8,31.178A.845.845,0,0,0,86.305,31.345Z" transform="translate(-11.283 -2.79)" fill="#00b26b"/>
    <path id="Path_270" data-name="Path 270" d="M82.354,33.939a.846.846,0,1,0,1.433-.9l-1.324-2.1a.846.846,0,1,0-1.433.9Z" transform="translate(-10.888 -3.154)" fill="#00b26b"/>
    <path id="Path_271" data-name="Path 271" d="M78.337,31.84a.846.846,0,0,0-.669.993l.477,2.44a.847.847,0,0,0,.829.685.835.835,0,0,0,.163-.016.846.846,0,0,0,.669-.993l-.477-2.44A.843.843,0,0,0,78.337,31.84Z" transform="translate(-10.39 -3.352)" fill="#00b26b"/>
    <path id="Path_272" data-name="Path 272" d="M74.094,32.554,73.66,35a.847.847,0,0,0,.686.981.813.813,0,0,0,.149.014.847.847,0,0,0,.833-.7l.434-2.448a.847.847,0,0,0-1.667-.3Z" transform="translate(-9.774 -3.356)" fill="#00b26b"/>
    <path id="Path_273" data-name="Path 273" d="M69.779,34.323a.846.846,0,0,0,1.163-.285l1.287-2.128a.847.847,0,0,0-1.449-.876l-1.287,2.128A.845.845,0,0,0,69.779,34.323Z" transform="translate(-9.118 -3.168)" fill="#00b26b"/>
    <path id="Path_274" data-name="Path 274" d="M66.806,31.514a.841.841,0,0,0,.517-.177l1.967-1.521a.847.847,0,0,0-1.036-1.339L66.287,30a.847.847,0,0,0,.519,1.516Z" transform="translate(-8.594 -2.81)" fill="#00b26b"/>
    <path id="Path_275" data-name="Path 275" d="M64.72,27.594a.855.855,0,0,0,.242-.036l2.383-.71a.846.846,0,1,0-.483-1.622l-2.383.71a.846.846,0,0,0,.241,1.657Z" transform="translate(-8.274 -2.333)" fill="#00b26b"/>
    <path id="Path_276" data-name="Path 276" d="M63.4,22.266a.847.847,0,0,0,.777.911l2.478.2.068,0a.846.846,0,0,0,.066-1.69l-2.478-.2A.85.85,0,0,0,63.4,22.266Z" transform="translate(-8.2 -1.764)" fill="#00b26b"/>
    <path id="Path_277" data-name="Path 277" d="M64.666,17.554a.846.846,0,0,0,.4,1.129L67.3,19.759a.846.846,0,1,0,.732-1.525l-2.241-1.076A.847.847,0,0,0,64.666,17.554Z" transform="translate(-8.382 -1.086)" fill="#00b26b"/>
    <path id="Path_278" data-name="Path 278" d="M68.744,13.652a.847.847,0,1,0-1.233,1.16l1.7,1.811a.847.847,0,1,0,1.233-1.16Z" transform="translate(-8.797 -0.52)" fill="#00b26b"/>
    <path id="Path_279" data-name="Path 279" d="M72.91,14.914a.845.845,0,0,0,.783-1.166l-.936-2.3a.846.846,0,1,0-1.568.638l.936,2.3A.848.848,0,0,0,72.91,14.914Z" transform="translate(-9.388 -0.141)" fill="#00b26b"/>
    <path id="Path_280" data-name="Path 280" d="M77.3,52.068a.846.846,0,0,0,.846-.846V46.933a.846.846,0,0,0-1.693,0v4.288A.846.846,0,0,0,77.3,52.068Z" transform="translate(-10.206 -5.542)" fill="#00b26b"/>
    <path id="Path_281" data-name="Path 281" d="M72.138,62.081a.846.846,0,0,0,.846-.846V56.946a.846.846,0,1,0-1.693,0v4.288A.846.846,0,0,0,72.138,62.081Z" transform="translate(-9.413 -7.08)" fill="#00b26b"/>
    <path id="Path_282" data-name="Path 282" d="M77.3,62.081a.846.846,0,0,0,.846-.846V56.946a.846.846,0,1,0-1.693,0v4.288A.846.846,0,0,0,77.3,62.081Z" transform="translate(-10.206 -7.08)" fill="#00b26b"/>
    <path id="Path_283" data-name="Path 283" d="M72.138,71.662a.846.846,0,0,0,.846-.846V66.527a.846.846,0,0,0-1.693,0v4.288A.846.846,0,0,0,72.138,71.662Z" transform="translate(-9.413 -8.551)" fill="#00b26b"/>
    <path id="Path_284" data-name="Path 284" d="M77.3,71.662a.846.846,0,0,0,.846-.846V66.527a.846.846,0,0,0-1.693,0v4.288A.846.846,0,0,0,77.3,71.662Z" transform="translate(-10.206 -8.551)" fill="#00b26b"/>
  </g>
</svg>