<svg xmlns="http://www.w3.org/2000/svg" width="184.911" height="213.663" viewBox="0 0 184.911 213.663">
  <g id="noun-thumbs-up-7285263" transform="translate(-45.448 -10.004)">
    <path id="Path_461" data-name="Path 461" d="M130.51,35.125a3.517,3.517,0,0,1-3.516-3.516V13.519a3.516,3.516,0,1,1,7.031,0V31.609A3.517,3.517,0,0,1,130.51,35.125ZM102.54,46.7a3.513,3.513,0,0,0,0-4.976l-12.8-12.8A3.519,3.519,0,0,0,84.763,33.9l12.8,12.8a3.5,3.5,0,0,0,4.966,0ZM90.95,74.674a3.517,3.517,0,0,0-3.516-3.516H69.345a3.516,3.516,0,0,0,0,7.031H87.434A3.517,3.517,0,0,0,90.95,74.674Zm72.5-27.97,12.8-12.8a3.519,3.519,0,0,0-4.976-4.976l-12.8,12.8a3.515,3.515,0,1,0,4.966,4.976Zm31.735,27.97a3.517,3.517,0,0,0-3.516-3.516H173.583a3.516,3.516,0,1,0,0,7.031h18.089A3.517,3.517,0,0,0,195.188,74.674ZM63.637,111.844v105.1a6.567,6.567,0,0,1-6.572,6.551H15.378V105.283H57.065a6.574,6.574,0,0,1,6.572,6.551ZM50,200.142A10.505,10.505,0,1,0,39.5,210.647,10.521,10.521,0,0,0,50,200.142Zm-10.495-3.464a3.464,3.464,0,1,0,3.464,3.464A3.468,3.468,0,0,0,39.507,196.678ZM176.483,168.27h13.479a10.328,10.328,0,1,0,0-20.656H176.483a3.516,3.516,0,0,1,0-7.031h13.479a10.323,10.323,0,1,0,0-20.646H124.738a3.516,3.516,0,1,1,0-7.031h11.455c6.218-13.6,19.79-49.354-3.015-60.851-1.794-.908-3.161-1.168-4.068-.782-2.337,1-4.058,6.635-5.581,11.622-.647,2.128-1.325,4.319-2.1,6.478a83.026,83.026,0,0,1-19.738,30.494,76.869,76.869,0,0,1-31.036,18.82v91.492c4.559,1.408,9.118,3.255,13.906,5.185,10.067,4.079,20.489,8.3,31.244,8.3h60.477a10.328,10.328,0,0,0,0-20.656,3.516,3.516,0,1,1,0-7.031h13.666a10.328,10.328,0,1,0,0-20.656H176.473a3.516,3.516,0,0,1,0-7.031Z" transform="translate(30.07)" fill="#00b26b"/>
  </g>
</svg>
