<svg id="App" xmlns="http://www.w3.org/2000/svg" width="138.546" height="171.109" viewBox="0 0 138.546 171.109">
  <path id="Path_320" data-name="Path 320" d="M126.822,125.028a3.064,3.064,0,0,0-3.074,3.056v2.292a6.137,6.137,0,0,1-6.149,6.111H64.117c.332-14.338,6.214-23.3,14.351-35.65,7.139-9.47,6.119-19.71,2.978-24.628a9.687,9.687,0,0,0-16.075-.98L51.128,94.1V16.222a6.137,6.137,0,0,1,6.149-6.111h8.638v3.7a6.137,6.137,0,0,0,6.149,6.111h30.745a6.137,6.137,0,0,0,6.149-6.111v-3.7H117.6a6.137,6.137,0,0,1,6.149,6.111v37a3.075,3.075,0,0,0,6.149,0v-37A12.273,12.273,0,0,0,117.6,4H57.277a12.273,12.273,0,0,0-12.3,12.222V56.973L14.18,108A26.978,26.978,0,0,0,10.3,121.916v50.137a3.075,3.075,0,0,0,6.15,0V121.916a20.875,20.875,0,0,1,3.005-10.772L44.979,68.851v33.4L29.2,123.163a3.043,3.043,0,0,0,.614,4.278,3.087,3.087,0,0,0,4.3-.611L70.289,78.9a3.427,3.427,0,0,1,5.747.221c3.183,5.442,1.726,12.325-2.711,18.372-8.425,12.79-15.081,22.892-15.375,39.158A31.165,31.165,0,0,1,47.7,159.48a3.042,3.042,0,0,0-.257,4.313,3.088,3.088,0,0,0,4.34.255A36.808,36.808,0,0,0,63.5,142.6H89.176c-2.626,10.661-9.089,12.888-9.46,22.122v7.333a3.075,3.075,0,0,0,6.149,0c.186-3.813-.861-9.7,1.877-12.835a48.98,48.98,0,0,0,7.826-16.62H117.6a12.273,12.273,0,0,0,12.3-12.222C130.017,127.908,129.984,125.206,126.822,125.028ZM72.064,10.111h30.745v3.7H72.064Z" transform="translate(-10.301 -4)" fill="#00b26b"/>
  <path id="Path_321" data-name="Path 321" d="M74.1,15H33.986a8.6,8.6,0,1,0,0,17.191H74.1A8.6,8.6,0,1,0,74.1,15Zm0,11.461H33.986a2.865,2.865,0,1,1,0-5.731H74.1a2.865,2.865,0,1,1,0,5.731Z" transform="translate(22.662 18.862)" fill="#00b26b"/>
  <g id="Group_323" data-name="Group 323" transform="translate(90.478 60.861)">
    <g id="Group_314" data-name="Group 314" transform="translate(8.609 8.784)">
      <path id="Union_1" data-name="Union 1" d="M25.111,30.686l-9.687-10.03L5.737,30.686a3.336,3.336,0,1,1-4.8-4.635l9.849-10.2L.936,5.654a3.337,3.337,0,1,1,4.8-4.635L15.424,11.05,25.111,1.018a3.336,3.336,0,1,1,4.8,4.636l-9.849,10.2,9.849,10.2a3.336,3.336,0,1,1-4.8,4.635Z" transform="translate(0 0.056)" fill="#00b26b"/>
      <g id="Group_1" data-name="Group 1" transform="translate(0.106 0)">
        <rect id="Rectangle_5" data-name="Rectangle 5" width="2.924" height="6.509" rx="1.462" transform="translate(13.814 0)" fill="#00b26b"/>
        <rect id="Rectangle_6" data-name="Rectangle 6" width="2.924" height="6.509" rx="1.462" transform="translate(13.814 25.309)" fill="#00b26b"/>
        <rect id="Rectangle_7" data-name="Rectangle 7" width="2.924" height="6.509" rx="1.462" transform="translate(6.509 14.025) rotate(90)" fill="#00b26b"/>
        <rect id="Rectangle_8" data-name="Rectangle 8" width="2.924" height="6.509" rx="1.462" transform="translate(30.763 14.025) rotate(90)" fill="#00b26b"/>
      </g>
    </g>
    <path id="Path_1" data-name="Path 1" d="M268.319,553.76a6.8,6.8,0,0,1-.686-2.856c.009-4.853,0-9.706,0-14.558,0-.244.012-.489.027-.732a.612.612,0,0,1,.651-.644c.521-.015,1.042-.015,1.562-.007a.741.741,0,0,1,.739.6,3.174,3.174,0,0,1,.106.918q.008,6.424.018,12.848a11.387,11.387,0,0,0,.165,1.942,3.221,3.221,0,0,0,2.976,2.643c.358.017.717.014,1.076.014q16.732,0,33.464,0a8.1,8.1,0,0,0,1.6-.123,3.4,3.4,0,0,0,2.573-3.336c.036-2.67.019-5.341.021-8.011,0-1.889,0-3.778,0-5.667a4.777,4.777,0,0,1,.063-.776c.171-1.024.218-1.093,1.273-1.129,1.689-.058,1.74.162,1.741,1.574,0,4.852.04,9.705-.03,14.557a6.011,6.011,0,0,1-5.046,6.023,7.152,7.152,0,0,1-1.208.153c-11.887,0-23.775.017-35.662-.021A6,6,0,0,1,268.319,553.76Z" transform="translate(-267.633 -507.798)" fill="#00b26b"/>
    <path id="Path_2" data-name="Path 2" d="M268.319,538.292a6.8,6.8,0,0,0-.686,2.856c.009,4.853,0,9.706,0,14.558,0,.244.012.488.027.732a.612.612,0,0,0,.651.644c.521.016,1.042.015,1.562.007a.741.741,0,0,0,.739-.6,3.169,3.169,0,0,0,.105-.918q.008-6.424.018-12.848a11.388,11.388,0,0,1,.165-1.942,3.221,3.221,0,0,1,2.975-2.642c.358-.017.717-.014,1.075-.014q16.732,0,33.464,0a8.082,8.082,0,0,1,1.6.124,3.4,3.4,0,0,1,2.573,3.335c.036,2.67.018,5.341.021,8.012,0,1.889,0,3.778,0,5.667a4.783,4.783,0,0,0,.063.776c.171,1.024.218,1.093,1.273,1.13,1.689.058,1.74-.163,1.741-1.575,0-4.852.04-9.705-.03-14.557a6.011,6.011,0,0,0-5.046-6.022,7.139,7.139,0,0,0-1.209-.152c-11.887,0-23.775-.017-35.662.021A6,6,0,0,0,268.319,538.292Z" transform="translate(-267.633 -534.869)" fill="#00b26b"/>
  </g>
</svg>
