<svg xmlns="http://www.w3.org/2000/svg" width="126.999" height="127.032" viewBox="0 0 126.999 127.032">
  <g id="noun-time-date-7637442" transform="translate(-6.25 -6.25)">
    <path id="Path_435" data-name="Path 435" d="M130.982,18.773H119.966a2.268,2.268,0,1,0,0,4.536h8.748V36.916H10.786V23.309h9.071a2.268,2.268,0,1,0,0-4.536H8.518a2.267,2.267,0,0,0-2.268,2.268V125.361a2.265,2.265,0,0,0,2.268,2.268H130.982a2.265,2.265,0,0,0,2.268-2.268V21.041a2.265,2.265,0,0,0-2.268-2.268Zm-2.268,104.321H10.786V41.451H128.714Z" transform="translate(0 5.653)" fill="#00b26b"/>
    <path id="Path_436" data-name="Path 436" d="M16.33,52.693H25.4a2.265,2.265,0,0,0,2.268-2.268V41.354A2.265,2.265,0,0,0,25.4,39.086H16.33a2.267,2.267,0,0,0-2.268,2.268v9.071a2.265,2.265,0,0,0,2.268,2.268ZM18.6,43.622h4.536v4.536H18.6Z" transform="translate(3.526 14.822)" fill="#00b26b"/>
    <path id="Path_437" data-name="Path 437" d="M16.33,65.193H25.4a2.265,2.265,0,0,0,2.268-2.268V53.854A2.265,2.265,0,0,0,25.4,51.586H16.33a2.267,2.267,0,0,0-2.268,2.268v9.071a2.265,2.265,0,0,0,2.268,2.268ZM18.6,56.122h4.536v4.536H18.6Z" transform="translate(3.526 20.465)" fill="#00b26b"/>
    <path id="Path_438" data-name="Path 438" d="M16.33,77.693H25.4a2.265,2.265,0,0,0,2.268-2.268V66.354A2.265,2.265,0,0,0,25.4,64.086H16.33a2.267,2.267,0,0,0-2.268,2.268v9.071a2.265,2.265,0,0,0,2.268,2.268ZM18.6,68.622h4.536v4.536H18.6Z" transform="translate(3.526 26.108)" fill="#00b26b"/>
    <path id="Path_439" data-name="Path 439" d="M16.33,90.193H25.4a2.265,2.265,0,0,0,2.268-2.268V78.854A2.265,2.265,0,0,0,25.4,76.586H16.33a2.267,2.267,0,0,0-2.268,2.268v9.071a2.265,2.265,0,0,0,2.268,2.268ZM18.6,81.122h4.536v4.536H18.6Z" transform="translate(3.526 31.751)" fill="#00b26b"/>
    <path id="Path_440" data-name="Path 440" d="M78.83,52.693H87.9a2.265,2.265,0,0,0,2.268-2.268V41.354A2.265,2.265,0,0,0,87.9,39.086H78.83a2.267,2.267,0,0,0-2.268,2.268v9.071a2.265,2.265,0,0,0,2.268,2.268ZM81.1,43.622h4.536v4.536H81.1Z" transform="translate(31.74 14.822)" fill="#00b26b"/>
    <path id="Path_441" data-name="Path 441" d="M78.83,65.193H87.9a2.265,2.265,0,0,0,2.268-2.268V53.854A2.265,2.265,0,0,0,87.9,51.586H78.83a2.267,2.267,0,0,0-2.268,2.268v9.071a2.265,2.265,0,0,0,2.268,2.268ZM81.1,56.122h4.536v4.536H81.1Z" transform="translate(31.74 20.465)" fill="#00b26b"/>
    <path id="Path_442" data-name="Path 442" d="M78.83,77.693H87.9a2.265,2.265,0,0,0,2.268-2.268V66.354A2.265,2.265,0,0,0,87.9,64.086H78.83a2.267,2.267,0,0,0-2.268,2.268v9.071a2.265,2.265,0,0,0,2.268,2.268ZM81.1,68.622h4.536v4.536H81.1Z" transform="translate(31.74 26.108)" fill="#00b26b"/>
    <path id="Path_443" data-name="Path 443" d="M78.83,90.193H87.9a2.265,2.265,0,0,0,2.268-2.268V78.854A2.265,2.265,0,0,0,87.9,76.586H78.83a2.267,2.267,0,0,0-2.268,2.268v9.071a2.265,2.265,0,0,0,2.268,2.268ZM81.1,81.122h4.536v4.536H81.1Z" transform="translate(31.74 31.751)" fill="#00b26b"/>
    <path id="Path_444" data-name="Path 444" d="M21.017,35.2h9.071a2.265,2.265,0,0,0,2.268-2.268v-6.8H57.3v6.8A2.265,2.265,0,0,0,59.571,35.2h9.071a2.265,2.265,0,0,0,2.268-2.268v-6.8H95.858v6.8A2.265,2.265,0,0,0,98.125,35.2H107.2a2.265,2.265,0,0,0,2.268-2.268V14.791a2.265,2.265,0,0,0-2.268-2.268H98.125a2.267,2.267,0,0,0-2.268,2.268v6.8H70.911v-6.8a2.265,2.265,0,0,0-2.268-2.268H59.571A2.267,2.267,0,0,0,57.3,14.791v6.8H32.357v-6.8a2.265,2.265,0,0,0-2.268-2.268H21.017a2.267,2.267,0,0,0-2.268,2.268V32.933A2.265,2.265,0,0,0,21.017,35.2Zm79.375-18.143h4.536V30.666h-4.536Zm-38.553,0h4.536V30.666H61.84Zm-38.553,0h4.536V30.666H23.287Z" transform="translate(5.642 2.831)" fill="#00b26b"/>
    <path id="Path_445" data-name="Path 445" d="M78.073,70.793a29.639,29.639,0,0,1-23.16,28.8,2.267,2.267,0,0,0,.482,4.485,2.375,2.375,0,0,0,.488-.051A34.02,34.02,0,0,0,70.464,44.735a2.27,2.27,0,1,0-2.92,3.475A29.438,29.438,0,0,1,78.073,70.793Z" transform="translate(21.157 17.133)" fill="#00b26b"/>
    <path id="Path_446" data-name="Path 446" d="M54.918,44.077a29.51,29.51,0,0,1,6.31,2.154,2.267,2.267,0,1,0,1.95-4.093,33.93,33.93,0,0,0-7.3-2.495,2.271,2.271,0,0,0-2.721,1.724,2.276,2.276,0,0,0,1.758,2.7Z" transform="translate(21.152 15.048)" fill="#00b26b"/>
    <path id="Path_447" data-name="Path 447" d="M38.71,98.933a2.269,2.269,0,0,0,2.925-3.47A29.478,29.478,0,0,1,54.261,44.074a2.269,2.269,0,0,0-.964-4.434A34.019,34.019,0,0,0,38.71,98.934Z" transform="translate(9.166 15.051)" fill="#00b26b"/>
    <path id="Path_448" data-name="Path 448" d="M48.631,83.112a29.2,29.2,0,0,1-6.31-2.154,2.283,2.283,0,0,0-1.758-.119,2.269,2.269,0,0,0-1.395,2.931,2.281,2.281,0,0,0,1.2,1.281,33.93,33.93,0,0,0,7.3,2.495,2.791,2.791,0,0,0,.482.057,2.268,2.268,0,0,0,.482-4.485Z" transform="translate(14.797 33.615)" fill="#00b26b"/>
    <path id="Path_449" data-name="Path 449" d="M31.25,70.987A27.236,27.236,0,1,0,39.227,51.75,27.217,27.217,0,0,0,31.25,70.987ZM56.2,48.422v2.154a2.268,2.268,0,1,0,4.536,0V48.422a22.719,22.719,0,0,1,20.3,20.3H78.875a2.268,2.268,0,0,0,0,4.536H81.03a22.719,22.719,0,0,1-20.3,20.3V91.4a2.268,2.268,0,0,0-4.536,0v2.154a22.719,22.719,0,0,1-20.3-20.3h2.154a2.268,2.268,0,1,0,0-4.536H35.9a22.719,22.719,0,0,1,20.3-20.3Z" transform="translate(11.285 16.938)" fill="#00b26b"/>
    <path id="Path_450" data-name="Path 450" d="M55.9,75.868a2.269,2.269,0,0,0,3.209-3.209l-6.14-6.14V53.853a2.268,2.268,0,0,0-4.536,0V67.46a2.27,2.27,0,0,0,.663,1.6Z" transform="translate(19.044 20.465)" fill="#00b26b"/>
    <path id="Path_451" data-name="Path 451" d="M60.853,10.785a2.269,2.269,0,1,0-2.268-2.268,2.289,2.289,0,0,0,2.268,2.268Z" transform="translate(23.625 0)" fill="#00b26b"/>
    <path id="Path_452" data-name="Path 452" d="M67.123,10.785a2.267,2.267,0,1,0-2.279-2.268,2.268,2.268,0,0,0,2.279,2.268Z" transform="translate(26.45 0)" fill="#00b26b"/>
    <path id="Path_453" data-name="Path 453" d="M66.277,11.647a2.279,2.279,0,1,1-4.558,0,2.279,2.279,0,1,1,4.558,0" transform="translate(25.039 1.407)" fill="#00b26b"/>
    <path id="Path_454" data-name="Path 454" d="M69.4,14.771a2.279,2.279,0,1,1-4.558,0,2.279,2.279,0,1,1,4.558,0" transform="translate(26.45 2.817)" fill="#00b26b"/>
    <path id="Path_455" data-name="Path 455" d="M63.152,14.771a2.279,2.279,0,1,1-4.558,0,2.279,2.279,0,1,1,4.558,0" transform="translate(23.628 2.817)" fill="#00b26b"/>
    <path id="Path_456" data-name="Path 456" d="M34.3,10.785a2.267,2.267,0,1,0-2.279-2.268A2.268,2.268,0,0,0,34.3,10.785Z" transform="translate(11.634 0)" fill="#00b26b"/>
    <path id="Path_457" data-name="Path 457" d="M40.557,10.785A2.269,2.269,0,1,0,38.29,8.518a2.289,2.289,0,0,0,2.268,2.268Z" transform="translate(14.463 0)" fill="#00b26b"/>
    <path id="Path_458" data-name="Path 458" d="M39.715,11.647a2.279,2.279,0,1,1-4.558,0,2.279,2.279,0,1,1,4.558,0" transform="translate(13.049 1.407)" fill="#00b26b"/>
    <path id="Path_459" data-name="Path 459" d="M42.84,14.771a2.279,2.279,0,1,1-4.558,0,2.279,2.279,0,1,1,4.558,0" transform="translate(14.459 2.817)" fill="#00b26b"/>
    <path id="Path_460" data-name="Path 460" d="M36.59,14.771a2.279,2.279,0,1,1-4.558,0,2.279,2.279,0,1,1,4.558,0" transform="translate(11.638 2.817)" fill="#00b26b"/>
  </g>
</svg>
