<svg xmlns="http://www.w3.org/2000/svg" width="117" height="85" viewBox="0 0 117 85">
  <g id="Call_button" data-name="Call button" transform="translate(-0.179)">
    <rect id="Rectangle_177" data-name="Rectangle 177" width="117" height="85" rx="11" transform="translate(0.179)" fill="#00b26b"/>
    <g id="noun-call-7814367" transform="translate(38.575 21.797)">
      <path id="Path_307" data-name="Path 307" d="M6.036,21.4c-.221-3.956,5.35-11.858,7.532-8.647a.236.236,0,0,1,.018.027l4.556,7.332a10.9,10.9,0,0,1,.518,1.04c.353,1.88-1.509,3.679-2.922,5.755a1.037,1.037,0,0,0-.176.967,22.872,22.872,0,0,0,4.125,5.277,22.867,22.867,0,0,0,5.277,4.125,1.032,1.032,0,0,0,.967-.176c2.076-1.411,3.875-3.275,5.755-2.922a10.486,10.486,0,0,1,1.04.518l7.332,4.556a.236.236,0,0,1,.027.018c3.212,2.185-4.688,7.754-8.647,7.532-5.728-.319-11.92-3.806-16.761-8.647S6.354,27.13,6.035,21.4ZM24.49,9.127a19.162,19.162,0,0,1,19.226,19.16A1.551,1.551,0,0,0,45.3,29.87a1.491,1.491,0,0,0,1.514-1.514A22.255,22.255,0,0,0,24.488,6.031a1.491,1.491,0,0,0-1.514,1.514A1.5,1.5,0,0,0,24.49,9.127ZM37.356,28.353a1.549,1.549,0,1,0,3.1,0A15.888,15.888,0,0,0,24.49,12.39a1.549,1.549,0,1,0,0,3.1A12.8,12.8,0,0,1,37.356,28.353ZM24.49,18.73a1.549,1.549,0,1,0,0,3.1,6.462,6.462,0,0,1,6.527,6.529,1.549,1.549,0,1,0,3.1,0A9.563,9.563,0,0,0,24.49,18.73Z" transform="translate(-6.029 -6.031)" fill="#fff" fill-rule="evenodd"/>
    </g>
  </g>
</svg>
