<svg xmlns="http://www.w3.org/2000/svg" width="161.065" height="161.077" viewBox="0 0 161.065 161.077">
  <g id="noun-driver-7043774" transform="translate(0 0)">
    <path id="Path_289" data-name="Path 289" d="M52.863,38.15c0,5.033-7.55,5.033-7.55,0s7.55-5.033,7.55,0" transform="translate(27.673 20.994)" fill="#00b26b"/>
    <path id="Path_290" data-name="Path 290" d="M41.925,38.15c0,5.033-7.55,5.033-7.55,0s7.55-5.033,7.55,0" transform="translate(20.993 20.994)" fill="#00b26b"/>
    <path id="Path_291" data-name="Path 291" d="M43.142,51.646a2.516,2.516,0,0,0,2.517-2.517v-7.55a2.517,2.517,0,1,0-5.033,0v7.55A2.516,2.516,0,0,0,43.142,51.646Z" transform="translate(24.81 23.856)" fill="#00b26b"/>
    <path id="Path_292" data-name="Path 292" d="M51.805,49.149A8.7,8.7,0,0,1,46,50.955a8.737,8.737,0,0,1-5.795-1.806,2.518,2.518,0,0,0-3.536,3.586c.333.333,3.423,3.253,9.331,3.253s9-2.919,9.331-3.253a2.5,2.5,0,0,0,.013-3.511,2.534,2.534,0,0,0-3.542-.076Z" transform="translate(21.947 29.581)" fill="#00b26b"/>
    <path id="Path_293" data-name="Path 293" d="M64.146,90.625H54.079a2.517,2.517,0,0,0,0,5.033H64.146a2.517,2.517,0,1,0,0-5.033Z" transform="translate(31.49 55.346)" fill="#00b26b"/>
    <path id="Path_294" data-name="Path 294" d="M130.87,100.67a30.146,30.146,0,0,0-21.807,9.362L90.6,103.885V90.4a30.036,30.036,0,0,0,7.462-17.982c5.222-1.736,12.672-6.808,12.672-17.045V45.3c0-2.385-2.768-7.022-5.033-9.683V27.684A27.718,27.718,0,0,0,78.018,0H57.884A27.69,27.69,0,0,0,30.2,27.683v7.934c-2.265,2.661-5.033,7.965-5.033,9.683V55.367c0,10.237,7.456,15.3,12.672,17.045A29.925,29.925,0,0,0,45.3,90.4v13.339l-18.41,4.612C9.55,114.127,0,124.811,0,138.426V158.56a2.516,2.516,0,0,0,2.517,2.517H130.864a30.2,30.2,0,1,0,0-60.4ZM105.7,55.368c0,6.82-4.423,10.092-7.55,11.564V47.818h7.55ZM60.4,15.1H75.5a2.517,2.517,0,0,1,0,5.033H60.4a2.517,2.517,0,1,1,0-5.033Zm-22.65,51.85A12.233,12.233,0,0,1,30.2,55.368v-7.55h7.55ZM31.359,42.784a20.907,20.907,0,0,1,3.2-4.555,24.364,24.364,0,0,1,4.178-3.561,25.467,25.467,0,0,1,14.113-4.473h30.2a25.721,25.721,0,0,1,18.285,8.022,20.438,20.438,0,0,1,3.209,4.562ZM42.785,70.469V47.819H93.12v22.65A25.173,25.173,0,0,1,67.953,95.637a25.44,25.44,0,0,1-18.3-7.9,25.048,25.048,0,0,1-6.864-17.272Zm13.2,85.569h-5.65v-7.55a2.516,2.516,0,0,0-2.517-2.517H30.2a2.516,2.516,0,0,0-2.517,2.517v7.55H22.651v-15.1a2.517,2.517,0,0,0-5.033,0v15.1H5.034V138.42c0-15.207,14.691-22.381,23.26-25.243l14.238-3.561-4.423,7.374a2.52,2.52,0,0,0,1.032,3.549l9.538,4.769,7.148,9.532,4.354,6.525-4.19,14.673Zm2.171-26.482-5.814-7.745a2.528,2.528,0,0,0-.887-.742l-7.638-3.819,4.606-7.67L64.266,123.44l-6.116,6.116Zm-7.821-24.992V94.988a30.2,30.2,0,0,0,35.236.019v9.557L67.954,119.979Zm37.141,5.021,4.606,7.67-7.638,3.819a2.474,2.474,0,0,0-.887.742l-5.814,7.745-6.116-6.116,15.843-13.861Zm-7.563,46.459-4.19-14.673,4.354-6.525,7.148-9.532,9.538-4.769A2.508,2.508,0,0,0,98.053,119a2.536,2.536,0,0,0-.258-2l-4.052-6.751,11.961,3.983a30.12,30.12,0,0,0,8.506,41.816Zm43.4-38.2v6.8l-7.531,6.028a14.93,14.93,0,0,1,7.531-12.823Zm7.55,28.137a15.011,15.011,0,0,1-8.362-2.529l6.688-5.021h3.354l6.688,5.021a15.011,15.011,0,0,1-8.362,2.529Zm12.068-6.04-8.041-6.04a2.518,2.518,0,0,0-1.51-.5h-5.033a2.5,2.5,0,0,0-1.51.5l-8.035,6.04A15.224,15.224,0,0,1,116.8,136.3l10.608-8.494a2.515,2.515,0,0,0,.944-1.963V116a14.095,14.095,0,0,1,5.033,0v9.84a2.506,2.506,0,0,0,.944,1.963l10.608,8.494a15.08,15.08,0,0,1-2,3.637Zm-4.518-15.3v-6.8a14.944,14.944,0,0,1,7.531,12.823Z" transform="translate(0 0)" fill="#00b26b"/>
  </g>
</svg>
