<svg xmlns="http://www.w3.org/2000/svg" width="115" height="85" viewBox="0 0 115 85">
  <g id="Whatsapp_button" data-name="Whatsapp button" transform="translate(-0.137)">
    <rect id="Rectangle_178" data-name="Rectangle 178" width="115" height="85" rx="11" transform="translate(0.137)" fill="#00b26b"/>
    <g id="noun-whatsapp-7582508" transform="translate(35.579 20.167)">
      <path id="Path_308" data-name="Path 308" d="M33.551,11.5A22.1,22.1,0,0,0,11.5,33.551a21.607,21.607,0,0,0,4.354,13.115L14.077,54.8l8.363-2.233A22.086,22.086,0,0,0,55.6,33.492,22.048,22.048,0,0,0,33.551,11.5Zm10.6,30.756-1.031,1.031a4.623,4.623,0,0,1-3.951,1.318c-14.091-2.177-16.5-12.142-16.838-16.668A4.438,4.438,0,0,1,23.7,24.328l1.26-1.26a2.007,2.007,0,0,1,2.864,0l2.691,2.691a2.007,2.007,0,0,1,0,2.864l-1.546,1.432a1.369,1.369,0,0,0-.345,1.374,11.082,11.082,0,0,0,6.987,6.931,1.319,1.319,0,0,0,1.432-.345l1.49-1.49a2.007,2.007,0,0,1,2.864,0L44.2,39.332a2.133,2.133,0,0,1-.056,2.924Z" transform="translate(-11.5 -11.5)" fill="#fff"/>
    </g>
  </g>
</svg>
