<svg xmlns="http://www.w3.org/2000/svg" width="55.194" height="55.27" viewBox="0 0 55.194 55.27">
  <g id="noun-phone-7079735" transform="translate(-6.034 -5.967)">
    <path id="Path_235" data-name="Path 235" d="M58.108,44.377l-6.522-4.244a6.89,6.89,0,0,0-8.587.9l-.944.944a3.914,3.914,0,0,1-5.218.292A87.043,87.043,0,0,1,24.914,30.22a3.884,3.884,0,0,1,.309-5.2l.885-.885a6.884,6.884,0,0,0,.9-8.587L22.761,9.028A6.678,6.678,0,0,0,17.845,6a7.471,7.471,0,0,0-6.037,2.27L9.754,10.33A12.6,12.6,0,0,0,7.319,24.8c6.976,14.148,21.407,28.636,35.1,35.227a12.2,12.2,0,0,0,5.311,1.209A12.675,12.675,0,0,0,56.684,57.5l2.535-2.533a6.858,6.858,0,0,0-1.108-10.6ZM56.444,52.2l-2.535,2.533A8.607,8.607,0,0,1,44.115,56.5C31.144,50.25,17.458,36.5,10.835,23.068a8.667,8.667,0,0,1,1.689-9.96l2.055-2.055a3.627,3.627,0,0,1,2.545-1.16q.154,0,.309.015a2.73,2.73,0,0,1,2.035,1.26l4.244,6.522a2.948,2.948,0,0,1-.385,3.675l-.885.885a7.794,7.794,0,0,0-.584,10.443,90.943,90.943,0,0,0,12.47,12.6,7.775,7.775,0,0,0,10.492-.542l.944-.944a2.942,2.942,0,0,1,3.673-.385l6.522,4.244a2.933,2.933,0,0,1,.476,4.534Z" fill="#00b26b"/>
    <path id="Path_236" data-name="Path 236" d="M54.344,10.278A23.76,23.76,0,0,1,74.467,30.4a1.96,1.96,0,0,0,1.939,1.687,1.755,1.755,0,0,0,.277-.02,1.963,1.963,0,0,0,1.67-2.217,27.7,27.7,0,0,0-23.46-23.46,1.962,1.962,0,0,0-.547,3.886Z" transform="translate(-17.358 -0.151)" fill="#00b26b"/>
    <path id="Path_237" data-name="Path 237" d="M51.721,28.651A12.073,12.073,0,0,1,61.958,38.888,1.96,1.96,0,0,0,63.9,40.577a1.744,1.744,0,0,0,.275-.02,1.965,1.965,0,0,0,1.672-2.214A16.013,16.013,0,0,0,52.266,24.765a1.962,1.962,0,1,0-.542,3.886Z" transform="translate(-16.381 -6.991)" fill="#00b26b"/>
  </g>
</svg>