<svg xmlns="http://www.w3.org/2000/svg" width="66.587" height="63.079" viewBox="0 0 66.587 63.079">
  <g id="noun-email-7079101" transform="translate(-10.005 -12.111)">
    <path id="Path_238" data-name="Path 238" d="M75.072,35.625s-.065-.059-.1-.085l-.016-.016a4.76,4.76,0,0,0-.475-.358l-8.415-6.3V22.84a1.249,1.249,0,0,0-1.249-1.249H56.369L44.049,12.36a1.254,1.254,0,0,0-1.5,0l-12.32,9.231H21.782a1.249,1.249,0,0,0-1.249,1.249v6.025L12.066,35.2H12.05a4.584,4.584,0,0,0-.481.384A4.492,4.492,0,0,0,10,39V70.654a4.5,4.5,0,0,0,1.531,3.388c.01.01.026.016.033.026s.016.01.016.016a4.538,4.538,0,0,0,2.956,1.106H72.062a4.53,4.53,0,0,0,2.956-1.106l.016-.016c.01,0,.016-.01.026-.016a4.522,4.522,0,0,0,1.531-3.395V39a4.431,4.431,0,0,0-1.522-3.372Zm-9.007-3.639,6.068,4.546-6.068,4.552ZM43.3,14.922,52.2,21.6H34.391ZM23.026,24.088H63.574V42.951L43.3,58.142,23.032,42.951V24.088Zm-2.5,7.9v9.1l-6.068-4.546,6.068-4.546ZM74.1,70.654a1.885,1.885,0,0,1-.133.689L58.531,59.781a1.25,1.25,0,1,0-1.5,2L71.6,72.693H15L29.552,61.781a1.25,1.25,0,1,0-1.5-2L12.621,71.344a1.9,1.9,0,0,1-.133-.689V39a2.011,2.011,0,0,1,.143-.709L42.54,60.705a1.242,1.242,0,0,0,1.5,0L73.944,38.288a2.032,2.032,0,0,1,.143.715V70.661Z" transform="translate(0 0)" fill="#00b26b"/>
    <path id="Path_239" data-name="Path 239" d="M51.557,50.941A9.453,9.453,0,0,0,56,48.662c.15-.133.3-.267.458-.406-.507-.55-.966-1.041-1.44-1.548-.075.065-.143.117-.2.176a8.833,8.833,0,0,1-3.089,1.847,9.493,9.493,0,0,1-4.887.293,6.572,6.572,0,0,1-4.985-3.72,7.814,7.814,0,0,1-.458-5.469,6.708,6.708,0,0,1,4.36-4.91,8.114,8.114,0,0,1,5.853.133,5.463,5.463,0,0,1,3.339,3.564,7.378,7.378,0,0,1,.257,3.105,4.478,4.478,0,0,1-.715,2.091,1.885,1.885,0,0,1-1.5.891.669.669,0,0,1-.8-.6,3.039,3.039,0,0,1-.016-.94c.234-1.265.491-2.523.748-3.778.143-.689.293-1.382.432-2.091a.79.79,0,0,0-.117-.026H51.222c-.117,0-.159.049-.176.159-.049.273-.107.55-.176.858a2.35,2.35,0,0,0-1.714-1.3,4.353,4.353,0,0,0-4.172,1.382,6.081,6.081,0,0,0-1.606,5.268,3.665,3.665,0,0,0,1.164,2.305,3.756,3.756,0,0,0,5.433-.725c.049-.059.107-.107.192-.192a1.816,1.816,0,0,0,1.623,1.681,4.476,4.476,0,0,0,3.239-.683,5.349,5.349,0,0,0,2.2-3.164,8.67,8.67,0,0,0,.224-3.528,7.241,7.241,0,0,0-2.848-5,9.157,9.157,0,0,0-4.279-1.766,10.264,10.264,0,0,0-6.851,1.115,9.208,9.208,0,0,0-4.445,5.443,9.7,9.7,0,0,0-.325,4.087,9.1,9.1,0,0,0,1.541,4.172,8.81,8.81,0,0,0,5,3.505,12.463,12.463,0,0,0,6.292.065Zm-2.188-7.267a2.126,2.126,0,0,1-2.2.976A1.354,1.354,0,0,1,46,43.534a4.278,4.278,0,0,1,1.158-4.029,1.707,1.707,0,0,1,2.071-.3,1.735,1.735,0,0,1,.8,1.3c.042.234.049.475.065.624a4.485,4.485,0,0,1-.725,2.556Z" transform="translate(-4.797 -3.402)" fill="#00b26b"/>
  </g>
</svg>