<svg xmlns="http://www.w3.org/2000/svg" width="69.093" height="50.583" viewBox="0 0 69.093 50.583">
  <g id="noun-map-7062916" transform="translate(-6.25 -17.191)">
    <path id="Path_240" data-name="Path 240" d="M6.25,19.655a1.186,1.186,0,0,1,.142-.571,1.235,1.235,0,0,1,1.092-.663,1.186,1.186,0,0,1,.571.142L26.4,28.134l18.346-9.571a1.225,1.225,0,0,1,1.144,0l8.569,4.469a11.1,11.1,0,0,1,20.881,5.262c0,2.227-.907,5.351-2.221,8.624a126.71,126.71,0,0,1-7.649,15.156V66.541a1.186,1.186,0,0,1-.142.571,1.235,1.235,0,0,1-1.092.663,1.186,1.186,0,0,1-.571-.142L45.32,58.062,26.974,67.632a1.225,1.225,0,0,1-1.144,0L6.913,57.762a1.235,1.235,0,0,1-.663-1.092Zm37.833,2.036L27.634,30.272V64.5l16.449-8.581ZM25.167,30.272,8.714,21.691V55.922L25.167,64.5ZM53.531,25.33l-6.98-3.643V55.919L63,64.5V52.069a126.536,126.536,0,0,1-7.649-15.156c-1.314-3.273-2.221-6.4-2.221-8.624a11.01,11.01,0,0,1,.4-2.958Zm10.7,23.947A118.121,118.121,0,0,0,70.828,36a23.509,23.509,0,0,0,2.042-7.7,8.637,8.637,0,1,0-17.273,0c0,1.992.87,4.775,2.042,7.7a117.291,117.291,0,0,0,6.594,13.281Zm0-25.308a5.552,5.552,0,1,1-5.552,5.552A5.552,5.552,0,0,1,64.234,23.97Zm0,2.468a3.084,3.084,0,1,0,3.084,3.084A3.086,3.086,0,0,0,64.234,26.438Z" transform="translate(0)" fill="#00b26b" fill-rule="evenodd"/>
  </g>
</svg>