<svg xmlns="http://www.w3.org/2000/svg" width="87.945" height="95.484" viewBox="0 0 87.945 95.484">
  <g id="Features" transform="translate(-6.022 -2.258)">
    <path id="Path_518" data-name="Path 518" d="M92,51.168a5.91,5.91,0,0,0-7.789-.016L70.984,62.773a5.9,5.9,0,0,0-5.727-4.531h-11.6a5.612,5.612,0,0,1-2.062-.395l-4.2-1.668a8.453,8.453,0,0,0-3.121-.59h-7.7a11.069,11.069,0,0,0-7.484,2.91l-8.516,7.863-.684-1.047a2.783,2.783,0,0,0-3.863-.785l-8.758,5.8A2.784,2.784,0,0,0,6.484,74.2L21.226,96.484A2.748,2.748,0,0,0,23,97.68a2.3,2.3,0,0,0,.563.063,2.661,2.661,0,0,0,1.531-.469l8.742-5.789a2.8,2.8,0,0,0,.789-3.863l-.074-.121,3.242-2.348a5.916,5.916,0,0,1,3.453-1.121h25.6a10.26,10.26,0,0,0,7.816-3.605L92.573,59.395A5.927,5.927,0,0,0,92,51.168ZM23.574,94.789,8.953,72.684l8.563-5.668,14.621,22.1ZM90.379,57.531,72.453,78.547a7.357,7.357,0,0,1-5.605,2.59h-25.6A8.7,8.7,0,0,0,36.09,82.8l-3.137,2.273L22.2,68.805l8.863-8.184a8.223,8.223,0,0,1,5.531-2.152h7.7a5.612,5.612,0,0,1,2.063.395l4.2,1.668a8.453,8.453,0,0,0,3.121.59h11.6a2.977,2.977,0,0,1,2.7,4.289l-1.758,1.547a3.26,3.26,0,0,1-.937.168H52.648a1.438,1.438,0,0,0,0,2.875H65.269a6.065,6.065,0,0,0,2.031-.379l.137-.047a5.884,5.884,0,0,0,2.789-2.316l15.9-13.953a3,3,0,0,1,3.953.016,3.046,3.046,0,0,1,.3,4.211Z" fill="#00b26b"/>
    <path id="Path_519" data-name="Path 519" d="M24.758,15.621l-.969,5.711a1.438,1.438,0,0,0,2.09,1.516l5.105-2.7,5.137,2.7a1.5,1.5,0,0,0,.668.168,1.4,1.4,0,0,0,.848-.273,1.456,1.456,0,0,0,.574-1.41l-.984-5.711,4.152-4.062a1.445,1.445,0,0,0,.363-1.484,1.421,1.421,0,0,0-1.168-.984l-5.711-.832-2.574-5.2A1.452,1.452,0,0,0,31,2.258a1.469,1.469,0,0,0-1.3.8L27.133,8.246l-5.742.832a1.421,1.421,0,0,0-1.168.984,1.49,1.49,0,0,0,.383,1.5Zm3.547-4.59a1.431,1.431,0,0,0,1.09-.8l1.59-3.242,1.606,3.242a1.438,1.438,0,0,0,1.09.789l3.574.516-2.59,2.547a1.439,1.439,0,0,0-.41,1.273l.605,3.563L31.649,17.23a1.5,1.5,0,0,0-.668-.168,1.589,1.589,0,0,0-.684.168l-3.2,1.684.605-3.562a1.465,1.465,0,0,0-.41-1.273l-2.59-2.531Z" fill="#00b26b"/>
    <path id="Path_520" data-name="Path 520" d="M24.758,41.816l-.969,5.711a1.438,1.438,0,0,0,2.09,1.516l5.105-2.7,5.137,2.7a1.5,1.5,0,0,0,.668.168,1.4,1.4,0,0,0,.848-.273,1.456,1.456,0,0,0,.574-1.41l-.984-5.711,4.152-4.062a1.445,1.445,0,0,0,.363-1.484,1.421,1.421,0,0,0-1.168-.984l-5.711-.832-2.574-5.2a1.452,1.452,0,0,0-1.289-.8,1.469,1.469,0,0,0-1.3.8l-2.562,5.184-5.742.832a1.421,1.421,0,0,0-1.168.984,1.453,1.453,0,0,0,.363,1.484Zm3.547-4.59a1.438,1.438,0,0,0,1.09-.789l1.59-3.242,1.606,3.242a1.438,1.438,0,0,0,1.09.789l3.574.516-2.59,2.547a1.439,1.439,0,0,0-.41,1.273l.605,3.563-3.211-1.684a1.5,1.5,0,0,0-.668-.168,1.589,1.589,0,0,0-.684.168l-3.2,1.684.605-3.562a1.465,1.465,0,0,0-.41-1.273l-2.59-2.531Z" fill="#00b26b"/>
    <path id="Path_521" data-name="Path 521" d="M52.41,45.516H74.836a6.668,6.668,0,0,0,0-13.336H52.41a6.668,6.668,0,0,0,0,13.336Zm0-10.426H74.836a3.773,3.773,0,0,1,0,7.547H52.41a3.773,3.773,0,1,1,0-7.547Z" fill="#00b26b"/>
    <path id="Path_522" data-name="Path 522" d="M52.41,19.305H74.836a6.668,6.668,0,0,0,0-13.336H52.41a6.668,6.668,0,0,0,0,13.336Zm0-10.426H74.836a3.773,3.773,0,0,1,0,7.547H52.41a3.773,3.773,0,0,1,0-7.547Z" fill="#00b26b"/>
  </g>
</svg>
