<svg xmlns="http://www.w3.org/2000/svg" width="98.881" height="98.88" viewBox="0 0 98.881 98.88">
  <g id="Information" transform="translate(-10.936 -10.937)">
    <path id="Path_573" data-name="Path 573" d="M109.817,59.784a7.9,7.9,0,0,0-13.448-5.537L92.019,58.6V26.758a1.8,1.8,0,0,0-.593-1.384L77.582,11.53a1.8,1.8,0,0,0-1.384-.593H38.622a5.827,5.827,0,0,0-5.933,5.933v1.978H30.712a5.827,5.827,0,0,0-5.933,5.933v1.978h-7.91a5.827,5.827,0,0,0-5.933,5.933V48.511a5.827,5.827,0,0,0,5.933,5.933h7.91v49.439a5.827,5.827,0,0,0,5.933,5.933H44.556a1.978,1.978,0,1,0,0-3.955H30.712a1.868,1.868,0,0,1-1.978-1.978V54.444h3.955V68.288a1.978,1.978,0,1,0,3.955,0V54.444H60.376a5.827,5.827,0,0,0,5.933-5.933V32.69a5.827,5.827,0,0,0-5.933-5.933H36.645V16.87a1.868,1.868,0,0,1,1.978-1.978h35.6V26.758A1.868,1.868,0,0,0,76.2,28.735H88.062V62.552L76.394,74.22H62.55a1.978,1.978,0,1,0,0,3.955H72.636s-.4.4-.4.593l-1.187,3.362h-8.5a1.978,1.978,0,1,0,0,3.955h7.317l-1.78,5.34a2.161,2.161,0,0,0,.4,1.978,1.575,1.575,0,0,0,1.978.4l12.657-4.153a1.5,1.5,0,0,0,.791-.4L88.259,84.9V95.974a1.868,1.868,0,0,1-1.978,1.978H38.819a1.868,1.868,0,0,1-1.978-1.978V76.2a1.978,1.978,0,0,0-3.955,0V95.974a5.827,5.827,0,0,0,5.933,5.933H80.348v1.978a1.868,1.868,0,0,1-1.978,1.978H52.662a1.978,1.978,0,0,0,0,3.955H78.371a5.827,5.827,0,0,0,5.933-5.933v-1.978h1.978a5.827,5.827,0,0,0,5.933-5.933V80.944L107.64,65.518a7.594,7.594,0,0,0,2.175-5.537ZM60.378,30.713a1.868,1.868,0,0,1,1.978,1.978V48.511a1.868,1.868,0,0,1-1.978,1.978H16.871a1.868,1.868,0,0,1-1.978-1.978V32.691a1.868,1.868,0,0,1,1.978-1.978ZM28.736,26.758V24.78A1.868,1.868,0,0,1,30.714,22.8h1.978v3.955Zm49.439-9.1,7.119,7.119H78.175ZM74.814,83.119l3.955,3.955-5.735,1.978,1.978-5.735ZM82.328,85.1,76.791,79.56,96.37,59.981l5.537,5.537Zm22.346-22.346-5.537-5.537a3.915,3.915,0,0,1,5.537,5.537ZM20.825,46.535H32.691a1.868,1.868,0,0,0,1.978-1.978v-7.91a1.868,1.868,0,0,0-1.978-1.978H20.825a1.868,1.868,0,0,0-1.978,1.978v7.91A1.868,1.868,0,0,0,20.825,46.535Zm1.978-7.91h7.91V42.58H22.8Zm15.821-1.978A1.868,1.868,0,0,1,40.6,34.669H56.422a1.978,1.978,0,1,1,0,3.955H40.6A1.868,1.868,0,0,1,38.623,36.647Zm0,7.91A1.868,1.868,0,0,1,40.6,42.58H56.422a1.978,1.978,0,1,1,0,3.955H40.6A1.868,1.868,0,0,1,38.623,44.557Zm2.571,21.161a1.958,1.958,0,1,1,2.769-2.769l2.571,2.571,6.526-6.526a1.958,1.958,0,0,1,2.769,2.769l-7.91,7.91a2.136,2.136,0,0,1-1.384.593,1.473,1.473,0,0,1-1.384-.593Zm0,13.051a1.912,1.912,0,0,1,2.769,0l2.571,2.571,6.526-6.526a1.958,1.958,0,0,1,2.769,2.769l-7.91,7.91a2.136,2.136,0,0,1-1.384.593,1.473,1.473,0,0,1-1.384-.593l-3.955-3.955a1.912,1.912,0,0,1,0-2.769ZM60.376,60.378A1.868,1.868,0,0,1,62.354,58.4H82.13a1.978,1.978,0,1,1,0,3.955H62.354A1.868,1.868,0,0,1,60.376,60.378Zm0,7.91a1.868,1.868,0,0,1,1.978-1.978H74.22a1.978,1.978,0,0,1,0,3.955H62.354A1.868,1.868,0,0,1,60.376,68.288Z" fill="#00b26b"/>
  </g>
</svg>
