<svg xmlns="http://www.w3.org/2000/svg" width="91.602" height="96.513" viewBox="0 0 91.602 96.513">
  <g id="Offer" transform="translate(-11.228 -9.14)">
    <path id="Path_535" data-name="Path 535" d="M102.525,45.311a5.323,5.323,0,0,0-8.609-2.159L80.278,55.6a15.182,15.182,0,0,1-2.187,1.652,6.7,6.7,0,0,0-6.533-8.531H53.98a18.034,18.034,0,0,1-4.6-.743c-.383-.1-.77-.185-1.153-.249A12.986,12.986,0,0,0,35.941,52.9L26.534,65.14l-1.6-1.476a3.611,3.611,0,0,0-5.107.2l-7.64,8.263a3.612,3.612,0,0,0,.2,5.107L35.7,98.787a3.591,3.591,0,0,0,2.45.96c.051,0,.1,0,.143,0a3.575,3.575,0,0,0,2.51-1.158l7.645-8.268a3.62,3.62,0,0,0-.2-5.107l-1.73-1.6,2.745-2.685a14.106,14.106,0,0,1,8.715-3.972l7.576-.609A34,34,0,0,0,87.932,65.407L101.441,50.68a5.339,5.339,0,0,0,1.084-5.37Zm-56.162,43.1-7.645,8.268a.789.789,0,0,1-.554.254.764.764,0,0,1-.572-.212L14.28,75.165a.8.8,0,0,1-.042-1.126l7.64-8.268a.771.771,0,0,1,.554-.254h.032a.788.788,0,0,1,.54.212L46.317,87.285a.8.8,0,0,1,.046,1.126ZM99.351,48.78,85.841,63.507A31.176,31.176,0,0,1,65.31,73.537l-7.576.609a16.958,16.958,0,0,0-10.459,4.766L44.429,81.7,28.6,67.059l9.56-12.448a10.2,10.2,0,0,1,9.6-4.1,8.5,8.5,0,0,1,.877.189,20.7,20.7,0,0,0,5.333.84H71.544a3.963,3.963,0,0,1,1.176,7.751,15.248,15.248,0,0,1-1.947.226l-11.165.471a1.408,1.408,0,0,0,.12,2.814l1.721-.074L71.835,62.3a6.855,6.855,0,0,0,1.546-.263,17.873,17.873,0,0,0,8.794-4.351L95.812,45.231a2.508,2.508,0,0,1,3.539,3.548Z" transform="translate(0 5.907)" fill="#00b26b"/>
    <path id="Path_536" data-name="Path 536" d="M41.289,36.273a3.03,3.03,0,0,1,1.55,3.954,5.865,5.865,0,0,0,7.474,7.756,3.026,3.026,0,0,1,3.889,1.7,5.785,5.785,0,0,0,5.32,3.64h.115a5.78,5.78,0,0,0,5.333-3.442,3.031,3.031,0,0,1,3.954-1.555,5.867,5.867,0,0,0,7.76-7.474,3.033,3.033,0,0,1,1.7-3.894,5.865,5.865,0,0,0,.2-10.768,3.03,3.03,0,0,1-1.55-3.954,5.865,5.865,0,0,0-7.474-7.756,3.034,3.034,0,0,1-3.889-1.7,5.785,5.785,0,0,0-5.32-3.64A5.923,5.923,0,0,0,54.9,12.582a3.038,3.038,0,0,1-3.954,1.555,5.863,5.863,0,0,0-7.756,7.474,3.037,3.037,0,0,1-1.7,3.894,5.866,5.866,0,0,0-.2,10.768Zm1.264-8.162a5.841,5.841,0,0,0,3.271-7.493,3.046,3.046,0,0,1,4.028-3.885,5.838,5.838,0,0,0,7.608-2.99,3.044,3.044,0,0,1,5.592.1,5.834,5.834,0,0,0,7.493,3.266,3.048,3.048,0,0,1,3.885,4.028,5.836,5.836,0,0,0,2.985,7.608,3.044,3.044,0,0,1-.1,5.592,5.834,5.834,0,0,0-3.266,7.493,3.05,3.05,0,0,1-4.032,3.885,5.838,5.838,0,0,0-7.608,2.99,3.044,3.044,0,0,1-5.592-.1,5.836,5.836,0,0,0-5.407-3.649,5.924,5.924,0,0,0-2.085.383,3.048,3.048,0,0,1-3.885-4.028A5.836,5.836,0,0,0,42.452,33.7a3.044,3.044,0,0,1,.1-5.592Z" transform="translate(4.821)" fill="#00b26b"/>
    <path id="Path_537" data-name="Path 537" d="M53.779,39.705,64.1,19.106H61.41l-10.4,20.6Z" transform="translate(7.205 1.805)" fill="#00b26b"/>
    <path id="Path_538" data-name="Path 538" d="M58.473,33a5.645,5.645,0,0,0,1.153,3.9,4.1,4.1,0,0,0,3.188,1.264A4.014,4.014,0,0,0,65.938,36.9,5.668,5.668,0,0,0,67.087,33a5.624,5.624,0,0,0-1.149-3.885,4.571,4.571,0,0,0-6.312,0A5.624,5.624,0,0,0,58.473,33Zm3.359-2.57a1.047,1.047,0,0,1,.918-.48,1.071,1.071,0,0,1,.932.48,5.145,5.145,0,0,1,.429,2.556,5.068,5.068,0,0,1-.438,2.556,1.032,1.032,0,0,1-.918.48,1.05,1.05,0,0,1-.918-.494,4.982,4.982,0,0,1-.438-2.542,4.979,4.979,0,0,1,.434-2.556Z" transform="translate(8.556 3.388)" fill="#00b26b"/>
    <path id="Path_539" data-name="Path 539" d="M51.666,29.412a4.007,4.007,0,0,0,3.123-1.264,5.617,5.617,0,0,0,1.153-3.885,5.611,5.611,0,0,0-1.153-3.894,4.1,4.1,0,0,0-3.188-1.26,4.014,4.014,0,0,0-3.123,1.264,5.617,5.617,0,0,0-1.153,3.885,5.611,5.611,0,0,0,1.153,3.894A4.109,4.109,0,0,0,51.666,29.412Zm-.983-7.733a1.064,1.064,0,0,1,.918-.48,1.052,1.052,0,0,1,.932.494,5.081,5.081,0,0,1,.424,2.542,5.212,5.212,0,0,1-.424,2.556,1.071,1.071,0,0,1-.932.48,1.058,1.058,0,0,1-.918-.48,5.068,5.068,0,0,1-.438-2.556,5.017,5.017,0,0,1,.438-2.556Z" transform="translate(6.537 1.805)" fill="#00b26b"/>
  </g>
</svg>
