<svg xmlns="http://www.w3.org/2000/svg" width="87.521" height="73.326" viewBox="0 0 87.521 73.326">
  <g id="Third-party_EV_insurance_liability_cover" data-name="Third-party EV insurance liability cover" transform="translate(-1.563 -9.428)">
    <path id="Path_684" data-name="Path 684" d="M35.285,37.921a2.073,2.073,0,1,0,1.835,1.835A2.081,2.081,0,0,0,35.285,37.921Z" transform="translate(-3.035 -2.751)" fill="#00b26b"/>
    <path id="Path_685" data-name="Path 685" d="M78.02,37.921a2.073,2.073,0,1,0,1.835,1.835A2.081,2.081,0,0,0,78.02,37.921Z" transform="translate(-7.163 -2.751)" fill="#00b26b"/>
    <path id="Path_686" data-name="Path 686" d="M21.43,38.6H26.3a7.394,7.394,0,0,0,7.27,6.041c.155,0,.325,0,.48-.014A7.373,7.373,0,0,0,40.811,38.6h24.1a7.394,7.394,0,0,0,7.284,6.042c.155,0,.325,0,.48-.014A7.373,7.373,0,0,0,79.432,38.6h7.312a3.9,3.9,0,0,0,3.783-4.785l-1.1-4.63a8,8,0,0,0-6.917-6.112l-8.724-1.285a10.436,10.436,0,0,1-5.11-2.273c-6.267-5.223-12.7-8.484-19.141-9.712-8.1-1.539-15.88,1.976-21.554,4.545a39.256,39.256,0,0,1-4.884,1.99,5.306,5.306,0,0,0-3.854,5.1V27.5a3.986,3.986,0,0,0-1.68,3.232v4.009a3.88,3.88,0,0,0,3.882,3.882Zm12.436,3.3A4.663,4.663,0,0,1,28.9,36.934a4.653,4.653,0,0,1,4.348-4.348h.3a4.67,4.67,0,0,1,.311,9.331Zm38.621,0a4.725,4.725,0,0,1-3.614-1.355,4.661,4.661,0,0,1,2.993-7.961h.3a4.67,4.67,0,0,1,.311,9.331Zm-52.2-11.194a1.233,1.233,0,0,1,.8-1.143,1.36,1.36,0,0,0,.889-1.285V21.407a2.554,2.554,0,0,1,1.863-2.456,41.183,41.183,0,0,0,5.265-2.132c5.336-2.414,12.662-5.731,19.917-4.348,5.985,1.143,12,4.206,17.9,9.133a13.083,13.083,0,0,0,6.451,2.88l8.78,1.285a5.273,5.273,0,0,1,4.588,4.037l1.1,4.63a1.166,1.166,0,0,1-1.115,1.426h-7.3A7.326,7.326,0,0,0,77.4,32.007a7.384,7.384,0,0,0-12.492,3.854H40.826a7.379,7.379,0,0,0-14.511-.014H21.431A1.139,1.139,0,0,1,20.288,34.7V30.694Z" transform="translate(-1.545)" fill="#00b26b"/>
    <path id="Path_687" data-name="Path 687" d="M31.1,28.844H28.9a1.369,1.369,0,0,0,0,2.738h2.2a1.369,1.369,0,0,0,0-2.738Z" transform="translate(-2.508 -1.875)" fill="#00b26b"/>
    <path id="Path_688" data-name="Path 688" d="M26.421,26.6H44.913a2.476,2.476,0,0,0,1.553-.551,2.506,2.506,0,0,0,1.553.551H64.591c.551,0,2,0,2.428-1.2a1.854,1.854,0,0,0-.819-2.146c-5.773-4.8-11.9-7.919-17.715-9.02H48.4a2.5,2.5,0,0,0-1.835.438,2.558,2.558,0,0,0-1.934-.607c-5.039.593-9.825,2.753-13.707,4.517a43.472,43.472,0,0,1-5.293,2.146A2.389,2.389,0,0,0,23.923,23v1.087A2.533,2.533,0,0,0,26.45,26.61ZM48.23,16.97a36.342,36.342,0,0,1,14.342,6.888H48.23ZM32.067,21.049c3.614-1.637,8.088-3.656,12.633-4.235v7.058H26.632v-.607a49.21,49.21,0,0,0,5.435-2.216Z" transform="translate(-2.16 -0.446)" fill="#00b26b"/>
    <path id="Path_689" data-name="Path 689" d="M56.245,28.844H54.057a1.369,1.369,0,0,0,0,2.738h2.188a1.369,1.369,0,1,0,0-2.738Z" transform="translate(-4.938 -1.875)" fill="#00b26b"/>
    <path id="Path_690" data-name="Path 690" d="M86.977,57.237a4.765,4.765,0,0,0-4.715-.282L75.077,60.78c-.127.056-.847.4-1.779.861-1.821.875-5.618,2.7-6.056,2.866L58,67.852a12.512,12.512,0,0,1-4.277.113c-.423-.028-.819-.071-1.2-.085l-4.715-.268a.845.845,0,0,1-.593-.254.817.817,0,0,1-.226-.607.859.859,0,0,1,.932-.819l3.783-.254a35.564,35.564,0,0,0,4.39-.565l8.865-1.68a5.147,5.147,0,0,0,4.009-6.112,5.231,5.231,0,0,0-5.759-4.094l-9.245.127c-.96,0-1.892.056-2.767.141a19.252,19.252,0,0,1-7.5-.819,44.482,44.482,0,0,0-4.884-1.03A29.638,29.638,0,0,0,22.44,54a2.647,2.647,0,0,0-.3.014,5.788,5.788,0,0,0-5.533-4.206H7.35A5.8,5.8,0,0,0,1.563,55.6V80.867A5.8,5.8,0,0,0,7.35,86.655H16.6a5.792,5.792,0,0,0,5.378-3.67l2.244.367c4.178.692,8.512,1.412,10.728,1.637a19.5,19.5,0,0,0,2.23.113,20.872,20.872,0,0,0,3.868-.367l13.255-2.5a28.538,28.538,0,0,0,9.345-3.529l23.037-13.5a4.693,4.693,0,0,0,.282-8ZM63.5,55.939a2.48,2.48,0,0,1,2.781,1.934,2.426,2.426,0,0,1-.339,1.821,2.352,2.352,0,0,1-1.51,1.03l-1.807.339-.72-5.11,1.6-.028ZM19.659,80.867a2.643,2.643,0,0,1-.056.593,3.053,3.053,0,0,1-2.993,2.456H7.35A3.054,3.054,0,0,1,4.3,80.867V55.6A3.054,3.054,0,0,1,7.35,52.551H16.6A3.054,3.054,0,0,1,19.645,55.6V80.867ZM85.34,62.884,62.275,76.393a26.024,26.024,0,0,1-8.455,3.19l-13.255,2.5a18.5,18.5,0,0,1-5.293.212c-2.132-.226-6.62-.974-10.573-1.623l-2.273-.381V56.744a2.674,2.674,0,0,0,.974-.169,27.169,27.169,0,0,1,15.047-2.216,39.889,39.889,0,0,1,4.6.974,22.01,22.01,0,0,0,8.427.889q1.207-.106,2.541-.127l5.152-.071.776,5.576-4.362.819a35.971,35.971,0,0,1-4.065.522l-3.7.254a3.583,3.583,0,0,0-2.583,6.056,3.511,3.511,0,0,0,2.47,1.1l4.658.268c.353.014.734.056,1.129.085a13.833,13.833,0,0,0,5.392-.254L68.132,67.1c.325-.113,1.75-.776,6.352-2.993.918-.438,1.6-.776,1.807-.861l7.227-3.839a1.955,1.955,0,0,1,1.962.127,1.929,1.929,0,0,1,.875,1.708A1.965,1.965,0,0,1,85.339,62.9Z" transform="translate(0 -3.901)" fill="#00b26b"/>
  </g>
</svg>
