<svg id="Policy_bazaar_logo" data-name="Policy bazaar logo" xmlns="http://www.w3.org/2000/svg" width="445.312" height="70.494" viewBox="0 0 445.312 70.494">
  <g id="Layer_1-2" data-name="Layer 1-2" transform="translate(0 0)">
    <path id="Path_1" data-name="Path 1" d="M94.963,29.43a10.364,10.364,0,0,0-6.45-5.938A11.875,11.875,0,0,0,75.828,26.92a24.937,24.937,0,0,0-2.213,2.7V9H62.28v1.754H62.6l3.158.486a1.646,1.646,0,0,1,1.268,1.484,30.17,30.17,0,0,1,.324,3.805V56.284h4.615s.3-.324.3-.486c.162-1.107.486-2.051.648-3.185,0,0,0-.3.162-.3a.567.567,0,0,1,.486.162,8.338,8.338,0,0,0,1.08,1.107,12.9,12.9,0,0,0,20.727-5.4,24.749,24.749,0,0,0,1.565-11.281A18.11,18.11,0,0,0,94.963,29.43ZM90.834,41.683a21.377,21.377,0,0,1-1.107,6.5,7.179,7.179,0,0,1-8.717,5.074,14.79,14.79,0,0,1-6.99-3.185.783.783,0,0,1-.324-.621V32.318a1.89,1.89,0,0,1,.486-1.3,12.172,12.172,0,0,1,6.828-4.291,7.449,7.449,0,0,1,6.5,1.484,8.8,8.8,0,0,1,2.537,4.615A26.988,26.988,0,0,1,90.834,41.683Z" transform="translate(105.805 -3.44)" fill="#fff"/>
    <path id="Path_2" data-name="Path 2" d="M105.22,45.175c-.648,0-1.134.162-2.078.162a2.669,2.669,0,0,1-2.375-2.24,21.97,21.97,0,0,1-.486-4.615V24.556a18.08,18.08,0,0,0-.162-2.969,7.881,7.881,0,0,0-3.805-5.938,11.281,11.281,0,0,0-5.074-1.484,27.744,27.744,0,0,0-12.847,2.564,1.053,1.053,0,0,0-.324.648v5.56h3.859c0-.486.162-.783.162-1.3a4.777,4.777,0,0,1,3.481-4.588,21.97,21.97,0,0,1,2.969-.486,4.885,4.885,0,0,1,5.236,3.67,25.909,25.909,0,0,1,.648,7.935h-.81c-2.051,0-4.129.162-6.18.3a16.409,16.409,0,0,0-6.99,2.078A9.527,9.527,0,0,0,76.8,43.259a9.716,9.716,0,0,0,10.526,4.615,15.545,15.545,0,0,0,6.828-3.32c.621-.486,1.268-1.134,1.916-1.592l.459,1.268a5.074,5.074,0,0,0,4.561,3.805,17.192,17.192,0,0,0,2.861-.324c1.565-.3,1.565-.3,1.484-1.889C105.22,45.634,105.22,45.5,105.22,45.175ZM94.586,42.314a13.845,13.845,0,0,1-4.966,2.051,6.234,6.234,0,0,1-7.206-5.1h0a7.776,7.776,0,0,1,0-.783,7.1,7.1,0,0,1,4.453-7.287,18.6,18.6,0,0,1,7.827-1.241c0,.486,0,.783.324.945V41.531a.891.891,0,0,1-.432.783Z" transform="translate(128.583 5.294)" fill="#fff"/>
    <path id="Path_3" data-name="Path 3" d="M141.058,45.161c-2.051.459-3.158-.162-3.643-2.24a17.622,17.622,0,0,1-.486-4.129V24.029a11.576,11.576,0,0,0-.162-2.375,7.638,7.638,0,0,0-5.155-6.666,12.82,12.82,0,0,0-3.482-.81,28.041,28.041,0,0,0-12.928,2.51,1.052,1.052,0,0,0-.324.648v4.912c0,.162.162.324.162.486h3.967c0-.162,0-.324-.486-.648a5.4,5.4,0,0,1,4.048-5.641,6.774,6.774,0,0,1,5.236.162,5.236,5.236,0,0,1,2.969,4.777c.162,2.051.162,4.129.162,6.18l-.162.162h-.459c-2.24,0-4.291.162-6.369.324a20.377,20.377,0,0,0-6.828,2.051,9.338,9.338,0,0,0-3.913,12.6h0a7.529,7.529,0,0,0,.432.756,9.554,9.554,0,0,0,10.013,3.967,13.818,13.818,0,0,0,6.8-3.347c.648-.459,1.3-1.107,1.916-1.565a9.388,9.388,0,0,1,.621,1.727A4.507,4.507,0,0,0,136.5,47.59a10.121,10.121,0,0,0,4.912-.486.351.351,0,0,0,.324-.3,7.556,7.556,0,0,0-.162-1.916A1.448,1.448,0,0,1,141.058,45.161Zm-9.986-14.6V41.653a.945.945,0,0,1-.486.81,12.792,12.792,0,0,1-4.777,2.051,6.342,6.342,0,0,1-7.206-5.4,6.494,6.494,0,0,1,0-1.026,7.4,7.4,0,0,1,5.074-7.152,19.837,19.837,0,0,1,7.422-1.107Z" transform="translate(190.497 5.308)" fill="#fff"/>
    <path id="Path_4" data-name="Path 4" d="M128.473,45.425a2.834,2.834,0,0,1-3.428-2.078h0v-.3a15.063,15.063,0,0,1-.324-2.7c-.162-5.236-.162-10.472-.162-15.545a14.949,14.949,0,0,0-.162-2.7,7.773,7.773,0,0,0-6.18-7.422,12.9,12.9,0,0,0-5.56-.486,26.989,26.989,0,0,0-9.824,2.537,1.269,1.269,0,0,0-.351.648v5.074a.513.513,0,0,1,.189.324h3.805a7.586,7.586,0,0,1,0-1.754,5.155,5.155,0,0,1,2.7-3.7,10.8,10.8,0,0,1,3.805-.81,4.993,4.993,0,0,1,5.1,3.67,26.771,26.771,0,0,1,.648,7.935c-.324,0-.486,0-.324.162-1.754.162-3.509.162-5.4.324a18.433,18.433,0,0,0-6.99,1.565,9.311,9.311,0,0,0,4.453,17.948,12.334,12.334,0,0,0,6.99-2.834,30.426,30.426,0,0,0,2.7-2.24,5.965,5.965,0,0,0,3.347,4.777,8.366,8.366,0,0,0,5.938-.324,10.2,10.2,0,0,0-.162-2.213A4.048,4.048,0,0,0,128.473,45.425Zm-9.851-14.844V41.674c0,.324-.162.486-.459.81a14.169,14.169,0,0,1-4.777,2.051,6.342,6.342,0,0,1-7.179-5.236v-.864a7.422,7.422,0,0,1,4.588-7.152,18.622,18.622,0,0,1,7.773-1.268Z" transform="translate(169.886 5.205)" fill="#fff"/>
    <path id="Path_5" data-name="Path 5" d="M96.133,44.028c6.5-8.906,12.847-17.947,19.3-26.827a3.751,3.751,0,0,0,.648-2.861H89.548v7.017h3.077V19.144a7.585,7.585,0,0,1,.189-1.754,1.268,1.268,0,0,1,1.107-.945c.783,0,1.592-.162,2.375-.162h12.847a1.214,1.214,0,0,1-.3.459c-6.531,9.23-13.036,18.271-19.7,27.474a3.346,3.346,0,0,0-.621,2.7h28.392V44.7H95.728a.864.864,0,0,0,.4-.675Z" transform="translate(150.273 5.632)" fill="#fff"/>
    <path id="Path_6" data-name="Path 6" d="M135.1,20.74V14.8H123.82v1.538c1.484.324,2.7.486,4.291.945a1.646,1.646,0,0,1,1.268,1.484,27.689,27.689,0,0,1,.324,3.67V39.821a22.807,22.807,0,0,1-.162,3.32,2.078,2.078,0,0,1-1.916,1.916,22.127,22.127,0,0,0-2.969.3c-.162,0-.459.162-.459.324V47.27h17.6V45.381a3.049,3.049,0,0,0-1.107-.135,20.539,20.539,0,0,1-3.158-.324,2.024,2.024,0,0,1-1.916-2.078,24.9,24.9,0,0,1-.324-3.482c0-4.75.162-9.527,0-14.3a3.941,3.941,0,0,1,.81-2.7,8.609,8.609,0,0,1,6.261-3.32c1.484,0,1.592.162,1.889,1.565.189.81.189,1.916.324,2.7h3.185V14.4C141.983,13.454,138.2,16.152,135.1,20.74Z" transform="translate(210.353 5.412)" fill="#fff"/>
    <path id="Path_7" data-name="Path 7" d="M18.73,14.924a13.035,13.035,0,0,0-6.855,5.56c0,.135-.162.3-.324.459s0-.162-.162-.162v-5.4c0-.459-.162-.621-.621-.621H0s0,.162.324.324a2.7,2.7,0,0,0,.162,1.107c0,.3,0,.459.459.459a14.36,14.36,0,0,1,2.24.324,2.915,2.915,0,0,1,2.537,2.537c0,.81.162,1.916.162,2.7v36.7h5.722V43.5h0a2.7,2.7,0,0,0,.648.783A13.494,13.494,0,0,0,19.675,47.8a11.443,11.443,0,0,0,11.416-6.045,23.373,23.373,0,0,0,2.7-9.689,23.075,23.075,0,0,0-1.134-10.283A10.472,10.472,0,0,0,18.73,14.924Zm8.393,23.8a9.365,9.365,0,0,1-2.375,4.291,6.4,6.4,0,0,1-5.4,1.592,15.734,15.734,0,0,1-7.476-3.185.864.864,0,0,1-.486-.756V23.317a.675.675,0,0,1,.324-.621,11.551,11.551,0,0,1,6.666-4.912,5.937,5.937,0,0,1,6.855,2.537,14.871,14.871,0,0,1,2.4,6.072,26.989,26.989,0,0,1-.513,12.334Z" transform="translate(0 5.372)" fill="#fff"/>
    <path id="Path_8" data-name="Path 8" d="M36.745,16.216A15.572,15.572,0,0,0,27.056,14.3,13.764,13.764,0,0,0,16.45,20.8a19.3,19.3,0,0,0-2.4,14.844A14.925,14.925,0,0,0,29.134,47.9a3.481,3.481,0,0,1,1.484,0h.648a13.494,13.494,0,0,0,10.58-6.99,19.675,19.675,0,0,0,1.889-14.952A14.925,14.925,0,0,0,36.745,16.216Zm-.486,24.911a8.717,8.717,0,0,1-3.32,3.994,6.99,6.99,0,0,1-9.365-1.484,15.141,15.141,0,0,1-3.32-7.314,24.452,24.452,0,0,1,1.134-14.3,11.092,11.092,0,0,1,3.32-4.75,7.1,7.1,0,0,1,9.986.972h0l.351.459A15.437,15.437,0,0,1,38.2,26.471c.324,1.592.324,2.969.486,3.805A23.264,23.264,0,0,1,36.259,41.126Z" transform="translate(22.927 5.348)" fill="#fff"/>
    <path id="Path_9" data-name="Path 9" d="M36.134,9.628c0-.486,0-.648-.648-.648H24.88v1.646a11.767,11.767,0,0,0,3.643.162,2.969,2.969,0,0,1,2.051,2.267,10.2,10.2,0,0,1,.324,2.213c0,5.938,0,11.605-.162,17.462,0,3.185-.162,6.207-.162,9.392v13.6h5.182c.81,0,.81,0,.81-.81,0-7.773-.162-15.707-.162-23.669C36.134,24.121,36.134,16.942,36.134,9.628Z" transform="translate(42.268 -3.474)" fill="#fff"/>
    <path id="Path_10" data-name="Path 10" d="M78.529,14.163c-.513,0-.648,0-.81.486-.648,2.051-1.268,4.129-2.078,6.18C73.1,27.064,70.406,33,67.545,39.1c0,0,0,.162-.324.324a3.831,3.831,0,0,0-.3-.648c-2.537-6.18-5.236-12.523-7.773-18.73a10.147,10.147,0,0,1-.513-3.805V14.163H49.705c-1.484,0-1.268-.162-1.268,1.268v.162s.162.324.3.324a4.615,4.615,0,0,1,3.67,2.861c.459,1.107.783,2.051,1.268,3.185,3.482,8.1,6.828,16.193,10.148,24.128a1.322,1.322,0,0,1,0,1.107,9.636,9.636,0,0,0-.945,2.24c-.648,1.592-1.268,3.158-1.916,4.588a4.7,4.7,0,0,1-2.375,2.24,9.986,9.986,0,0,1-5.236.945c-1.107,0-2.213-.162-3.32-.162s-.972.162-.648,1.107c.486,0,.81.162,1.107.162,1.754,0,3.482.162,5.074.162a13.228,13.228,0,0,0,2.537-.162,5.4,5.4,0,0,0,4.291-3.643c2.375-4.939,4.615-10.175,6.99-15.249,2.969-6.99,6.342-14.142,9.527-21.132.648-1.107,1.268-2.213,1.889-3.482C79.933,14.811,79.15,14.973,78.529,14.163Z" transform="translate(82.269 5.322)" fill="#fff"/>
    <path id="Path_11" data-name="Path 11" d="M62.485,15.522a32.035,32.035,0,0,0-10.957-1.268,13.926,13.926,0,0,0-10.634,6.5,18.082,18.082,0,0,0-1.592,17,14.6,14.6,0,0,0,9.689,9.365,21.186,21.186,0,0,0,13.656-.945c.162,0,.3-.324.3-.486V43.644a1.187,1.187,0,0,0-.783.3,16.031,16.031,0,0,1-8.717.972,10.256,10.256,0,0,1-8.259-7.422,25.424,25.424,0,0,1-1.161-9.851,18.7,18.7,0,0,1,1.808-6.585,8.1,8.1,0,0,1,7.1-5.02A5.1,5.1,0,0,1,58.949,20a12.093,12.093,0,0,1,.513,2.537c0,.486.162.648.648.648h2.375a.432.432,0,0,0,.459-.378h0V16.035C62.917,15.846,62.782,15.684,62.485,15.522Z" transform="translate(64.362 5.394)" fill="#fff"/>
    <path id="Path_12" data-name="Path 12" d="M32,14.46v1.457h1.592a2.915,2.915,0,0,1,1.268.189A2.861,2.861,0,0,1,37.4,18.643c0,.783.162,1.565.162,2.213,0,3.482-.162,6.99-.162,10.391,0,4.615-.162,9.23-.162,13.818V46.55h6.207c-.162-10.634-.162-21.429-.324-32.063Z" transform="translate(54.364 5.835)" fill="#fff"/>
    <rect id="Rectangle_1" data-name="Rectangle 1" width="5.722" height="5.56" transform="translate(91.734 8.528)" fill="#fff"/>
    <ellipse id="Ellipse_1" data-name="Ellipse 1" cx="35.247" cy="35.247" rx="35.247" ry="35.247" transform="translate(374.818)" fill="#0065ff"/>
    <g id="Group_2" data-name="Group 2" transform="translate(396.45 25.092)">
      <path id="Path_13" data-name="Path 13" d="M158.918,29.45a8.339,8.339,0,0,1-1.754,2.456A7.018,7.018,0,0,1,154.9,33.39a4.885,4.885,0,0,1-3.7.324,3.59,3.59,0,0,1-2.24-2.186,4.022,4.022,0,0,1-.3-1.943,3.617,3.617,0,0,1,.621-1.727,6.807,6.807,0,0,1,1.268-1.376c.594-.4,1.215-.783,1.835-1.134A22.563,22.563,0,0,0,156,22.972l-.243-.567a2.7,2.7,0,0,0-1.376-1.646,3.967,3.967,0,0,0-2.7.3,4.048,4.048,0,0,0-2.051,1.484,3.454,3.454,0,0,0-.3,2.375l-2.294.594a6.234,6.234,0,0,1,0-2.7,4.669,4.669,0,0,1,1.43-2.105,9.769,9.769,0,0,1,2.7-1.673,8.907,8.907,0,0,1,2.888-.729,4.237,4.237,0,0,1,1.916.351A4.155,4.155,0,0,1,157.3,19.9a13.05,13.05,0,0,1,.918,1.97l1.215,2.969a32.777,32.777,0,0,0,1.754,3.832,4.992,4.992,0,0,0,1.187,1.322l-2.294.945a5.02,5.02,0,0,1-1.161-1.484ZM156.7,24.592a18.19,18.19,0,0,1-3.239,2.321,8.825,8.825,0,0,0-1.754,1.214,2.105,2.105,0,0,0-.567,1.08,1.862,1.862,0,0,0,0,1.215,2,2,0,0,0,1.268,1.187,2.942,2.942,0,0,0,2.186-.216,4.7,4.7,0,0,0,2.051-1.484,3.59,3.59,0,0,0,.81-2.132,5.778,5.778,0,0,0-.567-2.321Z" transform="translate(-146.895 -12.736)" fill="#fff"/>
      <path id="Path_14" data-name="Path 14" d="M163.427,24.449,165.8,23.8a5.992,5.992,0,0,1-.729,3.913,6.4,6.4,0,0,1-3.266,2.7,6.261,6.261,0,0,1-5.209,0,7.449,7.449,0,0,1-3.751-4.237,7.637,7.637,0,0,1-.4-5.776,6.126,6.126,0,0,1,3.616-3.616,5.965,5.965,0,0,1,4.993,0,7.584,7.584,0,0,1,3.7,4.318l.243.594L155.3,25.664a5.4,5.4,0,0,0,2.7,2.7,4.075,4.075,0,0,0,3.185,0,3.887,3.887,0,0,0,1.808-1.484,4.966,4.966,0,0,0,.432-2.429Zm-8.69-.567,7.233-2.969a4.7,4.7,0,0,0-1.835-2.132,3.616,3.616,0,0,0-3.239-.162,3.887,3.887,0,0,0-2.159,2.078A4.615,4.615,0,0,0,154.736,23.883Z" transform="translate(-138.125 -16.237)" fill="#fff"/>
    </g>
  </g>
</svg>
