<svg xmlns="http://www.w3.org/2000/svg" width="87.8" height="88.727" viewBox="0 0 87.8 88.727">
  <g id="Easier_policies_for_EV_buyers" data-name="Easier policies for EV buyers" transform="translate(-6.1 -5.573)">
    <rect id="Rectangle_199" data-name="Rectangle 199" width="33" height="3.5" transform="translate(57.9 74.8)" fill="#00b26b"/>
    <rect id="Rectangle_200" data-name="Rectangle 200" width="16.5" height="3.5" transform="translate(57.9 80.6)" fill="#00b26b"/>
    <path id="Path_510" data-name="Path 510" d="M37.1,33.1A2.287,2.287,0,0,0,39,30.6c0-1.4-.9-2.6-1.9-2.6a2.287,2.287,0,0,0-1.9,2.5C35.2,31.9,36.1,33.1,37.1,33.1Z" fill="#00b26b"/>
    <path id="Path_511" data-name="Path 511" d="M23.3,28a2.287,2.287,0,0,0-1.9,2.5c0,1.4.8,2.5,1.9,2.5a2.287,2.287,0,0,0,1.9-2.5C25.2,29.1,24.4,28,23.3,28Z" fill="#00b26b"/>
    <path id="Path_512" data-name="Path 512" d="M35.8,38.3H24.6a5.6,5.6,0,0,0,11.2,0Z" fill="#00b26b"/>
    <rect id="Rectangle_201" data-name="Rectangle 201" width="21.9" height="3.5" transform="translate(57.8 52.8)" fill="#00b26b"/>
    <rect id="Rectangle_202" data-name="Rectangle 202" width="33" height="3.5" transform="translate(57.8 63.1)" fill="#00b26b"/>
    <rect id="Rectangle_203" data-name="Rectangle 203" width="33" height="3.5" transform="translate(57.8 68.9)" fill="#00b26b"/>
    <path id="Path_513" data-name="Path 513" d="M53.4,58.5l-9.6-4.3.7-1.9a1.4,1.4,0,0,0-.2-1.4L41,46.7a1.425,1.425,0,0,0-1.2-.6,1.656,1.656,0,0,0-1.2.5l-.6.7v-1a18.916,18.916,0,0,0,6.2-7.9h.5a4.234,4.234,0,0,0,3-1.2,5.79,5.79,0,0,0,1.9-3.5A6,6,0,0,0,48,28.6l-.4-10.2s-.3-9-10.1-9c0,0-.7-4.2-7.6-3.8-6.8.4-17.6,1-18,23a5.716,5.716,0,0,0-1.6,5.1,5.221,5.221,0,0,0,2,3.5,4.6,4.6,0,0,0,3,1.2h.5A18.308,18.308,0,0,0,22,46.3v1l-.6-.7a1.346,1.346,0,0,0-1.2-.5,1.426,1.426,0,0,0-1.2.6L16.1,51a1.4,1.4,0,0,0-.2,1.4l.7,1.9L7,58.5a1.541,1.541,0,0,0-.9,1.3V83a1.538,1.538,0,0,0,1.5,1.5H23.8c-.2,1.2-.4,2.3-.5,3.4a1.3,1.3,0,0,0,.5,1.3l5.3,4.7a1.284,1.284,0,0,0,1,.4h.6a1.433,1.433,0,0,0,1-.4L37,89.2a1.3,1.3,0,0,0,.5-1.3c-.2-1.1-.4-2.2-.5-3.4H53.2A1.538,1.538,0,0,0,54.7,83V59.9A3.531,3.531,0,0,0,53.4,58.5ZM46,32.1l.7-.6a3.056,3.056,0,0,1-.7,3.7,3.112,3.112,0,0,1-.6.4A21.359,21.359,0,0,0,46,32.1Zm-31.6,3a3.535,3.535,0,0,1-1-1.8,2.965,2.965,0,0,1,.3-1.9l.7.7a19.093,19.093,0,0,0,.6,3.3C14.8,35.4,14.6,35.2,14.4,35.1ZM39.8,50l1.7,2.2L37.7,62.9l-1.3-3.5a1.292,1.292,0,0,0-1.2-.9l-1.9-.3ZM25.2,51.1v-3a14.369,14.369,0,0,0,5,1,14.369,14.369,0,0,0,5-1v3l-5,6.2Zm-8-21.8v-1a24.126,24.126,0,0,0,10.6-3.8,28.757,28.757,0,0,1-.8,3c5.3.2,6.2-5.6,6.3-7.2a43.08,43.08,0,0,0,3.8-3.9A28,28,0,0,0,41.7,22,21.656,21.656,0,0,1,43,29.4c0,9.3-5.8,16.8-13,16.8C23,46.1,17.2,38.6,17.2,29.3ZM20.6,50l6.6,8.2-1.9.3a1.594,1.594,0,0,0-1.2.9l-1.3,3.5L19,52.2ZM9.1,81.5V60.8L17.6,57l3.8,10.6a1.5,1.5,0,0,0,1.4,1h0a1.5,1.5,0,0,0,1.4-1l1.7-4.5,1,1.7h0c-.1.7-1.3,8.8-2.5,16.6H9.1Zm42.3,0H36.2c-1.2-7.7-2.5-15.8-2.5-16.6v-.1l1-1.7,1.7,4.5a1.5,1.5,0,0,0,1.4,1h0a1.5,1.5,0,0,0,1.4-1L42.9,57l8.5,3.8Z" fill="#00b26b"/>
    <path id="Path_514" data-name="Path 514" d="M65.9,46.8a3.9,3.9,0,1,1,3.9-3.9A3.842,3.842,0,0,1,65.9,46.8Zm0-5.5a1.6,1.6,0,1,0,1.6,1.6A1.645,1.645,0,0,0,65.9,41.3Z" fill="#00b26b"/>
    <path id="Path_515" data-name="Path 515" d="M90,34.4l-5.4-.7-4.4-4.4c-2.4-2.4-5.1-2.7-7.6-2.7h-.7c-2.9,0-6-.1-8.5,2.7-1,1.1-1.9,2.2-2.8,3.2-.2.2-.2.3-.4.4l-1,.1a3.034,3.034,0,0,0-2.5,1.2l-.5.5v5a2.305,2.305,0,0,0,1.1,2l1.1.7a2.2,2.2,0,0,0,1.3.4h1a5.121,5.121,0,0,1,5.1-5.1,5.188,5.188,0,0,1,5.1,5.1h9a5.1,5.1,0,0,1,10.2,0h2.1c.6,0,1.2-1.8,1.2-1.8a3.371,3.371,0,0,0,.5-1.7h0C93.8,37,93,35,90,34.4ZM63.2,33.1c.6-.7,1.3-1.4,1.9-2.1,1.4-1.6,3.2-1.9,5.2-1.9v4.3Zm9.3.2V29c2.6,0,4.3.3,6,1.9L81,33.5Z" fill="#00b26b"/>
    <path id="Path_516" data-name="Path 516" d="M85,46.8a3.842,3.842,0,0,1-3.9-3.9,3.9,3.9,0,0,1,7.8,0A3.842,3.842,0,0,1,85,46.8Zm0-5.5a1.6,1.6,0,1,0,1.6,1.6A1.58,1.58,0,0,0,85,41.3Z" fill="#00b26b"/>
    <path id="Path_517" data-name="Path 517" d="M82.6,8.8A8.952,8.952,0,0,0,74.5,14H61.8l-3.2,3.7,3.2,3.8,2.4-3,1.7,3,2.1-3,2,3h4.6a9.125,9.125,0,0,0,8.1,5.2,8.985,8.985,0,0,0,8.9-8.9A9.092,9.092,0,0,0,82.6,8.8Zm2.6,11.9a3,3,0,1,1,3-3A3.148,3.148,0,0,1,85.2,20.7Z" fill="#00b26b"/>
  </g>
</svg>
