<svg xmlns="http://www.w3.org/2000/svg" width="72.742" height="67.893" viewBox="0 0 72.742 67.893">
  <g id="Insurance" transform="translate(-2 -4)">
    <g id="Group_366" data-name="Group 366" transform="translate(2 4)">
      <path id="Path_523" data-name="Path 523" d="M30.638,31.637h-.743l.681-2.042a1.214,1.214,0,1,0-2.3-.766L27.06,32.467a1.212,1.212,0,0,0,1.153,1.6h.743L28.275,36.1a1.214,1.214,0,1,0,2.3.766l1.212-3.637a1.212,1.212,0,0,0-1.153-1.6Z" transform="translate(3.309 1.097)" fill="#00b26b"/>
      <path id="Path_524" data-name="Path 524" d="M30.487,25a8.479,8.479,0,0,0-4.849,15.441v8.807a1.212,1.212,0,0,0,1.885,1.009l2.964-1.979,2.964,1.976a1.212,1.212,0,0,0,1.885-1.006V40.441A8.479,8.479,0,0,0,30.487,25Zm2.425,21.983L31.16,45.814a1.212,1.212,0,0,0-1.346,0l-1.752,1.169V41.616a8.4,8.4,0,0,0,4.849,0Zm-2.425-7.434a6.062,6.062,0,1,1,6.062-6.062A6.062,6.062,0,0,1,30.487,39.548Z" transform="translate(2.247 0.46)" fill="#00b26b"/>
      <path id="Path_525" data-name="Path 525" d="M74.717,48.858a8.424,8.424,0,0,0-3.963-6.8l-3.472-2.17A6.955,6.955,0,0,1,65.893,38.7l5.384-.77a1.212,1.212,0,0,0,1.04-1.2V31.885a1.212,1.212,0,0,0-1.212-1.212H62.66l-1.583-5.107A6.055,6.055,0,0,0,55.2,20.973H48.07V16.124h6.062a1.212,1.212,0,0,0,1.212-1.212V8.849A4.849,4.849,0,0,0,50.495,4H10.487a6.069,6.069,0,0,0-6.062,6.062V57.344H3.212A1.212,1.212,0,0,0,2,58.557v2.425a6.069,6.069,0,0,0,6.062,6.062H43.221a4.849,4.849,0,0,0,4.849-4.849h7.274v6.062a3.637,3.637,0,0,0,3.637,3.637h7.274a3.637,3.637,0,0,0,3.637-3.637V62.194h1.212a3.637,3.637,0,0,0,3.637-3.637v-9.3c0-.081-.013-.161-.016-.242,0-.051.016-.1.016-.152Zm-2.415.152a3.637,3.637,0,0,1-3.621,3.486H62.618V51.282a3.637,3.637,0,0,1,3.637-3.637H72.1a6.062,6.062,0,0,1,.2,1.364ZM69.893,33.1v2.586l-5.4.771a7.589,7.589,0,0,1-.3-.864L63.413,33.1ZM55.2,23.4a3.655,3.655,0,0,1,3.544,2.82L61.85,36.242a9.545,9.545,0,0,0,.291.943l-3.273,1.394a7.124,7.124,0,0,1-2.819.58H48.07V23.4ZM48.07,41.583H55.9l-2.811,6.327a3.637,3.637,0,0,1-3.324,2.159h-1.7ZM52.92,8.849V13.7H48.07V8.849a2.425,2.425,0,1,1,4.849,0ZM4.425,60.981V59.769H38.371v2.425a4.8,4.8,0,0,0,.674,2.425H8.062a3.637,3.637,0,0,1-3.637-3.637Zm41.221,1.212a2.425,2.425,0,0,1-4.849,0V58.557a1.212,1.212,0,0,0-1.212-1.212H6.849V10.062a3.637,3.637,0,0,1,3.637-3.637H46.319a4.8,4.8,0,0,0-.674,2.425Zm2.425-3.637V57.344h7.54l.606,2.425H48.07Zm19.4,9.7a1.212,1.212,0,0,1-1.212,1.212V68.256a1.212,1.212,0,0,0-2.425,0v1.212H61.406V68.256a1.212,1.212,0,1,0-2.425,0v1.212a1.212,1.212,0,0,1-1.212-1.212V62.194h1.212v1.212a1.212,1.212,0,1,0,2.425,0V62.194h2.425v1.212a1.212,1.212,0,0,0,2.425,0V62.194h1.212Zm3.637-8.487H58.716l-.983-3.931a1.212,1.212,0,0,0-1.176-.919H48.07V52.495h1.7a6.062,6.062,0,0,0,5.539-3.6l3.424-7.7a9.583,9.583,0,0,0,1.1-.386l3.439-1.467A9.4,9.4,0,0,0,66,41.947l3.472,2.17a6.115,6.115,0,0,1,1.308,1.1H66.256a6.069,6.069,0,0,0-6.062,6.062v2.425a1.212,1.212,0,0,0,1.212,1.212H68.68a6,6,0,0,0,3.637-1.244v4.881A1.212,1.212,0,0,1,71.105,59.769Z" transform="translate(-2 -4)" fill="#00b26b"/>
      <path id="Path_526" data-name="Path 526" d="M37.973,17H22.212a1.212,1.212,0,1,0,0,2.425H37.973a1.212,1.212,0,1,0,0-2.425Z" transform="translate(2.035 -1.239)" fill="#00b26b"/>
      <path id="Path_527" data-name="Path 527" d="M8,22.212a1.212,1.212,0,0,0,1.212,1.212H24.973a1.212,1.212,0,1,0,0-2.425H9.212A1.212,1.212,0,0,0,8,22.212Z" transform="translate(-0.726 -0.39)" fill="#00b26b"/>
      <path id="Path_528" data-name="Path 528" d="M19.062,19.425a1.212,1.212,0,0,0,0-2.425H14.212a1.212,1.212,0,0,0,0,2.425Z" transform="translate(0.336 -1.239)" fill="#00b26b"/>
      <path id="Path_529" data-name="Path 529" d="M37.124,21H26.212a1.212,1.212,0,1,0,0,2.425H37.124a1.212,1.212,0,1,0,0-2.425Z" transform="translate(2.885 -0.39)" fill="#00b26b"/>
      <path id="Path_530" data-name="Path 530" d="M23.761,25H9.212a1.212,1.212,0,1,0,0,2.425H23.761a1.212,1.212,0,1,0,0-2.425Z" transform="translate(-0.726 0.46)" fill="#00b26b"/>
      <path id="Path_531" data-name="Path 531" d="M20.124,29H9.212a1.212,1.212,0,1,0,0,2.425H20.124a1.212,1.212,0,1,0,0-2.425Z" transform="translate(-0.726 1.309)" fill="#00b26b"/>
      <path id="Path_532" data-name="Path 532" d="M21.336,41H9.212a1.212,1.212,0,0,0,0,2.425H21.336a1.212,1.212,0,0,0,0-2.425Z" transform="translate(-0.726 3.858)" fill="#00b26b"/>
      <path id="Path_533" data-name="Path 533" d="M20.156,37.38l-1.6-1.6a1.212,1.212,0,0,0-1.714,0L15.6,37.018l-1.684-3.35a1.212,1.212,0,0,0-2.055-.182L8.242,38.335a1.212,1.212,0,0,0,1.94,1.455l2.45-3.273,1.557,3.1a1.212,1.212,0,0,0,1.94.313l1.57-1.574,1.568,1.568a1.212,1.212,0,0,0,1.68.033l1.212-1.119a1.213,1.213,0,1,0-1.646-1.781Z" transform="translate(-0.726 2.159)" fill="#00b26b"/>
      <path id="Path_534" data-name="Path 534" d="M40.734,8H9.212A1.212,1.212,0,0,0,8,9.212v4.849a1.212,1.212,0,0,0,1.212,1.212H40.734a1.212,1.212,0,0,0,1.212-1.212V9.212A1.212,1.212,0,0,0,40.734,8Zm-1.212,4.849h-29.1V10.425h29.1Z" transform="translate(-0.726 -3.151)" fill="#00b26b"/>
    </g>
  </g>
</svg>
